<?xml version="1.0" encoding="utf-8"?>
<!-- Generator: Adobe Illustrator 17.0.0, SVG Export Plug-In . SVG Version: 6.00 Build 0)  -->
<!DOCTYPE svg PUBLIC "-//W3C//DTD SVG 1.1//EN" "http://www.w3.org/Graphics/SVG/1.1/DTD/svg11.dtd">
<svg version="1.1" id="Layer_1" xmlns="http://www.w3.org/2000/svg" xmlns:xlink="http://www.w3.org/1999/xlink" x="0px" y="0px"
	 width="200px" height="200px" viewBox="0 0 200 200" enable-background="new 0 0 200 200" xml:space="preserve">
<g>
	<g>
		<path fill="#FFFFFF" d="M116.374,148.092c-1.46-0.318-2.927-0.611-4.378-0.97c-0.556-0.137-1.139-0.335-1.596-0.664
			c-0.954-0.686-1.608-0.438-2.134,0.493c-0.194,0.343-0.342,0.712-0.511,1.07c-0.172-0.13-0.344-0.26-0.516-0.391
			c0-3.329,0-6.658,0-9.987c0.073-0.026,0.144-0.054,0.217-0.08c0.139,0.271,0.265,0.551,0.421,0.812
			c1.029,1.72,1.901,3.565,3.131,5.127c2.669,3.39,7.278,4.673,11.245,3.366c3.744-1.233,5.795-4.827,4.913-8.658
			c-0.434-1.886-1.59-3.278-3.315-4.06c-2.013-0.912-4.105-1.649-6.172-2.437c-1.209-0.461-2.455-0.832-3.656-1.314
			c-4.448-1.783-6.932-5.657-6.657-10.327c0.253-4.291,3.185-7.756,7.777-8.916c4.383-1.107,8.669-0.854,12.643,1.553
			c0.552,0.335,0.784,0.086,1.087-0.286c0.371-0.455,0.773-0.885,1.163-1.326c0.083,0.056,0.165,0.114,0.248,0.17
			c0,3.089,0,6.178,0,9.267c-0.084,0.044-0.166,0.089-0.25,0.133c-0.186-0.288-0.417-0.556-0.551-0.865
			c-0.96-2.212-2.159-4.262-3.956-5.908c-2.58-2.365-5.564-3.087-8.914-2.058c-2.668,0.819-4.23,2.678-4.654,5.424
			c-0.411,2.672,0.256,5.033,2.643,6.508c1.577,0.976,3.329,1.699,5.058,2.393c1.926,0.774,3.948,1.314,5.875,2.086
			c6.374,2.556,7.659,7.979,6.156,12.658c-1.284,3.999-4.468,5.936-8.419,6.775c-0.659,0.14-1.32,0.274-1.979,0.411
			C119.651,148.092,118.013,148.092,116.374,148.092z"/>
		<path fill="#FFFFFF" d="M172.708,120.642c-0.277-0.236-0.627-0.424-0.82-0.716c-1.071-1.617-2.057-3.293-3.166-4.884
			c-0.892-1.279-2.16-2.155-3.736-2.268c-2.913-0.209-5.835-0.284-8.887-0.421c0,1.093,0,1.97,0,2.847
			c-0.001,8.907-0.02,17.814,0.008,26.721c0.011,3.514,0.618,4.21,4.047,5.062c0.382,0.095,0.751,0.238,1.127,0.359
			c-0.019,0.094-0.038,0.188-0.055,0.281c-5.473,0-10.946,0-16.419,0c-0.025-0.073-0.049-0.145-0.073-0.219
			c0.238-0.1,0.469-0.231,0.717-0.294c0.627-0.16,1.287-0.218,1.885-0.444c1.636-0.617,2.822-1.629,2.869-3.56
			c0.083-3.41,0.242-6.818,0.265-10.228c0.044-6.449,0.013-12.9,0.011-19.35c0-0.304-0.026-0.607-0.043-0.97
			c-2.354,0-4.66-0.009-6.967,0.003c-2.795,0.014-4.896,1.269-6.365,3.62c-0.913,1.462-1.816,2.93-2.833,4.395
			c0.156-3.22,0.892-6.375,1.287-9.508c9.897,0.926,19.681,0.469,29.459,0.411c1.022-0.006,2.052-0.026,3.063-0.153
			c0.972-0.122,1.926-0.393,3.006-0.624c0.337,2.025,0.66,4.036,1.01,6.041c0.179,1.03,0.406,2.053,0.612,3.079
			C172.708,120.095,172.708,120.368,172.708,120.642z"/>
		<path fill="#FFFFFF" d="M39.903,147.786c-0.193,0.014-0.387,0.04-0.58,0.04c-3.791,0.002-7.582,0.006-11.373-0.009
			c-0.221-0.001-0.44-0.159-0.66-0.243c0.208-0.124,0.401-0.317,0.625-0.361c3.132-0.626,4.473-2.126,4.724-5.378
			c0.654-8.484,0.532-16.984,0.448-25.481c-0.025-2.497-1.565-4.301-3.987-4.888c-0.408-0.099-0.828-0.152-1.233-0.263
			c-0.1-0.027-0.226-0.199-0.222-0.3c0.004-0.089,0.159-0.217,0.269-0.247c0.162-0.043,0.344-0.014,0.517-0.014
			c2.974,0,5.947,0.014,8.92-0.013c0.547-0.005,0.898,0.158,1.256,0.577c7.751,9.084,15.519,18.154,23.284,27.226
			c0.173,0.203,0.358,0.396,0.623,0.687c0.025-0.287,0.056-0.469,0.055-0.65c-0.009-6.764-0.014-13.529-0.04-20.293
			c-0.003-0.789-0.056-1.59-0.193-2.366c-0.473-2.666-2.32-3.889-4.782-4.428c-0.266-0.058-0.551-0.065-0.795-0.17
			c-0.153-0.066-0.245-0.273-0.46-0.53c0.408-0.021,0.604-0.04,0.799-0.04c3.816-0.002,7.632-0.005,11.447,0.009
			c0.227,0.001,0.455,0.144,0.682,0.221c-0.212,0.139-0.408,0.354-0.641,0.406c-2.88,0.65-4.281,2.058-4.543,4.643
			c-0.087,0.862-0.118,1.73-0.168,2.595c-0.536,9.382-0.423,18.772-0.357,28.163c0.003,0.42-0.215,0.842-0.33,1.263
			c-0.436-0.23-0.989-0.359-1.289-0.707c-5.024-5.809-10.008-11.652-15.019-17.473c-4.026-4.675-8.075-9.328-12.116-13.99
			c-0.162-0.186-0.333-0.364-0.58-0.634c-0.034,0.263-0.076,0.439-0.076,0.614c0.006,7.904,0.004,15.809,0.037,23.712
			c0.005,1.234,0.131,2.472,0.279,3.699c0.238,1.96,1.376,3.179,3.265,3.695c0.571,0.156,1.165,0.227,1.739,0.377
			c0.208,0.054,0.387,0.222,0.579,0.339C39.973,147.646,39.937,147.716,39.903,147.786z"/>
		<path fill="#FFFFFF" d="M83.331,114.747c1.377-1.334,2.87-2.78,4.444-4.306c0.103,0.236,0.258,0.549,0.379,0.873
			c3.533,9.442,7.055,18.888,10.601,28.325c0.503,1.338,1.084,2.649,1.699,3.939c0.903,1.898,2.346,3.147,4.481,3.5
			c0.219,0.036,0.414,0.225,0.527,0.572c-4.912,0-9.824,0-14.737,0c-0.026-0.081-0.053-0.162-0.079-0.242
			c0.273-0.106,0.545-0.211,0.819-0.318c0.63-0.245,1.295-0.427,1.88-0.752c0.726-0.404,1.069-1.115,0.807-1.92
			c-1.118-3.43-2.276-6.847-3.454-10.256c-0.068-0.197-0.452-0.404-0.691-0.405c-4.129-0.025-8.257-0.026-12.386,0.003
			c-0.258,0.002-0.658,0.244-0.749,0.471c-1.156,2.875-2.341,5.742-3.368,8.664c-0.915,2.603-0.23,3.614,2.506,4.131
			c0.426,0.08,0.846,0.193,1.269,0.29c-0.013,0.098-0.026,0.196-0.038,0.295c-3.567,0-7.135,0-10.702,0
			c-0.034-0.053-0.068-0.106-0.102-0.159c0.206-0.127,0.397-0.321,0.621-0.37c1.66-0.365,2.989-1.212,3.729-2.759
			c1.777-3.715,3.561-7.431,5.222-11.199c2.349-5.33,4.607-10.699,6.857-16.072C83.162,116.341,83.183,115.517,83.331,114.747z
			 M84.13,117.218c-0.096,0.007-0.191,0.014-0.287,0.02c-2.092,5.071-4.184,10.141-6.321,15.322c4.294,0,8.366,0,12.621,0
			C88.108,127.368,86.119,122.293,84.13,117.218z"/>
	</g>
	<g>
		<path fill="#FFFFFF" d="M22.75,61.113c1.64,0.344,3.33,0.541,4.907,1.074c1.695,0.572,3.303,1.42,4.908,2.23
			c0.484,0.244,0.797,0.299,1.153-0.098c0.511-0.571,1.01-1.154,1.541-1.707c0.173-0.182,0.426-0.287,0.772-0.512
			c0.033,0.426,0.065,0.639,0.065,0.851c0.003,3.394,0.009,6.789-0.011,10.183c-0.001,0.239-0.195,0.476-0.299,0.714
			c-0.17-0.193-0.427-0.357-0.499-0.582c-1.115-3.472-3.029-6.396-5.978-8.567c-6.315-4.649-14.615-3.239-19.143,3.258
			c-2.897,4.158-3.998,8.839-3.779,13.857c0.175,3.998,1.232,7.725,3.672,10.952c5.916,7.825,17.199,7.517,22.966-0.602
			c1.027-1.446,1.805-3.01,2.24-4.737c0.085-0.339,0.147-0.72,0.636-0.522c0,3.765,0,7.518,0,11.522
			c-0.43-0.252-0.715-0.348-0.9-0.541c-0.514-0.535-0.955-1.141-1.491-1.65c-0.169-0.16-0.631-0.239-0.814-0.123
			c-3.159,1.997-6.635,2.914-10.332,3.114c-0.171,0.009-0.339,0.063-0.509,0.097c-0.743,0-1.487,0-2.23,0
			c-0.265-0.043-0.53-0.089-0.795-0.13c-1.657-0.258-3.354-0.367-4.965-0.798C7.432,96.672,2.858,92.854,0.859,86.337
			C0.45,85.004,0.28,83.598,0,82.225c0-1.14,0-2.28,0-3.42c0.045-0.19,0.112-0.379,0.132-0.572
			c0.804-7.762,6.06-14.069,13.59-16.197c1.536-0.434,3.142-0.623,4.716-0.924C19.875,61.113,21.312,61.113,22.75,61.113z"/>
		<path fill="#FFFFFF" d="M124.876,98.639c0.222-0.09,0.441-0.197,0.669-0.267c0.452-0.14,0.916-0.241,1.365-0.391
			c1.604-0.534,2.726-1.445,2.772-3.32c0.087-3.594,0.286-7.186,0.329-10.781c0.059-4.956,0.016-9.912,0.013-14.869
			c0-0.543-0.003-1.088-0.045-1.629c-0.192-2.49-1.151-3.567-3.596-4.078c-0.395-0.082-0.787-0.177-1.177-0.279
			c-0.037-0.009-0.049-0.111-0.133-0.317c0.296-0.048,0.561-0.131,0.826-0.13c7.093,0.026,14.191-0.084,21.278,0.142
			c5.406,0.172,10.116,2.237,13.617,6.524c3.07,3.76,3.933,8.194,3.54,12.914c-0.132,1.579-0.379,3.178-0.824,4.695
			c-1.835,6.252-6.307,9.751-12.419,11.204c-2.581,0.614-5.295,0.84-7.956,0.9c-5.768,0.131-11.541,0.042-17.311,0.037
			c-0.307,0-0.613-0.051-0.92-0.078C124.893,98.823,124.884,98.73,124.876,98.639z M135.969,63.753
			c-0.033,0.29-0.066,0.458-0.07,0.625c-0.113,4.954-0.309,9.909-0.308,14.863c0.001,5.054,0.138,10.111,0.336,15.161
			c0.081,2.066,1.229,3.236,3.306,3.508c1.67,0.218,3.39,0.33,5.065,0.202c5.117-0.391,9.2-2.649,11.569-7.318
			c2.715-5.352,3.18-11.001,1.187-16.682c-1.645-4.69-4.638-8.337-9.527-9.9C143.783,63.016,139.899,63.189,135.969,63.753z"/>
		<path fill="#FFFFFF" d="M58.565,99.233c-8.959-0.003-16.263-5.522-18.329-13.854c-2.84-11.452,4.793-22.085,16.542-23.149
			c5.065-0.459,9.774,0.389,13.827,3.571c5.38,4.224,7.59,9.96,6.897,16.63C76.463,92.42,68.608,99.236,58.565,99.233z
			 M45.996,81.48c0.051,0.645,0.093,1.938,0.267,3.211c0.46,3.369,1.474,6.537,3.552,9.298c4.223,5.61,12.76,6.493,17.557-0.093
			c0.635-0.872,1.211-1.809,1.678-2.78c1.928-4.012,2.564-8.28,2.183-12.679c-0.347-4.012-1.447-7.804-3.978-11.04
			c-2.945-3.765-6.793-5.221-11.443-4.073c-3.777,0.932-6.103,3.643-7.697,7.026C46.556,73.662,46.04,77.205,45.996,81.48z"/>
		<path fill="#FFFFFF" d="M80.685,62.676c0.313-0.027,0.627-0.076,0.939-0.076c2.784-0.006,5.57,0.018,8.354-0.019
			c0.684-0.009,1.112,0.229,1.546,0.738c7.512,8.812,15.041,17.608,22.568,26.407c0.173,0.202,0.36,0.393,0.632,0.689
			c0.052-0.338,0.114-0.554,0.113-0.771c-0.02-6.588-0.047-13.175-0.075-19.764c-0.001-0.306-0.017-0.611-0.031-0.916
			c-0.141-3.217-1.63-4.972-4.799-5.662c-0.38-0.082-0.758-0.172-1.25-0.284c0.711-0.503,11.62-0.588,12.868-0.106
			c-0.512,0.164-0.823,0.292-1.145,0.363c-2.502,0.553-3.92,1.866-4.08,4.399c-0.313,4.944-0.493,9.9-0.581,14.854
			c-0.091,5.126-0.001,10.255-0.014,15.383c-0.001,0.403-0.185,0.807-0.284,1.211c-0.431-0.217-0.981-0.329-1.275-0.666
			c-3.083-3.528-6.123-7.095-9.18-10.646c-5.826-6.768-11.655-13.533-17.482-20.3c-0.11-0.127-0.201-0.269-0.429-0.577
			c-0.064,0.436-0.121,0.646-0.121,0.855c0.009,7.878,0.02,15.758,0.044,23.636c0.003,0.711,0.059,1.426,0.143,2.132
			c0.369,3.122,1.454,4.248,4.565,4.787c0.336,0.059,0.666,0.153,0.999,0.231c-0.014,0.098-0.027,0.195-0.041,0.294
			c-4.123,0-8.244,0-12.367,0c-0.016-0.064-0.032-0.127-0.048-0.191c0.186-0.096,0.362-0.246,0.558-0.28
			c3.829-0.672,4.596-2.746,4.727-5.837c0.231-5.426,0.334-10.858,0.447-16.288c0.051-2.444,0.016-4.89-0.007-7.335
			c-0.032-3.362-1.348-4.972-4.607-5.702c-0.248-0.055-0.483-0.166-0.724-0.25C80.661,62.879,80.673,62.778,80.685,62.676z"/>
		<path fill="#FFFFFF" d="M166.66,98.635c0.222-0.093,0.439-0.2,0.667-0.276c0.577-0.193,1.173-0.339,1.736-0.564
			c1.325-0.528,2.201-1.428,2.331-2.928c0.096-1.114,0.318-2.225,0.325-3.338c0.053-7.437,0.07-14.874,0.076-22.31
			c0.001-0.947-0.072-1.9-0.197-2.84c-0.239-1.807-0.932-2.52-2.725-2.937c-0.577-0.134-1.155-0.271-1.733-0.406
			c-0.001-0.098-0.001-0.198-0.002-0.296c0.255-0.042,0.509-0.121,0.765-0.121c8.795-0.007,17.591-0.01,26.386,0.015
			c0.324,0.001,0.83,0.228,0.941,0.483c1.117,2.575,2.17,5.176,3.241,7.771c-0.067,0.082-0.134,0.164-0.202,0.246
			c-0.242-0.151-0.526-0.262-0.72-0.46c-1.278-1.312-2.489-2.692-3.812-3.955c-1.89-1.805-4.097-3.014-6.785-3.106
			c-2.609-0.09-5.22-0.151-7.828-0.239c-1.004-0.034-1.446,0.388-1.463,1.426c-0.063,3.732-0.189,7.463-0.274,11.195
			c-0.029,1.286-0.004,2.575-0.004,3.985c2.958-0.015,5.839,0.134,8.541-1.157c2.27-1.084,2.998-3.188,3.559-5.406
			c0.076-0.3,0.284-0.566,0.432-0.847c0.104,0.045,0.207,0.091,0.311,0.136c0,5.246,0,10.493,0,15.739
			c-0.069,0.055-0.138,0.11-0.206,0.165c-0.175-0.221-0.406-0.417-0.516-0.667c-0.507-1.146-0.931-2.328-1.476-3.454
			c-0.886-1.831-2.378-3.014-4.371-3.307c-2.029-0.298-4.095-0.342-6.273-0.507c0,2.168-0.034,4.095,0.008,6.02
			c0.061,2.816,0.119,5.634,0.29,8.444c0.115,1.883,0.764,2.485,2.626,2.783c3.113,0.498,6.23,0.38,9.332-0.078
			c3.025-0.447,5.306-2.164,7.142-4.504c0.898-1.145,1.652-2.402,2.5-3.588c0.144-0.202,0.43-0.303,0.65-0.452
			c0.019,0.245,0.103,0.506,0.046,0.732c-0.701,2.76-1.432,5.513-2.13,8.273c-0.13,0.513-0.359,0.702-0.905,0.701
			c-9.882-0.016-19.764-0.011-29.646-0.015c-0.189,0-0.378-0.05-0.567-0.077C166.707,98.822,166.684,98.729,166.66,98.635z"/>
		<path fill="#FFFFFF" d="M180.398,60.132c2.181-2.681,4.336-5.384,6.583-8.009c0.241-0.281,1.087-0.263,1.536-0.087
			c0.483,0.189,0.842,0.717,1.213,1.134c0.034,0.038-0.208,0.39-0.378,0.528c-2.655,2.17-5.314,4.336-7.991,6.479
			c-0.211,0.169-0.56,0.166-0.845,0.244C180.478,60.324,180.438,60.228,180.398,60.132z"/>
	</g>
</g>
</svg>
