<?xml version="1.0" encoding="utf-8"?>
<!-- Generator: Adobe Illustrator 17.0.0, SVG Export Plug-In . SVG Version: 6.00 Build 0)  -->
<!DOCTYPE svg PUBLIC "-//W3C//DTD SVG 1.1//EN" "http://www.w3.org/Graphics/SVG/1.1/DTD/svg11.dtd">
<svg version="1.1" id="Layer_1" xmlns="http://www.w3.org/2000/svg" xmlns:xlink="http://www.w3.org/1999/xlink" x="0px" y="0px"
	 width="200px" height="200px" viewBox="0 0 200 200" enable-background="new 0 0 200 200" xml:space="preserve">
<g>
	<g>
		<defs>
			<path id="SVGID_1_" d="M41.528,78.664l-0.211,1.026c0.242,0.051,0.466,0.137,0.673,0.255c0.856,0.488,1.346,1.493,1.13,2.512
				c-0.05,0.245-0.139,0.471-0.255,0.677c-0.49,0.857-1.492,1.346-2.51,1.131c-0.249-0.053-0.476-0.141-0.681-0.257
				c-0.856-0.489-1.344-1.493-1.128-2.511c0.052-0.249,0.137-0.473,0.254-0.678c0.489-0.856,1.493-1.346,2.515-1.13L41.528,78.664z
				 M60.85,49.987L37.244,76.344c-0.378,0.421-0.708,0.894-0.997,1.4c-1.364,2.436-1.859,5.645-1.054,8.234l10.974,34.179
				c0.755,2.293,2.652,4.361,4.836,5.62c0.785,0.446,1.615,0.786,2.464,0.966L178.403,153.1c2.668,0.558,5.299-0.716,6.583-2.968
				c0.306-0.537,0.534-1.131,0.668-1.764l14.217-67.829c0.556-2.674-0.724-5.307-2.978-6.592c-0.536-0.306-1.127-0.534-1.758-0.665
				L70.202,46.927c-0.545-0.107-1.111-0.158-1.686-0.158C65.708,46.769,62.688,47.994,60.85,49.987"/>
		</defs>
		<use xlink:href="#SVGID_1_"  overflow="visible" fill="#412E81"/>
		<clipPath id="SVGID_2_">
			<use xlink:href="#SVGID_1_"  overflow="visible"/>
		</clipPath>
	</g>
	<g>
		<path fill="#FFFFFF" d="M67.321,89.162c-0.441-0.315-0.948-0.157-0.818-2.416c0.077-1.316-0.149-2.452-0.057-3.443
			c0.356-3.182,0.865-6.726,1.595-10.577c0.691-3.857,0.534-3.475,1.365-7.436c0.15-0.718,0.304-1.829,0.52-3.41
			c0.177-1.592,0.268-2.584,0.402-3.039c0.349-1.292,0.817-1.853,1.303-1.753c0.259,0.056,0.543,0.379,0.783,0.913
			c0.274,0.541,0.486,1.2,0.614,1.888c0.329,1.784,0.397,3.866,0.247,6.255c-0.15,2.387,0.244,1.44-0.675,5.822l-0.83,3.961
			c1.074-1.224,2.096-2.2,2.972-2.854c1.254-0.967,2.348-1.356,3.279-1.158c0.411,0.083,0.756,0.288,1.123,0.585
			c0.365,0.298,0.687,0.804,0.993,1.396c1.026,2.151,1.651,4.921,1.776,8.422c0.106,3.017-0.158,5.952-0.759,8.819l-0.671-0.142
			c-0.857-0.179-1.427-0.429-1.709-0.752c-0.405-0.483-0.63-1.454-0.629-2.948c0.011-1.539,0.086-3.192,0.066-4.958
			c-0.005-2.202-0.515-3.673-1.407-4.429c-1.327,1.875-2.647,3.709-3.938,5.597C71.329,85.823,69.778,90.585,67.321,89.162"/>
		<path fill="#FFFFFF" d="M103.859,85.497c-0.674,0.987-1.454,1.743-2.335,2.227c-2.192,1.169-4.211,2.084-6.008,2.669
			c-2.259,0.738-4.43,1.079-6.481,1.022c-0.772-0.035-1.46-0.095-2.094-0.228c-1.154-0.242-2.009-0.631-2.587-1.211
			c-0.747-0.7-1.111-1.57-1.096-2.57c-0.015-1.048,0.067-1.992,0.26-2.912c0.495-2.363,1.533-4.526,3.151-6.486
			c1.625-1.999,3.523-3.441,5.655-4.331c0.046-0.032,0.577-0.338,1.595-0.92c0.668-0.403,1.219-0.62,1.654-0.656
			c0.206-0.04,0.437-0.035,0.699,0.022c0.335,0.07,0.766,0.244,1.3,0.482c0.534,0.237,1.031,0.468,1.528,0.695
			c1.143,0.493,2.28,1.189,3.377,2.088c1.398,1.13,2.266,2.188,2.632,3.227c0.169,0.496,0.246,1.054,0.271,1.686
			c0.014,0.672-0.037,1.287-0.162,1.888C104.963,83.387,104.495,84.501,103.859,85.497 M100.44,78.971
			c-0.285-0.31-0.654-0.595-1.038-0.802c-0.413-0.255-0.844-0.428-1.294-0.521c-0.857-0.179-1.792-0.169-2.764,0.005
			c-0.97,0.173-1.899,0.52-2.816,0.998c-1.01,0.539-2.024,1.289-3.03,2.374c-1.105,1.188-1.759,2.265-1.967,3.265
			c-0.144,0.681-0.027,1.246,0.334,1.741c0.401,0.502,1.067,0.85,2.076,1.062c1.677,0.353,3.821-0.034,6.498-1.104
			c2.933-1.181,4.553-2.597,4.897-4.237C101.528,80.83,101.256,79.897,100.44,78.971"/>
		<path fill="#FFFFFF" d="M108.264,95.864c-0.046,0.033-0.121,0.019-0.233-0.006c-0.149-0.032-0.262-0.055-0.381-0.038
			c-0.523-0.11-0.849-0.219-0.989-0.291c-0.481-0.309-0.766-0.618-0.781-0.916c-0.053-0.303-0.028-0.797,0.034-1.455
			c0.161-1.512,0.358-3.017,0.623-4.466c0.234-1.498,0.552-3.187,0.954-5.107c0.243-1.16,0.543-3.523,0.937-7.075
			c0.174-1.76,0.393-3.176,0.62-4.257l0.873-4.163c0.218-1.042,0.415-1.795,0.619-2.211c0.204-0.418,0.439-0.618,0.777-0.546
			c0.334,0.067,0.809,0.585,1.35,1.536c0.368,0.661,0.504,1.693,0.412,3.052c-0.072,0.904-0.216,1.96-0.476,3.201
			c-0.586,2.802-0.446,2.497-0.946,5.444c-0.501,2.945-0.989,6.018-1.511,9.256c-0.524,3.23-1.011,5.928-1.473,8.131L108.264,95.864
			z"/>
		<path fill="#FFFFFF" d="M120.964,71.856c-0.354,0.143-0.686,0.185-0.994,0.119c-0.62-0.131-1.13-0.565-1.478-1.332
			c-0.394-0.776-0.511-1.529-0.358-2.264c0.117-0.559,0.389-0.977,0.818-1.252c0.315-0.188,0.648-0.229,0.958-0.164
			c0.575,0.12,1.078,0.59,1.514,1.375c0.43,0.819,0.592,1.585,0.439,2.318C121.745,71.216,121.429,71.624,120.964,71.856"/>
		<path fill="#FFFFFF" d="M117.269,91.337c-0.509,1.876-1.093,3.735-1.837,5.612c-1.294-0.525-2.055-1.345-2.304-2.567
			c-0.077-0.371-0.07-1.895,0.003-4.471c0.033-0.707,0.074-1.459,0.188-2.199c0.127-0.785,0.243-1.524,0.396-2.256
			c0.255-1.216,0.516-2.279,0.757-3.248c0.902-3.367,1.353-5.152,1.404-5.397c0.334,0.072,0.681,0.092,1.037,0.064
			c0.367-0.074,0.722-0.102,1.089-0.176c0.105-0.133,0.226-0.156,0.34-0.132c0.372,0.077,0.668,0.901,0.834,2.512
			c0.206,1.62,0.242,2.743,0.11,3.379l-0.377,1.8C118.307,87.131,117.77,89.51,117.269,91.337"/>
		<path fill="#FFFFFF" d="M140.13,79.394c-0.3,1.065-0.479,1.738-0.522,1.938l-3.606,17.211c-1.095-0.353-2.179-0.748-3.226-1.135
			c-0.448-0.095-1.029,0.077-1.744,0.512c-1.015,0.582-1.593,0.92-1.805,1.001c-0.74,0.18-1.467,0.321-2.219,0.372
			c-0.75,0.05-1.447,0.032-2.079-0.101c-0.71-0.149-1.383-0.458-1.997-0.879c-0.605-0.461-1.131-1.113-1.545-1.911
			c-0.923-1.737-1.183-3.466-0.821-5.187c0.242-1.159,0.747-2.267,1.512-3.319c0.775-1.089,1.779-2.176,3.026-3.293
			c1.101-0.979,2.129-1.601,3.02-1.958c0.892-0.356,1.799-0.416,2.731-0.222c0.858,0.18,1.934,0.615,3.223,1.344
			c0.346-0.721,0.941-2.81,1.744-6.279c0.841-3.458,1.849-5.672,3.062-6.628c1.046,0.763,1.716,1.656,1.955,2.751
			c0.205,0.88,0.174,1.958-0.104,3.279C140.61,77.488,140.396,78.321,140.13,79.394 M133.263,87.649
			c-0.26-0.429-0.63-0.715-1.152-0.824c-1.155-0.243-2.516,0.307-4.111,1.6c-1.596,1.296-2.547,2.685-2.841,4.088
			c-0.093,0.44-0.131,0.807-0.077,1.11c0.052,0.304,0.217,0.633,0.464,0.934c0.249,0.304,0.561,0.493,0.895,0.564
			c0.633,0.133,1.419-0.079,2.397-0.669c0.531-0.306,1.216-0.787,2.056-1.448c0.602-0.458,1.104-0.983,1.563-1.513
			c0.576-0.714,0.952-1.388,1.089-2.028C133.679,88.823,133.572,88.216,133.263,87.649"/>
		<path fill="#FFFFFF" d="M153.415,102.738c-0.242,0.785-0.591,3.008-1.228,2.333c-0.58,1.089-1.875-1.271-2.165-2.293
			c-0.323-0.32,0.371-4.561-0.873-3.274c-0.029-0.048-0.052,0.071-0.1,0.103c-0.407,0.457-0.972,0.381-1.277,0.526
			c-0.257,0.116-1.146,1.012-3.134,1.767c-0.79,0.422-1.45,0.784-1.987,0.755c-0.296,0.105-0.604,0.084-0.845-0.052
			c-0.92-0.067-1.893-0.44-2.256-1.308c-0.902-0.524-1.138-1.62-1.068-2.523c-0.334-0.822-0.115-1.863,0.247-2.666
			c0.15-1.638,0.855-3.329,2.123-4.735c0.229-0.538,2.009-3.091,6.002-6.725c0.96-1.053,1.681-2.071,2.501-2.276
			c0.911-0.811,2.124-1.224,2.87-0.693c0.739-0.18,1.781,0.416,2.081,1.398c0.85,0.596,1.33,2.201,1.255,4.234
			c0.5,1.693,0.054,3.269-0.169,4.518c-0.052,0.992-0.383,2.009-0.517,3.026c-0.526,3.065-0.619,4.801-0.723,5.114
			C153.991,101.102,153.753,102.056,153.415,102.738 M151.944,86.175l-0.373-0.079l-0.502,0.354
			c-0.365,0.257-0.991,0.085-1.397,0.542c-0.341,0.14-0.646,0.66-1.062,1.158c-1.412,1.542-2.518,2.732-3.072,3.701
			c-1.347,1.599-2.104,2.986-2.339,4.108l-0.1,0.479c-0.43,2.041,4.32-0.556,5.522-2.77c2.047-1.033,2.861-3.622,3.126-5.82
			C152.062,87.286,152.391,86.267,151.944,86.175"/>
		<path fill="#FFDE00" d="M83.562,115.128c-0.158,0.193-0.407,0.458-0.75,0.79c-1.073,1.039-2.466,1.74-4.167,2.06
			c-1.749,0.355-3.5,0.351-5.291-0.024c-2.161-0.455-3.972-1.284-5.384-2.53c-1.582-1.369-2.504-3.096-2.776-5.139
			c-0.177-1.209-0.117-2.416,0.128-3.584c0.624-2.982,2.269-5.436,4.93-7.366c2.707-1.96,5.273-2.684,7.772-2.162
			c1.192,0.251,2.247,0.789,3.118,1.647c0.87,0.861,1.558,2.042,1.985,3.53c0.464,1.498,0.592,2.747,0.393,3.698
			c-0.444,2.119-2.638,3.105-6.586,2.817c-2.803-0.18-5.579-0.493-8.364-0.76l-0.191,0.907c-0.08,0.57,0.204,1.263,0.831,1.981
			c0.664,0.725,1.255,1.256,1.786,1.503c0.215,0.087,0.54,0.203,0.944,0.33c0.4,0.133,0.623,0.179,0.661,0.187
			c1.006,0.209,2.217,0.194,3.704-0.037c0.726-0.118,1.452-0.237,2.178-0.357c0.289-0.074,0.902-0.216,1.785-0.529
			c0.918-0.303,1.607-0.429,2.017-0.343c0.486,0.101,0.915,0.463,1.234,0.98c0.348,0.569,0.462,1.138,0.355,1.654
			C83.81,114.684,83.718,114.936,83.562,115.128 M78.677,104.896c0.24-0.579,0.133-1.19-0.346-1.878
			c-0.48-0.686-0.926-1.143-1.384-1.374c-0.459-0.231-0.887-0.412-1.298-0.497c-0.97-0.205-1.936-0.045-2.949,0.512
			c-0.576,0.329-1.447,0.96-2.54,1.904c1.233,0.621,2.613,1.092,4.142,1.411c1.454,0.304,2.907,0.428,4.284,0.357L78.677,104.896z"
			/>
		<path fill="#FFDE00" d="M100.104,122.523c-0.06,0.284-0.126,0.606-0.209,1l-0.067,0.319c-1.455-0.638-2.55-1.615-3.393-2.874
			c-2.114-3.239-3.506-5.095-4.146-5.492c-1.044,1.085-2.565,2.37-4.562,3.855c-1.706,1.245-2.678,1.975-2.912,2.187
			c-0.087-0.28-0.529-0.931-1.231-1.939c-0.487-0.661-0.645-1.29-0.525-1.861c0.097-0.464,0.354-1.008,0.812-1.582
			c0.388-0.478,0.986-1.025,1.779-1.604c1.814-1.298,2.921-2.221,3.312-2.7c0.441-0.506,0.701-1.046,0.819-1.617
			c0.112-0.537,0.102-1.172-0.03-1.91c-0.056-0.198-0.157-0.629-0.306-1.296c-0.151-0.665-0.555-1.72-1.223-3.13
			c-0.534-1.12-0.732-2.019-0.587-2.699c0.057-0.285,0.104-0.5,0.186-0.67c0.084-0.167,0.236-0.435,0.555-0.815
			c0.323-0.381,0.643-0.536,1.059-0.45c0.322,0.067,0.691,0.369,1.017,0.884c0.325,0.516,0.69,1.301,0.956,2.326
			c0.212,0.829,0.531,1.605,0.997,2.374c0.463,0.77,0.981,1.514,1.653,2.214c0.993-1.288,1.787-2.315,2.373-3.05
			c1.106-1.371,2.084-2.137,2.882-2.268c0.453-0.091,0.884-0.074,1.252,0.002c0.552,0.116,0.877,0.407,1.017,0.884
			c0.14,0.476,0.159,1.078,0.01,1.793c-0.158,0.748-0.414,1.515-0.772,2.299c-0.084,0.17-0.273,0.615-0.654,1.284
			c-0.388,0.702-1.114,1.407-2.192,2.188c-0.911,0.669-1.415,1.234-1.527,1.768c-0.106,0.501,0.016,1.083,0.37,1.682
			c0.993,1.7,2.036,3.374,3.083,5.047c0.287,0.695,0.413,1.244,0.462,1.702c0.049,0.457,0.043,0.939-0.062,1.44
			C100.262,121.995,100.21,122.244,100.104,122.523"/>
		<path fill="#FFDE00" d="M122.706,109.625c-0.036-0.206-0.067-0.416-0.096-0.662c-0.046,0.03-0.054,0.071-0.143,0.132
			c-0.017,0.076-0.124,0.215-0.256,0.467c-0.122,0.214-0.169,0.445-0.134,0.652c0.063,0.253,0.069,0.413,0.052,0.491
			c-0.033,0.153-0.11,0.339-0.263,0.508c-0.374,0.482-0.668,0.784-0.954,0.843c-0.128,0.053-0.509,0.014-1.159-0.043
			c-0.66-0.017-1.6-0.174-2.837-0.393c-1.277-0.226-2.293-0.2-3.093,0.075c-0.376,0.121-0.701,0.374-0.885,0.695
			c-0.22,0.313-0.383,0.72-0.486,1.22c-0.073,0.344-0.146,0.691-0.181,1.044c-0.035,0.355-0.064,0.668-0.126,0.975
			c-0.178,0.846-0.453,1.788-0.821,2.793c-0.918,2.531-1.428,4.027-1.532,4.525c-0.185,0.883-0.244,1.712-0.135,2.496l-0.857-0.18
			c-0.821-0.173-1.362-0.368-1.622-0.62c-0.352-0.356-0.605-1.009-0.673-1.983c-0.096-1.024-0.013-2.166,0.252-3.433
			c0.153-0.731,0.46-1.827,0.916-3.255c0.455-1.427,0.755-2.484,0.906-3.215c0.282-1.343,0.124-2.256-0.521-2.713
			c-0.103-0.063-1.077-0.427-2.892-1.049c-1.019-0.334-1.7-0.797-2.065-1.475c-0.364-0.676-0.427-1.492-0.232-2.415
			c0.038-0.191,0.078-0.381,0.156-0.566c0.041-0.194,0.151-0.529,0.382-1.081c0.649,0.255,1.361,0.564,2.158,0.851
			c0.788,0.325,1.517,0.558,2.226,0.708c1.044,0.218,1.858,0.228,2.438,0.07c0.742-0.206,1.237-0.704,1.463-1.415
			c0.263-0.705,0.434-1.392,0.576-2.003c0.739-3.216,3.826-0.799,3.287,1.77c-0.056,0.268-0.095,0.459-0.173,0.646
			c-0.041,0.193-0.081,0.383-0.105,0.5c-0.098,0.458-0.088,0.781,0.067,0.973c0.146,0.232,0.459,0.417,0.898,0.551
			c0.476,0.138,0.766,0.24,0.953,0.279c0.187,0.039,0.372,0.078,0.558,0.117c0.262,0.057,0.599,0.126,1.092,0.188
			c0.491,0.064,0.824,0.134,1.051,0.18c0.859,0.181,1.499,0.475,2.008,0.824c0.505,0.382,0.866,1.062,1.092,2.029
			C122.859,109.818,122.747,109.797,122.706,109.625"/>
		<path fill="#FFDE00" d="M141.464,115.344c-0.131,0.053-0.286,0.062-0.398,0.038c-0.186-0.041-0.46-0.218-0.785-0.525
			c-0.162-0.154-0.333-0.27-0.444-0.293c-0.111-0.025-0.298-0.065-0.514-0.149c-0.215-0.085-0.364-0.117-0.477-0.141
			c-1.154-0.243-2.099-0.2-2.895,0.075c-0.805,0.314-1.683,0.972-2.617,1.899c-2.452,2.409-4.925,4.734-7.361,7.069
			c-0.762,1.043-1.341,1.762-1.736,2.16c-0.729,0.688-1.34,0.999-1.86,0.892c-0.522-0.112-0.964-0.602-1.288-1.471
			c-0.354-0.916-0.504-1.867-0.452-2.861c0.06-1.027,0.227-2.193,0.509-3.536l0.192-0.922c0.298-1.42,0.41-3.078,0.358-5.052
			c-0.089-1.988-0.649-3.896-0.215-5.658c0.251-1.022,0.616-0.989,0.88-1.133c0.436-0.228,1.061,0.418,1.398,0.289
			c0.147,0.23,0.595,0.685,1.358,1.325c0.561,0.478,0.867,1.062,0.917,1.755c0.022,0.446-0.006,1.32-0.076,2.589
			c-0.072,1.268-0.049,2.277,0.142,3.037c0.326-0.252,1.228-1.026,2.637-2.374c1.882-1.73,3.602-2.69,5.16-2.886
			c0.997-0.112,2.072-0.045,3.191,0.188c0.635,0.133,1.185,0.287,1.653,0.468c0.47,0.176,1.005,0.412,1.569,0.691
			c0.563,0.276,1.081,0.784,1.557,1.486c0.504,0.746,0.675,1.422,0.554,1.999C142.318,114.802,142.014,115.138,141.464,115.344"/>
		<path fill="#FFDE00" d="M151.144,132.143c-0.235,0.753-0.564,2.886-1.205,2.23c-0.569,1.045-1.881-1.236-2.182-2.219
			c-0.323-0.31,0.335-4.378-0.895-3.154c-0.03-0.045-0.054,0.071-0.1,0.099c-0.402,0.438-0.968,0.36-1.271,0.496
			c-0.255,0.107-1.135,0.964-3.115,1.671c-0.782,0.396-1.437,0.74-1.976,0.707c-0.294,0.098-0.601,0.077-0.844-0.057
			c-0.919-0.072-1.895-0.435-2.263-1.276c-0.906-0.508-1.152-1.563-1.086-2.43c-0.341-0.792-0.131-1.79,0.224-2.556
			c0.136-1.576,0.826-3.192,2.079-4.53c0.225-0.514,1.983-2.951,5.935-6.413c0.951-1.004,1.661-1.975,2.48-2.165
			c0.902-0.773,2.111-1.158,2.858-0.642c0.737-0.167,1.782,0.413,2.091,1.359c0.85,0.579,1.344,2.125,1.286,4.076
			c0.513,1.634,0.081,3.146-0.132,4.342c-0.044,0.952-0.364,1.928-0.491,2.902c-0.5,2.94-0.577,4.607-0.679,4.904
			C151.707,130.579,151.477,131.492,151.144,132.143 M149.541,116.22l-0.374-0.079l-0.499,0.338
			c-0.363,0.243-0.987,0.074-1.391,0.512c-0.34,0.128-0.638,0.628-1.049,1.104c-1.398,1.468-2.491,2.6-3.036,3.529
			c-1.332,1.524-2.076,2.851-2.301,3.923l-0.099,0.461c-0.411,1.958,4.31-0.499,5.492-2.614c2.034-0.974,2.826-3.453,3.073-5.568
			C149.665,117.292,149.987,116.314,149.541,116.22"/>
		<path fill="#FFDE00" d="M174.809,134.019c-0.722,1.411-1.97,2.352-3.705,2.828c-1.772,0.47-4.63,0.551-8.634,0.153
			c-1.339-0.119-2.433-0.269-3.263-0.402c-0.874-0.105-1.627-0.222-2.299-0.364c-1.454-0.304-2.697-0.684-3.774-1.112
			c-1.07-0.463-1.736-1.002-2.003-1.579c-0.27-0.576-0.312-1.308-0.126-2.189c0.088-0.424,0.23-0.913,0.408-1.397
			c0.709,0.148,2.579,0.7,5.57,1.648c1.498,0.472,2.676,0.801,3.571,0.989c1.676,0.351,3.17,0.463,4.399,0.36
			c1.506-0.125,2.896-0.634,4.12-1.459l-0.33-0.469l-0.784-0.166c-0.237-0.169-0.621-0.372-1.179-0.689
			c-0.556-0.316-1.045-0.578-1.439-0.741c-1.539-0.643-2.659-1.239-3.43-1.84c-1.204-0.933-1.914-2.002-2.203-3.227
			c-0.154-0.752-0.189-1.521-0.037-2.25c0.381-1.803,1.606-3.194,3.705-4.117c2.109-0.959,4.147-1.213,6.162-0.79
			c1.227,0.257,2.209,0.785,2.954,1.5c0.737,0.756,1.148,1.763,1.16,3.007c-2.218-0.182-3.825-0.319-4.864-0.376
			c-1.854-0.069-3.394,0.411-4.576,1.408c4.634,2.212,7.079,3.366,7.352,3.542c2.995,1.87,4.273,3.942,3.808,6.165
			C175.267,132.954,175.078,133.476,174.809,134.019"/>
		<path fill="#FFFFFF" d="M160.33,105.052c0.196-0.304,1.453-2.636,1.578-3.048c0.135-0.452,0.26-0.862,0.339-1.24
			c0.368-1.758,0.222-3.842-0.608-6.201c-0.732-2.076-1.557-4.083-2.282-6.203c-0.812-2.442-0.977-4.618-0.584-6.5
			c1.544,0.627,2.73,1.839,3.614,3.553c0.471,0.927,1.038,2.664,1.722,5.166c0.613,2.273,1.229,3.973,1.828,5.017
			c1.086-1.651,2.218-3.337,3.313-5.03c1.33-2.081,2.227-3.947,2.665-5.474c0.2-0.963,0.406-1.575,0.578-1.844
			c0.22-0.303,0.479-0.425,0.741-0.369c0.298,0.062,0.672,0.315,1.07,0.836c0.558,0.683,0.855,1.49,0.957,2.299
			c0.103,0.806,0.077,1.677-0.124,2.638c-0.141,0.67-0.327,1.374-0.644,2.139c-0.585,1.493-1.631,3.327-3.099,5.511
			c-1.762,2.646-2.884,4.466-3.383,5.365c-0.918,1.776-2.017,3.588-3.281,5.454c-1.578,2.336-0.258,0.164-1.083,1.693
			c-0.829,1.532-1.366,2.425-1.576,2.686c-0.741,0.936-1.629,1.273-2.561,1.079c-0.15-0.032-0.411-0.085-0.728-0.241
			c-0.573-0.249-0.93-0.585-1.128-0.935c-0.199-0.346-0.225-0.789-0.118-1.291c0.08-0.376,0.195-0.746,0.385-1.099
			C157.988,108.896,159.638,106.131,160.33,105.052"/>
		<path fill="#FFDE00" d="M20.271,82.229c0,0-3.374-5.526-4.953-2.752c-1.052,1.848,0.732,4.755,0.311,5.495
			c-0.421,0.74-3.381-1.437-3.705-4.804c-0.321-3.363,0.627-5.458,3.586-4.322C20.886,77.908,20.271,82.229,20.271,82.229"/>
		<path fill="#FFDE00" d="M12.352,83.352c0,0,2.337,4.521,3.701,2.35c1.129-1.802-0.494-5.358-0.04-6.078
			c0.455-0.72,3.904,2.64,4.093,6.002c0.188,3.36-0.884,5.491-3.769,4.179C10.032,86.938,12.352,83.352,12.352,83.352"/>
		<path fill="#FFDE00" d="M40.971,75.759c-1.204-4.851-8.438-10.75-17.577-7.325c-3.868,1.45-6.168,3.857-7.538,6.228
			c0.893,0.141,1.645,0.547,2.274,1.138c1.171-1.861,3.036-3.776,6.009-5.009c7.481-3.104,13.57,1.529,14.569,5.558
			c0.547,2.205,0.419,4.077-0.221,5.643c0.008,0.042,0.015,0.083,0.024,0.126c0.235,1.16,1.025,1.712,1.558,1.959
			C41.385,81.892,41.809,79.134,40.971,75.759 M26.641,88.344c-2.251,0.186-4.081-0.348-5.546-1.191
			c-0.038,0.631-0.104,1.143-0.186,1.47c-0.059,0.236-0.133,0.454-0.213,0.661c1.7,0.85,3.739,1.356,6.154,1.157
			c3.421-0.282,6.564-1.098,9.048-2.488c-0.186-0.588-0.415-1.322-0.673-2.182C32.973,87.242,29.93,88.073,26.641,88.344"/>
		<path fill="#FFDE00" d="M14.49,90.224l1.862,0.908c0,0,0.606,5.062-1.229,9.953c-1.834,4.893-4.844,8.722-4.844,8.722
			l-3.198-1.263c0,0,5.331-5.874,6.452-9.124C14.383,96.96,14.676,93.287,14.49,90.224"/>
		<path fill="#FFDE00" d="M10.883,77.255l-0.101,2.681c0,0-4.345-2.837-7.442-6.616c-4.105-5.007-3.27-10.948-3.27-10.948
			l2.774-0.398c0,0-2.015,3.998,2.161,9.814C7.555,75.338,10.883,77.255,10.883,77.255"/>
		<g opacity="0.25">
			<g>
				<defs>
					<rect id="SVGID_3_" x="38.47" y="81.526" width="2.472" height="2.511"/>
				</defs>
				<clipPath id="SVGID_4_">
					<use xlink:href="#SVGID_3_"  overflow="visible"/>
				</clipPath>
				<path clip-path="url(#SVGID_4_)" fill="#652C90" d="M38.665,81.526c0,0,0.176,0.574,0.993,0.837
					c0.921,0.297,1.285-0.083,1.285-0.083s-0.081,0.453-0.52,1.227c-0.211,0.373-0.41,0.53-0.41,0.53s-0.594,0.018-1.199-1.061
					c-0.29-0.517-0.344-1.046-0.344-1.046L38.665,81.526z"/>
			</g>
		</g>
	</g>
</g>
</svg>
