<?xml version="1.0" encoding="utf-8"?>
<!-- Generator: Adobe Illustrator 17.0.0, SVG Export Plug-In . SVG Version: 6.00 Build 0)  -->
<!DOCTYPE svg PUBLIC "-//W3C//DTD SVG 1.1//EN" "http://www.w3.org/Graphics/SVG/1.1/DTD/svg11.dtd">
<svg version="1.1" id="Layer_1" xmlns="http://www.w3.org/2000/svg" xmlns:xlink="http://www.w3.org/1999/xlink" x="0px" y="0px"
	 width="200px" height="200px" viewBox="0 0 200 200" enable-background="new 0 0 200 200" xml:space="preserve">
<g>
	<path fill="#FFFFFF" d="M149.359,116.278l-0.375-0.079l-0.501,0.339c-0.365,0.244-0.991,0.075-1.396,0.514
		c-0.341,0.129-0.64,0.63-1.053,1.108c-1.403,1.473-2.5,2.61-3.047,3.542c-1.336,1.529-2.084,2.862-2.309,3.937l-0.099,0.462
		c-0.413,1.965,4.325-0.501,5.511-2.623c2.042-0.978,2.836-3.466,3.084-5.588C149.483,117.354,149.807,116.372,149.359,116.278z"/>
	<path fill="#FFFFFF" d="M148.436,93.645c2.054-1.037,2.872-3.635,3.138-5.841c0.315-0.564,0.646-1.586,0.197-1.679l-0.374-0.079
		l-0.504,0.356c-0.367,0.258-0.994,0.085-1.402,0.543c-0.343,0.14-0.648,0.662-1.065,1.162c-1.417,1.547-2.527,2.741-3.083,3.714
		c-1.351,1.605-2.112,2.996-2.347,4.123l-0.101,0.481C142.462,98.474,147.229,95.868,148.436,93.645z"/>
	<path fill="#FFFFFF" d="M78.148,105.35l0.091-0.437c0.241-0.581,0.133-1.194-0.348-1.884c-0.482-0.688-0.929-1.147-1.389-1.379
		c-0.46-0.232-0.89-0.414-1.303-0.499c-0.974-0.206-1.943-0.045-2.959,0.514c-0.578,0.33-1.452,0.963-2.55,1.911
		c1.237,0.624,2.622,1.096,4.157,1.416C75.307,105.296,76.766,105.421,78.148,105.35z"/>
	<path fill="#FFFFFF" d="M89.544,87.046c1.683,0.354,3.835-0.035,6.521-1.107c2.944-1.186,4.569-2.606,4.915-4.252
		c0.194-0.925-0.08-1.861-0.899-2.791c-0.286-0.311-0.656-0.597-1.042-0.805c-0.415-0.256-0.847-0.43-1.299-0.523
		c-0.86-0.18-1.798-0.169-2.773,0.005c-0.974,0.173-1.906,0.522-2.826,1.001c-1.013,0.541-2.031,1.294-3.041,2.383
		c-1.109,1.193-1.765,2.273-1.974,3.277c-0.144,0.683-0.027,1.25,0.335,1.747C87.864,86.484,88.532,86.834,89.544,87.046z"/>
	<path fill="#FFFFFF" d="M125.279,94.536c0.249,0.306,0.563,0.495,0.898,0.566c0.635,0.134,1.424-0.079,2.406-0.672
		c0.533-0.307,1.22-0.79,2.063-1.453c0.604-0.46,1.107-0.986,1.569-1.518c0.578-0.717,0.956-1.393,1.093-2.035
		c0.132-0.641,0.025-1.251-0.285-1.82c-0.261-0.431-0.632-0.718-1.156-0.827c-1.16-0.244-2.525,0.308-4.125,1.606
		c-1.602,1.301-2.556,2.695-2.852,4.103c-0.093,0.441-0.131,0.809-0.077,1.114C124.865,93.904,125.031,94.234,125.279,94.536z"/>
	<path fill="#FFFFFF" d="M196.881,73.855c-0.538-0.307-1.131-0.536-1.764-0.667L69.734,46.736c-0.547-0.107-1.115-0.158-1.692-0.158
		c-2.818,0-5.849,1.229-7.694,3.23L39.759,72.796c-2.741-3.937-8.889-7.246-16.281-4.475c-3.882,1.455-6.19,3.871-7.565,6.25
		c0.897,0.141,1.651,0.549,2.283,1.142c1.175-1.867,3.047-3.789,6.031-5.027c6.478-2.688,11.914,0.406,13.928,3.903l-1.496,1.67
		c-0.379,0.422-0.711,0.897-1,1.405c-1.369,2.445-1.866,5.665-1.058,8.264l0.064,0.199c-2.174,1.22-4.947,1.93-7.926,2.175
		c-2.26,0.186-4.095-0.349-5.566-1.195c-0.039,0.633-0.105,1.147-0.187,1.476c-0.059,0.237-0.133,0.455-0.214,0.664
		c1.706,0.853,3.752,1.361,6.176,1.161c3.131-0.258,6.024-0.968,8.402-2.148l10.265,31.971c0.758,2.301,2.662,4.377,4.853,5.64
		c0.788,0.448,1.621,0.789,2.473,0.97l125.386,26.452c2.678,0.56,5.318-0.719,6.606-2.978c0.307-0.539,0.536-1.136,0.671-1.77
		l14.268-68.073C200.428,77.787,199.143,75.144,196.881,73.855z M38.793,81.459c-0.097,0.451-0.404,1.093-0.621,1.509
		c-0.235-0.458-0.324-0.993-0.209-1.537c0.052-0.25,0.138-0.475,0.255-0.681c0.218-0.381,0.541-0.684,0.919-0.891
		C39.138,79.86,39.138,79.86,38.793,81.459z M42.554,82.394c-0.05,0.246-0.139,0.473-0.256,0.68
		c-0.369,0.646-1.373,0.848-1.84,0.913v0c0,0,1.259-2.168,1.052-4.053C42.31,80.442,42.763,81.409,42.554,82.394z M157.384,110.148
		c0.081-0.378,0.195-0.748,0.386-1.103c0.066-0.117,1.722-2.892,2.417-3.975c0.197-0.305,1.458-2.645,1.583-3.059
		c0.136-0.453,0.261-0.866,0.34-1.245c0.37-1.764,0.222-3.856-0.61-6.224c-0.735-2.083-1.563-4.098-2.29-6.226
		c-0.814-2.45-0.98-4.635-0.586-6.523c1.549,0.629,2.74,1.845,3.627,3.566c0.472,0.93,1.042,2.673,1.729,5.185
		c0.615,2.281,1.234,3.987,1.835,5.035c1.089-1.657,2.226-3.349,3.325-5.048c1.335-2.089,2.235-3.961,2.675-5.493
		c0.201-0.967,0.408-1.58,0.581-1.851c0.221-0.304,0.48-0.426,0.744-0.37c0.299,0.063,0.674,0.316,1.074,0.839
		c0.56,0.686,0.858,1.495,0.961,2.307c0.103,0.809,0.078,1.683-0.125,2.647c-0.141,0.673-0.328,1.378-0.647,2.147
		c-0.587,1.498-1.637,3.339-3.11,5.53c-1.769,2.656-2.894,4.482-3.395,5.385c-0.921,1.782-2.024,3.601-3.293,5.474
		c-0.525,0.778-0.73,1.056-0.8,1.139c-0.028,0.066-0.106,0.224-0.287,0.56c-0.832,1.537-1.371,2.433-1.582,2.696
		c-0.744,0.939-1.635,1.278-2.57,1.083c-0.15-0.032-0.412-0.085-0.73-0.242c-0.575-0.25-0.933-0.587-1.132-0.939
		C157.303,111.097,157.277,110.652,157.384,110.148z M146.661,84.591c0.964-1.056,1.687-2.079,2.51-2.284
		c0.915-0.814,2.132-1.229,2.88-0.695c0.742-0.18,1.787,0.417,2.088,1.403c0.853,0.598,1.335,2.209,1.26,4.249
		c0.502,1.699,0.054,3.281-0.17,4.535c-0.053,0.996-0.384,2.017-0.519,3.037c-0.528,3.076-0.622,4.818-0.725,5.132
		c-0.162,1.139-0.401,2.097-0.739,2.781c-0.243,0.788-0.593,3.019-1.233,2.342c-0.582,1.093-1.882-1.276-2.173-2.302
		c-0.325-0.321,0.372-4.577-0.876-3.286c-0.029-0.048-0.053,0.071-0.101,0.104c-0.408,0.459-0.975,0.383-1.281,0.528
		c-0.258,0.117-1.15,1.016-3.145,1.773c-0.793,0.424-1.455,0.786-1.995,0.757c-0.297,0.106-0.606,0.084-0.848-0.052
		c-0.924-0.067-1.9-0.442-2.265-1.313c-0.905-0.526-1.142-1.626-1.072-2.532c-0.335-0.825-0.116-1.87,0.248-2.676
		c0.15-1.644,0.858-3.341,2.131-4.752C140.868,90.8,142.654,88.238,146.661,84.591z M124.834,84.546
		c1.105-0.983,2.137-1.606,3.03-1.965c0.895-0.358,1.806-0.418,2.741-0.222c0.861,0.18,1.941,0.618,3.234,1.349
		c0.348-0.724,0.944-2.82,1.751-6.302c0.844-3.47,1.855-5.692,3.073-6.652c1.05,0.766,1.723,1.662,1.962,2.761
		c0.206,0.883,0.174,1.965-0.104,3.291c-0.126,0.603-0.34,1.439-0.607,2.516c-0.301,1.069-0.481,1.744-0.524,1.945l-3.619,17.273
		c-1.098-0.354-2.187-0.751-3.238-1.139c-0.45-0.095-1.033,0.078-1.75,0.514c-1.018,0.585-1.599,0.923-1.812,1.004
		c-0.743,0.181-1.472,0.322-2.227,0.373c-0.752,0.05-1.452,0.032-2.086-0.102c-0.712-0.149-1.388-0.459-2.004-0.883
		c-0.607-0.462-1.135-1.117-1.551-1.918c-0.926-1.743-1.187-3.479-0.824-5.206c0.243-1.163,0.749-2.275,1.517-3.331
		C122.574,86.757,123.582,85.667,124.834,84.546z M117.84,68.265c0.117-0.561,0.39-0.98,0.821-1.257
		c0.316-0.189,0.65-0.23,0.962-0.164c0.577,0.12,1.082,0.592,1.52,1.38c0.432,0.822,0.594,1.591,0.44,2.326
		c-0.119,0.562-0.437,0.971-0.903,1.204c-0.355,0.144-0.688,0.186-0.997,0.119c-0.623-0.132-1.134-0.567-1.483-1.336
		C117.804,69.759,117.686,69.003,117.84,68.265z M113.006,87.667c0.127-0.788,0.244-1.529,0.398-2.264
		c0.256-1.22,0.518-2.287,0.76-3.259c0.905-3.379,1.358-5.171,1.409-5.416c0.335,0.072,0.683,0.092,1.041,0.064
		c0.368-0.074,0.725-0.102,1.093-0.177c0.105-0.133,0.227-0.157,0.341-0.133c0.374,0.078,0.67,0.904,0.837,2.521
		c0.207,1.626,0.243,2.753,0.11,3.391l-0.378,1.807c-0.605,2.884-1.144,5.271-1.647,7.104c-0.511,1.882-1.097,3.748-1.843,5.633
		c-1.298-0.527-2.062-1.35-2.312-2.577c-0.077-0.373-0.07-1.901,0.003-4.487C112.851,89.165,112.892,88.41,113.006,87.667z
		 M105.574,93.132c0.161-1.517,0.36-3.028,0.626-4.482c0.235-1.503,0.554-3.198,0.957-5.125c0.244-1.165,0.545-3.536,0.941-7.101
		c0.175-1.767,0.394-3.188,0.622-4.273l0.876-4.178c0.219-1.046,0.417-1.801,0.621-2.219c0.205-0.42,0.441-0.62,0.78-0.548
		c0.335,0.068,0.812,0.587,1.355,1.542c0.369,0.663,0.505,1.699,0.413,3.063c-0.072,0.907-0.216,1.967-0.478,3.212
		c-0.588,2.812-0.448,2.506-0.949,5.464c-0.503,2.956-0.993,6.04-1.516,9.289c-0.525,3.242-1.015,5.95-1.478,8.161l-0.411-0.088
		c-0.046,0.033-0.121,0.019-0.234-0.006c-0.149-0.032-0.263-0.055-0.383-0.039c-0.525-0.11-0.852-0.22-0.993-0.292
		c-0.483-0.311-0.769-0.62-0.784-0.92C105.487,94.288,105.512,93.792,105.574,93.132z M83.098,84.438
		c0.497-2.371,1.538-4.542,3.162-6.509c1.631-2.006,3.536-3.453,5.676-4.347c0.046-0.032,0.579-0.339,1.601-0.923
		c0.671-0.405,1.223-0.622,1.66-0.658c0.207-0.04,0.438-0.035,0.701,0.022c0.336,0.071,0.768,0.244,1.304,0.483
		c0.536,0.238,1.035,0.469,1.533,0.697c1.147,0.495,2.288,1.193,3.389,2.095c1.403,1.134,2.274,2.196,2.641,3.238
		c0.17,0.497,0.247,1.058,0.272,1.692c0.014,0.674-0.037,1.292-0.163,1.895c-0.254,1.204-0.723,2.322-1.361,3.321
		c-0.676,0.991-1.459,1.749-2.344,2.235c-2.199,1.174-4.226,2.092-6.029,2.679c-2.267,0.741-4.446,1.083-6.505,1.025
		c-0.775-0.035-1.465-0.096-2.102-0.229c-1.158-0.243-2.016-0.633-2.596-1.216c-0.75-0.703-1.115-1.576-1.1-2.579
		C82.822,86.309,82.905,85.361,83.098,84.438z M65.964,83.243c0.357-3.194,0.868-6.75,1.601-10.615
		c0.694-3.871,0.536-3.488,1.37-7.462c0.15-0.721,0.305-1.835,0.522-3.422c0.178-1.598,0.269-2.594,0.404-3.05
		c0.35-1.297,0.82-1.86,1.307-1.759c0.26,0.056,0.545,0.38,0.785,0.916c0.275,0.543,0.487,1.204,0.616,1.895
		c0.33,1.791,0.398,3.88,0.248,6.278c-0.151,2.396,0.245,1.445-0.677,5.843l-0.833,3.975c1.078-1.229,2.104-2.208,2.982-2.864
		c1.259-0.97,2.356-1.36,3.291-1.162c0.413,0.084,0.759,0.289,1.127,0.587c0.366,0.299,0.689,0.807,0.996,1.401
		c1.03,2.159,1.657,4.939,1.783,8.452c0.106,3.028-0.158,5.973-0.762,8.851l-0.674-0.143c-0.861-0.18-1.432-0.43-1.715-0.755
		c-0.407-0.485-0.632-1.459-0.631-2.958c0.011-1.544,0.086-3.204,0.067-4.975c-0.005-2.21-0.517-3.687-1.412-4.445
		c-1.332,1.882-2.656,3.723-3.952,5.617c-1.54,2.326-3.097,7.105-5.563,5.678c-0.443-0.316-0.952-0.158-0.821-2.424
		C66.099,85.378,65.872,84.239,65.964,83.243z M78.207,118.043c-1.755,0.357-3.512,0.352-5.31-0.024
		c-2.168-0.457-3.986-1.288-5.404-2.539c-1.588-1.374-2.513-3.107-2.786-5.158c-0.177-1.213-0.117-2.424,0.128-3.597
		c0.626-2.992,2.277-5.456,4.948-7.393c2.717-1.967,5.292-2.694,7.8-2.17c1.196,0.252,2.255,0.791,3.129,1.653
		c0.874,0.864,1.563,2.049,1.992,3.543c0.466,1.504,0.594,2.757,0.394,3.711c-0.445,2.127-2.647,3.116-6.609,2.827
		c-2.813-0.181-5.6-0.495-8.394-0.763l-0.192,0.91c-0.08,0.572,0.204,1.267,0.834,1.988c0.667,0.727,1.26,1.26,1.793,1.508
		c0.216,0.087,0.542,0.203,0.947,0.331c0.401,0.134,0.625,0.18,0.664,0.188c1.01,0.209,2.225,0.195,3.717-0.037
		c0.729-0.119,1.458-0.238,2.185-0.358c0.29-0.075,0.905-0.217,1.792-0.531c0.922-0.304,1.613-0.431,2.025-0.344
		c0.488,0.102,0.919,0.465,1.239,0.984c0.349,0.572,0.464,1.142,0.357,1.66c-0.064,0.304-0.157,0.557-0.314,0.75
		c-0.159,0.194-0.408,0.459-0.753,0.793C81.312,117.019,79.914,117.722,78.207,118.043z M101.236,104.423
		c-0.158,0.751-0.416,1.521-0.775,2.308c-0.085,0.17-0.274,0.617-0.656,1.288c-0.39,0.704-1.118,1.412-2.199,2.196
		c-0.914,0.671-1.42,1.239-1.533,1.774c-0.106,0.503,0.016,1.087,0.371,1.688c0.997,1.706,2.044,3.386,3.094,5.065
		c0.288,0.697,0.415,1.248,0.463,1.708c0.049,0.459,0.043,0.943-0.062,1.445c-0.037,0.179-0.089,0.43-0.196,0.709
		c-0.06,0.285-0.126,0.609-0.21,1.003l-0.067,0.32c-1.46-0.64-2.559-1.62-3.405-2.884c-2.122-3.25-3.519-5.114-4.161-5.512
		c-1.048,1.089-2.574,2.379-4.578,3.869c-1.712,1.25-2.687,1.982-2.922,2.194c-0.087-0.281-0.531-0.935-1.236-1.946
		c-0.489-0.664-0.647-1.294-0.527-1.868c0.098-0.466,0.355-1.012,0.815-1.588c0.389-0.48,0.989-1.029,1.785-1.61
		c1.82-1.303,2.932-2.229,3.323-2.71c0.443-0.507,0.703-1.05,0.822-1.622c0.113-0.538,0.103-1.177-0.031-1.917
		c-0.056-0.199-0.158-0.631-0.307-1.3c-0.152-0.667-0.557-1.726-1.227-3.141c-0.536-1.124-0.735-2.026-0.59-2.708
		c0.058-0.286,0.104-0.502,0.187-0.672c0.084-0.168,0.237-0.436,0.557-0.818c0.324-0.383,0.645-0.538,1.063-0.452
		c0.324,0.068,0.694,0.37,1.021,0.888c0.326,0.518,0.693,1.305,0.96,2.334c0.212,0.832,0.533,1.611,1,2.382
		c0.465,0.772,0.984,1.519,1.658,2.222c0.997-1.292,1.793-2.323,2.382-3.061c1.11-1.376,2.091-2.145,2.892-2.276
		c0.455-0.091,0.887-0.074,1.257,0.002c0.554,0.117,0.88,0.409,1.021,0.888C101.366,103.101,101.386,103.705,101.236,104.423z
		 M133.094,116.306c-2.461,2.418-4.943,4.751-7.387,7.094c-0.765,1.046-1.346,1.768-1.742,2.168
		c-0.731,0.69-1.345,1.003-1.867,0.895c-0.524-0.112-0.968-0.604-1.292-1.477c-0.356-0.919-0.506-1.874-0.454-2.871
		c0.06-1.03,0.228-2.201,0.511-3.549l0.193-0.925c0.299-1.425,0.412-3.089,0.359-5.07c-0.015-0.339-0.044-0.676-0.08-1.01
		c-0.262,0.304-0.488,0.494-0.708,0.539c-0.128,0.054-0.511,0.014-1.164-0.044c-0.662-0.017-1.606-0.174-2.847-0.395
		c-1.281-0.227-2.302-0.2-3.104,0.076c-0.377,0.122-0.703,0.375-0.889,0.697c-0.221,0.314-0.384,0.723-0.488,1.224
		c-0.073,0.345-0.146,0.693-0.182,1.048c-0.035,0.356-0.064,0.671-0.126,0.978c-0.179,0.849-0.455,1.794-0.823,2.803
		c-0.922,2.54-1.433,4.041-1.537,4.542c-0.185,0.886-0.244,1.719-0.136,2.505l-0.86-0.18c-0.823-0.173-1.367-0.37-1.628-0.623
		c-0.353-0.357-0.607-1.012-0.676-1.99c-0.096-1.028-0.013-2.174,0.253-3.445c0.154-0.733,0.462-1.834,0.919-3.267
		c0.457-1.432,0.758-2.493,0.91-3.226c0.283-1.348,0.124-2.264-0.523-2.722c-0.103-0.063-1.08-0.428-2.903-1.053
		c-1.023-0.335-1.706-0.8-2.073-1.481c-0.366-0.679-0.429-1.498-0.233-2.424c0.039-0.192,0.078-0.383,0.157-0.568
		c0.041-0.195,0.152-0.531,0.384-1.085c0.651,0.256,1.366,0.566,2.166,0.854c0.791,0.326,1.522,0.56,2.234,0.711
		c1.047,0.219,1.865,0.229,2.447,0.07c0.744-0.207,1.241-0.706,1.468-1.421c0.264-0.708,0.436-1.397,0.578-2.01
		c0.741-3.227,3.84-0.802,3.299,1.777c-0.057,0.269-0.096,0.461-0.173,0.648c-0.041,0.193-0.081,0.384-0.105,0.502
		c-0.098,0.46-0.088,0.784,0.068,0.976c0.147,0.233,0.46,0.418,0.901,0.553c0.477,0.139,0.768,0.241,0.956,0.28
		c0.188,0.039,0.373,0.078,0.56,0.117c0.263,0.057,0.601,0.126,1.096,0.189c0.493,0.064,0.827,0.135,1.055,0.181
		c0.593,0.125,1.08,0.304,1.494,0.518c0.025-0.176,0.056-0.35,0.098-0.523c0.252-1.025,0.618-0.993,0.883-1.137
		c0.438-0.229,1.065,0.42,1.403,0.29c0.148,0.231,0.597,0.688,1.363,1.33c0.563,0.479,0.87,1.066,0.92,1.761
		c0.022,0.448-0.006,1.325-0.076,2.599c-0.072,1.273-0.049,2.285,0.143,3.048c0.327-0.253,1.232-1.029,2.646-2.383
		c1.889-1.737,3.615-2.7,5.179-2.896c1.001-0.113,2.08-0.045,3.202,0.189c0.637,0.134,1.189,0.288,1.659,0.469
		c0.472,0.177,1.008,0.414,1.575,0.694c0.565,0.277,1.085,0.787,1.562,1.491c0.506,0.748,0.678,1.427,0.556,2.007
		c-0.105,0.501-0.41,0.838-0.962,1.045c-0.131,0.053-0.287,0.062-0.399,0.038c-0.187-0.041-0.461-0.218-0.788-0.527
		c-0.163-0.154-0.334-0.271-0.446-0.294c-0.112-0.026-0.299-0.065-0.516-0.149c-0.216-0.085-0.365-0.117-0.479-0.142
		c-1.158-0.244-2.106-0.201-2.905,0.076C134.912,114.716,134.031,115.376,133.094,116.306z M175.283,132.571
		c-0.106,0.502-0.295,1.025-0.565,1.57c-0.725,1.416-1.977,2.361-3.718,2.838c-1.778,0.472-4.647,0.553-8.665,0.154
		c-1.344-0.119-2.442-0.27-3.275-0.403c-0.877-0.105-1.633-0.223-2.307-0.365c-1.459-0.306-2.707-0.686-3.787-1.116
		c-1.074-0.464-1.742-1.005-2.01-1.584c-0.089-0.19-0.151-0.398-0.19-0.622c-0.222,0.886-0.528,1.944-1.006,1.455
		c-0.571,1.049-1.888-1.24-2.19-2.227c-0.325-0.311,0.336-4.394-0.898-3.165c-0.03-0.045-0.054,0.071-0.101,0.1
		c-0.404,0.439-0.972,0.361-1.276,0.498c-0.256,0.107-1.139,0.967-3.126,1.677c-0.785,0.397-1.443,0.743-1.983,0.71
		c-0.295,0.099-0.603,0.077-0.847-0.057c-0.922-0.072-1.902-0.437-2.271-1.281c-0.909-0.51-1.156-1.569-1.09-2.439
		c-0.342-0.795-0.131-1.796,0.225-2.565c0.136-1.581,0.829-3.203,2.087-4.546c0.226-0.516,1.99-2.961,5.956-6.436
		c0.954-1.007,1.667-1.982,2.489-2.173c0.905-0.776,2.118-1.162,2.868-0.644c0.739-0.168,1.788,0.415,2.099,1.364
		c0.853,0.581,1.349,2.133,1.29,4.09c0.515,1.639,0.081,3.157-0.132,4.357c-0.044,0.956-0.366,1.935-0.492,2.912
		c-0.502,2.951-0.579,4.623-0.681,4.921c-0.026,0.192-0.056,0.376-0.088,0.556c0.889,0.224,2.639,0.748,5.231,1.569
		c1.503,0.474,2.686,0.804,3.584,0.992c1.682,0.352,3.181,0.464,4.415,0.361c1.511-0.126,2.907-0.637,4.135-1.464l-0.331-0.47
		l-0.786-0.167c-0.238-0.169-0.624-0.373-1.183-0.691c-0.558-0.317-1.049-0.58-1.444-0.744c-1.545-0.645-2.669-1.244-3.442-1.847
		c-1.209-0.936-1.921-2.009-2.211-3.238c-0.154-0.755-0.19-1.526-0.037-2.258c0.383-1.81,1.611-3.206,3.719-4.131
		c2.116-0.962,4.162-1.217,6.184-0.793c1.232,0.258,2.217,0.787,2.965,1.505c0.739,0.759,1.152,1.769,1.164,3.018
		c-2.226-0.182-3.838-0.32-4.881-0.377c-1.861-0.069-3.406,0.412-4.593,1.413c4.651,2.22,7.105,3.379,7.379,3.555
		C174.468,128.26,175.75,130.34,175.283,132.571z"/>
	<path fill="#FFFFFF" d="M15.565,75.759c-2.969-1.14-3.921,0.962-3.599,4.338c0.326,3.38,3.296,5.564,3.719,4.821
		c0.423-0.743-1.368-3.66-0.312-5.515c1.585-2.784,4.971,2.762,4.971,2.762S20.961,77.829,15.565,75.759z"/>
	<path fill="#FFFFFF" d="M16.07,79.551c-0.456,0.722,1.173,4.291,0.04,6.099c-1.369,2.179-3.714-2.359-3.714-2.359
		s-2.329,3.599,3.999,6.476c2.896,1.317,3.972-0.822,3.783-4.194C19.989,82.201,16.527,78.828,16.07,79.551z"/>
	<path fill="#FFFFFF" d="M14.541,90.189c0.187,3.074-0.107,6.76-0.96,9.229c-1.125,3.261-6.475,9.157-6.475,9.157l3.209,1.268
		c0,0,3.02-3.843,4.861-8.754c1.841-4.908,1.233-9.988,1.233-9.988L14.541,90.189z"/>
	<path fill="#FFFFFF" d="M10.922,77.173c0,0-3.34-1.924-5.899-5.487c-4.192-5.837-2.169-9.849-2.169-9.849l-2.784,0.4
		c0,0-0.838,5.962,3.282,10.987c3.107,3.793,7.469,6.64,7.469,6.64L10.922,77.173z"/>
</g>
</svg>
