<?xml version="1.0" encoding="utf-8"?>
<!-- Generator: Adobe Illustrator 17.0.0, SVG Export Plug-In . SVG Version: 6.00 Build 0)  -->
<!DOCTYPE svg PUBLIC "-//W3C//DTD SVG 1.1//EN" "http://www.w3.org/Graphics/SVG/1.1/DTD/svg11.dtd">
<svg version="1.1" id="Layer_1" xmlns="http://www.w3.org/2000/svg" xmlns:xlink="http://www.w3.org/1999/xlink" x="0px" y="0px"
	 width="200px" height="200px" viewBox="0 0 200 200" enable-background="new 0 0 200 200" xml:space="preserve">
<g>
	<path fill="#FFFFFF" d="M158.25,96.143l-3.938-2.276c-0.214-0.124-0.566-0.124-0.778,0l-3.938,2.276
		c-0.215,0.122-0.389,0.425-0.389,0.671v4.479c0,0.246,0.174,0.55,0.389,0.673l3.938,2.276c0.213,0.122,0.564,0.122,0.778,0
		l3.938-2.276c0.212-0.124,0.389-0.427,0.389-0.673v-4.479C158.639,96.568,158.462,96.265,158.25,96.143z M157.694,100.758
		c0,0.246-0.174,0.547-0.389,0.671l-2.994,1.729c-0.214,0.124-0.566,0.124-0.779,0l-2.995-1.729c-0.212-0.124-0.39-0.425-0.39-0.671
		v-3.46c0-0.246,0.177-0.549,0.39-0.671l2.995-1.729c0.213-0.124,0.564-0.124,0.779,0l2.994,1.729
		c0.215,0.122,0.389,0.425,0.389,0.671V100.758z"/>
	<path fill="#FFFFFF" d="M100,0L13.397,50v100L100,200l86.603-50V50L100,0z M55.621,108.994l-9.448,5.455
		c-0.214,0.122-0.564,0.122-0.776,0l-14.336-8.278c-0.214-0.123-0.388-0.425-0.388-0.671V67.272c0-0.246,0.174-0.55,0.388-0.674
		l9.619-5.552c0.214-0.124,0.388-0.023,0.388,0.223h0v38.229c0,0.246,0.174,0.551,0.386,0.677l14.17,8.364
		C55.835,108.668,55.834,108.87,55.621,108.994z M93.532,112.673c0,0.246-0.175,0.347-0.387,0.223l-9.618-5.552
		c-0.214-0.124-0.389-0.427-0.389-0.673v-9.858c0-0.246-0.174-0.549-0.388-0.671l-3.94-2.276c-0.214-0.124-0.564-0.124-0.778,0
		l-3.94,2.276c-0.212,0.122-0.388,0.425-0.388,0.671v9.858c0,0.246-0.174,0.55-0.389,0.673l-9.618,5.552
		c-0.215,0.124-0.389,0.023-0.389-0.223V90.812c0-0.246,0.175-0.549,0.389-0.674l14.335-8.276c0.214-0.122,0.564-0.122,0.778,0
		l14.335,8.276c0.213,0.124,0.387,0.427,0.387,0.674V112.673z M131.283,106.943c0,0.248-0.172,0.549-0.387,0.673l-14.337,8.276
		c-0.214,0.124-0.563,0.124-0.774,0l-14.336-8.276c-0.215-0.124-0.389-0.425-0.389-0.673V85.082c0-0.246,0.175-0.349,0.389-0.223
		l9.618,5.552c0.212,0.124,0.387,0.427,0.387,0.673v9.858c0,0.246,0.175,0.549,0.389,0.673l3.942,2.275
		c0.211,0.124,0.56,0.124,0.774,0l3.942-2.275c0.212-0.124,0.385-0.427,0.385-0.673v-9.858c0-0.246,0.174-0.549,0.389-0.673
		l9.62-5.552c0.215-0.126,0.387-0.023,0.387,0.223V106.943z M169.033,129.04c0,0.246-0.173,0.547-0.387,0.674l-14.335,8.274
		c-0.214,0.124-0.566,0.124-0.778,0l-9.445-5.455c-0.217-0.122-0.219-0.324-0.005-0.452l14.169-8.366
		c0.212-0.127,0.387-0.429,0.387-0.675v-8.846c0-0.246-0.176-0.347-0.389-0.223l-3.938,2.274c-0.214,0.124-0.566,0.124-0.778,0
		l-14.334-8.274c-0.215-0.127-0.387-0.427-0.387-0.675V90.812c0-0.246,0.172-0.549,0.387-0.673l14.334-8.276
		c0.213-0.122,0.564-0.122,0.778,0l14.335,8.275c0.215,0.124,0.387,0.427,0.387,0.674V129.04z"/>
</g>
</svg>
