<?xml version="1.0" encoding="utf-8"?>
<!-- Generator: Adobe Illustrator 17.0.0, SVG Export Plug-In . SVG Version: 6.00 Build 0)  -->
<!DOCTYPE svg PUBLIC "-//W3C//DTD SVG 1.1//EN" "http://www.w3.org/Graphics/SVG/1.1/DTD/svg11.dtd">
<svg version="1.1" id="Layer_1" xmlns="http://www.w3.org/2000/svg" xmlns:xlink="http://www.w3.org/1999/xlink" x="0px" y="0px"
	 width="200px" height="200px" viewBox="0 0 200 200" enable-background="new 0 0 200 200" xml:space="preserve">
<g>
	<g id="Page-1">
		<polygon id="Polygon-1" fill="#FFFFFF" points="100,0 186.603,50 186.603,150 100,200 13.397,150 13.397,50 		"/>
		<polygon id="Polygon-1_1_" fill="#46483D" points="99.875,11.24 176.645,55.564 176.645,144.21 99.875,188.533 23.105,144.21 
			23.105,55.564 		"/>
	</g>
	<g>
		<path fill="#FFFFFF" enable-background="new    " d="M47.455,65.682c0-0.22-0.156-0.31-0.347-0.2l-8.598,4.963
			c-0.191,0.111-0.347,0.382-0.347,0.602v34.17c0,0.22,0.156,0.49,0.347,0.6l12.814,7.399c0.19,0.109,0.502,0.109,0.694,0
			l8.445-4.876c0.191-0.111,0.192-0.291,0.002-0.406L47.8,100.457c-0.19-0.112-0.345-0.385-0.345-0.605L47.455,65.682L47.455,65.682
			z"/>
		<path fill="#BED52E" enable-background="new    " d="M94.004,111.828c0.19,0.11,0.346,0.02,0.346-0.2V92.088
			c0-0.22-0.156-0.491-0.346-0.602L81.19,84.088c-0.191-0.109-0.503-0.109-0.695,0l-12.813,7.397
			c-0.192,0.111-0.348,0.382-0.348,0.602v19.541c0,0.22,0.156,0.31,0.348,0.2l8.597-4.963c0.192-0.11,0.348-0.382,0.348-0.602
			v-8.811c0-0.22,0.157-0.491,0.346-0.6l3.522-2.034c0.191-0.111,0.504-0.111,0.695,0l3.521,2.034c0.191,0.109,0.347,0.38,0.347,0.6
			v8.811c0,0.22,0.157,0.491,0.348,0.602L94.004,111.828z"/>
		<path fill="#FFFFFF" enable-background="new    " d="M101.426,86.766c-0.192-0.113-0.348-0.021-0.348,0.199v19.541
			c0,0.222,0.156,0.49,0.348,0.602l12.815,7.398c0.189,0.111,0.5,0.111,0.692,0l12.815-7.398c0.192-0.111,0.346-0.38,0.346-0.602
			V86.966c0-0.22-0.154-0.312-0.346-0.199l-8.599,4.962c-0.192,0.111-0.348,0.382-0.348,0.602v8.811c0,0.22-0.155,0.491-0.344,0.601
			l-3.524,2.033c-0.191,0.111-0.503,0.111-0.692,0l-3.524-2.033c-0.192-0.11-0.348-0.381-0.348-0.601v-8.811
			c0-0.22-0.156-0.491-0.346-0.602L101.426,86.766z"/>
		<path fill="#FFFFFF" enable-background="new    " d="M148.678,84.089c-0.192-0.109-0.506-0.109-0.696,0l-12.812,7.397
			c-0.192,0.111-0.346,0.382-0.346,0.602v14.733c0,0.222,0.154,0.49,0.346,0.604l12.812,7.395c0.19,0.111,0.504,0.111,0.696,0
			l3.52-2.033c0.19-0.11,0.348-0.02,0.348,0.2v7.907c0,0.22-0.156,0.49-0.346,0.604l-12.664,7.478
			c-0.191,0.115-0.19,0.295,0.004,0.404l8.442,4.876c0.19,0.111,0.504,0.111,0.696,0l12.813-7.396
			c0.192-0.113,0.346-0.382,0.346-0.602v-34.17c0-0.22-0.154-0.491-0.346-0.602L148.678,84.089z M144.462,102.057
			c-0.192-0.11-0.348-0.381-0.348-0.602v-4.003c0-0.22,0.155-0.491,0.348-0.6l3.52-2.034c0.19-0.111,0.504-0.111,0.696,0l3.52,2.034
			c0.19,0.109,0.348,0.38,0.348,0.6v4.003c0,0.22-0.158,0.491-0.348,0.602l-3.52,2.035c-0.192,0.109-0.506,0.109-0.696,0
			L144.462,102.057z"/>
		<path fill="#BED52E" enable-background="new    " d="M151.701,100.978c0,0.22-0.156,0.489-0.348,0.6l-2.676,1.546
			c-0.192,0.111-0.506,0.111-0.696,0l-2.677-1.546c-0.19-0.111-0.348-0.38-0.348-0.6v-3.093c0-0.22,0.158-0.491,0.348-0.6
			l2.677-1.546c0.19-0.111,0.504-0.111,0.696,0l2.676,1.546c0.192,0.109,0.348,0.38,0.348,0.6V100.978z"/>
	</g>
</g>
</svg>
