<?xml version="1.0" encoding="utf-8"?>
<!-- Generator: Adobe Illustrator 17.0.0, SVG Export Plug-In . SVG Version: 6.00 Build 0)  -->
<!DOCTYPE svg PUBLIC "-//W3C//DTD SVG 1.1//EN" "http://www.w3.org/Graphics/SVG/1.1/DTD/svg11.dtd">
<svg version="1.1" id="Layer_1" xmlns="http://www.w3.org/2000/svg" xmlns:xlink="http://www.w3.org/1999/xlink" x="0px" y="0px"
	 width="200px" height="200px" viewBox="0 0 200 200" enable-background="new 0 0 200 200" xml:space="preserve">
<g>
	<path fill="#FFFFFF" d="M191.576,23.363h-6.614l-2.577,18.754L170.69,23.363h-6.179l-3.774,27.466h-8.327
		c0.487-0.35,0.959-0.722,1.41-1.119c1.633-1.436,2.986-3.104,4.06-5.004c1.073-1.9,1.759-3.938,2.058-6.114l0.012-0.087
		c0.299-2.176,0.18-4.213-0.356-6.114c-0.537-1.9-1.426-3.553-2.669-4.961c-1.243-1.407-2.794-2.524-4.652-3.35
		c-1.859-0.827-3.963-1.24-6.313-1.24c-2.35,0-4.575,0.413-6.676,1.24c-2.101,0.827-3.968,1.958-5.601,3.394
		c-1.633,1.436-2.987,3.104-4.06,5.004c-1.074,1.9-1.759,3.938-2.058,6.114l-0.012,0.087c-0.299,2.176-0.181,4.214,0.356,6.114
		c0.537,1.9,1.426,3.554,2.669,4.961c0.336,0.38,0.696,0.737,1.077,1.075h-13.124c0.67-0.427,1.307-0.894,1.911-1.402
		c1.623-1.363,2.954-2.973,3.992-4.83c1.038-1.856,1.705-3.858,2-6.005l0.012-0.087c0.295-2.146,0.177-4.14-0.353-5.983
		c-0.53-1.842-1.42-3.444-2.668-4.808c-1.249-1.363-2.814-2.429-4.695-3.198c-1.882-0.768-4.012-1.153-6.39-1.153h-11.879
		l-3.774,27.466h-3.829l3.774-27.466h-6.614l-2.577,18.754L75.746,23.363h-6.179l-3.774,27.466h-8.327
		c0.487-0.35,0.959-0.722,1.41-1.119c1.633-1.436,2.986-3.104,4.06-5.004c1.073-1.9,1.76-3.938,2.058-6.114l0.012-0.087
		c0.299-2.176,0.18-4.213-0.357-6.114c-0.537-1.9-1.426-3.553-2.669-4.961c-1.243-1.407-2.794-2.524-4.652-3.35
		c-1.859-0.827-3.963-1.24-6.313-1.24c-2.35,0-4.575,0.413-6.676,1.24c-2.101,0.827-3.968,1.958-5.601,3.394
		c-1.633,1.436-2.987,3.104-4.06,5.004c-1.074,1.9-1.759,3.938-2.058,6.114l-0.012,0.087c-0.299,2.176-0.181,4.214,0.356,6.114
		c0.536,1.9,1.426,3.554,2.669,4.961c0.336,0.38,0.696,0.737,1.076,1.075h-5.989l0.42-3.055H15.956l3.354-24.411h-6.701
		L8.835,50.829H0V200h200V50.829h-12.198L191.576,23.363z M134.571,38.593l0.012-0.087c0.179-1.305,0.572-2.531,1.18-3.677
		c0.607-1.146,1.369-2.154,2.287-3.024c0.917-0.87,1.968-1.552,3.153-2.045c1.184-0.493,2.458-0.74,3.822-0.74
		c1.334,0,2.532,0.254,3.594,0.762c1.062,0.508,1.946,1.197,2.653,2.067c0.707,0.87,1.205,1.886,1.496,3.046
		c0.29,1.161,0.346,2.393,0.166,3.699l-0.012,0.087c-0.179,1.305-0.573,2.531-1.18,3.677c-0.608,1.146-1.37,2.154-2.287,3.024
		c-0.918,0.87-1.976,1.552-3.175,2.045c-1.199,0.494-2.466,0.74-3.8,0.74c-1.364,0-2.569-0.254-3.616-0.762
		c-1.047-0.507-1.924-1.197-2.631-2.067c-0.707-0.87-1.206-1.885-1.496-3.046C134.446,41.131,134.391,39.898,134.571,38.593z
		 M106.331,29.412h5.178c1.363,0,2.58,0.225,3.649,0.674c1.069,0.45,1.947,1.081,2.633,1.893c0.686,0.812,1.176,1.784,1.47,2.915
		c0.294,1.131,0.35,2.365,0.166,3.699l-0.012,0.087c-0.187,1.364-0.582,2.596-1.183,3.699c-0.602,1.103-1.357,2.06-2.266,2.872
		c-0.91,0.812-1.96,1.436-3.151,1.871c-1.191,0.435-2.469,0.653-3.832,0.653h-5.178L106.331,29.412z M39.626,38.593l0.012-0.087
		c0.179-1.305,0.572-2.531,1.18-3.677c0.607-1.146,1.369-2.154,2.287-3.024c0.917-0.87,1.968-1.552,3.153-2.045
		c1.184-0.493,2.458-0.74,3.822-0.74c1.334,0,2.532,0.254,3.594,0.762c1.062,0.508,1.946,1.197,2.653,2.067
		c0.707,0.87,1.205,1.886,1.496,3.046c0.29,1.161,0.346,2.393,0.166,3.699l-0.012,0.087c-0.179,1.305-0.573,2.531-1.18,3.677
		c-0.608,1.146-1.37,2.154-2.287,3.024c-0.918,0.87-1.976,1.552-3.175,2.045c-1.199,0.494-2.466,0.74-3.8,0.74
		c-1.364,0-2.569-0.254-3.616-0.762c-1.047-0.507-1.924-1.197-2.631-2.067c-0.707-0.87-1.206-1.885-1.496-3.046
		C39.502,41.131,39.447,39.898,39.626,38.593z M169.601,34.459l10.221,16.37h-12.471L169.601,34.459z M74.656,34.459l10.221,16.37
		H72.407L74.656,34.459z M108.918,155.99c0,19.46-11.41,28.317-28.063,28.317c-15.048,0-23.762-7.787-28.194-17.167l15.298-9.262
		c2.952,5.238,5.638,9.667,12.095,9.667c6.175,0,10.07-2.416,10.07-11.81V91.832h18.794V155.99z M153.324,184.343
		c-17.454,0-28.73-8.318-34.248-19.219l15.273-8.873c4.029,6.578,9.27,11.413,18.54,11.413c7.787,0,12.762-3.892,12.762-9.27
		c0-6.444-5.111-8.727-13.683-12.476l-4.698-2.016c-13.562-5.778-22.571-13.016-22.571-28.317c0-14.095,10.74-24.825,27.524-24.825
		c11.949,0,20.54,4.159,26.73,15.048l-14.635,9.397c-3.222-5.778-6.698-8.054-12.095-8.054c-5.505,0-8.994,3.492-8.994,8.054
		c0,5.638,3.492,7.921,11.556,11.413l4.698,2.013c15.968,6.848,24.984,13.829,24.984,29.524
		C184.467,175.073,171.175,184.343,153.324,184.343z"/>
	<rect y="0" fill="#FFFFFF" width="200" height="5.533"/>
</g>
</svg>
