<?xml version="1.0" encoding="utf-8"?>
<!-- Generator: Adobe Illustrator 17.0.0, SVG Export Plug-In . SVG Version: 6.00 Build 0)  -->
<!DOCTYPE svg PUBLIC "-//W3C//DTD SVG 1.1//EN" "http://www.w3.org/Graphics/SVG/1.1/DTD/svg11.dtd">
<svg version="1.1" id="Layer_1" xmlns="http://www.w3.org/2000/svg" xmlns:xlink="http://www.w3.org/1999/xlink" x="0px" y="0px"
	 width="423.619px" height="92.154px" viewBox="-153.757 53.923 423.619 92.154"
	 enable-background="new -153.757 53.923 423.619 92.154" xml:space="preserve">
<g>
	<g>
		<circle fill="#FFFFFF" cx="-130.22" cy="131.317" r="5.984"/>
		<circle fill="#FFFFFF" cx="-86.498" cy="131.317" r="5.984"/>
		<circle fill="#FFFFFF" cx="-130.22" cy="85.524" r="5.984"/>
		<circle fill="#FFFFFF" cx="-86.498" cy="67.257" r="5.984"/>
		<path fill="#FFFFFF" d="M-61.602,100.001c0-12.252-4.783-23.386-12.583-31.64c-0.41,4.609-3.356,8.499-7.433,10.257
			c0,0-1.389,0.338-1.389,3.729c0,1.911,0,32.099,0,34.01c0,2.693,1.96,3.862,1.96,3.862l-0.002-0.001
			c4.095,2.018,6.919,6.234,6.919,11.099c0,0.091-0.005,0.182-0.007,0.272C-66.367,123.341-61.602,112.228-61.602,100.001z"/>
		<path fill="#FFFFFF" d="M-98.865,131.317c0-1.979,0.47-3.85,1.3-5.51c-0.023-0.821-0.278-2.054-1.398-3.187
			c-1.343-1.359-21.867-22.131-23.211-23.491c-1.4-1.417-2.328-1.589-3.301-1.029c-0.656,0.378-1.254,1.139-1.254,2.371
			c0,1.911,0,13.975,0,15.886c0,2.693,1.96,3.862,1.96,3.862l-0.002-0.001c4.095,2.018,6.919,6.234,6.919,11.099
			c0,5.038-3.029,9.378-7.36,11.304c5.405,2.226,11.324,3.457,17.533,3.457c5.947,0,11.631-1.127,16.849-3.178
			C-95.519,141.141-98.865,136.613-98.865,131.317z"/>
		<path fill="#FFFFFF" d="M-135.67,120.219c0,0,1.96-1.169,1.96-3.862c0-1.911,0-13.975,0-15.886c0-2.361-1.506-3.55-1.877-3.807
			c-4.138-2.002-6.999-6.243-6.999-11.14c0-6.819,5.548-12.367,12.367-12.367s12.367,5.548,12.367,12.367
			c0,2.095-0.676,4.574-0.676,4.574s-0.573,2.209,1.32,4.125c1.343,1.359,21.867,22.131,23.211,23.491
			c1.106,1.119,2.208,1.104,2.807,0.639c0.599-0.465,1.201-0.749,1.201-1.995c0-1.911,0-32.099,0-34.01
			c0-3.292-1.389-3.729-1.389-3.729c-4.633-2.255-7.487-6.275-7.487-11.361c0-4.626,2.555-8.664,6.326-10.785
			c-4.742-1.649-9.835-2.548-15.14-2.548c-25.448,0-46.077,20.63-46.077,46.077c0,11.529,4.234,22.068,11.232,30.149
			c0.412-4.364,3.095-8.077,6.857-9.931L-135.67,120.219z"/>
	</g>
	<g>
		<path fill="#FFFFFF" d="M-31.774,84.735c4.235-4.062,8.038-6.137,13.484-6.137c7.865,0,15.299,5.272,15.299,18.323v23.681h-3.197
			V96.92c0-10.199-6.137-15.126-12.533-15.126c-4.15,0-9.768,2.593-13.051,7.173v31.635h-3.201V79.805h3.199V84.735z"/>
		<path fill="#FFFFFF" d="M8.586,99.254c-0.173,0.865-0.173,1.642-0.173,2.42c0,10.978,6.569,17.026,16.25,17.026
			c5.272,0,8.299-2.161,11.15-4.321l1.642,2.765c-3.199,2.246-6.569,4.754-12.792,4.754c-10.372,0-19.447-6.569-19.447-20.832
			c0-15.905,9.854-22.644,17.891-22.644c10.199,0,16.509,5.876,16.509,20.83H8.586z M8.845,96.228h27.053
			c-0.518-8.299-3.544-14.606-12.533-14.606C17.403,81.622,10.23,84.735,8.845,96.228z"/>
		<path fill="#FFFFFF" d="M73.064,113.861c-6.223,5.878-12.013,7.692-16.422,7.692c-6.655,0-10.978-4.927-10.978-10.889
			c0-10.372,11.754-14.867,27.4-15.644c0-10.546-5.358-13.398-11.064-13.398c-3.285,0-8.816,1.038-12.447,2.248l-0.951-3.113
			c3.803-1.208,8.73-2.334,13.657-2.334c8.557,0,14.002,5.013,14.002,17.374v24.805h-3.197L73.064,113.861L73.064,113.861z
			 M73.064,109.887v-11.67c-12.619,0.52-24.201,4.062-24.201,12.274c0,4.668,3.458,7.865,8.644,7.865
			C62.604,118.356,68.741,113.947,73.064,109.887z"/>
		<path fill="#FFFFFF" d="M89.829,92.597c2.334-8.555,6.827-12.186,14.953-14.175l0.865,3.024
			c-12.013,3.631-15.818,11.496-15.818,20.571v18.584h-3.197V79.805h3.197C89.829,79.805,89.829,92.597,89.829,92.597z"/>
		<path fill="#FFFFFF" d="M138.402,91.042h-22.387v29.56h-3.458V60.1h27.918v3.458h-24.46v24.029h22.387V91.042z"/>
		<path fill="#FFFFFF" d="M143.502,100.206c0-14.175,7.951-21.695,19.015-21.695s19.015,7.52,19.015,21.695
			s-7.951,21.695-19.015,21.695S143.502,114.38,143.502,100.206z M146.699,100.206c0,13.484,7.606,18.498,15.816,18.498
			s15.818-5.013,15.818-18.498c0-13.482-7.606-18.498-15.818-18.498S146.699,86.721,146.699,100.206z"/>
		<path fill="#FFFFFF" d="M193.371,92.597c2.334-8.555,6.827-12.186,14.953-14.175l0.865,3.024
			c-12.013,3.631-15.818,11.496-15.818,20.571v18.584h-3.197V79.805h3.197L193.371,92.597L193.371,92.597z"/>
		<path fill="#FFFFFF" d="M244.192,120.604h-3.197V93.896c0-10.633-8.21-12.447-10.978-12.447c-4.668,0-9.248,3.544-11.582,7.867
			v31.29h-3.199V79.81h3.199v5.188c2.938-4.237,6.741-6.482,11.582-6.482c6.569,0,9.334,2.507,12.706,7.261
			c2.507-3.199,6.482-7.261,12.965-7.261c7.347,0,14.175,5.531,14.175,15.385v26.708h-3.199V93.9
			c0-10.633-8.21-12.447-10.978-12.447c-6.051,0-9.507,4.495-11.496,7.867v31.283H244.192z"/>
	</g>
</g>
</svg>
