<?xml version="1.0" encoding="utf-8"?>
<!-- Generator: Adobe Illustrator 17.0.0, SVG Export Plug-In . SVG Version: 6.00 Build 0)  -->
<!DOCTYPE svg PUBLIC "-//W3C//DTD SVG 1.1//EN" "http://www.w3.org/Graphics/SVG/1.1/DTD/svg11.dtd">
<svg version="1.1" id="Layer_1" xmlns="http://www.w3.org/2000/svg" xmlns:xlink="http://www.w3.org/1999/xlink" x="0px" y="0px"
	 width="200px" height="200px" viewBox="0 0 200 200" enable-background="new 0 0 200 200" xml:space="preserve">
<g>
	<circle fill="#FFFFFF" cx="51.082" cy="167.965" r="12.987"/>
	<circle fill="#FFFFFF" cx="145.969" cy="167.965" r="12.987"/>
	<circle fill="#FFFFFF" cx="51.082" cy="68.582" r="12.987"/>
	<circle fill="#FFFFFF" cx="145.969" cy="28.937" r="12.987"/>
	<path fill="#FFFFFF" d="M200,100c0-26.59-10.381-50.753-27.308-68.666c-0.891,10.003-7.284,18.446-16.132,22.261
		c0,0-3.015,0.734-3.015,8.093c0,4.147,0,69.663,0,73.81c0,5.844,4.253,8.381,4.253,8.381l-0.004-0.001
		c8.886,4.38,15.016,13.529,15.016,24.087c0,0.198-0.011,0.394-0.015,0.591C189.66,150.655,200,126.536,200,100z"/>
	<path fill="#FFFFFF" d="M119.13,167.965c0-4.295,1.02-8.355,2.821-11.958c-0.05-1.781-0.603-4.457-3.034-6.917
		c-2.915-2.95-47.458-48.031-50.373-50.981c-3.038-3.074-5.052-3.448-7.164-2.232c-1.424,0.82-2.722,2.471-2.722,5.145
		c0,4.147,0,30.329,0,34.476c0,5.844,4.253,8.381,4.253,8.381l-0.004-0.001c8.886,4.38,15.016,13.529,15.016,24.087
		c0,10.933-6.574,20.353-15.973,24.533C73.679,197.329,86.527,200,100,200c12.906,0,25.241-2.446,36.568-6.898
		C126.392,189.283,119.13,179.458,119.13,167.965z"/>
	<path fill="#FFFFFF" d="M39.254,143.879c0,0,4.253-2.537,4.253-8.381c0-4.147,0-30.329,0-34.476c0-5.124-3.269-7.705-4.074-8.263
		c-8.981-4.345-15.19-13.549-15.19-24.177c0-14.799,12.04-26.84,26.84-26.84s26.84,12.04,26.84,26.84
		c0,4.547-1.466,9.927-1.466,9.927s-1.242,4.794,2.866,8.951c2.915,2.95,47.458,48.031,50.373,50.981
		c2.399,2.428,4.793,2.396,6.092,1.386c1.299-1.01,2.607-1.625,2.607-4.329c0-4.147,0-69.663,0-73.81
		c0-7.143-3.015-8.093-3.015-8.093C125.326,48.7,119.13,39.977,119.13,28.938c0-10.04,5.544-18.804,13.729-23.407
		C122.566,1.951,111.512,0,100,0C44.772,0,0,44.772,0,100c0,25.02,9.189,47.894,24.376,65.431
		c0.893-9.472,6.717-17.529,14.882-21.553L39.254,143.879z"/>
</g>
</svg>
