<?xml version="1.0" encoding="utf-8"?>
<!-- Generator: Adobe Illustrator 17.0.0, SVG Export Plug-In . SVG Version: 6.00 Build 0)  -->
<!DOCTYPE svg PUBLIC "-//W3C//DTD SVG 1.1//EN" "http://www.w3.org/Graphics/SVG/1.1/DTD/svg11.dtd">
<svg version="1.1" id="Layer_1" xmlns="http://www.w3.org/2000/svg" xmlns:xlink="http://www.w3.org/1999/xlink" x="0px" y="0px"
	 width="200px" height="200px" viewBox="0 0 200 200" enable-background="new 0 0 200 200" xml:space="preserve">
<g>
	<circle fill="#FFFFFF" cx="61.064" cy="133.692" r="10.337"/>
	<circle fill="#FFFFFF" cx="136.589" cy="133.692" r="10.337"/>
	<circle fill="#FFFFFF" cx="61.064" cy="54.588" r="10.337"/>
	<circle fill="#FFFFFF" cx="136.589" cy="23.033" r="10.337"/>
	<path fill="#FFFFFF" d="M179.595,79.595c0-21.164-8.263-40.397-21.736-54.655c-0.709,7.962-5.798,14.682-12.84,17.719
		c0,0-2.4,0.584-2.4,6.442c0,3.301,0,55.449,0,58.749c0,4.652,3.385,6.671,3.385,6.671l-0.003-0.001
		c7.073,3.486,11.952,10.768,11.952,19.172c0,0.158-0.009,0.314-0.012,0.47C171.365,119.914,179.595,100.717,179.595,79.595z"/>
	<path fill="#FFFFFF" d="M115.227,133.692c0-3.419,0.812-6.65,2.245-9.518c-0.04-1.418-0.48-3.548-2.415-5.506
		c-2.32-2.348-37.774-38.23-40.095-40.579c-2.418-2.447-4.021-2.744-5.702-1.777c-1.133,0.653-2.167,1.967-2.167,4.095
		c0,3.301,0,24.14,0,27.441c0,4.652,3.385,6.671,3.385,6.671l-0.003-0.001c7.073,3.486,11.952,10.768,11.952,19.172
		c0,8.702-5.233,16.2-12.714,19.527c9.336,3.845,19.562,5.971,30.286,5.971c10.273,0,20.091-1.947,29.106-5.49
		C121.007,150.661,115.227,142.84,115.227,133.692z"/>
	<path fill="#FFFFFF" d="M51.649,114.521c0,0,3.385-2.019,3.385-6.671c0-3.301,0-24.141,0-27.441c0-4.078-2.602-6.133-3.243-6.577
		c-7.148-3.458-12.091-10.784-12.091-19.244c0-11.779,9.583-21.363,21.363-21.363s21.363,9.583,21.363,21.363
		c0,3.619-1.167,7.901-1.167,7.901s-0.989,3.816,2.281,7.125c2.32,2.348,37.774,38.23,40.095,40.579
		c1.91,1.933,3.815,1.907,4.849,1.103c1.034-0.804,2.075-1.293,2.075-3.446c0-3.301,0-55.449,0-58.749c0-5.686-2.4-6.442-2.4-6.442
		c-8.003-3.896-12.934-10.839-12.934-19.626c0-7.991,4.413-14.967,10.928-18.631C117.962,1.553,109.163,0,100,0
		C56.041,0,20.405,35.636,20.405,79.595c0,19.915,7.314,38.121,19.402,52.08c0.711-7.539,5.346-13.952,11.845-17.155L51.649,114.521
		z"/>
</g>
<g>
	<path fill="#FFFFFF" d="M29.1,182.341c2.012-1.93,3.819-2.916,6.407-2.916c3.737,0,7.269,2.505,7.269,8.706v11.252h-1.519v-11.252
		c0-4.846-2.916-7.187-5.955-7.187c-1.972,0-4.641,1.232-6.201,3.408v15.031H27.58v-19.384H29.1V182.341z"/>
	<path fill="#FFFFFF" d="M48.277,189.24c-0.082,0.411-0.082,0.78-0.082,1.15c0,5.216,3.121,8.09,7.721,8.09
		c2.505,0,3.943-1.027,5.298-2.053l0.78,1.314c-1.52,1.067-3.121,2.259-6.078,2.259c-4.928,0-9.24-3.121-9.24-9.898
		c0-7.557,4.682-10.759,8.501-10.759c4.846,0,7.844,2.792,7.844,9.897H48.277z M48.4,187.802h12.854
		c-0.246-3.943-1.684-6.94-5.955-6.94C52.466,180.862,49.058,182.341,48.4,187.802z"/>
	<path fill="#FFFFFF" d="M78.913,196.18c-2.957,2.793-5.708,3.655-7.803,3.655c-3.162,0-5.216-2.341-5.216-5.174
		c0-4.928,5.585-7.064,13.019-7.433c0-5.011-2.546-6.366-5.257-6.366c-1.561,0-4.189,0.493-5.914,1.068l-0.452-1.479
		c1.807-0.574,4.148-1.109,6.489-1.109c4.066,0,6.653,2.382,6.653,8.255v11.786h-1.519V196.18z M78.913,194.292v-5.545
		c-5.996,0.247-11.499,1.93-11.499,5.832c0,2.218,1.643,3.737,4.107,3.737C73.943,198.316,76.859,196.221,78.913,194.292z"/>
	<path fill="#FFFFFF" d="M86.879,186.077c1.109-4.065,3.244-5.79,7.105-6.735l0.411,1.437c-5.708,1.725-7.516,5.462-7.516,9.774
		v8.83h-1.519v-19.384h1.519V186.077z"/>
	<path fill="#FFFFFF" d="M109.958,185.338H99.321v14.045h-1.643v-28.747h13.265v1.643H99.321v11.417h10.637V185.338z"/>
	<path fill="#FFFFFF" d="M112.381,189.692c0-6.735,3.778-10.308,9.035-10.308s9.035,3.573,9.035,10.308
		c0,6.735-3.778,10.308-9.035,10.308S112.381,196.427,112.381,189.692z M113.9,189.692c0,6.407,3.614,8.789,7.515,8.789
		s7.516-2.382,7.516-8.789c0-6.406-3.614-8.789-7.516-8.789S113.9,183.285,113.9,189.692z"/>
	<path fill="#FFFFFF" d="M136.076,186.077c1.109-4.065,3.244-5.79,7.105-6.735l0.411,1.437c-5.708,1.725-7.516,5.462-7.516,9.774
		v8.83h-1.519v-19.384h1.519V186.077z"/>
	<path fill="#FFFFFF" d="M160.223,199.384h-1.519v-12.69c0-5.052-3.901-5.914-5.216-5.914c-2.218,0-4.394,1.684-5.503,3.738v14.867
		h-1.52v-19.384h1.52v2.465c1.396-2.013,3.203-3.08,5.503-3.08c3.121,0,4.435,1.191,6.037,3.45c1.191-1.52,3.08-3.45,6.16-3.45
		c3.491,0,6.735,2.628,6.735,7.31v12.69H170.9v-12.69c0-5.052-3.901-5.914-5.216-5.914c-2.875,0-4.517,2.136-5.462,3.738V199.384z"
		/>
</g>
</svg>
