<?xml version="1.0" encoding="utf-8"?>
<!-- Generator: Adobe Illustrator 19.2.1, SVG Export Plug-In . SVG Version: 6.00 Build 0)  -->
<svg version="1.1" id="Layer_1" xmlns="http://www.w3.org/2000/svg" xmlns:xlink="http://www.w3.org/1999/xlink" x="0px" y="0px"
	 viewBox="0 0 850.4 850.4" style="enable-background:new 0 0 850.4 850.4;" xml:space="preserve">
<style type="text/css">
	.st0{fill:#191A23;}
	.st1{fill:#727090;}
	.st2{fill:#FBF8E7;}
</style>
<g>
	<polygon class="st0" points="57,212.6 425.2,0 793.4,212.6 793.4,637.8 425.2,850.4 57,637.8 	"/>
	<g>
		<path class="st1" d="M104.9,652.8l1.3-1.1c1.2-1,2.5-2,3.6-3.1c1.2-1,2.4-2.1,3.6-3.1c0.6-0.5,1.2-1,1.8-1.6l1.8-1.6
			c1.2-1.1,2.3-2.1,3.5-3.2c1.2-1.1,2.3-2.2,3.4-3.2c1.1-1.1,2.3-2.2,3.4-3.3c1.1-1.1,2.2-2.2,3.3-3.3c4.5-4.4,8.7-8.9,12.8-13.5
			c1-1.1,2-2.3,3-3.4c1-1.2,2-2.3,3-3.4c1-1.1,1.9-2.3,2.9-3.5c1-1.2,1.9-2.3,2.8-3.5c1.8-2.4,3.7-4.7,5.5-7c1.7-2.4,3.4-4.7,5.1-7
			c1.6-2.4,3.2-4.7,4.8-7c1.5-2.4,3-4.7,4.5-7c0.7-1.1,1.4-2.3,2.1-3.5c0.7-1.2,1.4-2.3,2.1-3.4c0.3-0.6,0.7-1.1,1-1.7
			c0.3-0.6,0.6-1.2,1-1.7c0.6-1.1,1.3-2.3,1.9-3.4c0.3-0.6,0.6-1.1,0.9-1.7l0.5-0.8l0.4-0.8c0.6-1.1,1.1-2.2,1.7-3.3
			c0.6-1.1,1.1-2.2,1.7-3.3c0.6-1.1,1.1-2.2,1.6-3.3c1-2.2,2-4.3,3-6.3c0.9-2.1,1.8-4.1,2.7-6.1c0.2-0.5,0.4-1,0.6-1.5
			c0.2-0.5,0.4-1,0.6-1.5c0.4-1,0.8-2,1.1-2.9c0.4-1,0.7-1.9,1.1-2.8c0.4-0.9,0.7-1.8,1-2.8c2.6-7.3,4.6-13.7,6.1-19.1
			c0.7-2.7,1.4-5.1,1.9-7.2c0.5-2.1,0.9-3.8,1.2-5.3c0.3-1.4,0.6-2.5,0.7-3.3c0.2-0.7,0.2-1.1,0.2-1.1l-7.4-2.3c0,0-0.1,0.4-0.4,1.1
			c-0.3,0.7-0.7,1.7-1.2,3.1c-0.5,1.4-1.2,3-2,5c-0.8,1.9-1.7,4.1-2.8,6.5c-0.3,0.6-0.5,1.2-0.8,1.9c-0.3,0.6-0.6,1.3-0.9,2
			c-0.6,1.3-1.2,2.8-1.9,4.2c-0.3,0.7-0.7,1.5-1,2.2c-0.4,0.8-0.7,1.5-1.1,2.3c-0.7,1.6-1.5,3.2-2.3,4.9c-0.4,0.8-0.8,1.7-1.3,2.5
			c-0.4,0.9-0.9,1.7-1.3,2.6c-0.4,0.9-0.9,1.8-1.3,2.7c-0.2,0.5-0.4,0.9-0.7,1.4c-0.2,0.5-0.5,0.9-0.7,1.4c-1,1.8-2,3.7-3,5.6
			c-0.5,1-1.1,1.9-1.6,2.9c-0.5,1-1.1,1.9-1.7,2.9c-0.6,1-1.1,2-1.7,3c-0.6,1-1.2,2-1.8,3c-1.2,2-2.4,4.1-3.8,6.2
			c-0.7,1-1.3,2.1-2,3.1c-0.3,0.5-0.7,1.1-1,1.6c-0.3,0.5-0.7,1-1,1.6c-1.4,2.1-2.8,4.2-4.3,6.4c-1.5,2.1-3,4.3-4.6,6.5
			c-1.6,2.1-3.2,4.3-4.8,6.5c-1.7,2.2-3.4,4.3-5.1,6.5c-1.8,2.2-3.5,4.3-5.3,6.5c-1.8,2.2-3.7,4.3-5.6,6.5c-1,1.1-1.9,2.2-2.9,3.3
			c-1,1.1-1.9,2.2-2.9,3.3c-4,4.3-8,8.6-12.2,12.8c-1.1,1.1-2.1,2.1-3.2,3.2c-1.1,1-2.2,2.1-3.2,3.1c-1.1,1-2.2,2.1-3.3,3.1
			c-1.1,1-2.2,2-3.3,3.1l-1.7,1.5c-0.6,0.5-1.1,1-1.7,1.5c-1.1,1-2.3,2-3.4,3c-1.1,1-2.3,2-3.5,3l-3.5,2.9c-0.9,0.7-1.8,1.4-2.7,2.2
			L104.9,652.8z"/>
	</g>
	<path class="st1" d="M641,491.6c0.3,1.4,0.7,3.2,1.2,5.3c0.6,2.1,1.2,4.5,1.9,7.2c1.5,5.4,3.5,11.8,6.1,19.1c0.3,0.9,0.7,1.8,1,2.8
		c0.4,0.9,0.7,1.9,1.1,2.8c0.4,1,0.8,1.9,1.1,2.9c0.2,0.5,0.4,1,0.6,1.5c0.2,0.5,0.4,1,0.6,1.5c0.9,2,1.7,4,2.7,6.1
		c0.9,2.1,1.9,4.2,3,6.3c0.5,1.1,1,2.2,1.6,3.3c0.6,1.1,1.1,2.2,1.7,3.3c0.6,1.1,1.1,2.2,1.7,3.3l0.4,0.8l0.5,0.8
		c0.3,0.6,0.6,1.1,0.9,1.7c0.6,1.1,1.3,2.3,1.9,3.4c0.3,0.6,0.6,1.1,1,1.7c0.3,0.6,0.7,1.1,1,1.7c0.7,1.1,1.4,2.3,2.1,3.4
		c0.7,1.2,1.4,2.3,2.1,3.5c1.5,2.3,3,4.7,4.5,7c1.6,2.3,3.2,4.7,4.8,7c1.7,2.3,3.4,4.7,5.1,7c1.8,2.3,3.6,4.7,5.5,7
		c0.9,1.2,1.9,2.3,2.8,3.5c1,1.2,1.9,2.3,2.9,3.5c1,1.1,2,2.3,3,3.4c1,1.1,2,2.3,3,3.4c4.1,4.6,8.4,9.1,12.8,13.5
		c1.1,1.1,2.2,2.2,3.3,3.3c1.1,1.1,2.3,2.2,3.4,3.3c1.1,1.1,2.3,2.2,3.4,3.2c1.2,1.1,2.3,2.1,3.5,3.2l1.8,1.6c0.6,0.5,1.2,1,1.8,1.6
		c1.2,1,2.4,2.1,3.6,3.1c1.2,1,2.4,2,3.6,3.1l0.9,0.8l16.2-9.5c-0.8-0.6-1.5-1.2-2.3-1.8l-3.5-2.9c-1.2-1-2.3-1.9-3.5-3
		c-1.1-1-2.3-2-3.4-3c-0.6-0.5-1.1-1-1.7-1.5l-1.7-1.5c-1.1-1-2.2-2-3.3-3.1s-2.2-2.1-3.3-3.1c-1.1-1-2.2-2.1-3.2-3.1
		c-1.1-1.1-2.1-2.1-3.2-3.2c-4.2-4.2-8.3-8.5-12.2-12.8c-1-1.1-1.9-2.2-2.9-3.3c-1-1.1-1.9-2.2-2.9-3.3c-1.9-2.2-3.7-4.4-5.6-6.5
		c-1.8-2.2-3.5-4.4-5.3-6.5c-1.7-2.2-3.4-4.4-5.1-6.5c-1.6-2.2-3.2-4.4-4.8-6.5c-1.5-2.2-3.1-4.3-4.6-6.5c-1.5-2.1-2.9-4.3-4.3-6.4
		c-0.3-0.5-0.7-1-1-1.6c-0.3-0.5-0.7-1.1-1-1.6c-0.7-1.1-1.3-2.1-2-3.1c-1.3-2.1-2.5-4.1-3.8-6.2c-0.6-1-1.2-2-1.8-3
		c-0.6-1-1.1-2-1.7-3c-0.6-1-1.1-2-1.7-2.9c-0.5-1-1.1-1.9-1.6-2.9c-1-1.9-2-3.8-3-5.6c-0.2-0.5-0.5-0.9-0.7-1.4
		c-0.2-0.5-0.5-0.9-0.7-1.4c-0.5-0.9-0.9-1.8-1.3-2.7c-0.4-0.9-0.9-1.7-1.3-2.6c-0.4-0.9-0.9-1.7-1.3-2.5c-0.8-1.7-1.6-3.3-2.3-4.9
		c-0.4-0.8-0.7-1.6-1.1-2.3c-0.3-0.8-0.7-1.5-1-2.2c-0.7-1.5-1.3-2.9-1.9-4.2c-0.3-0.7-0.6-1.3-0.9-2c-0.3-0.6-0.5-1.3-0.8-1.9
		c-1-2.5-2-4.6-2.8-6.5c-0.8-2-1.4-3.6-2-5c-0.5-1.4-1-2.4-1.2-3.1c-0.3-0.7-0.4-1.1-0.4-1.1l-7.4,2.3c0,0,0.1,0.4,0.2,1.1
		C640.5,489,640.7,490.1,641,491.6z"/>
	<g>
		<g>
			<g>
				<g>
					<g>
						<rect x="258.6" y="520.8" class="st1" width="333.2" height="19.8"/>
						<g>
							<g>
								<polygon class="st2" points="262.3,737.2 262.3,725.1 323.7,663.8 341.9,682.1 276,748 								"/>
								<polygon class="st2" points="267.8,745.3 200.3,712.7 200.3,486 267.8,486 								"/>
								<path class="st2" d="M258,473.3l-20.1-61.9c-0.4-1.1-2-1.9-3.8-1.9c-1.9,0-3.5,0.8-3.8,1.9l-20.1,61.9V486H258L258,473.3
									L258,473.3z"/>
								<g>
									<path class="st1" d="M234,486l-14.2-62.6c-0.3-1.1-1.4-1.9-2.7-1.9s-2.4,0.8-2.7,1.9L200.3,486H234z"/>
									<path class="st1" d="M267.8,486l-14.2-62.6c-0.3-1.1-1.4-1.9-2.7-1.9s-2.4,0.8-2.7,1.9L234,486H267.8z"/>
								</g>
								<g>
									<rect x="200.3" y="530.7" class="st1" width="67.5" height="8.7"/>
									<rect x="200.3" y="581.4" class="st1" width="67.5" height="8.7"/>
									<rect x="200.3" y="632" class="st1" width="67.5" height="8.7"/>
								</g>
								<g>
									<g>
										<rect x="209.5" y="500.4" class="st1" width="10.2" height="18.3"/>
										<rect x="228.9" y="500.4" class="st1" width="10.2" height="18.3"/>
										<rect x="248.4" y="500.4" class="st1" width="10.2" height="18.3"/>
									</g>
									<g>
										<rect x="209.5" y="550.5" class="st1" width="10.2" height="18.3"/>
										<rect x="228.9" y="550.5" class="st1" width="10.2" height="18.3"/>
										<rect x="248.4" y="550.5" class="st1" width="10.2" height="18.3"/>
									</g>
									<g>
										<rect x="209.5" y="600.6" class="st1" width="10.2" height="18.3"/>
										<rect x="228.9" y="600.6" class="st1" width="10.2" height="18.3"/>
										<rect x="248.4" y="600.6" class="st1" width="10.2" height="18.3"/>
									</g>
									<g>
										<rect x="209.5" y="650.7" class="st1" width="10.2" height="18.3"/>
										<rect x="228.9" y="650.7" class="st1" width="10.2" height="18.3"/>
										<rect x="248.4" y="650.7" class="st1" width="10.2" height="18.3"/>
									</g>
									<g>
										<rect x="209.5" y="675.4" class="st1" width="10.2" height="18.3"/>
										<rect x="228.9" y="675.4" class="st1" width="10.2" height="18.3"/>
										<rect x="248.4" y="675.4" class="st1" width="10.2" height="18.3"/>
									</g>
								</g>
								<polygon class="st1" points="242,737.2 226.1,724.9 226.1,713.1 242,713.1 								"/>
							</g>
							<g>
								<polygon class="st2" points="588.1,737.2 588.1,725.1 526.7,663.8 508.5,682.1 574.4,748 								"/>
								<polygon class="st2" points="582.6,738.8 650.1,708.6 650.1,486 582.6,486 								"/>
								<path class="st2" d="M592.4,473.3l20.1-61.9c0.4-1.1,2-1.9,3.8-1.9s3.5,0.8,3.8,1.9l20.1,61.9V486h-47.9L592.4,473.3
									L592.4,473.3z"/>
								<g>
									<path class="st1" d="M616.4,486l14.2-62.6c0.3-1.1,1.4-1.9,2.7-1.9c1.3,0,2.4,0.8,2.7,1.9l14.2,62.6H616.4z"/>
									<path class="st1" d="M582.6,486l14.2-62.6c0.3-1.1,1.4-1.9,2.7-1.9c1.3,0,2.4,0.8,2.7,1.9l14.2,62.6H582.6z"/>
								</g>
								<g>
									<rect x="582.6" y="530.7" class="st1" width="67.5" height="8.7"/>
									<rect x="582.6" y="581.4" class="st1" width="67.5" height="8.7"/>
									<rect x="582.6" y="632" class="st1" width="67.5" height="8.7"/>
								</g>
								<g>
									<g>
										<rect x="630.7" y="500.4" class="st1" width="10.2" height="18.3"/>
										<rect x="611.2" y="500.4" class="st1" width="10.2" height="18.3"/>
										<rect x="591.8" y="500.4" class="st1" width="10.2" height="18.3"/>
									</g>
									<g>
										<rect x="630.7" y="550.5" class="st1" width="10.2" height="18.3"/>
										<rect x="611.2" y="550.5" class="st1" width="10.2" height="18.3"/>
										<rect x="591.8" y="550.5" class="st1" width="10.2" height="18.3"/>
									</g>
									<g>
										<rect x="630.7" y="600.6" class="st1" width="10.2" height="18.3"/>
										<rect x="611.2" y="600.6" class="st1" width="10.2" height="18.3"/>
										<rect x="591.8" y="600.6" class="st1" width="10.2" height="18.3"/>
									</g>
									<g>
										<rect x="630.7" y="650.7" class="st1" width="10.2" height="18.3"/>
										<rect x="611.2" y="650.7" class="st1" width="10.2" height="18.3"/>
										<rect x="591.8" y="650.7" class="st1" width="10.2" height="18.3"/>
									</g>
									<g>
										<rect x="630.7" y="675.4" class="st1" width="10.2" height="18.3"/>
										<rect x="611.2" y="675.4" class="st1" width="10.2" height="18.3"/>
										<rect x="591.8" y="675.4" class="st1" width="10.2" height="18.3"/>
									</g>
								</g>
								<polygon class="st1" points="608.4,737.2 624.3,724.9 624.3,713.1 608.4,713.1 								"/>
							</g>
						</g>
					</g>
					<g>
						<g>
							<polygon class="st2" points="494.4,631.6 482.4,631.6 482.4,588.4 368,588.4 368,631.6 356,631.6 356,744.7 368,744.7 
								368,807.6 426,837.8 482.4,806 482.4,744.7 494.4,744.7 							"/>
							<rect x="391.2" y="524.9" class="st2" width="68" height="25.4"/>
							<path class="st1" d="M391.2,524.9c0,0,21.6-21.6,30.2-100.2c0-0.2,7.6-0.2,7.6-0.2c13,81.3,30.2,100.4,30.2,100.4
								L391.2,524.9L391.2,524.9z"/>
							<path class="st1" d="M459.2,550.3h-10.5v-19.1h-10.8v19.1h-7.3v-19.1h-10.8v19.1h-7.3v-19.1h-10.8v19.1h-10.5
								c0,25.4-23.2,38.1-23.2,38.1h114.3C482.4,588.4,459.2,575.7,459.2,550.3z"/>
							<polygon class="st1" points="468.5,613.8 468.5,604.3 457.8,604.3 457.8,613.8 449.6,613.8 449.6,604.3 438.8,604.3 
								438.8,613.8 430.6,613.8 430.6,604.3 419.8,604.3 419.8,613.8 411.6,613.8 411.6,604.3 400.8,604.3 400.8,613.8 392.6,613.8 
								392.6,604.3 381.9,604.3 381.9,613.8 368,613.8 368,631.6 482.4,631.6 482.4,613.8 							"/>
							<g>
								<circle class="st1" cx="425.2" cy="688.1" r="44.8"/>
								<path class="st2" d="M425.2,691.9h-17.6c-2.1,0-3.8-1.7-3.8-3.8s1.7-3.8,3.8-3.8h13.8v-26.6c0-2.1,1.7-3.8,3.8-3.8
									s3.8,1.7,3.8,3.8v30.4C429,690.2,427.3,691.9,425.2,691.9z"/>
							</g>
						</g>
					</g>
				</g>
			</g>
		</g>
	</g>
	<g>
		<g>
			<path class="st1" d="M235.3,344.8h5.6v26.8h16.7v5.1h-22.3L235.3,344.8L235.3,344.8z"/>
			<path class="st1" d="M292.4,367.1c-0.8,2-2,3.8-3.5,5.3c-1.5,1.5-3.2,2.7-5.3,3.6c-2,0.9-4.3,1.3-6.7,1.3s-4.7-0.4-6.7-1.3
				c-2-0.9-3.8-2-5.2-3.5c-1.5-1.5-2.6-3.2-3.4-5.2s-1.2-4.1-1.2-6.4c0-2.2,0.4-4.4,1.2-6.4c0.8-2,2-3.8,3.5-5.3
				c1.5-1.5,3.2-2.7,5.3-3.6c2-0.9,4.3-1.3,6.7-1.3s4.7,0.4,6.7,1.3c2,0.9,3.8,2,5.2,3.5c1.5,1.5,2.6,3.2,3.4,5.2
				c0.8,2,1.2,4.1,1.2,6.4C293.6,363,293.2,365.1,292.4,367.1z M286.9,356.4c-0.5-1.4-1.3-2.6-2.2-3.6c-1-1-2.1-1.9-3.4-2.5
				c-1.3-0.6-2.8-0.9-4.4-0.9s-3,0.3-4.3,0.9c-1.3,0.6-2.4,1.4-3.4,2.4c-0.9,1-1.7,2.2-2.2,3.6c-0.5,1.4-0.8,2.8-0.8,4.4
				c0,1.5,0.3,3,0.8,4.4c0.5,1.4,1.3,2.6,2.2,3.6c1,1,2.1,1.9,3.4,2.5c1.3,0.6,2.8,0.9,4.4,0.9c1.6,0,3-0.3,4.3-0.9
				c1.3-0.6,2.4-1.4,3.4-2.4c0.9-1,1.7-2.2,2.2-3.6c0.5-1.4,0.8-2.8,0.8-4.4C287.7,359.3,287.4,357.8,286.9,356.4z"/>
			<path class="st1" d="M322.6,344.8h5.5v31.8h-4.7L305.9,354v22.7h-5.5v-31.8h5.2l17,22L322.6,344.8L322.6,344.8z"/>
			<path class="st1" d="M363.9,367c-0.8,2-2,3.6-3.5,5.1c-1.5,1.4-3.3,2.5-5.4,3.4c-2.1,0.8-4.4,1.2-6.8,1.2h-11.9v-31.8h11.9
				c2.5,0,4.8,0.4,6.8,1.2c2.1,0.8,3.9,1.9,5.4,3.3c1.5,1.4,2.7,3.1,3.5,5.1c0.8,1.9,1.2,4,1.2,6.3C365.1,363,364.7,365.1,363.9,367
				z M358.4,356.5c-0.5-1.3-1.3-2.5-2.2-3.4c-1-1-2.1-1.7-3.5-2.3c-1.4-0.5-2.9-0.8-4.6-0.8h-6.3v21.7h6.3c1.7,0,3.2-0.3,4.6-0.8
				c1.4-0.5,2.5-1.3,3.5-2.2c1-1,1.7-2.1,2.2-3.4c0.5-1.3,0.8-2.8,0.8-4.4C359.2,359.2,359,357.8,358.4,356.5z"/>
			<path class="st1" d="M402.5,367.1c-0.8,2-2,3.8-3.5,5.3c-1.5,1.5-3.2,2.7-5.3,3.6c-2,0.9-4.3,1.3-6.7,1.3s-4.7-0.4-6.7-1.3
				c-2-0.9-3.8-2-5.2-3.5c-1.5-1.5-2.6-3.2-3.4-5.2s-1.2-4.1-1.2-6.4c0-2.2,0.4-4.4,1.2-6.4s2-3.8,3.5-5.3c1.5-1.5,3.2-2.7,5.3-3.6
				c2-0.9,4.3-1.3,6.7-1.3s4.7,0.4,6.7,1.3c2,0.9,3.8,2,5.2,3.5c1.5,1.5,2.6,3.2,3.4,5.2c0.8,2,1.2,4.1,1.2,6.4
				S403.4,365.1,402.5,367.1z M397.1,356.4c-0.5-1.4-1.3-2.6-2.2-3.6c-1-1-2.1-1.9-3.4-2.5c-1.3-0.6-2.8-0.9-4.4-0.9
				c-1.6,0-3,0.3-4.3,0.9c-1.3,0.6-2.4,1.4-3.4,2.4c-0.9,1-1.7,2.2-2.2,3.6c-0.5,1.4-0.8,2.8-0.8,4.4c0,1.5,0.3,3,0.8,4.4
				c0.5,1.4,1.3,2.6,2.2,3.6c1,1,2.1,1.9,3.4,2.5c1.3,0.6,2.8,0.9,4.4,0.9c1.6,0,3-0.3,4.3-0.9c1.3-0.6,2.4-1.4,3.4-2.4
				c0.9-1,1.7-2.2,2.2-3.6c0.5-1.4,0.8-2.8,0.8-4.4C397.9,359.3,397.6,357.8,397.1,356.4z"/>
			<path class="st1" d="M432.8,344.8h5.5v31.8h-4.7L416.1,354v22.7h-5.5v-31.8h5.2l17,22L432.8,344.8L432.8,344.8z"/>
		</g>
		<g>
			<path class="st1" d="M518.5,350.5c-1.1,0.8-2.3,2-3.5,3.6l-4-3.1c0.8-1.1,1.5-2,2.3-2.9c0.8-0.8,1.7-1.6,2.6-2.1
				c0.9-0.6,1.9-1,3.1-1.3c1.1-0.3,2.4-0.5,3.8-0.5c1.6,0,3,0.2,4.3,0.7c1.3,0.5,2.4,1.1,3.3,2c0.9,0.9,1.6,1.9,2.1,3
				c0.5,1.2,0.8,2.5,0.8,3.9c0,1.3-0.2,2.4-0.5,3.4c-0.3,1-0.8,2-1.5,2.9c-0.7,0.9-1.6,1.9-2.6,2.9s-2.3,2-3.7,3.2l-6.6,5.5h15.2
				v4.9h-23.1v-4.4l11-9.4c1.1-0.9,2-1.7,2.8-2.5c0.8-0.7,1.4-1.5,1.9-2.1c0.5-0.7,0.8-1.3,1-2c0.2-0.6,0.3-1.3,0.3-2.1
				c0-1.6-0.5-2.8-1.5-3.7c-1-0.9-2.2-1.3-3.7-1.3S519.6,349.7,518.5,350.5z"/>
			<path class="st1" d="M565.7,367.1c-0.7,2-1.6,3.8-2.8,5.3c-1.2,1.5-2.7,2.7-4.4,3.5c-1.7,0.9-3.6,1.3-5.7,1.3s-4-0.4-5.7-1.3
				s-3.2-2-4.4-3.5c-1.2-1.5-2.2-3.2-2.8-5.3c-0.7-2-1-4.2-1-6.4s0.3-4.4,1-6.5c0.7-2,1.6-3.8,2.8-5.3c1.2-1.5,2.7-2.7,4.4-3.5
				c1.7-0.9,3.6-1.3,5.7-1.3c2.1,0,4,0.4,5.7,1.3c1.7,0.9,3.2,2,4.4,3.5c1.2,1.5,2.2,3.2,2.8,5.3c0.7,2,1,4.2,1,6.4
				S566.4,365.1,565.7,367.1z M560.4,356.3c-0.4-1.4-0.9-2.6-1.6-3.7c-0.7-1-1.6-1.9-2.6-2.5c-1-0.6-2.1-0.9-3.4-0.9
				c-1.2,0-2.4,0.3-3.4,0.9c-1,0.6-1.8,1.4-2.5,2.4c-0.7,1-1.2,2.2-1.6,3.6c-0.4,1.4-0.6,2.9-0.6,4.5c0,1.6,0.2,3.1,0.6,4.5
				c0.4,1.4,0.9,2.6,1.6,3.7c0.7,1.1,1.6,1.9,2.6,2.5c1,0.6,2.1,0.9,3.4,0.9c1.2,0,2.4-0.3,3.4-0.9c1-0.6,1.8-1.4,2.5-2.4
				c0.7-1,1.2-2.2,1.6-3.6c0.4-1.4,0.6-2.9,0.6-4.5C561,359.2,560.8,357.7,560.4,356.3z"/>
			<path class="st1" d="M578.9,344.5h3.9v32.2h-5.6v-26.5l-5.8,1.6l-1.2-4.6L578.9,344.5z"/>
			<path class="st1" d="M610.3,352c-1.1-0.9-2.2-1.6-3.3-2.1c-1.1-0.5-2.3-0.7-3.7-0.7c-1.2,0-2.2,0.3-3.2,0.8
				c-0.9,0.5-1.7,1.2-2.4,2.1c-0.6,0.9-1.1,2-1.5,3.2c-0.4,1.2-0.6,2.6-0.6,4.1c0.4-0.4,0.9-0.8,1.4-1.2c0.5-0.4,1-0.7,1.7-1
				c0.6-0.3,1.3-0.5,2.1-0.7c0.7-0.2,1.6-0.3,2.5-0.3c1.6,0,3,0.2,4.4,0.7c1.4,0.4,2.5,1.1,3.6,2c1,0.9,1.8,1.9,2.4,3.2
				c0.6,1.2,0.9,2.7,0.9,4.3c0,1.6-0.3,3.1-0.9,4.4s-1.4,2.5-2.5,3.4c-1.1,1-2.3,1.7-3.8,2.2c-1.4,0.5-3,0.8-4.7,0.8
				c-2,0-3.7-0.3-5.1-0.9c-1.4-0.6-2.7-1.4-3.8-2.5c-0.6-0.6-1.2-1.3-1.6-2c-0.5-0.7-0.9-1.6-1.2-2.6c-0.3-1-0.6-2.1-0.8-3.4
				c-0.2-1.2-0.3-2.7-0.3-4.3c0-2.5,0.3-4.8,0.9-6.9c0.6-2.1,1.4-4,2.6-5.5c1.1-1.6,2.6-2.8,4.3-3.7c1.7-0.9,3.7-1.3,6-1.3
				c2.1,0,3.9,0.3,5.4,0.9c1.5,0.6,3,1.5,4.4,2.6L610.3,352z M607.2,362.5c-1.2-1.1-2.8-1.6-4.8-1.6c-1,0-1.9,0.2-2.7,0.5
				c-0.8,0.3-1.5,0.7-2,1.2c-0.6,0.5-1,1.1-1.3,1.8c-0.3,0.7-0.5,1.4-0.5,2.2c0,1.7,0.6,3.1,1.8,4.2c1.2,1.1,2.8,1.6,4.8,1.6
				c2,0,3.6-0.6,4.7-1.7c1.1-1.1,1.7-2.5,1.7-4.2C608.9,364.9,608.3,363.6,607.2,362.5z"/>
		</g>
		<circle class="st1" cx="475.8" cy="362.4" r="7.8"/>
	</g>
	<polygon class="st1" points="482.4,744.7 368,744.7 368,762.5 376,762.5 376,809.5 383.6,813.8 383.6,762.5 391.1,762.5 
		391.1,818.1 398.7,822.4 398.7,762.5 406.2,762.5 406.2,826.6 413.9,830.9 413.9,762.5 421.4,762.5 421.4,835.2 426,837.8 429,836 
		429,762.5 436.5,762.5 436.5,831.5 444.1,826.9 444.1,762.5 451.7,762.5 451.7,822.5 459.3,817.9 459.3,762.5 466.8,762.5 
		466.8,813.4 474.4,808.9 474.4,762.5 482.4,762.5 	"/>
	<path class="st1" d="M425.2,0L57,212.6v425.2l368.2,212.6l368.2-212.6V212.6L425.2,0z M752.6,212.6H97.8l327.4-189L752.6,212.6z
		 M425.2,826.8L77.4,626V325.7H773V626L425.2,826.8z"/>
	<g>
		<polygon class="st2" points="639.4,259.8 639.4,271.2 616.1,271.2 616.1,293.1 603.7,293.1 603.7,237.1 641.3,237.1 641.3,248.4 
			616.1,248.4 616.1,259.8 		"/>
		<polygon class="st2" points="592.8,237.1 592.8,293.1 576.6,293.1 552.2,253.2 552,253.2 552,293.1 539.7,293.1 539.7,237.1 
			556.4,237.1 580.3,276 580.4,276 580.4,237.1 		"/>
		<path class="st2" d="M530.3,265.1c0,10.4-6.9,18-17.4,18c-10.5,0-17.4-7.6-17.4-18c0-10.4,6.9-18,17.4-18
			C523.4,247,530.3,254.6,530.3,265.1z"/>
		<path class="st2" d="M471.2,283.1c5,0,9-2.2,11.6-6l10.3,7.7c-4.7,6.6-12.6,9.7-20.3,9.7c-17.5,0-30.2-11.5-30.2-29.4
			c0-18,12.7-29.4,30.2-29.4c6.3,0,14.2,2.1,18.9,8.2l-9.5,7.8c-2.5-2.9-6-4.6-10.6-4.6c-9.3,0-16.2,7.6-16.2,18
			C455.4,275.5,462.3,283.1,471.2,283.1z"/>
		<polygon class="st2" points="434.5,258.9 434.5,270.3 410.2,270.3 410.2,281.7 437.3,281.7 437.3,293.1 397.8,293.1 397.8,237.1 
			435.9,237 435.9,248.4 410.2,248.4 410.2,258.9 		"/>
		<path class="st2" d="M390,265.2c0,18.1-14.8,27.9-31.5,27.9h-20.2v-56h18.5C374.8,237.1,390,244.7,390,265.2z"/>
		<path class="st2" d="M330.5,265.1c0,18-12.7,29.4-30.2,29.4S270,283,270,265.1c0-18,12.7-29.4,30.2-29.4
			C317.7,235.6,330.5,247.1,330.5,265.1z"/>
		<polygon class="st2" points="262.2,237.1 262.2,293.1 246,293.1 221.6,253.2 221.4,253.2 221.4,293.1 209.1,293.1 209.1,237.1 
			225.9,237.1 249.7,276 249.8,276 249.8,237.1 		"/>
	</g>
</g>
</svg>
