<?xml version="1.0" encoding="utf-8"?>
<!-- Generator: Adobe Illustrator 17.0.0, SVG Export Plug-In . SVG Version: 6.00 Build 0)  -->
<!DOCTYPE svg PUBLIC "-//W3C//DTD SVG 1.1//EN" "http://www.w3.org/Graphics/SVG/1.1/DTD/svg11.dtd">
<svg version="1.1" id="Layer_1" xmlns="http://www.w3.org/2000/svg" xmlns:xlink="http://www.w3.org/1999/xlink" x="0px" y="0px"
	 width="850.39px" height="850.39px" viewBox="0 0 850.39 850.39" enable-background="new 0 0 850.39 850.39" xml:space="preserve">
<g>
	<polygon fill="#191A23" points="56.964,212.597 425.195,-0.002 793.426,212.597 793.426,637.793 425.195,850.392 56.964,637.793 	
		"/>
	<g>
		<path fill="#727090" d="M104.874,652.819l1.278-1.057c1.216-1.019,2.456-2.008,3.648-3.056c1.2-1.037,2.401-2.072,3.6-3.107
			c0.598-0.52,1.203-1.03,1.794-1.557l1.765-1.588c1.173-1.063,2.345-2.123,3.515-3.184c1.167-1.063,2.299-2.164,3.447-3.242
			c1.141-1.086,2.294-2.157,3.419-3.253c1.117-1.105,2.232-2.208,3.345-3.309c4.452-4.403,8.733-8.914,12.845-13.479
			c1.048-1.123,2.031-2.299,3.04-3.445c1.002-1.151,2-2.3,2.996-3.444c0.995-1.144,1.939-2.326,2.894-3.489
			c0.953-1.165,1.902-2.327,2.847-3.483c1.834-2.359,3.652-4.697,5.454-7.014c1.744-2.362,3.439-4.723,5.132-7.047
			c1.628-2.371,3.24-4.715,4.831-7.031c1.534-2.357,3.016-4.704,4.494-7.009c0.744-1.148,1.419-2.332,2.122-3.483
			c0.693-1.158,1.382-2.308,2.065-3.449c0.336-0.574,0.682-1.137,1.006-1.713c0.321-0.577,0.641-1.151,0.959-1.724
			c0.636-1.144,1.267-2.279,1.893-3.405c0.312-0.563,0.624-1.122,0.934-1.68l0.464-0.834l0.439-0.844
			c0.578-1.125,1.15-2.241,1.718-3.346c0.565-1.105,1.124-2.2,1.679-3.285c0.559-1.082,1.052-2.184,1.571-3.258
			c1.022-2.156,2.032-4.261,2.961-6.346c0.906-2.094,1.791-4.14,2.653-6.133c0.213-0.499,0.424-0.996,0.635-1.488
			c0.209-0.494,0.393-0.994,0.589-1.485c0.385-0.985,0.764-1.957,1.138-2.914c0.374-0.957,0.742-1.901,1.104-2.83
			c0.365-0.928,0.722-1.842,1.031-2.76c2.62-7.286,4.628-13.685,6.11-19.054c0.735-2.692,1.353-5.101,1.907-7.188
			c0.46-2.067,0.851-3.826,1.168-5.252c0.318-1.424,0.555-2.518,0.706-3.259c0.156-0.738,0.235-1.119,0.235-1.119l-7.399-2.264
			c0,0-0.147,0.361-0.431,1.06c-0.288,0.698-0.704,1.737-1.237,3.096c-0.538,1.356-1.2,3.028-1.98,4.994
			c-0.804,1.91-1.747,4.093-2.761,6.543c-0.255,0.612-0.518,1.24-0.786,1.884c-0.29,0.642-0.589,1.3-0.893,1.974
			c-0.601,1.348-1.23,2.759-1.886,4.229c-0.327,0.734-0.663,1.483-1.003,2.247c-0.36,0.755-0.728,1.525-1.102,2.308
			c-0.743,1.566-1.514,3.189-2.31,4.866c-0.387,0.842-0.825,1.678-1.254,2.532c-0.431,0.854-0.868,1.72-1.312,2.599
			c-0.443,0.878-0.892,1.769-1.348,2.673c-0.23,0.45-0.45,0.909-0.693,1.36c-0.244,0.451-0.49,0.905-0.737,1.362
			c-0.978,1.83-1.981,3.707-3.007,5.628c-0.505,0.964-1.08,1.907-1.625,2.877c-0.549,0.968-1.104,1.947-1.664,2.936
			c-0.567,0.986-1.105,1.998-1.709,2.989c-0.599,0.993-1.204,1.995-1.815,3.008c-1.226,2.02-2.433,4.101-3.769,6.153
			c-0.655,1.034-1.315,2.075-1.982,3.126c-0.332,0.525-0.667,1.053-1.002,1.581c-0.337,0.528-0.698,1.044-1.049,1.569
			c-1.419,2.09-2.8,4.248-4.277,6.386c-1.498,2.122-3.016,4.273-4.553,6.451c-1.579,2.146-3.178,4.319-4.794,6.515
			c-1.67,2.155-3.358,4.334-5.064,6.533c-1.751,2.163-3.518,4.347-5.3,6.549c-1.836,2.159-3.687,4.335-5.551,6.527
			c-0.952,1.08-1.907,2.163-2.866,3.251c-0.965,1.083-1.903,2.192-2.906,3.253c-3.953,4.292-7.985,8.614-12.21,12.819
			c-1.056,1.053-2.112,2.107-3.172,3.163c-1.069,1.048-2.164,2.071-3.247,3.111c-1.091,1.032-2.163,2.085-3.274,3.104
			c-1.111,1.017-2.223,2.035-3.336,3.055l-1.666,1.536c-0.558,0.51-1.13,1.004-1.695,1.507c-1.133,1.002-2.268,2.005-3.403,3.008
			c-1.125,1.015-2.301,1.974-3.452,2.962l-3.473,2.942c-0.884,0.722-1.769,1.443-2.654,2.164L104.874,652.819z"/>
	</g>
	<path fill="#727090" d="M641.027,491.553c0.317,1.426,0.708,3.185,1.168,5.252c0.554,2.086,1.171,4.495,1.907,7.188
		c1.483,5.369,3.49,11.768,6.11,19.054c0.308,0.918,0.666,1.832,1.031,2.76c0.363,0.929,0.731,1.873,1.104,2.83
		c0.374,0.958,0.754,1.93,1.139,2.914c0.196,0.491,0.38,0.992,0.589,1.485c0.211,0.493,0.421,0.989,0.635,1.488
		c0.863,1.995,1.747,4.04,2.653,6.133c0.929,2.084,1.94,4.189,2.961,6.346c0.52,1.074,1.013,2.176,1.571,3.258
		c0.554,1.085,1.113,2.179,1.678,3.285c0.568,1.105,1.14,2.221,1.718,3.346l0.439,0.844l0.464,0.834
		c0.309,0.558,0.621,1.117,0.934,1.68c0.626,1.125,1.256,2.261,1.892,3.405c0.318,0.573,0.638,1.147,0.959,1.724
		c0.323,0.576,0.67,1.139,1.007,1.713c0.683,1.141,1.372,2.291,2.065,3.449c0.704,1.151,1.378,2.336,2.123,3.483
		c1.478,2.304,2.96,4.653,4.494,7.009c1.591,2.317,3.203,4.661,4.831,7.031c1.692,2.324,3.388,4.685,5.132,7.047
		c1.801,2.317,3.62,4.655,5.453,7.014c0.945,1.156,1.894,2.318,2.847,3.483c0.956,1.163,1.9,2.345,2.894,3.489
		c0.995,1.144,1.993,2.292,2.996,3.444c1.008,1.146,1.992,2.322,3.04,3.445c4.111,4.566,8.392,9.077,12.845,13.479
		c1.112,1.101,2.228,2.204,3.345,3.309c1.126,1.096,2.279,2.166,3.419,3.253c1.148,1.079,2.28,2.179,3.447,3.242
		c1.17,1.06,2.342,2.121,3.515,3.184l1.765,1.588c0.591,0.528,1.196,1.038,1.794,1.557c1.199,1.035,2.4,2.071,3.6,3.107
		c1.191,1.048,2.432,2.037,3.648,3.056l0.915,0.756l16.197-9.489c-0.757-0.617-1.515-1.232-2.27-1.85l-3.473-2.942
		c-1.15-0.988-2.328-1.947-3.452-2.962c-1.135-1.003-2.27-2.006-3.403-3.008c-0.565-0.503-1.138-0.997-1.695-1.507l-1.666-1.536
		c-1.114-1.02-2.226-2.037-3.336-3.055s-2.182-2.071-3.274-3.104c-1.083-1.04-2.178-2.063-3.247-3.111
		c-1.06-1.057-2.116-2.11-3.172-3.163c-4.225-4.206-8.257-8.527-12.21-12.819c-1.004-1.061-1.943-2.17-2.906-3.253
		c-0.959-1.088-1.914-2.171-2.866-3.251c-1.865-2.192-3.716-4.368-5.552-6.527c-1.782-2.202-3.549-4.386-5.3-6.549
		c-1.705-2.199-3.393-4.378-5.064-6.533c-1.616-2.196-3.215-4.369-4.794-6.515c-1.536-2.178-3.055-4.329-4.553-6.451
		c-1.478-2.137-2.859-4.295-4.277-6.386c-0.35-0.526-0.711-1.042-1.049-1.569c-0.335-0.529-0.67-1.057-1.002-1.581
		c-0.666-1.051-1.326-2.092-1.982-3.126c-1.336-2.052-2.543-4.133-3.769-6.153c-0.611-1.013-1.216-2.016-1.815-3.008
		c-0.605-0.991-1.143-2.003-1.709-2.989c-0.561-0.989-1.115-1.968-1.664-2.936c-0.546-0.971-1.12-1.913-1.625-2.877
		c-1.027-1.922-2.029-3.798-3.007-5.628c-0.247-0.457-0.493-0.911-0.737-1.362c-0.243-0.451-0.463-0.91-0.693-1.36
		c-0.456-0.903-0.905-1.794-1.348-2.673c-0.444-0.879-0.881-1.746-1.312-2.599c-0.429-0.855-0.867-1.69-1.254-2.532
		c-0.796-1.676-1.566-3.3-2.31-4.866c-0.374-0.783-0.741-1.553-1.102-2.308c-0.341-0.763-0.675-1.513-1.003-2.247
		c-0.656-1.471-1.284-2.882-1.886-4.229c-0.304-0.673-0.603-1.331-0.893-1.974c-0.268-0.645-0.531-1.272-0.786-1.884
		c-1.014-2.45-1.957-4.634-2.761-6.543c-0.779-1.966-1.442-3.638-1.98-4.994c-0.533-1.359-0.95-2.398-1.237-3.096
		c-0.284-0.699-0.431-1.06-0.431-1.06l-7.399,2.264c0,0,0.08,0.381,0.236,1.119C640.472,489.035,640.709,490.128,641.027,491.553z"
		/>
	<g>
		<g>
			<g>
				<g>
					<g>
						<rect x="258.585" y="520.825" fill="#727090" width="333.22" height="19.827"/>
						<g>
							<g>
								<polygon fill="#FBF8E7" points="262.325,737.156 262.325,725.111 323.661,663.776 341.936,682.051 276.001,747.986 								
									"/>
								<polygon fill="#FBF8E7" points="267.798,745.313 200.266,712.681 200.266,486.042 267.798,486.042 								"/>
								<path fill="#FBF8E7" d="M258,473.281l-20.146-61.856c-0.362-1.113-1.963-1.916-3.821-1.916
									c-1.859,0-3.458,0.802-3.821,1.916l-20.146,61.856v12.761h47.935v-12.761H258z"/>
								<g>
									<path fill="#727090" d="M234.032,486.042l-14.191-62.632c-0.255-1.127-1.383-1.94-2.692-1.94s-2.436,0.812-2.692,1.94
										l-14.191,62.632H234.032z"/>
									<path fill="#727090" d="M267.798,486.042l-14.191-62.632c-0.255-1.127-1.383-1.94-2.692-1.94s-2.436,0.812-2.692,1.94
										l-14.191,62.632H267.798z"/>
								</g>
								<g>
									<rect x="200.266" y="530.738" fill="#727090" width="67.531" height="8.729"/>
									<rect x="200.266" y="581.371" fill="#727090" width="67.531" height="8.729"/>
									<rect x="200.266" y="632.004" fill="#727090" width="67.531" height="8.729"/>
								</g>
								<g>
									<g>
										<rect x="209.48" y="500.433" fill="#727090" width="10.226" height="18.302"/>
										<rect x="228.92" y="500.433" fill="#727090" width="10.226" height="18.302"/>
										<rect x="248.359" y="500.433" fill="#727090" width="10.226" height="18.302"/>
									</g>
									<g>
										<rect x="209.48" y="550.511" fill="#727090" width="10.226" height="18.302"/>
										<rect x="228.92" y="550.511" fill="#727090" width="10.226" height="18.302"/>
										<rect x="248.359" y="550.511" fill="#727090" width="10.226" height="18.302"/>
									</g>
									<g>
										<rect x="209.48" y="600.59" fill="#727090" width="10.226" height="18.302"/>
										<rect x="228.92" y="600.59" fill="#727090" width="10.226" height="18.302"/>
										<rect x="248.359" y="600.59" fill="#727090" width="10.226" height="18.302"/>
									</g>
									<g>
										<rect x="209.48" y="650.668" fill="#727090" width="10.226" height="18.302"/>
										<rect x="228.92" y="650.668" fill="#727090" width="10.226" height="18.302"/>
										<rect x="248.359" y="650.668" fill="#727090" width="10.226" height="18.302"/>
									</g>
									<g>
										<rect x="209.48" y="675.39" fill="#727090" width="10.226" height="18.302"/>
										<rect x="228.92" y="675.39" fill="#727090" width="10.226" height="18.302"/>
										<rect x="248.359" y="675.39" fill="#727090" width="10.226" height="18.302"/>
									</g>
								</g>
								<polygon fill="#727090" points="241.993,737.156 226.072,724.918 226.072,713.067 241.993,713.067 								"/>
							</g>
							<g>
								<polygon fill="#FBF8E7" points="588.065,737.156 588.065,725.111 526.729,663.776 508.454,682.051 574.389,747.986 								
									"/>
								<polygon fill="#FBF8E7" points="582.592,738.787 650.124,708.602 650.124,486.042 582.592,486.042 								"/>
								<path fill="#FBF8E7" d="M592.39,473.281l20.146-61.856c0.362-1.113,1.963-1.916,3.821-1.916s3.458,0.802,3.821,1.916
									l20.146,61.856v12.761h-47.935v-12.761H592.39z"/>
								<g>
									<path fill="#727090" d="M616.358,486.042l14.191-62.632c0.255-1.127,1.382-1.94,2.692-1.94c1.309,0,2.437,0.812,2.692,1.94
										l14.191,62.632H616.358z"/>
									<path fill="#727090" d="M582.592,486.042l14.191-62.632c0.255-1.127,1.382-1.94,2.692-1.94c1.309,0,2.437,0.812,2.692,1.94
										l14.191,62.632H582.592z"/>
								</g>
								<g>
									<rect x="582.592" y="530.738" fill="#727090" width="67.531" height="8.729"/>
									<rect x="582.592" y="581.371" fill="#727090" width="67.531" height="8.729"/>
									<rect x="582.592" y="632.004" fill="#727090" width="67.531" height="8.729"/>
								</g>
								<g>
									<g>
										<rect x="630.684" y="500.433" fill="#727090" width="10.226" height="18.302"/>
										<rect x="611.244" y="500.433" fill="#727090" width="10.226" height="18.302"/>
										<rect x="591.805" y="500.433" fill="#727090" width="10.226" height="18.302"/>
									</g>
									<g>
										<rect x="630.684" y="550.511" fill="#727090" width="10.226" height="18.302"/>
										<rect x="611.244" y="550.511" fill="#727090" width="10.226" height="18.302"/>
										<rect x="591.805" y="550.511" fill="#727090" width="10.226" height="18.302"/>
									</g>
									<g>
										<rect x="630.684" y="600.59" fill="#727090" width="10.226" height="18.302"/>
										<rect x="611.244" y="600.59" fill="#727090" width="10.226" height="18.302"/>
										<rect x="591.805" y="600.59" fill="#727090" width="10.226" height="18.302"/>
									</g>
									<g>
										<rect x="630.684" y="650.668" fill="#727090" width="10.226" height="18.302"/>
										<rect x="611.244" y="650.668" fill="#727090" width="10.226" height="18.302"/>
										<rect x="591.805" y="650.668" fill="#727090" width="10.226" height="18.302"/>
									</g>
									<g>
										<rect x="630.684" y="675.39" fill="#727090" width="10.226" height="18.302"/>
										<rect x="611.244" y="675.39" fill="#727090" width="10.226" height="18.302"/>
										<rect x="591.805" y="675.39" fill="#727090" width="10.226" height="18.302"/>
									</g>
								</g>
								<polygon fill="#727090" points="608.397,737.156 624.318,724.918 624.318,713.067 608.397,713.067 								"/>
							</g>
						</g>
					</g>
					<g>
						<g>
							<polygon fill="#FBF8E7" points="494.427,631.608 482.36,631.608 482.36,588.417 368.03,588.417 368.03,631.608 
								355.962,631.608 355.962,744.668 368.03,744.668 368.03,807.596 426.009,837.78 482.36,805.964 482.36,744.668 
								494.427,744.668 							"/>
							<rect x="391.214" y="524.901" fill="#FBF8E7" width="67.962" height="25.407"/>
							<path fill="#727090" d="M391.214,524.901c0,0,21.595-21.595,30.171-100.184c0.019-0.172,7.622-0.173,7.622-0.173
								c13.021,81.301,30.171,100.356,30.171,100.356L391.214,524.901L391.214,524.901z"/>
							<path fill="#727090" d="M459.176,550.307h-10.48v-19.055h-10.772v19.055h-7.344v-19.055h-10.772v19.055h-7.344v-19.055
								h-10.772v19.055h-10.48c0,25.407-23.184,38.11-23.184,38.11h114.33C482.36,588.417,459.176,575.714,459.176,550.307z"/>
							<polygon fill="#727090" points="468.538,613.824 468.538,604.296 457.767,604.296 457.767,613.824 449.56,613.824 
								449.56,604.296 438.788,604.296 438.788,613.824 430.581,613.824 430.581,604.296 419.809,604.296 419.809,613.824 
								411.602,613.824 411.602,604.296 400.83,604.296 400.83,613.824 392.623,613.824 392.623,604.296 381.852,604.296 
								381.852,613.824 368.03,613.824 368.03,631.608 482.36,631.608 482.36,613.824 							"/>
							<g>
								<circle fill="#727090" cx="425.195" cy="688.138" r="44.779"/>
								<path fill="#FBF8E7" d="M425.195,691.949h-17.569c-2.105,0-3.811-1.706-3.811-3.811s1.706-3.811,3.811-3.811h13.759v-26.625
									c0-2.105,1.706-3.811,3.811-3.811s3.811,1.706,3.811,3.811v30.436C429.006,690.243,427.3,691.949,425.195,691.949z"/>
							</g>
						</g>
					</g>
				</g>
			</g>
		</g>
	</g>
	<g>
		<g>
			<path fill="#727090" d="M235.343,344.849h5.55v26.799h16.743v5.051h-22.294L235.343,344.849L235.343,344.849z"/>
			<path fill="#727090" d="M292.352,367.098c-0.819,2.002-1.973,3.754-3.458,5.255c-1.487,1.502-3.246,2.692-5.278,3.572
				c-2.032,0.879-4.277,1.319-6.734,1.319s-4.701-0.432-6.734-1.297c-2.032-0.864-3.776-2.039-5.232-3.526
				c-1.457-1.486-2.593-3.231-3.412-5.232s-1.228-4.125-1.228-6.37c0-2.244,0.409-4.368,1.228-6.37
				c0.819-2.001,1.972-3.754,3.458-5.255c1.486-1.501,3.245-2.691,5.278-3.572c2.032-0.879,4.277-1.319,6.734-1.319
				s4.701,0.432,6.734,1.297c2.032,0.864,3.776,2.04,5.232,3.526c1.456,1.487,2.593,3.23,3.412,5.232
				c0.819,2.002,1.228,4.126,1.228,6.371C293.581,362.974,293.171,365.096,292.352,367.098z M286.915,356.428
				c-0.531-1.38-1.274-2.586-2.229-3.618c-0.956-1.031-2.101-1.85-3.435-2.456c-1.335-0.607-2.791-0.91-4.368-0.91
				s-3.025,0.296-4.345,0.887c-1.319,0.592-2.449,1.396-3.389,2.412c-0.941,1.017-1.676,2.214-2.207,3.594
				c-0.531,1.381-0.796,2.844-0.796,4.391c0,1.546,0.265,3.01,0.796,4.39c0.531,1.381,1.274,2.586,2.23,3.617
				c0.956,1.032,2.1,1.851,3.435,2.457c1.334,0.607,2.791,0.91,4.368,0.91c1.576,0,3.025-0.295,4.345-0.887
				c1.319-0.592,2.449-1.395,3.389-2.412c0.94-1.016,1.676-2.214,2.206-3.595c0.531-1.38,0.796-2.844,0.796-4.39
				C287.712,359.272,287.445,357.809,286.915,356.428z"/>
			<path fill="#727090" d="M322.563,344.849h5.55v31.849h-4.677L305.91,354.04v22.658h-5.55v-31.849h5.176l17.028,22.021v-22.021
				H322.563z"/>
			<path fill="#727090" d="M363.876,367.029c-0.819,1.957-1.98,3.648-3.481,5.073c-1.502,1.426-3.292,2.548-5.369,3.366
				c-2.078,0.819-4.361,1.228-6.848,1.228h-11.875v-31.849h11.875c2.486,0,4.769,0.403,6.848,1.206
				c2.077,0.804,3.867,1.919,5.369,3.343c1.502,1.426,2.662,3.11,3.481,5.051c0.819,1.942,1.228,4.035,1.228,6.279
				C365.104,362.974,364.695,365.074,363.876,367.029z M358.436,356.456c-0.533-1.325-1.277-2.474-2.235-3.449
				c-0.959-0.975-2.121-1.736-3.49-2.285c-1.369-0.548-2.89-0.822-4.563-0.822h-6.295v21.749h6.295c1.672,0,3.193-0.266,4.563-0.799
				c1.368-0.533,2.531-1.279,3.49-2.239c0.958-0.96,1.702-2.102,2.235-3.427c0.532-1.325,0.798-2.78,0.798-4.363
				C359.234,359.235,358.968,357.781,358.436,356.456z"/>
			<path fill="#727090" d="M402.549,367.098c-0.819,2.002-1.973,3.754-3.458,5.255c-1.487,1.502-3.246,2.692-5.278,3.572
				c-2.032,0.879-4.277,1.319-6.734,1.319s-4.701-0.432-6.734-1.297c-2.032-0.864-3.776-2.039-5.232-3.526
				c-1.457-1.486-2.593-3.231-3.412-5.232s-1.228-4.125-1.228-6.37c0-2.244,0.409-4.368,1.228-6.37s1.972-3.754,3.458-5.255
				c1.486-1.501,3.245-2.691,5.278-3.572c2.032-0.879,4.277-1.319,6.734-1.319s4.701,0.432,6.734,1.297
				c2.032,0.864,3.776,2.04,5.232,3.526c1.456,1.487,2.593,3.23,3.412,5.232c0.819,2.002,1.228,4.126,1.228,6.371
				S403.368,365.096,402.549,367.098z M397.112,356.428c-0.531-1.38-1.274-2.586-2.229-3.618c-0.956-1.031-2.101-1.85-3.435-2.456
				c-1.335-0.607-2.791-0.91-4.368-0.91c-1.577,0-3.025,0.296-4.345,0.887c-1.319,0.592-2.449,1.396-3.389,2.412
				c-0.941,1.017-1.676,2.214-2.207,3.594c-0.531,1.381-0.796,2.844-0.796,4.391c0,1.546,0.264,3.01,0.796,4.39
				c0.531,1.381,1.274,2.586,2.23,3.617c0.956,1.032,2.1,1.851,3.435,2.457c1.334,0.607,2.791,0.91,4.368,0.91
				c1.576,0,3.025-0.295,4.345-0.887c1.319-0.592,2.449-1.395,3.389-2.412c0.94-1.016,1.676-2.214,2.206-3.595
				c0.531-1.38,0.796-2.844,0.796-4.39C397.909,359.272,397.642,357.809,397.112,356.428z"/>
			<path fill="#727090" d="M432.76,344.849h5.55v31.849h-4.677l-17.526-22.658v22.658h-5.55v-31.849h5.176l17.028,22.021
				L432.76,344.849L432.76,344.849z"/>
		</g>
		<g>
			<path fill="#727090" d="M518.486,350.521c-1.112,0.792-2.292,1.995-3.54,3.609l-3.975-3.106c0.761-1.066,1.538-2.021,2.33-2.867
				c0.792-0.845,1.652-1.551,2.581-2.12c0.929-0.568,1.949-1.006,3.061-1.314c1.112-0.307,2.383-0.461,3.815-0.461
				c1.583,0,3.03,0.228,4.34,0.685c1.309,0.457,2.422,1.112,3.334,1.965c0.914,0.853,1.622,1.866,2.125,3.038
				c0.502,1.173,0.753,2.475,0.753,3.906c0,1.279-0.168,2.422-0.503,3.426c-0.335,1.005-0.845,1.981-1.531,2.923
				c-0.685,0.945-1.553,1.904-2.604,2.878s-2.277,2.04-3.678,3.198l-6.579,5.482h15.213v4.934h-23.117v-4.424l11.01-9.35
				c1.096-0.912,2.025-1.74,2.787-2.485c0.761-0.744,1.378-1.451,1.851-2.121c0.472-0.669,0.814-1.323,1.028-1.961
				c0.213-0.639,0.319-1.323,0.319-2.053c0-1.58-0.495-2.805-1.485-3.671c-0.991-0.867-2.216-1.3-3.678-1.3
				S519.598,349.73,518.486,350.521z"/>
			<path fill="#727090" d="M565.747,367.127c-0.671,2.025-1.615,3.784-2.833,5.276c-1.218,1.493-2.689,2.673-4.408,3.54
				c-1.721,0.868-3.632,1.302-5.734,1.302s-4.005-0.427-5.711-1.279s-3.168-2.025-4.386-3.518c-1.218-1.492-2.155-3.244-2.81-5.253
				c-0.656-2.01-0.982-4.158-0.982-6.442s0.335-4.438,1.005-6.464c0.67-2.025,1.614-3.784,2.833-5.276
				c1.217-1.493,2.688-2.673,4.408-3.54c1.72-0.868,3.632-1.303,5.734-1.303c2.101,0,4.005,0.427,5.711,1.279
				c1.705,0.853,3.167,2.026,4.386,3.518c1.217,1.493,2.154,3.244,2.81,5.254c0.655,2.01,0.983,4.158,0.983,6.441
				S566.417,365.103,565.747,367.127z M560.379,356.277c-0.381-1.401-0.93-2.619-1.644-3.655c-0.715-1.035-1.576-1.858-2.581-2.467
				c-1.006-0.609-2.133-0.914-3.381-0.914c-1.249,0-2.369,0.296-3.357,0.891c-0.99,0.594-1.835,1.401-2.535,2.422
				c-0.701,1.021-1.241,2.232-1.622,3.632c-0.381,1.402-0.572,2.893-0.572,4.477c0,1.614,0.191,3.115,0.572,4.5
				c0.381,1.386,0.929,2.604,1.644,3.655c0.715,1.051,1.576,1.873,2.581,2.467c1.005,0.594,2.131,0.891,3.38,0.891
				c1.248,0,2.368-0.296,3.358-0.891c0.989-0.594,1.835-1.409,2.535-2.444c0.7-1.035,1.241-2.246,1.622-3.632
				c0.38-1.386,0.572-2.871,0.572-4.454C560.95,359.171,560.76,357.678,560.379,356.277z"/>
			<path fill="#727090" d="M578.905,344.49h3.929v32.207h-5.573V350.2l-5.756,1.599l-1.188-4.569L578.905,344.49z"/>
			<path fill="#727090" d="M610.291,352.028c-1.126-0.883-2.216-1.568-3.267-2.056c-1.051-0.487-2.277-0.731-3.678-0.731
				c-1.188,0-2.246,0.253-3.175,0.757c-0.93,0.506-1.714,1.216-2.353,2.134c-0.64,0.918-1.142,1.996-1.508,3.236
				c-0.365,1.239-0.579,2.592-0.64,4.061c0.426-0.395,0.883-0.791,1.371-1.188c0.487-0.395,1.043-0.737,1.667-1.028
				c0.624-0.289,1.309-0.526,2.055-0.708c0.746-0.183,1.591-0.274,2.536-0.274c1.553,0,3.007,0.221,4.362,0.663
				c1.355,0.441,2.543,1.097,3.564,1.965c1.02,0.868,1.82,1.927,2.399,3.175c0.578,1.249,0.868,2.68,0.868,4.294
				c0,1.615-0.304,3.092-0.914,4.432s-1.447,2.49-2.512,3.449c-1.066,0.959-2.323,1.706-3.768,2.239
				c-1.447,0.532-3.008,0.799-4.682,0.799c-1.981,0-3.694-0.29-5.139-0.868c-1.447-0.579-2.704-1.401-3.769-2.467
				c-0.61-0.609-1.158-1.286-1.644-2.032c-0.488-0.746-0.899-1.614-1.233-2.604c-0.335-0.99-0.587-2.109-0.753-3.358
				c-0.169-1.248-0.251-2.68-0.251-4.294c0-2.467,0.289-4.758,0.868-6.875c0.579-2.116,1.439-3.959,2.581-5.527
				c1.142-1.568,2.573-2.802,4.294-3.701c1.72-0.898,3.708-1.348,5.961-1.348c2.071,0,3.867,0.31,5.391,0.929
				c1.523,0.619,2.984,1.487,4.386,2.603L610.291,352.028z M607.154,362.513c-1.176-1.051-2.773-1.576-4.79-1.576
				c-1.01,0-1.911,0.153-2.705,0.457c-0.795,0.304-1.475,0.708-2.04,1.211c-0.566,0.502-1.001,1.104-1.307,1.805
				c-0.305,0.7-0.458,1.432-0.458,2.192c0,1.675,0.603,3.061,1.811,4.158c1.207,1.097,2.82,1.644,4.837,1.644
				c2.016,0,3.591-0.556,4.721-1.667c1.13-1.112,1.697-2.504,1.697-4.181C608.92,364.911,608.331,363.564,607.154,362.513z"/>
		</g>
		<circle fill="#727090" cx="475.833" cy="362.389" r="7.79"/>
	</g>
	<polygon fill="#727090" points="482.36,744.668 368.03,744.668 368.03,762.453 375.969,762.453 375.969,809.534 383.591,813.836 
		383.591,762.453 391.108,762.453 391.108,818.079 398.73,822.381 398.73,762.453 406.246,762.453 406.246,826.625 413.868,830.927 
		413.868,762.453 421.384,762.453 421.384,835.17 426.009,837.78 429.005,835.99 429.005,762.453 436.522,762.453 436.522,831.502 
		444.144,826.949 444.144,762.453 451.66,762.453 451.66,822.46 459.282,817.908 459.282,762.453 466.799,762.453 466.799,813.418 
		474.421,808.867 474.421,762.453 482.36,762.453 	"/>
	<path fill="#727090" d="M425.195-0.002L56.964,212.597v425.197l368.231,212.598l368.231-212.598V212.597L425.195-0.002z
		 M752.636,212.597H97.754L425.195,23.549L752.636,212.597z M425.195,826.841L77.359,626.018V325.687H773.03v300.331
		L425.195,826.841z"/>
	<g>
		<polygon fill="#FBF8E7" points="639.413,259.84 639.413,271.233 616.072,271.233 616.072,293.073 603.728,293.073 
			603.728,237.052 641.312,237.052 641.312,248.447 616.072,248.447 616.072,259.84 		"/>
		<polygon fill="#FBF8E7" points="592.754,237.052 592.754,293.073 576.613,293.073 552.164,253.195 552.007,253.195 
			552.007,293.073 539.663,293.073 539.663,237.052 556.437,237.052 580.254,275.981 580.411,275.981 580.411,237.052 		"/>
		<path fill="#FBF8E7" d="M530.315,265.062c0,10.444-6.884,18.04-17.408,18.04c-10.522,0-17.408-7.596-17.408-18.04
			c0-10.443,6.885-18.04,17.408-18.04C523.431,247.021,530.315,254.619,530.315,265.062z"/>
		<path fill="#FBF8E7" d="M471.228,283.102c4.986,0,9.023-2.217,11.555-6.013l10.284,7.675c-4.667,6.645-12.581,9.733-20.255,9.733
			c-17.486,0-30.225-11.473-30.225-29.435c0-17.96,12.738-29.433,30.225-29.433c6.251,0,14.164,2.137,18.911,8.227l-9.493,7.755
			c-2.455-2.928-6.016-4.591-10.605-4.591c-9.337,0-16.22,7.598-16.22,18.04C455.405,275.506,462.288,283.102,471.228,283.102z"/>
		<polygon fill="#FBF8E7" points="434.469,258.891 434.469,270.284 410.177,270.284 410.177,281.678 437.318,281.678 
			437.318,293.073 397.834,293.073 397.834,237.052 435.894,232.973 435.894,248.447 410.177,248.447 410.177,258.891 		"/>
		<path fill="#FBF8E7" d="M389.955,265.221c0,18.118-14.797,27.852-31.492,27.852h-20.177v-56.02h18.515
			C374.841,237.052,389.955,244.728,389.955,265.221z"/>
		<path fill="#FBF8E7" d="M330.452,265.062c0,17.962-12.738,29.435-30.225,29.435s-30.226-11.473-30.226-29.435
			c0-17.96,12.738-29.433,30.226-29.433C317.714,235.629,330.452,247.102,330.452,265.062z"/>
		<polygon fill="#FBF8E7" points="262.17,237.052 262.17,293.073 246.029,293.073 221.579,253.195 221.421,253.195 221.421,293.073 
			209.078,293.073 209.078,237.052 225.852,237.052 249.669,275.981 249.826,275.981 249.826,237.052 		"/>
	</g>
</g>
</svg>
