<?xml version="1.0" encoding="utf-8"?>
<!-- Generator: Adobe Illustrator 17.0.0, SVG Export Plug-In . SVG Version: 6.00 Build 0)  -->
<!DOCTYPE svg PUBLIC "-//W3C//DTD SVG 1.1//EN" "http://www.w3.org/Graphics/SVG/1.1/DTD/svg11.dtd">
<svg version="1.1" id="Layer_1" xmlns="http://www.w3.org/2000/svg" xmlns:xlink="http://www.w3.org/1999/xlink" x="0px" y="0px"
	 width="200px" height="200px" viewBox="0 0 200 200" enable-background="new 0 0 200 200" xml:space="preserve">
<g>
	<path fill="#D0021B" d="M185.501,48.858L101.538,0.407c-0.95-0.543-2.126-0.543-3.076,0L14.499,48.858
		c-0.95,0.543-1.538,1.583-1.538,2.669v96.946c0,1.086,0.588,2.126,1.538,2.669l83.963,48.451C98.96,199.864,99.457,200,100,200
		s1.086-0.136,1.538-0.407l83.963-48.451c0.95-0.543,1.538-1.583,1.538-2.669V51.527C187.039,50.441,186.451,49.401,185.501,48.858z
		 M183.031,144.99v1.809h-3.032l-79.922,46.144l-79.182-45.692h-3.682v-38.904h2.544V53.856l80.319-46.391l80.276,46.391v85.886
		c0.854-0.289,1.361-0.533,1.374-0.539l0.811-0.398l0.801,1.62l-0.81,0.4c-0.072,0.036-0.881,0.427-2.176,0.824v3.342H183.031z"/>
	<path fill="#E0E0E0" d="M159.983,122.315l-2.08-3.814c-1.235,1.6-2.6,3.099-4.069,4.496v0.449l3.27,1.908
		C158.113,124.387,159.074,123.373,159.983,122.315z"/>
	<path fill="#E0E0E0" d="M151.571,86.453l9.97-4.52c-0.805-2.027-1.783-3.972-2.927-5.81l-8.55,6.035l0.075,0.854h1.432V86.453z"/>
	<path fill="#E0E0E0" d="M156.756,125.675l-2.922-1.705v2.668l0.325,1.299C155.057,127.218,155.92,126.46,156.756,125.675z"/>
	<path fill="#E0E0E0" d="M160.547,110.77l-6.713-2.759v6.549l3.137,2.157C158.344,114.855,159.543,112.866,160.547,110.77z"/>
	<path fill="#E0E0E0" d="M130.95,52.952c-1.018-0.11-2.047-0.186-3.085-0.228l1.347,3.704L130.95,52.952z"/>
	<path fill="#E0E0E0" d="M153.834,115.11v5.337c1.022-1.066,1.98-2.189,2.869-3.365L153.834,115.11z"/>
	<path fill="#E0E0E0" d="M132.399,56.839l0.284-3.673c-0.416-0.061-0.837-0.105-1.256-0.154l-1.738,3.476
		C130.602,56.573,131.505,56.694,132.399,56.839z"/>
	<path fill="#E0E0E0" d="M149.218,63.661l3.776-2.06c-0.982-0.734-1.996-1.429-3.041-2.083l-0.925,4.012
		C149.091,63.574,149.155,63.617,149.218,63.661z"/>
	<path fill="#E0E0E0" d="M125.78,56.299c0.991,0,1.971,0.047,2.945,0.116l-1.346-3.703c-0.455-0.013-0.908-0.033-1.366-0.033
		c-1.058,0-2.104,0.049-3.144,0.12l-1.006,3.689C123.152,56.366,124.458,56.299,125.78,56.299z"/>
	<path fill="#E0E0E0" d="M154.859,68.448l1.743-3.834c-1.025-0.953-2.097-1.858-3.213-2.713l-3.754,2.048
		C151.51,65.299,153.254,66.809,154.859,68.448z"/>
	<path fill="#E0E0E0" d="M159.293,67.348c-0.75-0.832-1.527-1.638-2.341-2.412l-1.583,3.481L159.293,67.348z"/>
	<path fill="#E0E0E0" d="M149.546,59.266c-0.52-0.318-1.047-0.624-1.582-0.921l0.418,4.74c0.083,0.055,0.162,0.113,0.244,0.169
		L149.546,59.266z"/>
	<path fill="#E0E0E0" d="M153.972,70.124l-4.541,4.854l0.587,6.659l8.352-5.896C157.087,73.734,155.614,71.854,153.972,70.124z"/>
	<path fill="#E0E0E0" d="M148.589,65.423l0.789,8.95l4.277-4.572C152.101,68.204,150.41,66.735,148.589,65.423z"/>
	<path fill="#E0E0E0" d="M101.68,66.4l22.361,25.66h1.275l-17.883-29.409C105.395,63.733,103.472,64.991,101.68,66.4z"/>
	<path fill="#E0E0E0" d="M99.961,65.463l-3.418-1.864c-0.593,0.515-1.174,1.042-1.737,1.586c1.117,0.878,1.981,1.823,2.579,2.569
		C98.207,66.953,99.07,66.192,99.961,65.463z"/>
	<path fill="#E0E0E0" d="M98.833,68.872c1.068,0.234,2.665,0.699,3.889,1.562c1.884,1.327,2.413,3.721,2.587,4.507
		c0.196,0.882,0.185,2.272-0.19,3.637l16.97,13.484h1.351l-22.117-25.38C100.46,67.375,99.63,68.107,98.833,68.872z"/>
	<path fill="#E0E0E0" d="M99.299,61.398c-0.818,0.602-1.611,1.234-2.383,1.888l3.404,1.857L99.299,61.398z"/>
	<path fill="#E0E0E0" d="M107.836,62.445l18.009,29.616h0.29l-11.769-32.269C112.091,60.481,109.909,61.376,107.836,62.445z"/>
	<path fill="#E0E0E0" d="M114.804,59.669l11.435,31.354v-0.771c0-0.498,0.144-0.959,0.379-1.36l-5.205-30.534
		C119.145,58.608,116.936,59.05,114.804,59.669z"/>
	<path fill="#E0E0E0" d="M106.018,57.319c-0.817,0.402-1.62,0.825-2.406,1.274l3.072,2.389L106.018,57.319z"/>
	<path fill="#E0E0E0" d="M130.377,83.013l1.882-24.362c-0.947-0.157-1.904-0.284-2.873-0.372l-0.666,29.282
		c0.078-0.007,0.153-0.023,0.232-0.023v-4.524H130.377z"/>
	<path fill="#E0E0E0" d="M163.057,103.736l-9.223-1.655v5.442l6.904,2.837C161.717,108.249,162.497,106.034,163.057,103.736z"/>
	<path fill="#E0E0E0" d="M125.78,58.109c-1.323,0-2.63,0.065-3.918,0.193l5.128,30.085c0.342-0.36,0.782-0.621,1.276-0.751
		l0.668-29.391C127.893,58.162,126.843,58.109,125.78,58.109z"/>
	<path fill="#E0E0E0" d="M164.052,96.583l-10.218,0.259v4.779l9.328,1.674C163.663,101.123,163.966,98.88,164.052,96.583z"/>
	<path fill="#E0E0E0" d="M120.977,56.588l-2.016-3.359c-1.523,0.237-3.018,0.552-4.485,0.936v3.718
		C116.578,57.283,118.749,56.847,120.977,56.588z"/>
	<path fill="#E0E0E0" d="M122.391,52.834c-0.991,0.078-1.976,0.178-2.948,0.319l1.967,3.277L122.391,52.834z"/>
	<path fill="#E0E0E0" d="M164.088,95.215c0-1.847-0.145-3.661-0.415-5.436l-9.839,2.144v4.466l10.23-0.259
		C164.072,95.826,164.088,95.522,164.088,95.215z"/>
	<path fill="#E0E0E0" d="M161.712,82.353l-10.141,4.597v0.632c1.282,0.216,2.263,1.327,2.263,2.669v1.21l9.767-2.129
		C163.203,86.921,162.567,84.587,161.712,82.353z"/>
	<path fill="#E0E0E0" d="M113.343,58.223l-2.827-2.827c-1.394,0.506-2.753,1.08-4.077,1.715l0.668,3.677
		C109.094,59.77,111.178,58.91,113.343,58.223z"/>
	<path fill="#E0E0E0" d="M114.023,58.008v-3.719c-1.027,0.28-2.044,0.586-3.039,0.935l2.841,2.84
		C113.891,58.045,113.958,58.027,114.023,58.008z"/>
	<path fill="#E0E0E0" d="M106.266,61.231l-3.084-2.398c-1.204,0.705-2.369,1.464-3.494,2.274l1.025,3.758
		C102.452,63.51,104.308,62.293,106.266,61.231z"/>
	<path fill="#E0E0E0" d="M164.857,103.982l3.574,2.86c0.293-0.994,0.561-1.997,0.78-3.019h-4.316
		C164.883,103.876,164.87,103.929,164.857,103.982z"/>
	<path fill="#E0E0E0" d="M162.592,110.664l4.384,0.292c0.493-1.19,0.934-2.405,1.317-3.645l-3.552-2.842
		C164.201,106.609,163.481,108.679,162.592,110.664z"/>
	<path fill="#E0E0E0" d="M165.309,114.496c0.536-1.011,1.034-2.043,1.487-3.098l-4.409-0.294c-0.011,0.023-0.021,0.046-0.032,0.069
		L165.309,114.496z"/>
	<path fill="#E0E0E0" d="M77.833,90.703c0-0.75,0.608-1.357,1.357-1.357c0.538,0,0.998,0.315,1.218,0.769
		c0.259-2.177,0.68-4.307,1.255-6.378c-0.197,0.111-0.421,0.18-0.664,0.18c-0.4,0-0.756-0.177-1.005-0.452h-6.686v4.117
		c1.281,0.217,2.262,1.327,2.262,2.669v1.81h3.618C78.44,92.06,77.833,91.453,77.833,90.703z"/>
	<path fill="#E0E0E0" d="M79.191,92.061h1.033c0.013-0.18,0.027-0.36,0.043-0.539C80.019,91.847,79.632,92.06,79.191,92.061z"/>
	<path fill="#E0E0E0" d="M165.862,96.545l4.118,1.901c0.077-0.982,0.127-1.97,0.133-2.969l-4.247,0.91
		C165.864,96.439,165.864,96.492,165.862,96.545z"/>
	<path fill="#E0E0E0" d="M47.976,90.251c0-1.497,1.218-2.714,2.714-2.714v-4.524h1.424l0.21-2.714H27.432l-0.266-0.274
		c-0.084-0.086-2.07-2.149-3.197-4.821c-0.944-2.236-1.11-5.056-0.787-6.687c0.328-1.652,1.927-3.812,4.074-5.5
		c1.664-1.31,4.06-1.584,5.776-1.584c0.228,0,0.435,0.005,0.617,0.012c0.457-1.651,1.789-5.518,4.68-7.657
		c2.864-2.12,7.487-3.371,9.692-3.176c1.638,0.14,4.109,1.096,6.388,2.722l0.806-10.434v-1.053c0-0.998,0.812-1.81,1.81-1.81h9.5
		c0.998,0,1.81,0.812,1.81,1.81v0.968l0.956,10.844c0.969,0.369,1.925,0.825,2.756,1.384c2.437,1.638,4.018,3.8,4.589,4.662
		c0.971,0.165,3.354,0.671,5.055,1.886c0.634,0.453,1.112,1.023,1.495,1.616c1.312-0.483,2.568-0.769,3.402-0.833
		c1.535-0.118,4.436,0.513,6.691,1.787c1.023-1.005,2.094-1.963,3.211-2.871c-0.036,0.003-0.07,0.011-0.107,0.011
		c-0.75,0-1.357-0.608-1.357-1.357c0-0.75,0.608-1.357,1.357-1.357c0.75,0,1.357,0.608,1.357,1.357c0,0.151-0.03,0.293-0.076,0.429
		c1.738-1.322,3.575-2.524,5.501-3.596c-0.748-0.002-1.354-0.608-1.354-1.357c0-0.75,0.608-1.357,1.357-1.357
		c0.75,0,1.357,0.608,1.357,1.357c0,0.27-0.081,0.52-0.217,0.731c2.304-1.199,4.729-2.205,7.247-3.014
		c-0.65-0.101-1.149-0.658-1.149-1.336c0-0.75,0.608-1.357,1.357-1.357c0.75,0,1.357,0.608,1.357,1.357
		c0,0.385-0.162,0.731-0.42,0.978c2.442-0.716,4.97-1.233,7.564-1.547c-0.477-0.211-0.81-0.686-0.81-1.24
		c0-0.75,0.608-1.357,1.357-1.357c0.75,0,1.357,0.608,1.357,1.357c0,0.448-0.219,0.841-0.554,1.089
		c1.449-0.134,2.915-0.208,4.399-0.208c0.811,0,1.618,0.022,2.419,0.062c-0.236-0.244-0.383-0.576-0.383-0.943
		c0-0.75,0.608-1.357,1.357-1.357c0.75,0,1.357,0.608,1.357,1.357c0,0.44-0.213,0.827-0.537,1.075
		c0.872,0.077,1.739,0.172,2.597,0.296l0.655-8.48v-1.034c0-0.998,0.812-1.81,1.809-1.81h9.5c0.998,0,1.81,0.812,1.81,1.81v0.973
		l1.178,13.357c1.316,0.687,2.594,1.433,3.829,2.237c-0.019-0.091-0.03-0.185-0.03-0.281c0-0.75,0.608-1.357,1.357-1.357
		c0.75,0,1.357,0.608,1.357,1.357c0,0.676-0.496,1.233-1.144,1.336c2.031,1.441,3.932,3.04,5.69,4.777
		c0.106-0.644,0.661-1.137,1.335-1.137c0.75,0,1.357,0.608,1.357,1.357c0,0.691-0.519,1.255-1.187,1.34
		c1.61,1.751,3.076,3.627,4.386,5.608c0.133-0.61,0.675-1.067,1.324-1.067c0.75,0,1.357,0.608,1.357,1.357
		c0,0.75-0.608,1.357-1.357,1.357c-0.107,0-0.209-0.015-0.309-0.039c1.024,1.702,1.937,3.473,2.723,5.309
		c0.224-0.441,0.677-0.746,1.206-0.746c0.75,0,1.357,0.608,1.357,1.357c0,0.75-0.608,1.357-1.357,1.357
		c-0.158,0-0.307-0.032-0.447-0.082c0.857,2.296,1.514,4.681,1.971,7.134c0.229-0.426,0.673-0.719,1.191-0.719
		c0.75,0,1.357,0.608,1.357,1.357c0,0.75-0.608,1.357-1.357,1.357c-0.354,0-0.674-0.139-0.915-0.361
		c0.298,2.037,0.462,4.115,0.462,6.23c0,0.28-0.017,0.556-0.022,0.835c0.243-0.228,0.568-0.371,0.927-0.371
		c0.75,0,1.357,0.608,1.357,1.357s-0.608,1.357-1.357,1.357c-0.398,0-0.753-0.175-1.001-0.448c-0.15,2.377-0.498,4.701-1.023,6.963
		c0.198-0.112,0.423-0.182,0.667-0.182c0.75,0,1.357,0.608,1.357,1.357s-0.608,1.357-1.357,1.357c-0.486,0-0.909-0.257-1.148-0.641
		c-0.438,1.562-0.966,3.089-1.572,4.578l-0.01,0.15l-0.05-0.003c-0.135,0.327-0.262,0.658-0.404,0.981
		c0.147-0.054,0.304-0.088,0.47-0.088c0.75,0,1.357,0.608,1.357,1.357c0,0.75-0.608,1.357-1.357,1.357
		c-0.591,0-1.089-0.38-1.275-0.908c-1.201,2.434-2.63,4.742-4.251,6.907c0.168-0.075,0.354-0.118,0.55-0.118
		c0.75,0,1.357,0.608,1.357,1.357c0,0.75-0.608,1.357-1.357,1.357c-0.75,0-1.357-0.608-1.357-1.357c0-0.074,0.01-0.146,0.022-0.217
		c-1.613,2.03-3.4,3.924-5.346,5.656c0.7,0.054,1.252,0.633,1.252,1.347c0,0.75-0.608,1.357-1.357,1.357
		c-0.75,0-1.357-0.608-1.357-1.357c0-0.039,0.008-0.075,0.011-0.113c-0.595,0.487-1.201,0.96-1.821,1.418v1.352l0.852-0.502v3.013
		l-0.852,0.489v4.121c1.517-0.321,4.585-0.918,6.412-0.918c1.939,0,4.259,0.616,6.715,1.271c2.326,0.619,4.732,1.259,6.895,1.388
		c2.687,0.154,5.075-0.452,6.497-0.933V53.856L100.077,7.464L19.758,53.856v54.491h28.218V90.251z M65.845,34.879l33.793-19.498
		c0.045,0,0.091-0.045,0.136-0.045h0.181H100c0.045,0,0.045,0,0.045,0h0.136h0.045h0.045c0.045,0,0.091,0,0.136,0.045l34.336,19.815
		c0.407,0.226,0.543,0.769,0.362,1.131c-0.136,0.271-0.452,0.407-0.724,0.407c-0.136,0-0.271,0-0.407-0.09L103.393,19l12.757,16.286
		c0.271,0.362,0.226,0.905-0.136,1.176c-0.136,0.136-0.317,0.181-0.498,0.181c-0.271,0-0.498-0.091-0.679-0.317l-13.933-17.779
		v17.372c0,0.498-0.362,0.859-0.86,0.859s-0.859-0.407-0.859-0.859V18.548L85.252,36.327c-0.271,0.362-0.814,0.407-1.176,0.136
		c-0.362-0.271-0.407-0.814-0.136-1.176L96.698,19L66.659,36.327c-0.362,0.226-0.905,0.091-1.131-0.317S65.438,35.105,65.845,34.879
		z M33.989,89.323l-2.276-8.534l1.749-0.466l2.276,8.534L33.989,89.323z M40.562,91.819l-2.071-7.397l1.743-0.488l2.071,7.397
		L40.562,91.819z M46.542,80.301l2.11,6.933l-1.731,0.527l-2.11-6.933L46.542,80.301z"/>
	<path fill="#E0E0E0" d="M165.003,103.37h4.295c0.294-1.456,0.508-2.939,0.644-4.443l-4.093-1.889
		C165.746,99.199,165.457,101.314,165.003,103.37z"/>
	<path fill="#E0E0E0" d="M165.896,95.215c0,0.237-0.014,0.47-0.018,0.706l4.237-0.908c-0.008-1.659-0.123-3.294-0.324-4.904
		l-4.332-0.619C165.744,91.36,165.896,93.27,165.896,95.215z"/>
	<path fill="#E0E0E0" d="M87.085,84.967l-4.027,0.62c-0.223,0.925-0.42,1.86-0.579,2.807l3.514,1.917
		C86.231,88.488,86.596,86.704,87.085,84.967z"/>
	<path fill="#E0E0E0" d="M89.453,83.465c-0.125,0.362-0.248,0.726-0.362,1.093l23.578,7.502h5.492l-16.59-8.595H89.453z"/>
	<path fill="#E0E0E0" d="M165.383,89.023l4.347,0.621c-0.115-0.845-0.252-1.683-0.418-2.512l-3.942,1.82
		C165.374,88.976,165.379,88.999,165.383,89.023z"/>
	<path fill="#E0E0E0" d="M104.677,79.794c-0.898,1.905-2.475,3.37-2.541,3.431l-0.016,0.015l17.025,8.82h2.218l-16.386-13.019
		C104.889,79.296,104.792,79.549,104.677,79.794z"/>
	<path fill="#E0E0E0" d="M87.745,90.867l7.845,1.194h15.588l-22.214-7.068C88.4,86.893,87.989,88.855,87.745,90.867z"/>
	<path fill="#E0E0E0" d="M153.834,147.704c0,1.497-1.217,2.714-2.714,2.714h-22.167c-1.497,0-2.714-1.217-2.714-2.714v-0.453h-1.479
		v0.001c0,0.873-0.71,1.583-1.583,1.583H79.07c-0.873,0-1.583-0.71-1.583-1.583v-0.001h-1.915v0.453
		c0,1.497-1.218,2.714-2.714,2.714H50.69c-1.497,0-2.714-1.217-2.714-2.714v-0.453H20.895l79.182,45.692l79.922-46.144h-26.165
		V147.704z M116.258,159.167l2.036-3.483c0.136-0.271,0.498-0.362,0.769-0.226l0.09,0.045c0.226,0.136,0.317,0.317,0.317,0.588
		l0.452,3.529l1.312-2.262c0.136-0.271,0.498-0.362,0.769-0.181c0.271,0.136,0.362,0.498,0.181,0.769l-2.036,3.483
		c-0.136,0.271-0.498,0.362-0.769,0.226h-0.045c-0.226-0.136-0.317-0.317-0.317-0.588l-0.452-3.664l-1.357,2.352
		c-0.136,0.271-0.498,0.362-0.769,0.181C116.168,159.8,116.078,159.438,116.258,159.167z M100.045,153.404
		c1.583,0,2.669,1.176,2.669,2.624c0,1.448-1.131,2.624-2.714,2.624c-1.538-0.045-2.669-1.176-2.669-2.624
		C97.331,154.58,98.462,153.404,100.045,153.404z M78.796,156.454c0.271-0.136,0.588-0.045,0.769,0.226l1.764,3.076l1.81-1.041
		c0.226-0.136,0.543-0.045,0.679,0.181c0.136,0.226,0.045,0.543-0.181,0.679l-2.262,1.312c-0.271,0.136-0.588,0.045-0.769-0.226
		l-2.036-3.438C78.434,156.952,78.524,156.635,78.796,156.454z M62.588,162.452c-0.575,0-1.04-0.466-1.04-1.04s0.466-1.04,1.04-1.04
		s1.04,0.466,1.04,1.04S63.162,162.452,62.588,162.452z M134.291,164.307l-33.793,19.498h-0.045c-0.045,0-0.045,0.045-0.09,0.045
		h-0.045h-0.045c-0.045,0.045-0.09,0.045-0.181,0.045c-0.045,0-0.136-0.045-0.181-0.045h-0.045h-0.045h-0.045
		c-0.045,0-0.045-0.045-0.09-0.045h-0.045L65.302,163.99c-0.407-0.226-0.543-0.724-0.317-1.131s0.724-0.543,1.131-0.317
		l30.581,17.643L83.94,163.9c-0.271-0.362-0.226-0.905,0.136-1.176c0.362-0.271,0.905-0.226,1.176,0.136l13.934,17.779v-17.372
		c0-0.498,0.362-0.86,0.859-0.86s0.86,0.407,0.86,0.86v17.372l13.933-17.779c0.271-0.362,0.814-0.407,1.176-0.136
		c0.362,0.271,0.407,0.814,0.136,1.176l-12.757,16.286l29.993-17.326c0.362-0.226,0.905-0.09,1.131,0.317
		C134.743,163.583,134.608,164.126,134.291,164.307z M136.779,162.452c-0.575,0-1.04-0.466-1.04-1.04s0.466-1.04,1.04-1.04
		s1.04,0.466,1.04,1.04S137.354,162.452,136.779,162.452z"/>
	<path fill="#E0E0E0" d="M174.757,142.511c-0.331,0-0.667-0.009-1.009-0.029c-2.344-0.14-4.84-0.804-7.253-1.446
		c-2.338-0.622-4.546-1.21-6.249-1.21c-1.806,0-5.157,0.688-6.412,0.961v4.204h26.519v-3.342
		C178.956,142.077,176.994,142.511,174.757,142.511z"/>
	<path fill="#E0E0E0" d="M82.398,88.866c-0.164,1.052-0.277,2.119-0.359,3.195h3.768c0.035-0.424,0.074-0.848,0.123-1.268
		L82.398,88.866z"/>
	<path fill="#E0E0E0" d="M87.621,92.061h4.962l-4.897-0.745C87.659,91.562,87.643,91.812,87.621,92.061z"/>
	<path fill="#E0E0E0" d="M158.56,117.607l4.228,1.057c0.829-1.205,1.593-2.455,2.294-3.742l-2.936-3.303
		C161.132,113.725,159.93,115.726,158.56,117.607z"/>
	<path fill="#E0E0E0" d="M100,157.566c0.905,0.045,1.538-0.679,1.538-1.538c0-0.905-0.633-1.629-1.538-1.629
		s-1.538,0.724-1.538,1.583C98.462,156.842,99.095,157.566,100,157.566z"/>
	<path fill="#E0E0E0" d="M158.198,118.1l2.095,3.841c0.78-0.929,1.525-1.887,2.223-2.878l-4.246-1.061
		C158.246,118.034,158.223,118.067,158.198,118.1z"/>
	<path fill="#E0E0E0" d="M87.226,84.488c0.101-0.342,0.2-0.685,0.311-1.023H83.63c-0.163,0.545-0.317,1.093-0.458,1.647
		L87.226,84.488z"/>
	<path fill="#E0E0E0" d="M163.358,81.601l4.315-0.332c-0.324-0.897-0.668-1.784-1.051-2.652l-3.278,2.95
		C163.348,81.578,163.353,81.59,163.358,81.601z"/>
	<path fill="#E0E0E0" d="M163.162,81.122l3.258-2.932c-0.575-1.265-1.212-2.497-1.908-3.694l-4.299,0.782
		C161.359,77.13,162.344,79.086,163.162,81.122z"/>
	<path fill="#E0E0E0" d="M165.285,88.493l3.941-1.819c-0.36-1.694-0.836-3.347-1.398-4.962l-4.302,0.331
		C164.297,84.116,164.885,86.273,165.285,88.493z"/>
	<path fill="#E0E0E0" d="M164.265,74.08c-0.517-0.867-1.057-1.721-1.634-2.549l-2.665,3.331L164.265,74.08z"/>
	<path fill="#E0E0E0" d="M159.698,74.473l2.658-3.323c-0.848-1.187-1.759-2.329-2.724-3.425l-4.325,1.179
		C156.937,70.624,158.404,72.489,159.698,74.473z"/>
	<polygon fill="#D0021B" points="154.686,134.324 154.686,131.311 153.834,131.813 153.834,134.814 	"/>
	<path fill="#D0021B" d="M153.654,69.801l0.847-0.906l0.33,0.309l-0.86,0.919c1.642,1.73,3.115,3.61,4.398,5.618l0.721-0.509
		l0.261,0.37l-0.738,0.521c1.144,1.839,2.122,3.783,2.927,5.81l0.775-0.351l0.097,0.214l0.008-0.008l-0.009-0.115l0.149-0.011
		l0.601-0.541c-0.819-2.036-1.803-3.991-2.948-5.845l-0.455,0.083l-0.036-0.195l-0.2,0.25l-0.354-0.283l0.527-0.659
		c-1.293-1.983-2.761-3.849-4.391-5.569l-0.18,0.049l-0.05,0.109l-0.131-0.06l-0.14,0.038l-0.031-0.116l-0.109-0.05l0.06-0.132
		l-0.038-0.139l0.115-0.031l0.056-0.124c-1.605-1.64-3.349-3.149-5.224-4.499l-0.805,0.439l-0.028,0.121l-0.063-0.015l-0.203,0.33
		l0.053,0.598C150.41,66.735,152.101,68.204,153.654,69.801z"/>
	<path fill="#D0021B" d="M113.825,58.065l0.199,0.199v-0.255C113.958,58.027,113.891,58.045,113.825,58.065z"/>
	<path fill="#D0021B" d="M157.903,118.501l-0.374-0.685l-0.124-0.031l0.033-0.134l-0.066-0.12l0.111-0.061l0.031-0.124l0.134,0.034
		l0.12-0.066l0.061,0.111l0.73,0.182c1.369-1.881,2.572-3.882,3.586-5.987l-0.502-0.565l-0.134-0.009l0.009-0.132l-0.005-0.006
		l-0.091,0.222l-0.875-0.36c-1.003,2.096-2.203,4.084-3.576,5.947l0.57,0.392l-0.256,0.373l-0.187-0.128l-0.396-0.272
		c-0.889,1.176-1.847,2.299-2.869,3.365v2.55C155.303,121.601,156.667,120.101,157.903,118.501z"/>
	<path fill="#D0021B" d="M148.966,63.799l0.252-0.138c-0.063-0.044-0.127-0.087-0.19-0.131L148.966,63.799z"/>
	<path fill="#D0021B" d="M163.904,103.37l0.074-0.092l0.115,0.092h0.911c0.454-2.056,0.742-4.171,0.846-6.332l-0.958-0.442
		l-0.147,0.032l-0.024-0.11l-0.102-0.047l0.063-0.137l-0.032-0.148l0.111-0.024l0.047-0.103l0.137,0.063l0.934-0.2
		c0.004-0.236,0.018-0.469,0.018-0.706c0-1.945-0.152-3.856-0.438-5.725l-0.959-0.137l-0.145,0.067l-0.043-0.094l-0.102-0.015
		l0.022-0.158l-0.066-0.144l0.093-0.043l0.015-0.103l0.159,0.023l0.854-0.394c-0.4-2.22-0.988-4.377-1.759-6.451l-0.776,0.06
		l-0.111,0.1l-0.077-0.085l-0.114,0.009l-0.008-0.101l-0.727,0.33c0.855,2.233,1.491,4.568,1.889,6.979l0.132-0.029l0.097,0.442
		l-0.157,0.034c0.27,1.775,0.415,3.589,0.415,5.436c0,0.307-0.016,0.61-0.024,0.915l0.169-0.004l0.011,0.452l-0.192,0.005
		c-0.086,2.297-0.39,4.539-0.89,6.712l0.624,0.112v-0.037H163.904z"/>
	<path fill="#D0021B" d="M129.425,57.015l0.044,0.121l-0.127,0.046l-0.024,0.048l0.093,0.002l-0.005,0.227l-0.019,0.82
		c0.969,0.088,1.926,0.215,2.873,0.372l0.14-1.812c-0.894-0.145-1.797-0.266-2.71-0.352L129.425,57.015z"/>
	<path fill="#D0021B" d="M128.875,57.102l0.057-0.115l-0.208-0.571c-0.974-0.069-1.953-0.116-2.945-0.116
		c-1.322,0-2.628,0.066-3.918,0.188l-0.131,0.479l0.067,0.112l-0.117,0.07l-0.012,0.044l0.003,0l0.189,1.11
		c1.288-0.127,2.596-0.193,3.918-0.193c1.063,0,2.113,0.053,3.154,0.136l0.023-1.023l0.06,0.001l-0.022-0.061L128.875,57.102z"/>
	<path fill="#D0021B" d="M148.382,63.085l0.078,0.888l0.166-0.72C148.545,63.198,148.465,63.139,148.382,63.085z"/>
	<path fill="#D0021B" d="M106.805,61.65l-0.539-0.419c-1.958,1.062-3.814,2.279-5.553,3.633l0.158,0.579l0.114,0.062l-0.033,0.06
		l0.727,0.835c1.792-1.409,3.715-2.667,5.753-3.749l-0.533-0.877l-0.069,0.013L106.805,61.65z"/>
	<path fill="#D0021B" d="M121.211,57.159l0.034-0.125l-0.268-0.446c-2.228,0.259-4.399,0.695-6.501,1.295v0.834l0.094,0.094
		l-0.058,0.058l0.292,0.801c2.132-0.619,4.34-1.061,6.609-1.312l-0.186-1.089l0.143-0.024l-0.029-0.049L121.211,57.159z"/>
	<path fill="#D0021B" d="M158.271,118.002l-0.146-0.036l0.074,0.135C158.223,118.067,158.246,118.034,158.271,118.002z"/>
	<path fill="#D0021B" d="M86.778,91.177l-0.033,0.06l-0.164-0.09l-0.184-0.028l0.01-0.067l-0.477-0.26
		c-0.049,0.421-0.088,0.844-0.123,1.268h1.815c0.022-0.248,0.038-0.498,0.065-0.745L86.778,91.177z"/>
	<path fill="#D0021B" d="M114.023,58.903l-0.68-0.68c-2.165,0.687-4.249,1.546-6.236,2.564l0.111,0.611l0.111,0.086l-0.043,0.055
		l0.55,0.905c2.073-1.069,4.255-1.964,6.531-2.654l-0.275-0.755h-0.068V58.903z"/>
	<path fill="#D0021B" d="M163.344,81.567l-0.043,0.039l0.057-0.004C163.353,81.59,163.348,81.578,163.344,81.567z"/>
	<path fill="#D0021B" d="M165.37,88.952l-0.115,0.053l0.128,0.018C165.379,88.999,165.374,88.976,165.37,88.952z"/>
	<path fill="#D0021B" d="M162.386,111.104l-0.099-0.007l0.067,0.075C162.365,111.15,162.376,111.127,162.386,111.104z"/>
	<path fill="#D0021B" d="M87.085,84.967c-0.489,1.736-0.854,3.521-1.092,5.344l0.735,0.401l1.017,0.155
		c0.244-2.012,0.655-3.973,1.218-5.874l-0.696-0.221l0.002,0.014L87.085,84.967z"/>
	<path fill="#D0021B" d="M163.934,103.823h-0.147v-0.118l-0.013-0.011l-0.03,0.165l-0.686-0.123c-0.56,2.298-1.34,4.512-2.319,6.624
		l0.795,0.327l0.006-0.094l0.132,0.009l0.098-0.087l0.088,0.099l0.734,0.049c0.889-1.985,1.609-4.055,2.149-6.194L163.934,103.823z"
		/>
	<path fill="#D0021B" d="M100.601,65.852l-0.082,0.022l-0.034-0.125l-0.525-0.286c-0.891,0.729-1.754,1.49-2.577,2.291
		c0.316,0.394,0.565,0.737,0.726,0.975c0.19,0.032,0.443,0.081,0.723,0.143c0.797-0.765,1.627-1.496,2.49-2.191L100.601,65.852z"/>
	<path fill="#D0021B" d="M88.201,84.338l0.035,0.229l0.081-0.256l0.215,0.069l0.558,0.178c0.114-0.367,0.237-0.731,0.362-1.093
		h-1.916c-0.111,0.338-0.21,0.681-0.311,1.023L88.201,84.338z"/>
	<path fill="#D0021B" d="M164.895,103.823h-0.237l0.199,0.159C164.87,103.929,164.883,103.876,164.895,103.823z"/>
	<path fill="#D0021B" d="M165.866,96.386l-0.238,0.051l0.233,0.108C165.864,96.492,165.864,96.439,165.866,96.386z"/>
	<path fill="#D0021B" d="M149.546,59.266l0.272-1.18l0.441,0.102l-0.307,1.33c1.045,0.654,2.059,1.349,3.041,2.083l0.704-0.384
		l0.217,0.397l-0.525,0.286c1.116,0.855,2.188,1.76,3.213,2.713l0.512-1.127l0.412,0.187l-0.574,1.262
		c0.813,0.773,1.591,1.58,2.341,2.412l0.807-0.22l0.118,0.437l-0.587,0.16c0.965,1.096,1.876,2.238,2.724,3.425l0.716-0.896
		l0.354,0.283l-0.795,0.994c0.578,0.828,1.117,1.682,1.634,2.549l0.833-0.152l0.081,0.445l-0.667,0.121
		c0.696,1.197,1.332,2.43,1.908,3.694l0.776-0.698l0.303,0.336l-0.878,0.79c0.383,0.868,0.728,1.756,1.051,2.652l1.071-0.082
		l0.035,0.451l-0.951,0.073c0.562,1.615,1.038,3.268,1.398,4.962l1.23-0.568l0.189,0.411l-1.334,0.616
		c0.166,0.829,0.303,1.667,0.418,2.512l1.325,0.189l-0.063,0.448l-1.2-0.171c0.201,1.61,0.316,3.244,0.324,4.904l1.31-0.281
		l0.095,0.442l-1.406,0.301c-0.006,0.999-0.056,1.988-0.133,2.969l1.119,0.516l-0.189,0.411l-0.967-0.446
		c-0.136,1.505-0.35,2.987-0.644,4.443h1.727v0.453h-1.814c-0.219,1.022-0.487,2.025-0.78,3.019l0.423,0.339l-0.283,0.354
		l-0.278-0.223c-0.382,1.24-0.823,2.455-1.317,3.645l1.801,0.12l-0.02,0.302c0.606-1.489,1.133-3.015,1.572-4.578
		c-0.13-0.208-0.209-0.453-0.209-0.716c0-0.506,0.28-0.942,0.69-1.175c0.524-2.262,0.872-4.586,1.023-6.963
		c-0.219-0.241-0.356-0.558-0.356-0.909c0-0.39,0.167-0.739,0.43-0.986c0.005-0.279,0.022-0.555,0.022-0.835
		c0-2.115-0.164-4.193-0.462-6.23c-0.27-0.248-0.442-0.601-0.442-0.996c0-0.232,0.064-0.447,0.166-0.638
		c-0.457-2.453-1.114-4.838-1.971-7.134c-0.528-0.186-0.91-0.684-0.91-1.276c0-0.221,0.058-0.427,0.152-0.611
		c-0.786-1.836-1.699-3.606-2.723-5.309c-0.6-0.14-1.048-0.676-1.048-1.318c0-0.1,0.012-0.197,0.033-0.29
		c-1.311-1.981-2.776-3.857-4.386-5.608c-0.056,0.007-0.112,0.017-0.17,0.017c-0.75,0-1.357-0.608-1.357-1.357
		c0-0.076,0.01-0.148,0.022-0.22c-1.758-1.737-3.659-3.336-5.69-4.777c-0.07,0.011-0.14,0.022-0.213,0.022
		c-0.653,0-1.198-0.462-1.327-1.076c-1.235-0.804-2.513-1.55-3.829-2.237l0.191,2.169C148.499,58.642,149.026,58.949,149.546,59.266
		z"/>
	<path fill="#D0021B" d="M165.309,114.496l0.381,0.428l-0.338,0.301l-0.27-0.303c-0.701,1.287-1.465,2.536-2.294,3.742l0.594,0.148
		l-0.109,0.439l-0.756-0.189c-0.698,0.991-1.443,1.949-2.223,2.878l0.407,0.746l-0.396,0.217l-0.321-0.588
		c-0.909,1.057-1.87,2.071-2.879,3.039l1.337,0.78l-0.229,0.391l-1.457-0.85c-0.836,0.785-1.699,1.543-2.597,2.263l0.176,0.705
		l-0.439,0.109l-0.062-0.246v1.955c0.62-0.458,1.226-0.931,1.821-1.418c0.058-0.696,0.635-1.244,1.346-1.244
		c0.036,0,0.07,0.008,0.105,0.011c1.945-1.732,3.733-3.626,5.346-5.656c0.074-0.458,0.374-0.839,0.786-1.022
		c1.621-2.166,3.05-4.474,4.251-6.907c-0.05-0.141-0.082-0.291-0.082-0.449c0-0.584,0.37-1.077,0.888-1.269
		c0.142-0.323,0.27-0.654,0.404-0.981l-1.902-0.127C166.343,112.454,165.844,113.485,165.309,114.496z"/>
	<path fill="#D0021B" d="M81.371,88.306l0.217-0.397l0.891,0.486c0.159-0.947,0.356-1.882,0.579-2.807l-1.117,0.172l-0.069-0.447
		l1.299-0.2c0.14-0.554,0.295-1.102,0.458-1.647h-1.625c-0.098,0.109-0.213,0.2-0.341,0.272c-0.575,2.071-0.996,4.2-1.255,6.378
		c0.086,0.179,0.139,0.376,0.139,0.588c0,0.309-0.107,0.59-0.281,0.818c-0.015,0.179-0.029,0.359-0.043,0.539h1.815
		c0.082-1.076,0.195-2.143,0.359-3.195L81.371,88.306z"/>
	<path fill="#D0021B" d="M94.806,65.185c0.563-0.544,1.144-1.072,1.737-1.586l-1.148-0.626l0.217-0.397l1.305,0.712
		c0.772-0.655,1.565-1.286,2.383-1.888l-0.256-0.937l0.437-0.119l0.208,0.765c1.125-0.809,2.29-1.569,3.494-2.274l-0.559-0.435
		l0.277-0.357l0.711,0.553c0.786-0.449,1.59-0.872,2.406-1.274l-0.173-0.953l0.444-0.081l0.15,0.826
		c1.323-0.635,2.682-1.209,4.077-1.715l-0.205-0.205l0.32-0.32l0.353,0.353c0.996-0.349,2.012-0.655,3.039-0.935v-1.134h0.453v1.009
		c1.467-0.384,2.962-0.699,4.485-0.936l-0.498-0.83l0.388-0.233l0.592,0.986c0.972-0.141,1.956-0.241,2.948-0.319l0.297-1.087
		l0.436,0.119l-0.255,0.933c1.04-0.071,2.086-0.12,3.144-0.12c0.458,0,0.911,0.02,1.366,0.033l-0.299-0.823l0.426-0.155l0.36,0.99
		c1.038,0.042,2.066,0.118,3.085,0.228l0.389-0.779l0.405,0.203l-0.317,0.635c0.419,0.05,0.841,0.093,1.256,0.154l0.139-1.805
		c-0.858-0.124-1.725-0.219-2.597-0.296c-0.228,0.175-0.51,0.282-0.82,0.282c-0.383,0-0.727-0.16-0.974-0.414
		c-0.801-0.04-1.607-0.062-2.419-0.062c-1.484,0-2.951,0.074-4.399,0.208c-0.225,0.167-0.502,0.269-0.803,0.269
		c-0.195,0-0.379-0.043-0.547-0.117c-2.594,0.315-5.122,0.832-7.564,1.547c-0.244,0.233-0.573,0.379-0.937,0.379
		c-0.071,0-0.14-0.01-0.208-0.021c-2.518,0.809-4.943,1.815-7.247,3.014c-0.241,0.376-0.661,0.626-1.141,0.626
		c-0.001,0-0.002,0-0.003,0c-1.926,1.072-3.764,2.274-5.501,3.596c-0.169,0.505-0.624,0.874-1.174,0.918
		c-1.117,0.908-2.189,1.866-3.211,2.871c0.218,0.123,0.437,0.244,0.641,0.379C94.23,64.745,94.524,64.963,94.806,65.185z"/>
	<polygon fill="#D0021B" points="88.533,84.381 88.317,84.312 88.236,84.568 88.267,84.771 88.963,84.992 111.178,92.061 
		112.669,92.061 89.091,84.558 	"/>
	<polygon fill="#D0021B" points="86.728,90.712 86.962,90.839 86.778,91.177 87.686,91.315 92.583,92.061 95.59,92.061 
		87.745,90.867 	"/>
	<polygon fill="#D0021B" points="86.397,91.119 86.581,91.147 86.407,91.052 	"/>
	<polygon fill="#D0021B" points="101.876,83.465 101.571,83.465 118.161,92.061 119.144,92.061 102.12,83.24 	"/>
	<path fill="#D0021B" d="M104.976,79.041l16.386,13.019h0.727l-16.97-13.484C105.077,78.732,105.029,78.887,104.976,79.041z"/>
	<polygon fill="#D0021B" points="100.953,65.566 100.921,65.625 100.956,65.755 100.831,65.789 100.769,65.903 100.65,65.839 
		100.601,65.852 101.323,66.68 123.44,92.061 124.041,92.061 101.68,66.4 	"/>
	<polygon fill="#D0021B" points="107.286,61.54 107.252,61.584 107.274,61.707 107.137,61.732 107.052,61.842 106.953,61.765 
		106.9,61.775 107.433,62.652 125.316,92.061 125.846,92.061 107.836,62.445 	"/>
	<polygon fill="#D0021B" points="114.512,58.868 114.477,58.904 114.477,59.036 114.344,59.036 114.25,59.13 114.156,59.036 
		114.092,59.036 114.367,59.791 126.136,92.061 126.239,92.061 126.239,91.022 114.804,59.669 	"/>
	<path fill="#D0021B" d="M121.673,57.192l-0.003,0l-0.023,0.086l-0.124-0.034l-0.111,0.067l-0.04-0.067l-0.143,0.024l0.186,1.089
		l5.205,30.534c0.106-0.182,0.228-0.353,0.372-0.505l-5.128-30.085L121.673,57.192z"/>
	<path fill="#D0021B" d="M129.405,57.458l0.005-0.227l-0.093-0.002l-0.037,0.074l-0.116-0.058l-0.122,0.044l-0.025-0.068
		l-0.06-0.001l-0.023,1.023l-0.668,29.391c0.147-0.039,0.299-0.062,0.454-0.075l0.666-29.282L129.405,57.458z"/>
	<polygon fill="#D0021B" points="148.665,64.479 148.542,64.546 148.505,64.479 148.536,64.825 148.739,64.496 	"/>
	<polygon fill="#D0021B" points="154.832,69.205 154.502,68.896 153.654,69.801 149.378,74.373 149.431,74.978 153.972,70.124 	"/>
	<polygon fill="#D0021B" points="159.352,75.603 159.091,75.233 158.37,75.742 150.018,81.637 150.064,82.159 158.614,76.123 	"/>
	<polygon fill="#D0021B" points="162.436,81.976 162.336,81.865 162.413,81.796 162.315,81.583 161.541,81.934 151.571,86.453 
		151.571,86.95 161.712,82.353 162.439,82.023 	"/>
	<polygon fill="#D0021B" points="163.83,89.745 163.733,89.303 163.601,89.332 153.834,91.461 153.834,91.924 163.673,89.779 	"/>
	<polygon fill="#D0021B" points="164.244,96.579 164.233,96.126 164.064,96.131 153.834,96.39 153.834,96.842 164.052,96.583 	"/>
	<polygon fill="#D0021B" points="163.743,103.859 163.773,103.695 163.694,103.632 163.786,103.517 163.786,103.407 
		163.162,103.295 153.834,101.621 153.834,102.081 163.057,103.736 	"/>
	<polygon fill="#D0021B" points="161.422,111.13 161.513,110.908 161.432,110.816 161.531,110.728 161.534,110.687 160.738,110.36 
		153.834,107.523 153.834,108.012 160.547,110.77 	"/>
	<polygon fill="#D0021B" points="157.099,117.354 157.285,117.482 157.541,117.109 156.971,116.718 153.834,114.561 153.834,115.11 
		156.703,117.082 	"/>
	<polygon fill="#D0021B" points="82.479,88.394 81.588,87.908 81.371,88.306 82.398,88.866 85.93,90.792 86.407,91.052 
		86.581,91.147 86.745,91.237 86.778,91.177 86.962,90.839 86.728,90.712 85.993,90.311 	"/>
	<polygon fill="#D0021B" points="87.226,84.488 83.172,85.112 81.873,85.312 81.942,85.759 83.058,85.587 87.085,84.967 
		88.27,84.785 88.267,84.771 88.236,84.568 88.201,84.338 	"/>
	<polygon fill="#D0021B" points="100.485,65.749 100.32,65.143 96.916,63.286 95.612,62.575 95.395,62.972 96.543,63.598 
		99.961,65.463 	"/>
	<polygon fill="#D0021B" points="100.871,65.444 100.921,65.625 100.953,65.566 100.985,65.506 	"/>
	<polygon fill="#D0021B" points="100.769,65.903 100.831,65.789 100.65,65.839 	"/>
	<polygon fill="#D0021B" points="100.485,65.749 100.52,65.874 100.601,65.852 100.65,65.839 100.831,65.789 100.956,65.755 
		100.921,65.625 100.871,65.444 100.713,64.864 99.688,61.106 99.48,60.342 99.043,60.461 99.299,61.398 100.32,65.143 	"/>
	<polygon fill="#D0021B" points="106.805,61.65 106.684,60.983 103.612,58.594 102.9,58.041 102.623,58.397 103.182,58.832 
		106.266,61.231 	"/>
	<polygon fill="#D0021B" points="107.219,61.399 107.252,61.584 107.286,61.54 107.329,61.485 	"/>
	<polygon fill="#D0021B" points="107.052,61.842 107.137,61.732 106.953,61.765 	"/>
	<polygon fill="#D0021B" points="114.477,58.716 114.477,58.904 114.512,58.868 114.57,58.81 	"/>
	<polygon fill="#D0021B" points="114.023,58.903 114.023,58.263 113.825,58.065 110.984,55.224 110.631,54.871 110.311,55.191 
		110.516,55.396 113.343,58.223 	"/>
	<polygon fill="#D0021B" points="114.25,59.13 114.344,59.036 114.156,59.036 	"/>
	<polygon fill="#D0021B" points="114.023,58.263 114.023,58.903 114.023,59.036 114.092,59.036 114.156,59.036 114.344,59.036 
		114.477,59.036 114.477,58.904 114.477,58.716 114.477,57.883 114.477,54.165 114.477,53.155 114.023,53.155 114.023,54.289 
		114.023,58.008 	"/>
	<polygon fill="#D0021B" points="106.805,61.65 106.83,61.788 106.9,61.775 106.953,61.765 107.137,61.732 107.274,61.707 
		107.252,61.584 107.219,61.399 107.107,60.788 106.439,57.111 106.289,56.285 105.845,56.366 106.018,57.319 106.684,60.983 	"/>
	<polygon fill="#D0021B" points="121.245,57.034 121.41,56.43 119.443,53.153 118.852,52.167 118.464,52.399 118.962,53.229 
		120.977,56.588 	"/>
	<polygon fill="#D0021B" points="121.341,57.195 121.371,57.244 121.411,57.311 121.522,57.244 	"/>
	<polygon fill="#D0021B" points="121.732,56.966 121.682,57.148 121.799,57.078 	"/>
	<polygon fill="#D0021B" points="121.245,57.034 121.211,57.159 121.341,57.195 121.522,57.244 121.646,57.278 121.67,57.192 
		121.682,57.148 121.732,56.966 121.862,56.487 122.869,52.799 123.123,51.866 122.688,51.747 122.391,52.834 121.41,56.43 	"/>
	<polygon fill="#D0021B" points="128.996,57.162 129.018,57.223 129.043,57.291 129.165,57.246 	"/>
	<polygon fill="#D0021B" points="129.425,57.015 129.341,57.182 129.469,57.136 	"/>
	<polygon fill="#D0021B" points="128.932,56.987 129.212,56.428 127.865,52.724 127.505,51.734 127.079,51.889 127.378,52.712 
		128.725,56.415 	"/>
	<polygon fill="#D0021B" points="128.932,56.987 128.875,57.102 128.996,57.162 129.165,57.246 129.28,57.304 129.317,57.23 
		129.341,57.182 129.425,57.015 129.689,56.487 131.427,53.011 131.744,52.376 131.339,52.173 130.95,52.952 129.212,56.428 	"/>
	<polygon fill="#D0021B" points="148.665,64.479 148.739,64.496 148.802,64.51 148.83,64.389 	"/>
	<polygon fill="#D0021B" points="148.966,63.799 149.028,63.53 149.953,59.518 150.26,58.188 149.818,58.086 149.546,59.266 
		148.627,63.253 148.461,63.973 148.469,64.07 	"/>
	<polygon fill="#D0021B" points="148.665,64.479 148.83,64.389 149.635,63.949 153.389,61.901 153.914,61.615 153.697,61.217 
		152.994,61.601 149.218,63.661 148.966,63.799 148.469,64.07 148.505,64.479 148.542,64.546 	"/>
	<polygon fill="#D0021B" points="155.077,69.062 155.127,68.953 154.946,69.002 	"/>
	<polygon fill="#D0021B" points="154.802,68.573 155.37,68.418 156.953,64.936 157.526,63.674 157.114,63.487 156.602,64.614 
		154.859,68.448 	"/>
	<polygon fill="#D0021B" points="154.665,68.875 154.774,68.925 154.725,68.743 	"/>
	<polygon fill="#D0021B" points="154.802,68.573 154.688,68.604 154.725,68.743 154.774,68.925 154.806,69.041 154.946,69.002 
		155.127,68.953 155.307,68.904 159.632,67.725 160.219,67.564 160.101,67.128 159.293,67.348 155.37,68.418 	"/>
	<polygon fill="#D0021B" points="159.171,75.131 159.524,75.414 159.724,75.164 159.679,74.914 159.966,74.862 162.631,71.531 
		163.426,70.537 163.072,70.254 162.356,71.15 159.698,74.473 	"/>
	<polygon fill="#D0021B" points="159.679,74.914 159.724,75.164 159.76,75.359 160.214,75.277 164.513,74.495 165.18,74.374 
		165.099,73.928 164.265,74.08 159.966,74.862 	"/>
	<polygon fill="#D0021B" points="162.75,82.101 162.562,82.116 162.639,82.201 	"/>
	<polygon fill="#D0021B" points="162.561,81.662 163.301,81.606 163.344,81.567 166.622,78.617 167.499,77.827 167.196,77.491 
		166.421,78.189 163.162,81.122 	"/>
	<polygon fill="#D0021B" points="162.436,81.976 162.421,81.789 162.413,81.796 162.336,81.865 	"/>
	<polygon fill="#D0021B" points="163.301,81.606 162.561,81.662 162.412,81.674 162.421,81.789 162.436,81.976 162.439,82.023 
		162.447,82.125 162.562,82.116 162.75,82.101 163.526,82.042 167.828,81.711 168.779,81.638 168.744,81.187 167.673,81.269 
		163.358,81.601 	"/>
	<polygon fill="#D0021B" points="164.431,88.887 165.255,89.005 165.37,88.952 169.311,87.132 170.646,86.516 170.456,86.105 
		169.226,86.673 165.285,88.493 	"/>
	<polygon fill="#D0021B" points="164.231,89.154 164.258,88.967 164.165,89.01 	"/>
	<polygon fill="#D0021B" points="164.499,89.354 164.311,89.327 164.354,89.42 	"/>
	<polygon fill="#D0021B" points="165.255,89.005 164.431,88.887 164.272,88.864 164.258,88.967 164.231,89.154 164.209,89.312 
		164.311,89.327 164.499,89.354 165.459,89.491 169.791,90.109 170.991,90.281 171.055,89.833 169.73,89.644 165.383,89.023 	"/>
	<polygon fill="#D0021B" points="164.944,96.121 165.628,96.437 165.866,96.386 170.113,95.476 171.52,95.175 171.425,94.732 
		170.115,95.013 165.878,95.921 	"/>
	<polygon fill="#D0021B" points="164.891,96.595 164.719,96.516 164.743,96.627 	"/>
	<polygon fill="#D0021B" points="164.68,96.333 164.759,96.161 164.648,96.185 	"/>
	<polygon fill="#D0021B" points="165.628,96.437 164.944,96.121 164.807,96.058 164.759,96.161 164.68,96.333 164.617,96.469 
		164.719,96.516 164.891,96.595 165.849,97.038 169.942,98.927 170.909,99.373 171.099,98.962 169.98,98.446 165.862,96.545 	"/>
	<polygon fill="#D0021B" points="164.092,103.37 164.659,103.823 164.895,103.823 169.211,103.823 171.025,103.823 171.025,103.37 
		169.298,103.37 165.003,103.37 	"/>
	<polygon fill="#D0021B" points="163.904,103.37 163.786,103.37 163.786,103.407 163.786,103.517 	"/>
	<polygon fill="#D0021B" points="163.934,103.823 163.786,103.705 163.786,103.823 	"/>
	<polygon fill="#D0021B" points="164.659,103.823 164.092,103.37 163.978,103.278 163.904,103.37 163.786,103.517 163.694,103.632 
		163.773,103.695 163.786,103.705 163.934,103.823 164.741,104.469 168.293,107.311 168.571,107.534 168.854,107.181 
		168.431,106.842 164.857,103.982 	"/>
	<polygon fill="#D0021B" points="161.51,111.046 161.644,111.055 161.519,110.914 	"/>
	<polygon fill="#D0021B" points="161.672,110.603 161.54,110.594 161.534,110.687 161.531,110.728 	"/>
	<polygon fill="#D0021B" points="166.976,110.956 162.592,110.664 161.858,110.615 162.287,111.098 162.386,111.104 
		166.795,111.398 168.697,111.525 168.747,111.528 168.757,111.379 168.777,111.076 	"/>
	<polygon fill="#D0021B" points="161.672,110.603 161.531,110.728 161.432,110.816 161.513,110.908 161.519,110.914 
		161.644,111.055 162.146,111.62 165.082,114.922 165.352,115.226 165.689,114.925 165.309,114.496 162.354,111.173 
		162.287,111.098 161.858,110.615 161.77,110.516 	"/>
	<polygon fill="#D0021B" points="157.83,117.425 158.125,117.965 158.271,118.002 162.517,119.063 163.272,119.252 163.382,118.812 
		162.788,118.664 158.56,117.607 	"/>
	<polygon fill="#D0021B" points="157.405,117.785 157.529,117.816 157.439,117.651 	"/>
	<polygon fill="#D0021B" points="157.515,117.346 157.484,117.47 157.649,117.379 	"/>
	<polygon fill="#D0021B" points="158.125,117.965 157.83,117.425 157.77,117.313 157.649,117.379 157.484,117.47 157.373,117.53 
		157.439,117.651 157.529,117.816 157.903,118.501 159.983,122.315 160.304,122.903 160.7,122.687 160.293,121.94 158.198,118.1 	
		"/>
	<polygon fill="#D0021B" points="158.213,126.525 158.441,126.135 157.104,125.355 153.834,123.446 153.834,123.97 156.756,125.675 
			"/>
	<polygon fill="#D0021B" points="154.335,128.643 154.159,127.938 153.834,126.638 153.834,128.506 153.896,128.752 	"/>
	<path fill="#D0021B" d="M80.267,91.521c0.174-0.228,0.281-0.509,0.281-0.818c0-0.212-0.053-0.41-0.139-0.588
		c-0.22-0.454-0.68-0.769-1.218-0.769c-0.75,0-1.357,0.608-1.357,1.357c0,0.749,0.607,1.357,1.357,1.357h0.001
		C79.632,92.06,80.019,91.847,80.267,91.521z"/>
	<path fill="#D0021B" d="M81,83.918c0.242,0,0.467-0.069,0.664-0.18c0.128-0.073,0.243-0.163,0.341-0.272h-2.01
		C80.243,83.741,80.599,83.918,81,83.918z"/>
	<path fill="#D0021B" d="M97.662,60.37c0.045-0.135,0.076-0.278,0.076-0.429c0-0.75-0.608-1.357-1.357-1.357
		c-0.75,0-1.357,0.608-1.357,1.357c0,0.75,0.608,1.357,1.357,1.357c0.037,0,0.071-0.008,0.107-0.011
		C97.039,61.244,97.493,60.875,97.662,60.37z"/>
	<path fill="#D0021B" d="M104.307,56.148c0.136-0.211,0.217-0.461,0.217-0.731c0-0.75-0.608-1.357-1.357-1.357
		c-0.75,0-1.357,0.608-1.357,1.357c0,0.749,0.606,1.355,1.354,1.357c0.001,0,0.002,0,0.003,0
		C103.646,56.774,104.066,56.524,104.307,56.148z"/>
	<path fill="#D0021B" d="M112.699,52.777c0.258-0.247,0.42-0.593,0.42-0.978c0-0.75-0.608-1.357-1.357-1.357
		c-0.75,0-1.357,0.608-1.357,1.357c0,0.678,0.499,1.235,1.149,1.336c0.068,0.011,0.137,0.021,0.208,0.021
		C112.126,53.155,112.455,53.01,112.699,52.777z"/>
	<path fill="#D0021B" d="M121.613,51.077c0.334-0.247,0.554-0.641,0.554-1.089c0-0.75-0.608-1.357-1.357-1.357
		c-0.75,0-1.357,0.608-1.357,1.357c0,0.555,0.334,1.03,0.81,1.24c0.167,0.074,0.352,0.117,0.547,0.117
		C121.112,51.346,121.388,51.244,121.613,51.077z"/>
	<path fill="#D0021B" d="M129.405,51.346c0.31,0,0.592-0.108,0.82-0.282c0.324-0.248,0.537-0.635,0.537-1.075
		c0-0.75-0.608-1.357-1.357-1.357c-0.75,0-1.357,0.608-1.357,1.357c0,0.367,0.147,0.698,0.383,0.943
		C128.678,51.186,129.022,51.346,129.405,51.346z"/>
	<path fill="#D0021B" d="M152.929,59.489c0.073,0,0.143-0.01,0.213-0.022c0.647-0.103,1.144-0.659,1.144-1.336
		c0-0.75-0.608-1.357-1.357-1.357c-0.75,0-1.357,0.608-1.357,1.357c0,0.096,0.011,0.19,0.03,0.281
		C151.732,59.027,152.276,59.489,152.929,59.489z"/>
	<path fill="#D0021B" d="M160.167,65.822c0.058,0,0.114-0.01,0.17-0.017c0.668-0.085,1.187-0.649,1.187-1.34
		c0-0.75-0.608-1.357-1.357-1.357c-0.674,0-1.229,0.493-1.335,1.137c-0.012,0.072-0.022,0.145-0.022,0.22
		C158.81,65.215,159.418,65.822,160.167,65.822z"/>
	<path fill="#D0021B" d="M165.739,73.022c0.1,0.023,0.202,0.039,0.309,0.039c0.75,0,1.357-0.608,1.357-1.357
		c0-0.75-0.608-1.357-1.357-1.357c-0.65,0-1.191,0.457-1.324,1.067c-0.021,0.094-0.033,0.19-0.033,0.29
		C164.691,72.346,165.139,72.881,165.739,73.022z"/>
	<path fill="#D0021B" d="M169.22,80.217c0.141,0.049,0.29,0.082,0.447,0.082c0.75,0,1.357-0.608,1.357-1.357
		c0-0.75-0.608-1.357-1.357-1.357c-0.528,0-0.981,0.305-1.206,0.746c-0.094,0.184-0.152,0.39-0.152,0.611
		C168.31,79.533,168.692,80.031,169.22,80.217z"/>
	<path fill="#D0021B" d="M171.467,88.985c0.242,0.222,0.561,0.361,0.915,0.361c0.75,0,1.357-0.608,1.357-1.357
		c0-0.75-0.608-1.357-1.357-1.357c-0.517,0-0.962,0.293-1.191,0.719c-0.103,0.191-0.166,0.406-0.166,0.638
		C171.025,88.385,171.197,88.737,171.467,88.985z"/>
	<path fill="#D0021B" d="M171.477,97.037c0,0.351,0.137,0.668,0.356,0.909c0.248,0.273,0.603,0.448,1.001,0.448
		c0.75,0,1.357-0.608,1.357-1.357s-0.608-1.357-1.357-1.357c-0.36,0-0.685,0.143-0.927,0.371
		C171.644,96.298,171.477,96.647,171.477,97.037z"/>
	<path fill="#D0021B" d="M170.12,106.085c0,0.264,0.078,0.508,0.209,0.716c0.24,0.384,0.663,0.641,1.148,0.641
		c0.75,0,1.357-0.608,1.357-1.357s-0.608-1.357-1.357-1.357c-0.244,0-0.469,0.069-0.667,0.182
		C170.4,105.143,170.12,105.579,170.12,106.085z"/>
	<path fill="#D0021B" d="M167.406,113.775c0,0.158,0.032,0.308,0.082,0.449c0.186,0.528,0.684,0.908,1.275,0.908
		c0.75,0,1.357-0.608,1.357-1.357c0-0.75-0.608-1.357-1.357-1.357c-0.166,0-0.323,0.034-0.47,0.088
		C167.776,112.698,167.406,113.191,167.406,113.775z"/>
	<path fill="#D0021B" d="M162.451,122.153c-0.011,0.071-0.022,0.143-0.022,0.217c0,0.75,0.608,1.357,1.357,1.357
		c0.75,0,1.357-0.608,1.357-1.357c0-0.75-0.608-1.357-1.357-1.357c-0.196,0-0.381,0.043-0.55,0.118
		C162.826,121.315,162.525,121.695,162.451,122.153z"/>
	<path fill="#D0021B" d="M155.655,129.043c-0.003,0.038-0.011,0.074-0.011,0.113c0,0.75,0.608,1.357,1.357,1.357
		c0.75,0,1.357-0.608,1.357-1.357c0-0.714-0.553-1.292-1.252-1.347c-0.035-0.003-0.069-0.011-0.105-0.011
		C156.29,127.799,155.713,128.348,155.655,129.043z"/>
	<path fill="#E0E0E0" d="M47.531,52.4c-2.071,0-5.831,1.142-8.127,2.841c-3.102,2.296-4.166,7.291-4.176,7.341l-0.168,0.812
		l-0.825-0.096c-0.004,0-0.492-0.057-1.205-0.057c-1.171,0-3.333,0.156-4.657,1.197c-1.771,1.394-3.177,3.215-3.417,4.43
		c-0.263,1.327-0.115,3.751,0.679,5.631c0.775,1.836,2.043,3.383,2.578,3.99h24.25l0.201-2.605h-6.848l-0.2-0.106
		c-0.106-0.057-2.612-1.418-3.398-4.04c-0.591-1.971,0.357-4.943,0.996-6.097l0.128-0.236c0.561-1.041,1.729-3.206,3.826-3.934
		c0.787-0.273,1.725-0.412,2.787-0.412c0.982,0,1.887,0.118,2.503,0.224c0.276-0.701,0.778-1.789,1.562-2.936l0.221-2.867
		c-2.213-1.833-4.822-2.935-6.376-3.067C47.762,52.405,47.65,52.4,47.531,52.4z"/>
	<path fill="#D0021B" d="M52.464,78.489h-24.25c-0.535-0.606-1.803-2.153-2.578-3.99c-0.793-1.88-0.942-4.304-0.679-5.631
		c0.241-1.215,1.646-3.037,3.417-4.43c1.323-1.041,3.486-1.197,4.657-1.197c0.713,0,1.201,0.056,1.205,0.057l0.825,0.096
		l0.168-0.812c0.01-0.05,1.074-5.045,4.176-7.341C41.7,53.542,45.46,52.4,47.531,52.4c0.119,0,0.23,0.004,0.334,0.013
		c1.553,0.133,4.162,1.235,6.376,3.067l0.166-2.148c-2.279-1.626-4.75-2.582-6.388-2.722c-2.205-0.194-6.828,1.056-9.692,3.176
		c-2.892,2.14-4.224,6.006-4.68,7.657c-0.182-0.007-0.39-0.012-0.617-0.012c-1.716,0-4.112,0.275-5.776,1.584
		c-2.147,1.688-3.746,3.848-4.074,5.5c-0.323,1.63-0.157,4.451,0.787,6.687c1.127,2.672,3.113,4.735,3.197,4.821l0.266,0.274h24.892
		L52.464,78.489z"/>
	<path fill="#E0E0E0" d="M49.955,62.869c-0.859,0-1.597,0.105-2.193,0.312c-1.432,0.498-2.339,2.18-2.826,3.083l-0.138,0.254
		c-0.497,0.896-1.245,3.367-0.845,4.7c0.462,1.541,1.849,2.542,2.341,2.857h6.512l0.825-10.671l-0.8-0.2
		C52.816,63.2,51.469,62.869,49.955,62.869z"/>
	<path fill="#E0E0E0" d="M73.713,69.942c0.87,0,1.675,0.1,2.238,0.193c0.439-1.083,1.431-3.082,3.252-4.695
		c0.66-0.584,1.464-1.08,2.305-1.504c-0.243-0.329-0.528-0.629-0.872-0.875c-1.767-1.262-4.627-1.625-4.656-1.628l-0.441-0.054
		l-0.228-0.384c-0.016-0.026-1.583-2.643-4.276-4.453c-0.471-0.317-1.008-0.599-1.568-0.853l1.304,14.794
		c0.125-0.057,0.243-0.122,0.376-0.167C71.873,70.068,72.736,69.942,73.713,69.942z"/>
	<path fill="#D0021B" d="M49.955,61.059c-1.062,0-2,0.139-2.787,0.412c-2.097,0.728-3.265,2.893-3.826,3.934l-0.128,0.236
		c-0.639,1.153-1.586,4.125-0.996,6.097c0.787,2.622,3.292,3.983,3.398,4.04l0.2,0.106h6.848l0.14-1.81h-6.512
		c-0.492-0.315-1.878-1.316-2.341-2.857c-0.399-1.333,0.349-3.804,0.845-4.7l0.138-0.254c0.487-0.904,1.394-2.586,2.826-3.083
		c0.596-0.207,1.333-0.312,2.193-0.312c1.514,0,2.861,0.332,2.875,0.334l0.8,0.2l0.391-5.055c-0.784,1.147-1.286,2.234-1.562,2.936
		C51.842,61.177,50.937,61.059,49.955,61.059z"/>
	<path fill="#D0021B" d="M69.468,55.69c0.56,0.253,1.096,0.536,1.568,0.853c2.693,1.81,4.26,4.426,4.276,4.453l0.228,0.384
		l0.441,0.054c0.029,0.003,2.89,0.367,4.656,1.628c0.344,0.245,0.629,0.546,0.872,0.875c0.552-0.278,1.115-0.526,1.675-0.732
		c-0.383-0.593-0.861-1.163-1.495-1.616c-1.701-1.215-4.084-1.722-5.055-1.886c-0.571-0.862-2.152-3.024-4.589-4.662
		c-0.832-0.559-1.787-1.015-2.756-1.384L69.468,55.69z"/>
	<path fill="#E0E0E0" d="M101.15,81.656c0.43-0.444,1.335-1.457,1.89-2.633c0.655-1.39,0.656-3.001,0.503-3.691
		c-0.137-0.619-0.552-2.497-1.862-3.419c-1.589-1.12-4.192-1.449-4.218-1.453l-0.438-0.054l-0.229-0.379
		c-0.014-0.023-1.436-2.362-3.877-3.98c-1.865-1.236-4.794-1.979-6.194-1.87c-1.505,0.115-4.622,1.114-6.32,2.618
		c-2.18,1.931-2.99,4.606-2.998,4.633l-0.245,0.828l-0.84-0.205c-0.012-0.003-1.235-0.299-2.608-0.299
		c-0.777,0-1.443,0.093-1.98,0.277c-0.286,0.098-0.546,0.254-0.787,0.439l0.81,9.188H101.15z"/>
	<path fill="#D0021B" d="M81.509,63.937c-0.84,0.423-1.645,0.919-2.305,1.504c-1.821,1.613-2.813,3.611-3.252,4.695
		c-0.563-0.093-1.368-0.193-2.238-0.193c-0.977,0-1.84,0.126-2.566,0.375c-0.133,0.045-0.251,0.11-0.376,0.167l0.175,1.984
		c0.241-0.184,0.501-0.341,0.787-0.439c0.537-0.184,1.203-0.277,1.98-0.277c1.373,0,2.596,0.296,2.608,0.299l0.84,0.205l0.245-0.828
		c0.008-0.027,0.817-2.702,2.998-4.633c1.699-1.504,4.815-2.503,6.32-2.618c1.4-0.109,4.329,0.634,6.194,1.87
		c2.442,1.618,3.863,3.957,3.877,3.98l0.229,0.379l0.438,0.054c0.026,0.003,2.629,0.333,4.218,1.453
		c1.311,0.923,1.726,2.801,1.862,3.419c0.153,0.689,0.152,2.301-0.503,3.691c-0.555,1.176-1.46,2.188-1.89,2.633H71.756l0.12,1.357
		h1.433v0.453h6.686h2.01h1.625h3.907h1.916h12.118h0.305l0.244-0.225l0.016-0.015c0.066-0.061,1.643-1.526,2.541-3.431
		c0.116-0.245,0.212-0.498,0.299-0.753c0.052-0.154,0.101-0.309,0.143-0.464c0.375-1.365,0.386-2.754,0.19-3.637
		c-0.174-0.787-0.703-3.181-2.587-4.507c-1.224-0.862-2.821-1.327-3.889-1.562c-0.281-0.062-0.534-0.111-0.723-0.143
		c-0.161-0.237-0.41-0.581-0.726-0.975c-0.598-0.746-1.462-1.691-2.579-2.569c-0.282-0.221-0.575-0.439-0.888-0.646
		c-0.204-0.135-0.423-0.256-0.641-0.379c-2.255-1.273-5.156-1.904-6.691-1.787c-0.833,0.064-2.09,0.35-3.402,0.833
		C82.624,63.411,82.061,63.659,81.509,63.937z"/>
	
		<rect x="29.309" y="83.918" transform="matrix(-0.2577 -0.9662 0.9662 -0.2577 -39.5425 139.2657)" fill="#D0021B" width="8.832" height="1.81"/>
	
		<rect x="36.557" y="86.971" transform="matrix(-0.2696 -0.963 0.963 -0.2696 -33.3309 150.4723)" fill="#D0021B" width="7.682" height="1.81"/>
	
		<rect x="43.108" y="83.126" transform="matrix(0.2911 0.9567 -0.9567 0.2911 113.517 14.8593)" fill="#D0021B" width="7.247" height="1.809"/>
	<path fill="#E0E0E0" d="M19.023,110.155v35.287h28.953v-35.287H19.023z M44.809,112.87h1.357v8.144h-1.357V112.87z M33.499,112.87
		h1.357v8.144h-1.357V112.87z M22.189,112.87h1.357v8.144h-1.357V112.87z M28.297,130.966c0,1.123-0.913,2.036-2.036,2.036h-2.714
		c-1.123,0-2.036-0.913-2.036-2.036v-2.714c0-1.123,0.914-2.036,2.036-2.036h2.714c1.123,0,2.036,0.913,2.036,2.036V130.966z
		 M28.976,121.014h-1.357v-8.144h1.357V121.014z M37.345,130.966c0,1.123-0.914,2.036-2.036,2.036h-2.714
		c-1.123,0-2.036-0.913-2.036-2.036v-2.714c0-1.123,0.913-2.036,2.036-2.036h2.714c1.123,0,2.036,0.913,2.036,2.036V130.966z
		 M39.38,112.87h1.357v8.144H39.38V112.87z M44.356,133.002h-2.714c-1.123,0-2.036-0.913-2.036-2.036v-2.714
		c0-1.123,0.913-2.036,2.036-2.036h2.714c1.123,0,2.036,0.913,2.036,2.036v2.714C46.393,132.089,45.479,133.002,44.356,133.002z"/>
	<polygon fill="#D0021B" points="47.976,145.442 19.023,145.442 19.023,110.155 47.976,110.155 47.976,108.347 19.758,108.347 
		17.213,108.347 17.213,147.251 20.895,147.251 47.976,147.251 	"/>
	<rect x="44.809" y="112.87" fill="#D0021B" width="1.357" height="8.144"/>
	<rect x="39.38" y="112.87" fill="#D0021B" width="1.357" height="8.144"/>
	<rect x="33.499" y="112.87" fill="#D0021B" width="1.357" height="8.144"/>
	<rect x="27.618" y="112.87" fill="#D0021B" width="1.357" height="8.144"/>
	<rect x="22.189" y="112.87" fill="#D0021B" width="1.357" height="8.144"/>
	<path fill="#E0E0E0" d="M44.356,127.573h-2.714c-0.374,0-0.678,0.305-0.678,0.679v2.714c0,0.374,0.304,0.679,0.678,0.679h2.714
		c0.375,0,0.679-0.305,0.679-0.679v-2.714C45.035,127.878,44.731,127.573,44.356,127.573z"/>
	<path fill="#D0021B" d="M44.356,126.216h-2.714c-1.123,0-2.036,0.913-2.036,2.036v2.714c0,1.123,0.913,2.036,2.036,2.036h2.714
		c1.123,0,2.036-0.913,2.036-2.036v-2.714C46.393,127.129,45.479,126.216,44.356,126.216z M45.035,130.966
		c0,0.374-0.304,0.679-0.679,0.679h-2.714c-0.374,0-0.678-0.305-0.678-0.679v-2.714c0-0.374,0.304-0.679,0.678-0.679h2.714
		c0.375,0,0.679,0.305,0.679,0.679V130.966z"/>
	<path fill="#E0E0E0" d="M35.309,127.573h-2.714c-0.374,0-0.678,0.305-0.678,0.679v2.714c0,0.374,0.304,0.679,0.678,0.679h2.714
		c0.375,0,0.679-0.305,0.679-0.679v-2.714C35.987,127.878,35.683,127.573,35.309,127.573z"/>
	<path fill="#D0021B" d="M35.309,126.216h-2.714c-1.123,0-2.036,0.913-2.036,2.036v2.714c0,1.123,0.913,2.036,2.036,2.036h2.714
		c1.123,0,2.036-0.913,2.036-2.036v-2.714C37.345,127.129,36.431,126.216,35.309,126.216z M35.987,130.966
		c0,0.374-0.304,0.679-0.679,0.679h-2.714c-0.374,0-0.678-0.305-0.678-0.679v-2.714c0-0.374,0.304-0.679,0.678-0.679h2.714
		c0.375,0,0.679,0.305,0.679,0.679V130.966z"/>
	<path fill="#E0E0E0" d="M26.261,127.573h-2.714c-0.375,0-0.679,0.305-0.679,0.679v2.714c0,0.374,0.304,0.679,0.679,0.679h2.714
		c0.374,0,0.678-0.305,0.678-0.679v-2.714C26.939,127.878,26.635,127.573,26.261,127.573z"/>
	<path fill="#D0021B" d="M26.261,126.216h-2.714c-1.123,0-2.036,0.913-2.036,2.036v2.714c0,1.123,0.914,2.036,2.036,2.036h2.714
		c1.123,0,2.036-0.913,2.036-2.036v-2.714C28.297,127.129,27.384,126.216,26.261,126.216z M26.939,130.966
		c0,0.374-0.304,0.679-0.678,0.679h-2.714c-0.375,0-0.679-0.305-0.679-0.679v-2.714c0-0.374,0.304-0.679,0.679-0.679h2.714
		c0.374,0,0.678,0.305,0.678,0.679V130.966z"/>
	<path fill="#E0E0E0" d="M72.857,89.346H50.69c-0.499,0-0.905,0.406-0.905,0.905v19.904v35.287v2.262
		c0,0.499,0.406,0.905,0.905,0.905h22.167c0.499,0,0.905-0.406,0.905-0.905v-0.453v-55.19v-1.81
		C73.762,89.752,73.356,89.346,72.857,89.346z M56.571,145.546h-1.357v-41.18h1.357V145.546z M62.452,145.546h-1.357v-41.18h1.357
		V145.546z M68.333,145.546h-1.357v-41.18h1.357V145.546z M71.273,100.154c0,1.123-0.913,2.036-2.036,2.036H54.309
		c-1.123,0-2.036-0.913-2.036-2.036v-7.238c0-1.123,0.914-2.036,2.036-2.036h14.929c1.123,0,2.036,0.914,2.036,2.036V100.154z"/>
	<path fill="#D0021B" d="M73.309,87.582v1.764h-0.452c0.499,0,0.905,0.406,0.905,0.905v1.81h1.81v-1.81
		C75.571,88.909,74.59,87.799,73.309,87.582z"/>
	<path fill="#D0021B" d="M73.762,147.251v0.453c0,0.499-0.406,0.905-0.905,0.905H50.69c-0.499,0-0.905-0.406-0.905-0.905v-2.262
		v-35.287V90.251c0-0.499,0.406-0.905,0.905-0.905v-1.81c-1.497,0-2.714,1.218-2.714,2.714v18.096v1.809v35.287v1.809v0.453
		c0,1.497,1.218,2.714,2.714,2.714h22.167c1.497,0,2.714-1.217,2.714-2.714v-0.453H73.762z"/>
	<rect x="55.214" y="104.366" fill="#D0021B" width="1.357" height="41.18"/>
	<rect x="61.095" y="104.366" fill="#D0021B" width="1.357" height="41.18"/>
	<rect x="66.976" y="104.366" fill="#D0021B" width="1.357" height="41.18"/>
	<path fill="#E0E0E0" d="M53.63,97.316v2.838c0,0.375,0.304,0.678,0.679,0.678h2.262v-3.516H53.63z"/>
	<rect x="57.928" y="97.316" fill="#E0E0E0" width="3.167" height="3.516"/>
	<rect x="62.452" y="97.316" fill="#E0E0E0" width="3.167" height="3.516"/>
	<path fill="#E0E0E0" d="M66.976,100.832h2.262c0.374,0,0.678-0.304,0.678-0.678v-2.838h-2.94V100.832z"/>
	<path fill="#E0E0E0" d="M56.571,92.237h-2.262c-0.375,0-0.679,0.304-0.679,0.679v3.042h2.94V92.237z"/>
	<rect x="57.928" y="92.237" fill="#E0E0E0" width="3.167" height="3.721"/>
	<path fill="#E0E0E0" d="M69.916,95.958v-3.042c0-0.375-0.304-0.679-0.678-0.679h-2.262v3.721H69.916z"/>
	<rect x="62.452" y="92.237" fill="#E0E0E0" width="3.167" height="3.721"/>
	<path fill="#D0021B" d="M69.238,90.88H54.309c-1.123,0-2.036,0.914-2.036,2.036v7.238c0,1.123,0.914,2.036,2.036,2.036h14.929
		c1.123,0,2.036-0.913,2.036-2.036v-7.238C71.273,91.793,70.36,90.88,69.238,90.88z M71.047,97.316h-1.131v2.838
		c0,0.375-0.304,0.678-0.678,0.678h-2.262v1.352h-1.357v-1.352h-3.167v1.352h-1.357v-1.352h-3.167v1.352h-1.357v-1.352h-2.262
		c-0.375,0-0.679-0.304-0.679-0.678v-2.838H52.5v-1.357h1.131v-3.042c0-0.375,0.304-0.679,0.679-0.679h2.262v-1.146h1.357v1.146
		h3.167v-1.146h1.357v1.146h3.167v-1.146h1.357v1.146h2.262c0.374,0,0.678,0.304,0.678,0.679v3.042h1.131V97.316z"/>
	<rect x="62.452" y="95.958" fill="#D0021B" width="3.167" height="1.357"/>
	<polygon fill="#D0021B" points="56.571,95.958 53.63,95.958 52.5,95.958 52.5,97.316 53.63,97.316 56.571,97.316 	"/>
	<rect x="57.928" y="95.958" fill="#D0021B" width="3.167" height="1.357"/>
	<polygon fill="#D0021B" points="69.916,95.958 66.976,95.958 66.976,97.316 69.916,97.316 71.047,97.316 71.047,95.958 	"/>
	<polygon fill="#D0021B" points="57.928,95.958 57.928,92.237 57.928,91.091 56.571,91.091 56.571,92.237 56.571,95.958 
		56.571,97.316 56.571,100.832 56.571,102.184 57.928,102.184 57.928,100.832 57.928,97.316 	"/>
	<polygon fill="#D0021B" points="62.452,95.958 62.452,92.237 62.452,91.091 61.095,91.091 61.095,92.237 61.095,95.958 
		61.095,97.316 61.095,100.832 61.095,102.184 62.452,102.184 62.452,100.832 62.452,97.316 	"/>
	<polygon fill="#D0021B" points="66.976,95.958 66.976,92.237 66.976,91.091 65.619,91.091 65.619,92.237 65.619,95.958 
		65.619,97.316 65.619,100.832 65.619,102.184 66.976,102.184 66.976,100.832 66.976,97.316 	"/>
	<rect x="52.5" y="84.822" fill="#E0E0E0" width="19" height="2.714"/>
	<polygon fill="#D0021B" points="50.69,89.346 72.857,89.346 73.309,89.346 73.309,87.582 73.309,83.465 73.309,83.013 
		71.876,83.013 72.035,84.822 71.5,84.822 71.5,87.537 52.5,87.537 52.5,84.822 51.974,84.822 52.114,83.013 50.69,83.013 
		50.69,87.537 	"/>
	<path fill="#E0E0E0" d="M57.023,45.917c-0.078,0-0.151-0.013-0.226-0.023l-2.868,37.119h16.13L66.787,45.89
		c-0.087,0.013-0.174,0.027-0.264,0.027H57.023z M57.447,80.721l1.415-33.023l1.356,0.058l-1.415,33.023L57.447,80.721z
		 M66.1,80.721l-1.356,0.058l-1.416-33.023l1.356-0.058L66.1,80.721z"/>
	<path fill="#D0021B" d="M51.974,84.822H52.5h19h0.536l-0.159-1.81l-0.12-1.357l-0.81-9.188l-0.175-1.984L69.468,55.69l-0.179-2.033
		l-0.956-10.844v1.294c0,0.907-0.674,1.653-1.546,1.782l3.272,37.122h-16.13l2.868-37.119c-0.89-0.113-1.583-0.866-1.583-1.786
		v-1.209l-0.806,10.434l-0.166,2.148l-0.221,2.867l-0.391,5.055l-0.825,10.671l-0.14,1.81l-0.201,2.605l-0.14,1.81l-0.21,2.714
		L51.974,84.822z"/>
	
		<rect x="58.154" y="47.712" transform="matrix(0.9991 0.0428 -0.0428 0.9991 2.8042 -2.4599)" fill="#D0021B" width="1.357" height="33.053"/>
	
		<rect x="48.187" y="63.56" transform="matrix(-0.0428 -0.9991 0.9991 -0.0428 3.3054 131.6443)" fill="#D0021B" width="33.053" height="1.357"/>
	<rect x="57.023" y="41.846" fill="#E0E0E0" width="9.501" height="2.262"/>
	<path fill="#D0021B" d="M56.797,45.894c0.075,0.01,0.149,0.023,0.226,0.023h9.5c0.09,0,0.177-0.014,0.264-0.027
		c0.872-0.129,1.546-0.875,1.546-1.782v-1.294v-0.968c0-0.998-0.812-1.81-1.81-1.81h-9.5c-0.998,0-1.81,0.812-1.81,1.81v1.053v1.209
		C55.214,45.028,55.907,45.781,56.797,45.894z M66.523,41.846l0.001,2.262l-9.501,0v-2.262H66.523z"/>
	<path fill="#E0E0E0" d="M89.906,99.519h-0.722v3.102h0.722c0.787,0,1.312-0.659,1.312-1.551
		C91.218,100.139,90.694,99.519,89.906,99.519z"/>
	<path fill="#E0E0E0" d="M78.964,142.728c0-0.873,0.71-1.583,1.583-1.583h0.032c-0.021-0.103-0.032-0.209-0.032-0.318v-1.357
		c0-0.873,0.71-1.583,1.583-1.583h3.782v-26.023c-0.234-0.378-0.404-0.799-0.488-1.254h-9.853v34.834h1.989
		c0.188-0.626,0.75-1.087,1.428-1.123c-0.012-0.077-0.024-0.154-0.024-0.235V142.728z"/>
	<path fill="#E0E0E0" d="M112.603,99.48c-0.787,0-1.312,0.698-1.312,1.59s0.558,1.59,1.312,1.629c0.787,0,1.312-0.698,1.312-1.59
		S113.357,99.48,112.603,99.48z"/>
	<path fill="#E0E0E0" d="M117.883,99.48c-0.787,0-1.312,0.698-1.312,1.59s0.558,1.59,1.312,1.629c0.787,0,1.312-0.698,1.312-1.59
		S118.638,99.48,117.883,99.48z"/>
	<path fill="#E0E0E0" d="M116.513,112.215v25.671h3.166c0.873,0,1.584,0.71,1.584,1.583v1.357c0,0.109-0.011,0.215-0.032,0.318
		h0.197c0.873,0,1.584,0.71,1.584,1.583v1.357c0,0.078-0.012,0.152-0.023,0.227h0.189c0.715,0,1.313,0.479,1.509,1.131h1.552
		v-34.834h-8.98C117.147,111.214,116.88,111.757,116.513,112.215z"/>
	<path fill="#E0E0E0" d="M85.085,99.48c-0.787,0-1.312,0.698-1.312,1.59s0.525,1.59,1.312,1.629c0.787,0,1.312-0.698,1.312-1.59
		S85.84,99.48,85.085,99.48z"/>
	<path fill="#E0E0E0" d="M91.794,137.886h18.837v-26.418c-0.125-0.271-0.224-0.557-0.28-0.86H92.333
		c-0.091,0.491-0.275,0.948-0.539,1.348V137.886z"/>
	<path fill="#E0E0E0" d="M75.571,93.87v14.93h9.979c0.465-1.44,1.773-2.489,3.328-2.489c1.555,0,2.863,1.049,3.328,2.489h18.271
		c0.465-1.44,1.773-2.489,3.328-2.489s2.863,1.049,3.327,2.489h9.106V93.87H75.571z M78.985,100.372v2.753
		c0,0.31-0.197,0.543-0.459,0.543c-0.262,0-0.459-0.233-0.459-0.582v-4.071c0-0.349,0.23-0.582,0.492-0.582h0.098
		c0.23,0,0.361,0.155,0.492,0.349l1.837,2.869v-2.637c0-0.31,0.197-0.543,0.459-0.543s0.459,0.233,0.459,0.543v4.071
		c0,0.349-0.23,0.582-0.492,0.582h-0.033c-0.23,0-0.361-0.155-0.492-0.349L78.985,100.372z M85.052,103.706
		c-1.345,0-2.296-1.163-2.296-2.637c0-1.435,0.984-2.637,2.329-2.637s2.296,1.163,2.296,2.637
		C87.381,102.504,86.397,103.706,85.052,103.706z M89.906,103.629h-1.214c-0.262,0-0.459-0.233-0.492-0.582v-3.955
		c0-0.349,0.23-0.582,0.492-0.582h1.214c1.345,0,2.296,1.125,2.296,2.559S91.284,103.629,89.906,103.629z M95.974,103.629h-2.427
		c-0.262,0-0.459-0.233-0.492-0.582v-3.994c0-0.349,0.23-0.582,0.492-0.582h2.394c0.23,0,0.426,0.233,0.426,0.504
		s-0.197,0.504-0.426,0.504h-1.935v1.047h1.64c0.23,0,0.426,0.233,0.426,0.504c0,0.271-0.197,0.504-0.426,0.504h-1.64v1.086h1.968
		c0.23,0,0.426,0.233,0.426,0.504S96.204,103.629,95.974,103.629z M98.795,103.706c-0.59,0-1.148-0.194-1.64-0.62
		c-0.098-0.078-0.197-0.233-0.131-0.504c0-0.271,0.197-0.504,0.459-0.504c0.098,0,0.197,0.078,0.262,0.116
		c0.328,0.271,0.689,0.465,1.115,0.465c0.394,0,0.623-0.155,0.623-0.465c0-0.31-0.164-0.427-0.886-0.659
		c-0.885-0.233-1.443-0.543-1.443-1.551c0-0.931,0.623-1.551,1.509-1.551c0.525,0,0.984,0.155,1.378,0.465
		c0.098,0.078,0.197,0.233,0.197,0.465c0,0.271-0.197,0.504-0.459,0.504c-0.066,0-0.164-0.039-0.23-0.078
		c-0.328-0.233-0.623-0.349-0.918-0.349c-0.361,0-0.558,0.233-0.558,0.465c0,0.31,0.197,0.427,0.951,0.659
		c0.886,0.271,1.378,0.659,1.378,1.551C100.402,103.125,99.746,103.706,98.795,103.706z M104.764,103.047
		c-0.394,0.427-0.853,0.659-1.542,0.659c-1.246,0-2.197-1.163-2.263-2.676c0-1.435,0.918-2.637,2.263-2.637
		c0.656,0,1.082,0.194,1.443,0.504c0.098,0.116,0.197,0.271,0.197,0.465c0,0.31-0.197,0.543-0.459,0.543
		c-0.131,0-0.23-0.078-0.295-0.116c-0.262-0.233-0.558-0.349-0.886-0.349c-0.722,0-1.246,0.698-1.246,1.59
		c0,0.892,0.492,1.629,1.246,1.629c0.426,0,0.689-0.116,0.951-0.388c0.098-0.078,0.197-0.116,0.295-0.116
		c0.262,0,0.459,0.233,0.459,0.504C104.928,102.815,104.862,102.97,104.764,103.047z M109.52,103.086
		c0,0.349-0.23,0.582-0.492,0.582c-0.295,0-0.492-0.271-0.492-0.582v-1.551h-1.771v1.551c0,0.349-0.23,0.582-0.492,0.582
		c-0.295,0-0.492-0.233-0.492-0.582v-4.071c0-0.349,0.23-0.582,0.492-0.582c0.295,0,0.492,0.271,0.492,0.582v1.512h1.771v-1.512
		c0-0.349,0.23-0.582,0.492-0.582c0.295,0,0.492,0.271,0.492,0.582V103.086z M112.603,103.706c-1.345,0-2.296-1.163-2.329-2.637
		c0-1.435,0.984-2.637,2.329-2.637s2.296,1.163,2.296,2.637C114.899,102.504,113.947,103.706,112.603,103.706z M117.883,103.706
		c-1.345,0-2.296-1.163-2.296-2.637c0-1.435,0.984-2.637,2.329-2.637s2.296,1.163,2.296,2.637
		C120.212,102.504,119.228,103.706,117.883,103.706z M123.754,103.629h-2.23c-0.262,0-0.492-0.233-0.525-0.582v-3.994
		c0-0.349,0.23-0.582,0.492-0.582c0.295,0,0.492,0.271,0.492,0.582v3.567h1.771c0.23,0,0.426,0.233,0.426,0.504
		S123.984,103.629,123.754,103.629z"/>
	<path fill="#D0021B" d="M77.486,145.895c0-0.158,0.03-0.308,0.074-0.452h-1.989v-34.834h-0.716V108.8h0.716V93.87h50.668v-1.81
		h-0.103h-0.29h-0.53h-1.275h-0.6h-1.351h-0.727h-2.218h-0.983h-5.492h-1.491H95.59h-3.007h-4.962h-1.815h-3.768h-1.815h-1.033
		H79.19h-3.618h-1.81v55.19h1.81h1.915V145.895z"/>
	<path fill="#D0021B" d="M126.239,145.442h-1.552c0.043,0.144,0.074,0.294,0.074,0.452v1.356h1.479V145.442z"/>
	<path fill="#E0E0E0" d="M79.07,145.669c-0.125,0-0.226,0.102-0.226,0.226v1.357c0,0.124,0.102,0.226,0.226,0.226h44.108
		c0.124,0,0.226-0.102,0.226-0.226v-1.357c0-0.124-0.102-0.226-0.226-0.226h-1.75h-40.88H79.07z"/>
	<path fill="#D0021B" d="M124.761,145.895c0-0.158-0.03-0.308-0.074-0.452c-0.196-0.652-0.794-1.131-1.509-1.131h-0.189
		c-0.111,0.765-0.766,1.357-1.561,1.357h1.75c0.124,0,0.226,0.102,0.226,0.226v1.357c0,0.124-0.102,0.226-0.226,0.226H79.07
		c-0.125,0-0.226-0.102-0.226-0.226v-1.357c0-0.124,0.102-0.226,0.226-0.226h1.478c-0.793,0-1.445-0.588-1.56-1.349
		c-0.678,0.036-1.239,0.496-1.428,1.123c-0.043,0.144-0.074,0.294-0.074,0.452v1.356v0.001c0,0.873,0.71,1.583,1.583,1.583h44.108
		c0.873,0,1.583-0.71,1.583-1.583v-0.001V145.895z"/>
	<path fill="#E0E0E0" d="M80.321,142.728v1.357c0,0.125,0.102,0.227,0.226,0.227h40.88c0.125,0,0.227-0.102,0.227-0.227v-1.357
		c0-0.124-0.102-0.226-0.227-0.226h-40.88C80.423,142.502,80.321,142.604,80.321,142.728z"/>
	<path fill="#D0021B" d="M123.012,142.728c0-0.873-0.711-1.583-1.584-1.583h-0.197c-0.148,0.721-0.788,1.266-1.552,1.266H82.131
		c-0.764,0-1.404-0.544-1.551-1.266h-0.032c-0.873,0-1.583,0.71-1.583,1.583v1.357c0,0.08,0.012,0.158,0.024,0.235
		c0.115,0.761,0.767,1.349,1.56,1.349h40.88c0.795,0,1.45-0.592,1.561-1.357c0.011-0.075,0.023-0.149,0.023-0.227V142.728z
		 M121.428,142.502c0.125,0,0.227,0.102,0.227,0.226v1.357c0,0.125-0.102,0.227-0.227,0.227h-40.88
		c-0.125,0-0.226-0.102-0.226-0.227v-1.357c0-0.124,0.102-0.226,0.226-0.226H121.428z"/>
	<path fill="#E0E0E0" d="M91.794,139.335h-5.881v-0.092h-3.782c-0.125,0-0.226,0.102-0.226,0.226v1.357
		c0,0.125,0.102,0.227,0.226,0.227h37.548c0.125,0,0.227-0.102,0.227-0.227v-1.357c0-0.124-0.102-0.226-0.227-0.226h-3.166v0.092
		h-5.882v-0.092H91.794V139.335z"/>
	<rect x="91.794" y="137.886" fill="#D0021B" width="18.837" height="1.357"/>
	<path fill="#D0021B" d="M116.513,139.243h3.166c0.125,0,0.227,0.102,0.227,0.226v1.357c0,0.125-0.102,0.227-0.227,0.227H82.131
		c-0.125,0-0.226-0.102-0.226-0.227v-1.357c0-0.124,0.102-0.226,0.226-0.226h3.782v-1.357h-3.782c-0.873,0-1.583,0.71-1.583,1.583
		v1.357c0,0.109,0.011,0.215,0.032,0.318c0.148,0.721,0.787,1.266,1.551,1.266h37.548c0.764,0,1.404-0.544,1.552-1.266
		c0.021-0.103,0.032-0.209,0.032-0.318v-1.357c0-0.873-0.711-1.583-1.584-1.583h-3.166V139.243z"/>
	<path fill="#D0021B" d="M117.326,109.93c0,0.232-0.026,0.458-0.067,0.679h8.98V108.8h-9.106
		C117.248,109.157,117.326,109.533,117.326,109.93z"/>
	<path fill="#D0021B" d="M92.333,110.608h18.018c-0.041-0.22-0.067-0.446-0.067-0.679c0-0.397,0.078-0.772,0.193-1.13H92.207
		c0.115,0.358,0.193,0.733,0.193,1.13C92.4,110.162,92.374,110.388,92.333,110.608z"/>
	<path fill="#D0021B" d="M85.424,110.608c-0.041-0.22-0.067-0.446-0.067-0.679c0-0.397,0.078-0.772,0.193-1.13h-9.979h-0.716v1.809
		h0.716H85.424z"/>
	<path fill="#E0E0E0" d="M87.27,137.978h3.167v-24.819c-0.472,0.242-0.996,0.39-1.558,0.39c-0.583,0-1.124-0.16-1.609-0.419V137.978
		z"/>
	<path fill="#D0021B" d="M85.913,139.243v0.092h5.881v-0.092v-1.357v-25.93c-0.34,0.515-0.812,0.923-1.357,1.202v24.819H87.27
		V113.13c-0.554-0.296-1.024-0.729-1.357-1.267v26.023V139.243z"/>
	<path fill="#E0E0E0" d="M88.879,107.668c-1.193,0-2.164,1.015-2.164,2.262s0.971,2.262,2.164,2.262
		c1.193,0,2.164-1.015,2.164-2.262S90.072,107.668,88.879,107.668z M88.879,110.88c-0.555,0-1.006-0.466-1.006-1.04
		s0.45-1.041,1.006-1.041s1.006,0.466,1.006,1.041S89.434,110.88,88.879,110.88z"/>
	<path fill="#D0021B" d="M85.424,110.608c0.085,0.455,0.255,0.877,0.488,1.254c0.334,0.539,0.803,0.972,1.357,1.267
		c0.484,0.259,1.026,0.419,1.609,0.419c0.562,0,1.086-0.149,1.558-0.39c0.545-0.279,1.018-0.688,1.357-1.202
		c0.264-0.399,0.448-0.857,0.539-1.348c0.041-0.22,0.067-0.446,0.067-0.679c0-0.397-0.078-0.772-0.193-1.13
		c-0.465-1.44-1.773-2.489-3.328-2.489c-1.556,0-2.863,1.049-3.328,2.489c-0.115,0.358-0.193,0.733-0.193,1.13
		C85.357,110.162,85.383,110.388,85.424,110.608z M91.042,109.93c0,1.247-0.971,2.262-2.164,2.262c-1.193,0-2.164-1.015-2.164-2.262
		s0.971-2.262,2.164-2.262C90.072,107.668,91.042,108.683,91.042,109.93z"/>
	<ellipse fill="#D0021B" cx="88.879" cy="109.839" rx="1.006" ry="1.041"/>
	<path fill="#E0E0E0" d="M111.988,137.978h3.167V113.27c-0.416,0.178-0.871,0.279-1.35,0.279c-0.667,0-1.285-0.203-1.817-0.535
		V137.978z"/>
	<path fill="#D0021B" d="M115.155,113.27v24.707h-3.167v-24.964c-0.588-0.368-1.061-0.902-1.357-1.545v26.418v1.357v0.092h5.882
		v-0.092v-1.357v-25.671C116.149,112.669,115.691,113.04,115.155,113.27z"/>
	<path fill="#E0E0E0" d="M111.642,109.93c0,1.247,0.971,2.262,2.164,2.262c1.192,0,2.163-1.015,2.163-2.262
		s-0.971-2.262-2.163-2.262C112.612,107.668,111.642,108.683,111.642,109.93z M114.811,109.839c0,0.575-0.45,1.04-1.006,1.04
		c-0.555,0-1.006-0.466-1.006-1.04s0.45-1.041,1.006-1.041C114.361,108.799,114.811,109.265,114.811,109.839z"/>
	<path fill="#D0021B" d="M110.351,110.608c0.056,0.303,0.155,0.588,0.28,0.86c0.297,0.643,0.769,1.178,1.357,1.545
		c0.532,0.333,1.15,0.535,1.817,0.535c0.478,0,0.934-0.1,1.35-0.279c0.536-0.23,0.994-0.601,1.357-1.055
		c0.367-0.458,0.634-1.001,0.747-1.607c0.041-0.22,0.067-0.446,0.067-0.679c0-0.397-0.078-0.772-0.193-1.13
		c-0.465-1.44-1.772-2.489-3.327-2.489s-2.863,1.049-3.328,2.489c-0.115,0.358-0.193,0.733-0.193,1.13
		C110.284,110.162,110.31,110.388,110.351,110.608z M115.969,109.93c0,1.247-0.971,2.262-2.163,2.262
		c-1.193,0-2.164-1.015-2.164-2.262s0.971-2.262,2.164-2.262C114.998,107.668,115.969,108.683,115.969,109.93z"/>
	<ellipse fill="#D0021B" cx="113.805" cy="109.839" rx="1.006" ry="1.04"/>
	<path fill="#D0021B" d="M81.379,103.668h0.033c0.262,0,0.492-0.233,0.492-0.582v-4.071c0-0.31-0.197-0.543-0.459-0.543
		s-0.459,0.233-0.459,0.543v2.637l-1.837-2.869c-0.131-0.194-0.262-0.349-0.492-0.349h-0.098c-0.262,0-0.492,0.233-0.492,0.582
		v4.071c0,0.349,0.197,0.582,0.459,0.582c0.262,0,0.459-0.233,0.459-0.543v-2.753l1.902,2.947
		C81.018,103.512,81.149,103.668,81.379,103.668z"/>
	<path fill="#D0021B" d="M87.381,101.07c0-1.474-0.951-2.637-2.296-2.637s-2.329,1.202-2.329,2.637c0,1.473,0.951,2.637,2.296,2.637
		C86.397,103.706,87.381,102.504,87.381,101.07z M85.085,102.698c-0.787-0.039-1.312-0.737-1.312-1.629s0.525-1.59,1.312-1.59
		c0.754,0,1.312,0.737,1.312,1.629S85.872,102.698,85.085,102.698z"/>
	<path fill="#D0021B" d="M89.906,98.51h-1.214c-0.262,0-0.492,0.233-0.492,0.582v3.955c0.033,0.349,0.23,0.582,0.492,0.582h1.214
		c1.378,0,2.296-1.125,2.296-2.559S91.251,98.51,89.906,98.51z M89.906,102.621h-0.722v-3.102h0.722c0.787,0,1.312,0.62,1.312,1.551
		C91.218,101.961,90.694,102.621,89.906,102.621z"/>
	<path fill="#D0021B" d="M95.974,102.621h-1.968v-1.086h1.64c0.23,0,0.426-0.233,0.426-0.504c0-0.271-0.197-0.504-0.426-0.504h-1.64
		V99.48h1.935c0.23,0,0.426-0.233,0.426-0.504s-0.197-0.504-0.426-0.504h-2.394c-0.262,0-0.492,0.233-0.492,0.582v3.994
		c0.033,0.349,0.23,0.582,0.492,0.582h2.427c0.23,0,0.426-0.233,0.426-0.504S96.204,102.621,95.974,102.621z"/>
	<path fill="#D0021B" d="M99.024,100.565c-0.754-0.233-0.951-0.349-0.951-0.659c0-0.233,0.197-0.465,0.558-0.465
		c0.295,0,0.59,0.116,0.918,0.349c0.066,0.039,0.164,0.078,0.23,0.078c0.262,0,0.459-0.233,0.459-0.504
		c0-0.233-0.098-0.388-0.197-0.465c-0.394-0.31-0.853-0.465-1.378-0.465c-0.886,0-1.509,0.62-1.509,1.551
		c0,1.008,0.558,1.318,1.443,1.551c0.722,0.233,0.886,0.349,0.886,0.659c0,0.31-0.23,0.465-0.623,0.465
		c-0.426,0-0.787-0.194-1.115-0.465c-0.066-0.039-0.164-0.116-0.262-0.116c-0.262,0-0.459,0.233-0.459,0.504
		c-0.066,0.271,0.033,0.427,0.131,0.504c0.492,0.427,1.05,0.62,1.64,0.62c0.951,0,1.607-0.582,1.607-1.59
		C100.402,101.225,99.91,100.837,99.024,100.565z"/>
	<path fill="#D0021B" d="M104.469,102.155c-0.098,0-0.197,0.039-0.295,0.116c-0.262,0.271-0.525,0.388-0.951,0.388
		c-0.754,0-1.246-0.737-1.246-1.629c0-0.892,0.525-1.59,1.246-1.59c0.328,0,0.623,0.116,0.886,0.349
		c0.066,0.039,0.164,0.116,0.295,0.116c0.262,0,0.459-0.233,0.459-0.543c0-0.194-0.098-0.349-0.197-0.465
		c-0.361-0.31-0.787-0.504-1.443-0.504c-1.345,0-2.263,1.202-2.263,2.637c0.066,1.512,1.017,2.676,2.263,2.676
		c0.689,0,1.148-0.233,1.542-0.659c0.098-0.078,0.164-0.233,0.164-0.388C104.928,102.388,104.731,102.155,104.469,102.155z"/>
	<path fill="#D0021B" d="M109.028,98.433c-0.262,0-0.492,0.233-0.492,0.582v1.512h-1.771v-1.512c0-0.31-0.197-0.582-0.492-0.582
		c-0.262,0-0.492,0.233-0.492,0.582v4.071c0,0.349,0.197,0.582,0.492,0.582c0.262,0,0.492-0.233,0.492-0.582v-1.551h1.771v1.551
		c0,0.31,0.197,0.582,0.492,0.582c0.262,0,0.492-0.233,0.492-0.582v-4.071C109.52,98.704,109.323,98.433,109.028,98.433z"/>
	<path fill="#D0021B" d="M112.603,98.433c-1.345,0-2.329,1.202-2.329,2.637c0.033,1.473,0.984,2.637,2.329,2.637
		s2.296-1.202,2.296-2.637C114.899,99.596,113.947,98.433,112.603,98.433z M112.603,102.698c-0.754-0.039-1.312-0.737-1.312-1.629
		s0.525-1.59,1.312-1.59c0.754,0,1.312,0.737,1.312,1.629S113.39,102.698,112.603,102.698z"/>
	<path fill="#D0021B" d="M117.916,98.433c-1.345,0-2.329,1.202-2.329,2.637c0,1.473,0.951,2.637,2.296,2.637
		c1.345,0,2.329-1.202,2.329-2.637C120.212,99.596,119.261,98.433,117.916,98.433z M117.883,102.698
		c-0.754-0.039-1.312-0.737-1.312-1.629s0.525-1.59,1.312-1.59c0.754,0,1.312,0.737,1.312,1.629S118.67,102.698,117.883,102.698z"/>
	<path fill="#D0021B" d="M123.754,102.621h-1.771v-3.567c0-0.31-0.197-0.582-0.492-0.582c-0.262,0-0.492,0.233-0.492,0.582v3.994
		c0.033,0.349,0.262,0.582,0.525,0.582h2.23c0.23,0,0.426-0.233,0.426-0.504S123.984,102.621,123.754,102.621z"/>
	<path fill="#E0E0E0" d="M128.953,89.346c-0.499,0-0.905,0.406-0.905,0.905v1.81v55.19v0.453c0,0.499,0.406,0.905,0.905,0.905
		h22.167c0.499,0,0.905-0.406,0.905-0.905V90.251c0-0.499-0.406-0.905-0.905-0.905H128.953z M133.477,145.546v-41.18h1.357v41.18
		H133.477z M139.357,145.546v-41.18h1.357v41.18H139.357z M146.596,145.546h-1.357v-41.18h1.357V145.546z M149.536,92.916v7.238
		c0,1.123-0.913,2.036-2.035,2.036h-14.929c-1.123,0-2.036-0.913-2.036-2.036v-7.238c0-1.123,0.913-2.036,2.036-2.036h14.929
		C148.623,90.88,149.536,91.793,149.536,92.916z"/>
	<path fill="#D0021B" d="M152.458,141.099l-0.406-1.764l0.882-0.203c0.05-0.011,0.387-0.089,0.9-0.197v-4.121v-3.001v-1.352v-1.955
		v-1.867v-2.668v-0.524v-0.449v-2.55v-5.337v-0.549v-6.549v-0.489v-5.442v-0.46v-4.779V96.39v-4.466v-0.463v-1.21
		c0-1.342-0.981-2.452-2.263-2.669v1.764h-0.451c0.499,0,0.905,0.406,0.905,0.905v57.453c0,0.499-0.406,0.905-0.905,0.905h-22.167
		c-0.499,0-0.905-0.406-0.905-0.905v-0.453v-55.19v-1.81c0-0.499,0.406-0.905,0.905-0.905v-1.81c-0.08,0-0.154,0.017-0.232,0.023
		c-0.156,0.013-0.307,0.037-0.454,0.075c-0.495,0.13-0.934,0.391-1.276,0.751c-0.144,0.152-0.266,0.323-0.372,0.505
		c-0.235,0.401-0.379,0.862-0.379,1.36v0.771v1.038v1.81v14.93v1.809v34.834v1.809v0.453c0,1.497,1.217,2.714,2.714,2.714h22.167
		c1.497,0,2.714-1.217,2.714-2.714v-0.905h-1.602v-1.809h1.602v-4.204c-0.301,0.065-0.485,0.107-0.494,0.109L152.458,141.099z"/>
	<rect x="133.477" y="104.366" fill="#D0021B" width="1.357" height="41.18"/>
	<rect x="139.357" y="104.366" fill="#D0021B" width="1.357" height="41.18"/>
	<rect x="145.238" y="104.366" fill="#D0021B" width="1.357" height="41.18"/>
	<path fill="#E0E0E0" d="M145.238,100.832h2.263c0.374,0,0.678-0.304,0.678-0.678v-2.838h-2.94V100.832z"/>
	<rect x="136.191" y="92.237" fill="#E0E0E0" width="3.166" height="3.721"/>
	<rect x="140.715" y="92.237" fill="#E0E0E0" width="3.166" height="3.721"/>
	<path fill="#E0E0E0" d="M134.834,95.958v-3.721h-2.262c-0.374,0-0.679,0.304-0.679,0.679v3.042H134.834z"/>
	<path fill="#E0E0E0" d="M145.238,95.958h2.94v-3.042c0-0.375-0.304-0.679-0.678-0.679h-2.263V95.958z"/>
	<rect x="140.715" y="97.316" fill="#E0E0E0" width="3.166" height="3.516"/>
	<rect x="136.191" y="97.316" fill="#E0E0E0" width="3.166" height="3.516"/>
	<path fill="#E0E0E0" d="M134.834,97.316h-2.94v2.838c0,0.375,0.305,0.678,0.679,0.678h2.262V97.316z"/>
	<path fill="#D0021B" d="M132.572,90.88c-1.123,0-2.036,0.914-2.036,2.036v7.238c0,1.123,0.913,2.036,2.036,2.036h14.929
		c1.122,0,2.035-0.913,2.035-2.036v-7.238c0-1.123-0.913-2.036-2.035-2.036H132.572z M145.238,91.091v1.146h2.263
		c0.374,0,0.678,0.304,0.678,0.679v3.042h1.132v1.357h-1.132v2.838c0,0.375-0.304,0.678-0.678,0.678h-2.263v1.352h-1.357v-1.352
		h-3.166v1.352h-1.357v-1.352h-3.166v1.352h-1.357v-1.352h-2.262c-0.374,0-0.679-0.304-0.679-0.678v-2.838h-1.132v-1.357h1.132
		v-3.042c0-0.375,0.305-0.679,0.679-0.679h2.262v-1.146h1.357v1.146h3.166v-1.146h1.357v1.146h3.166v-1.146H145.238z"/>
	<rect x="136.191" y="95.958" fill="#D0021B" width="3.166" height="1.357"/>
	<polygon fill="#D0021B" points="145.238,97.316 148.179,97.316 149.311,97.316 149.311,95.958 148.179,95.958 145.238,95.958 	"/>
	<rect x="140.715" y="95.958" fill="#D0021B" width="3.166" height="1.357"/>
	<polygon fill="#D0021B" points="134.834,95.958 131.894,95.958 130.762,95.958 130.762,97.316 131.894,97.316 134.834,97.316 	"/>
	<polygon fill="#D0021B" points="136.191,97.316 136.191,95.958 136.191,92.237 136.191,91.091 134.834,91.091 134.834,92.237 
		134.834,95.958 134.834,97.316 134.834,100.832 134.834,102.184 136.191,102.184 136.191,100.832 	"/>
	<polygon fill="#D0021B" points="140.715,97.316 140.715,95.958 140.715,92.237 140.715,91.091 139.357,91.091 139.357,92.237 
		139.357,95.958 139.357,97.316 139.357,100.832 139.357,102.184 140.715,102.184 140.715,100.832 	"/>
	<polygon fill="#D0021B" points="143.881,92.237 143.881,95.958 143.881,97.316 143.881,100.832 143.881,102.184 145.238,102.184 
		145.238,100.832 145.238,97.316 145.238,95.958 145.238,92.237 145.238,91.091 143.881,91.091 	"/>
	<rect x="130.762" y="84.822" fill="#E0E0E0" width="19.001" height="2.714"/>
	<polygon fill="#D0021B" points="151.571,86.453 151.571,83.013 150.139,83.013 150.299,84.822 149.763,84.822 149.763,87.537 
		130.762,87.537 130.762,84.822 130.237,84.822 130.377,83.013 128.953,83.013 128.953,87.537 128.953,89.346 151.12,89.346 
		151.571,89.346 151.571,87.582 151.571,86.95 	"/>
	<path fill="#E0E0E0" d="M135.286,45.917c-0.077,0-0.151-0.013-0.226-0.023l-2.868,37.119h16.13l-3.272-37.122
		c-0.087,0.013-0.174,0.027-0.265,0.027H135.286z M137.126,47.698l1.355,0.058l-1.416,33.023l-1.355-0.058L137.126,47.698z
		 M144.362,80.721l-1.355,0.058l-1.416-33.023l1.355-0.058L144.362,80.721z"/>
	<path fill="#D0021B" d="M132.399,56.839l-0.14,1.812l-1.882,24.362l-0.14,1.81h0.524h19.001h0.536l-0.16-1.81l-0.075-0.854
		l-0.046-0.521l-0.587-6.659l-0.053-0.605l-0.789-8.95l-0.053-0.598l-0.031-0.347l-0.036-0.409l-0.009-0.097l-0.078-0.888
		l-0.418-4.74l-0.191-2.169l-1.178-13.357v1.289c0,0.907-0.673,1.653-1.545,1.782l3.272,37.122h-16.13l2.868-37.119
		c-0.89-0.113-1.583-0.866-1.583-1.786V42.88l-0.655,8.48l-0.139,1.805L132.399,56.839z"/>
	
		<rect x="136.417" y="47.712" transform="matrix(0.9991 0.0428 -0.0428 0.9991 2.877 -5.8126)" fill="#D0021B" width="1.357" height="33.053"/>
	
		<rect x="142.298" y="47.712" transform="matrix(0.9991 -0.0428 0.0428 0.9991 -2.62 6.1824)" fill="#D0021B" width="1.357" height="33.053"/>
	<rect x="135.286" y="41.846" fill="#E0E0E0" width="9.501" height="2.262"/>
	<path fill="#D0021B" d="M135.06,45.894c0.075,0.009,0.149,0.023,0.226,0.023h9.5c0.091,0,0.177-0.014,0.265-0.027
		c0.872-0.129,1.545-0.875,1.545-1.782v-1.289v-0.973c0-0.998-0.812-1.81-1.81-1.81h-9.5c-0.997,0-1.809,0.812-1.809,1.81v1.034
		v1.228C133.478,45.028,134.17,45.781,135.06,45.894z M144.787,44.107l-9.501,0v-2.262h9.501V44.107z"/>
	<polygon fill="#D0021B" points="152.232,144.99 152.232,146.799 153.834,146.799 179.999,146.799 183.031,146.799 183.031,144.99 
		180.353,144.99 153.834,144.99 	"/>
	<path fill="#D0021B" d="M173.855,140.675c-2.162-0.129-4.568-0.769-6.895-1.388c-2.456-0.654-4.775-1.271-6.715-1.271
		c-1.827,0-4.895,0.597-6.412,0.918c-0.513,0.109-0.851,0.186-0.9,0.197l-0.882,0.203l0.406,1.764l0.882-0.203
		c0.009-0.002,0.193-0.044,0.494-0.109c1.255-0.272,4.606-0.961,6.412-0.961c1.703,0,3.911,0.588,6.249,1.21
		c2.413,0.643,4.909,1.307,7.253,1.446c0.342,0.021,0.678,0.029,1.009,0.029c2.237,0,4.199-0.434,5.596-0.862
		c1.295-0.397,2.104-0.789,2.176-0.824l0.81-0.4l-0.801-1.62l-0.811,0.398c-0.013,0.007-0.519,0.25-1.374,0.539
		C178.93,140.223,176.543,140.829,173.855,140.675z"/>
	<path fill="#D0021B" d="M66.659,36.327L96.698,19L83.94,35.286c-0.271,0.362-0.226,0.905,0.136,1.176
		c0.362,0.271,0.905,0.226,1.176-0.136l13.934-17.779v17.372c0,0.452,0.362,0.859,0.859,0.859s0.86-0.362,0.86-0.859V18.548
		l13.933,17.779c0.181,0.226,0.407,0.317,0.679,0.317c0.181,0,0.362-0.045,0.498-0.181c0.362-0.271,0.407-0.814,0.136-1.176
		L103.393,19l30.581,17.643c0.136,0.09,0.271,0.09,0.407,0.09c0.271,0,0.588-0.136,0.724-0.407c0.181-0.362,0.045-0.905-0.362-1.131
		l-34.336-19.815c-0.045-0.045-0.091-0.045-0.136-0.045h-0.045h-0.045h-0.136c0,0,0,0-0.045,0h-0.045h-0.181
		c-0.045,0-0.09,0.045-0.136,0.045L65.845,34.879c-0.407,0.226-0.543,0.724-0.317,1.131S66.297,36.553,66.659,36.327z"/>
	<path fill="#D0021B" d="M133.386,162.859l-29.993,17.326L116.15,163.9c0.271-0.362,0.226-0.905-0.136-1.176
		c-0.362-0.271-0.905-0.226-1.176,0.136l-13.933,17.779v-17.372c0-0.452-0.362-0.86-0.86-0.86s-0.859,0.362-0.859,0.86v17.372
		l-13.934-17.779c-0.271-0.362-0.814-0.407-1.176-0.136c-0.362,0.271-0.407,0.814-0.136,1.176l12.757,16.286l-30.581-17.643
		c-0.407-0.226-0.905-0.091-1.131,0.317s-0.09,0.905,0.317,1.131l34.336,19.815h0.045c0.045,0,0.045,0.045,0.09,0.045h0.045h0.045
		h0.045c0.045,0,0.136,0.045,0.181,0.045c0.091,0,0.136,0,0.181-0.045h0.045h0.045c0.045,0,0.045-0.045,0.09-0.045h0.045
		l33.793-19.498c0.317-0.181,0.452-0.724,0.226-1.131C134.291,162.769,133.748,162.633,133.386,162.859z"/>
	<circle fill="#D0021B" cx="136.779" cy="161.411" r="1.04"/>
	<circle fill="#D0021B" cx="62.588" cy="161.411" r="1.04"/>
	<path fill="#D0021B" d="M80.605,160.661c0.181,0.271,0.498,0.362,0.769,0.226l2.262-1.312c0.226-0.136,0.317-0.452,0.181-0.679
		c-0.136-0.226-0.452-0.317-0.679-0.181l-1.81,1.041l-1.764-3.076c-0.181-0.271-0.498-0.362-0.769-0.226
		c-0.271,0.181-0.362,0.498-0.226,0.769L80.605,160.661z"/>
	<path fill="#D0021B" d="M100,158.652c1.583,0,2.714-1.176,2.714-2.624c0-1.448-1.086-2.624-2.669-2.624
		c-1.583,0-2.714,1.176-2.714,2.624C97.331,157.476,98.462,158.607,100,158.652z M100,154.399c0.905,0,1.538,0.724,1.538,1.629
		c0,0.86-0.633,1.583-1.538,1.538c-0.905,0-1.538-0.724-1.538-1.583C98.462,155.123,99.095,154.399,100,154.399z"/>
	<path fill="#D0021B" d="M116.439,159.936c0.271,0.181,0.633,0.091,0.769-0.181l1.357-2.352l0.452,3.664
		c0,0.271,0.091,0.452,0.317,0.588h0.045c0.271,0.136,0.633,0.045,0.769-0.226l2.036-3.483c0.181-0.271,0.09-0.633-0.181-0.769
		c-0.271-0.181-0.633-0.091-0.769,0.181l-1.312,2.262l-0.452-3.529c0-0.271-0.09-0.452-0.317-0.588l-0.09-0.045
		c-0.271-0.136-0.633-0.045-0.769,0.226l-2.036,3.483C116.078,159.438,116.168,159.8,116.439,159.936z"/>
</g>
</svg>
