<?xml version="1.0" encoding="utf-8"?>
<!-- Generator: Adobe Illustrator 17.0.0, SVG Export Plug-In . SVG Version: 6.00 Build 0)  -->
<!DOCTYPE svg PUBLIC "-//W3C//DTD SVG 1.1//EN" "http://www.w3.org/Graphics/SVG/1.1/DTD/svg11.dtd">
<svg version="1.1" id="Layer_1" xmlns="http://www.w3.org/2000/svg" xmlns:xlink="http://www.w3.org/1999/xlink" x="0px" y="0px"
	 width="200px" height="200px" viewBox="0 0 200 200" enable-background="new 0 0 200 200" xml:space="preserve">
<g>
	<path fill="#FFFFFF" d="M92.473,106.14c0-0.475,0.087-0.988,0.26-1.523c0.166-0.512,0.396-1.033,0.685-1.548
		c0.032-0.057,0.064-0.113,0.098-0.169c-0.11,0.146-0.213,0.291-0.309,0.437c-0.279,0.423-0.5,0.845-0.655,1.255
		c-0.145,0.385-0.22,0.718-0.22,0.991c0,0.332,0.051,0.612,0.154,0.845C92.477,106.335,92.473,106.24,92.473,106.14z"/>
	<path fill="#FFFFFF" d="M99.653,100.7c0,0.026,0.001,0.051,0.001,0.076c0,0.441-0.079,0.93-0.233,1.454
		c-0.143,0.486-0.339,0.99-0.582,1.496c0.021-0.033,0.042-0.066,0.063-0.098c0.388-0.618,0.655-1.203,0.796-1.734l0.109-0.418
		c-0.004-0.03-0.007-0.06-0.01-0.09C99.784,101.123,99.736,100.897,99.653,100.7z"/>
	<path fill="#FFFFFF" d="M104.349,102.203l-0.177,0.293l-0.61,1.007c-0.685,1.145-1.369,2.247-2.049,3.302
		c-0.089,0.138-0.179,0.276-0.268,0.412c0.261-0.375,0.523-0.766,0.788-1.173c1.085-1.672,2.318-3.679,3.668-5.97l-0.042,0.018
		l-0.745,1.193C104.671,101.672,104.671,101.672,104.349,102.203z"/>
	<g>
		<path fill="#FFFFFF" d="M143.379,62.405c-0.341-1.749-0.845-3.282-1.498-4.559c-0.636-1.248-1.439-2.246-2.385-2.969
			c-0.927-0.707-1.967-1.051-3.181-1.051c-1.27,0-2.337,0.344-3.265,1.051c-0.945,0.723-1.747,1.721-2.383,2.969
			c-0.651,1.276-1.14,2.807-1.454,4.551c-0.317,1.768-0.478,3.688-0.478,5.71s0.161,3.935,0.478,5.689
			c0.314,1.732,0.803,3.265,1.455,4.554c0.636,1.261,1.439,2.266,2.383,2.988c0.926,0.707,1.993,1.051,3.264,1.051
			c1.244,0,2.297-0.344,3.222-1.051c0.946-0.721,1.749-1.726,2.385-2.988c0.653-1.291,1.149-2.824,1.477-4.558
			c0.33-1.751,0.498-3.663,0.498-5.685C143.898,66.087,143.723,64.169,143.379,62.405z"/>
		<path fill="#FFFFFF" d="M49.894,78.349c0.638,1.261,1.439,2.266,2.384,2.988c0.926,0.707,1.994,1.051,3.265,1.051
			c1.242,0,2.296-0.344,3.222-1.051c0.945-0.722,1.748-1.727,2.385-2.988c0.651-1.289,1.147-2.822,1.476-4.558
			c0.332-1.754,0.5-3.667,0.5-5.685c0-2.018-0.175-3.936-0.52-5.701c-0.341-1.748-0.844-3.282-1.497-4.559
			c-0.637-1.248-1.439-2.247-2.385-2.969c-0.927-0.707-1.967-1.051-3.181-1.051c-1.27,0-2.338,0.344-3.265,1.051
			c-0.945,0.722-1.748,1.721-2.385,2.969c-0.65,1.274-1.139,2.805-1.454,4.551c-0.318,1.77-0.479,3.691-0.479,5.71
			c0,2.018,0.161,3.933,0.479,5.689C48.754,75.53,49.244,77.062,49.894,78.349z"/>
		<path fill="#FFFFFF" d="M117.048,65.97c0.632-0.228,1.209-0.581,1.716-1.05c0.502-0.463,0.912-1.081,1.22-1.836
			c0.31-0.764,0.467-1.7,0.467-2.779c0-1.134-0.157-2.089-0.467-2.84c-0.304-0.734-0.704-1.32-1.186-1.742
			c-0.489-0.425-1.061-0.736-1.698-0.923c-0.666-0.196-1.376-0.296-2.11-0.296H110.8v11.815h4.316
			C115.754,66.319,116.404,66.201,117.048,65.97z"/>
		<path fill="#FFFFFF" d="M109.704,126.971c-0.79-1.083-1.721-1.895-2.767-2.418c-1.047-0.523-2.19-0.788-3.395-0.788h-3.724v27.205
			h3.724c1.207,0,2.348-0.265,3.394-0.789c1.047-0.523,1.979-1.336,2.768-2.416c0.805-1.099,1.446-2.521,1.903-4.225
			c0.467-1.724,0.703-3.8,0.703-6.172c0-2.373-0.236-4.449-0.702-6.173C111.149,129.491,110.508,128.07,109.704,126.971z"/>
		<path fill="#FFFFFF" d="M82.228,78.504c0.803-1.098,1.444-2.52,1.904-4.225c0.465-1.726,0.701-3.802,0.701-6.173
			c0-2.369-0.236-4.445-0.701-6.172c-0.46-1.704-1.101-3.127-1.904-4.226c-0.792-1.08-1.723-1.893-2.766-2.415
			c-1.046-0.524-2.19-0.79-3.397-0.79h-3.723v27.205h3.727c1.206,0,2.347-0.266,3.392-0.788
			C80.506,80.398,81.437,79.585,82.228,78.504z"/>
		<path fill="#FFFFFF" d="M133.36,127.106c-0.637-1.248-1.44-2.246-2.385-2.966c-0.927-0.708-1.967-1.052-3.181-1.052
			c-1.27,0-2.337,0.344-3.264,1.051c-0.947,0.724-1.75,1.723-2.386,2.968c-0.65,1.274-1.138,2.805-1.452,4.551
			c-0.318,1.768-0.479,3.689-0.479,5.712c0,2.022,0.161,3.936,0.479,5.687c0.314,1.735,0.803,3.267,1.454,4.554
			c0.636,1.26,1.439,2.266,2.385,2.987c0.926,0.708,1.993,1.051,3.264,1.051c1.244,0,2.297-0.343,3.222-1.05
			c0.945-0.721,1.747-1.727,2.385-2.988c0.653-1.291,1.149-2.824,1.476-4.558c0.332-1.75,0.5-3.663,0.5-5.683
			c0-2.014-0.175-3.931-0.519-5.703C134.516,129.919,134.012,128.384,133.36,127.106z"/>
		<path fill="#FFFFFF" d="M65.899,127.106c-0.637-1.246-1.439-2.244-2.386-2.966c-0.926-0.708-1.966-1.052-3.179-1.052
			c-1.272,0-2.34,0.344-3.265,1.051c-0.946,0.722-1.748,1.721-2.385,2.968c-0.65,1.275-1.139,2.807-1.453,4.551
			c-0.318,1.769-0.479,3.69-0.479,5.712c0,2.02,0.161,3.934,0.479,5.687c0.314,1.732,0.803,3.265,1.454,4.554
			c0.638,1.261,1.439,2.266,2.383,2.987c0.926,0.708,1.994,1.051,3.266,1.051c1.243,0,2.297-0.343,3.222-1.05
			c0.945-0.722,1.747-1.727,2.385-2.988c0.652-1.29,1.149-2.824,1.476-4.558c0.331-1.751,0.499-3.664,0.499-5.683
			s-0.175-3.937-0.521-5.702C67.054,129.917,66.55,128.383,65.899,127.106z"/>
		<path fill="#FFFFFF" d="M100.032,0L13.73,49.971l-0.032,100.002L99.968,200l86.303-49.972l0.031-100.001L100.032,0z
			 M108.748,52.538h6.368c0.842,0,1.701,0.129,2.554,0.383c0.876,0.261,1.68,0.698,2.388,1.298s1.298,1.399,1.756,2.373
			c0.457,0.977,0.689,2.198,0.689,3.63c0,1.127-0.146,2.128-0.433,2.976c-0.287,0.844-0.663,1.581-1.121,2.192
			c-0.464,0.619-1.001,1.122-1.593,1.495c-0.138,0.087-0.276,0.169-0.415,0.247c0.171,0.073,0.345,0.155,0.521,0.245
			c0.695,0.355,1.349,0.876,1.945,1.548c0.591,0.666,1.089,1.522,1.481,2.544c0.39,1.02,0.588,2.243,0.588,3.635
			c0,1.68-0.244,3.09-0.726,4.189c-0.483,1.104-1.11,1.992-1.865,2.639c-0.749,0.643-1.582,1.101-2.476,1.362
			c-0.865,0.254-1.704,0.383-2.489,0.383h-7.174V52.538z M92.001,52.538h11.93v1.966h-9.88v12.069h9.286v1.965h-9.286v13.171h10.177
			v1.966H92.001V52.538z M46.492,61.681c0.392-1.971,0.99-3.694,1.777-5.122c0.802-1.456,1.816-2.612,3.013-3.436
			c1.22-0.839,2.654-1.264,4.26-1.264c1.551,0,2.95,0.426,4.157,1.266c1.181,0.823,2.194,1.977,3.009,3.43
			c0.801,1.427,1.42,3.149,1.839,5.118c0.417,1.951,0.628,4.116,0.628,6.433c0,2.317-0.211,4.482-0.628,6.435
			c-0.418,1.968-1.037,3.691-1.839,5.118c-0.816,1.452-1.829,2.606-3.009,3.428c-1.207,0.841-2.605,1.267-4.157,1.267
			c-1.551,0-2.95-0.427-4.157-1.267c-1.182-0.823-2.194-1.977-3.009-3.428c-0.801-1.428-1.42-3.15-1.839-5.118
			c-0.417-1.953-0.628-4.119-0.628-6.435C45.91,65.793,46.106,63.631,46.492,61.681z M26.592,56.682v26.993H24.54V52.538h2.451
			l11.754,26.948V52.538h2.05v31.137h-2.409L26.592,56.682z M50.548,152.938H39.719v-31.139h2.052v29.13h8.777V152.938z
			 M69.34,143.802c-0.42,1.971-1.04,3.694-1.84,5.119c-0.816,1.454-1.829,2.609-3.009,3.429c-1.207,0.841-2.605,1.267-4.156,1.267
			c-1.551,0-2.95-0.426-4.157-1.267c-1.18-0.82-2.193-1.975-3.01-3.429c-0.801-1.428-1.42-3.149-1.84-5.119
			c-0.416-1.952-0.626-4.116-0.626-6.432c0-2.318,0.196-4.48,0.583-6.428c0.39-1.968,0.988-3.691,1.777-5.122
			c0.801-1.454,1.815-2.61,3.012-3.433c1.221-0.84,2.654-1.265,4.261-1.265c1.551,0,2.949,0.426,4.156,1.267
			c1.181,0.823,2.193,1.977,3.009,3.428c0.801,1.428,1.42,3.149,1.84,5.119c0.416,1.949,0.627,4.114,0.627,6.435
			C69.967,139.687,69.756,141.852,69.34,143.802z M70.291,52.538h5.943c1.465,0,2.868,0.326,4.17,0.97
			c1.306,0.644,2.459,1.636,3.426,2.946c0.954,1.292,1.712,2.93,2.251,4.867c0.534,1.921,0.805,4.204,0.805,6.786
			c0,2.584-0.278,4.875-0.828,6.81c-0.552,1.949-1.309,3.585-2.25,4.863c-0.953,1.298-2.106,2.282-3.428,2.927
			c-1.314,0.642-2.723,0.968-4.188,0.968h-5.901V52.538z M91.338,152.938h-2.409l-11.796-26.996v26.996h-2.05v-31.139h2.452
			l11.752,26.947v-26.947h2.052V152.938z M113.534,144.178c-0.553,1.949-1.309,3.585-2.25,4.864
			c-0.954,1.297-2.108,2.281-3.428,2.928c-1.315,0.642-2.723,0.968-4.188,0.968h-5.902v-31.139h5.943
			c1.467,0,2.871,0.326,4.172,0.971c1.304,0.644,2.456,1.635,3.422,2.946c0.956,1.294,1.713,2.932,2.252,4.868
			c0.534,1.922,0.805,4.204,0.805,6.786C114.362,139.952,114.083,142.243,113.534,144.178z M115.518,93.902
			c-0.329,0.339-0.745,0.533-1.238,0.576l-0.807,0.071l0.22-0.779c0.057-0.204,0.105-0.397,0.142-0.579
			c0.031-0.16,0.046-0.354,0.046-0.577c0-0.179-0.034-0.313-0.102-0.4c-0.018-0.023-0.108-0.067-0.318-0.067
			c-0.433,0-0.902,0.217-1.392,0.644c-0.565,0.491-1.133,1.123-1.69,1.88c-0.572,0.779-1.134,1.631-1.672,2.532
			c-0.364,0.61-0.715,1.194-1.057,1.754h4.831v1.399h-5.647c-1.425,2.424-2.723,4.542-3.863,6.297
			c-1.196,1.839-2.362,3.372-3.467,4.555c-1.126,1.209-2.278,2.112-3.422,2.684c-1.16,0.582-2.461,0.876-3.865,0.876
			c-0.512,0-1.012-0.066-1.487-0.195c-0.488-0.132-0.929-0.337-1.31-0.61c-0.391-0.28-0.712-0.632-0.952-1.048
			c-0.251-0.435-0.378-0.942-0.378-1.504c0-0.744,0.24-1.391,0.713-1.923c0.492-0.55,1.28-0.829,2.341-0.829h0.771v1.268
			l-0.521,0.035c-0.33,0.022-0.602,0.145-0.831,0.374c-0.22,0.22-0.328,0.534-0.328,0.957c0.001,0.665,0.172,1.169,0.524,1.54
			c0.703,0.74,2.402,0.689,3.729,0.025c0.711-0.356,1.406-0.853,2.069-1.481c0.68-0.642,1.357-1.41,2.014-2.284
			c0.668-0.893,1.344-1.867,2.006-2.894c0.545-0.846,1.093-1.724,1.644-2.632l-0.014,0.003c-0.609,0.014-1.089-0.121-1.492-0.371
			c-0.081-0.052-0.158-0.105-0.232-0.16c-0.165,0.382-0.375,0.778-0.629,1.182c-0.442,0.704-0.977,1.36-1.591,1.948
			c-0.618,0.594-1.308,1.096-2.049,1.491c-1.566,0.835-3.446,0.871-4.342-0.146c-0.434-0.493-0.653-1.144-0.653-1.933
			c0-0.414,0.096-0.868,0.292-1.388c0.185-0.486,0.443-0.982,0.767-1.473c0.319-0.482,0.699-0.961,1.131-1.425
			c0.438-0.471,0.917-0.896,1.422-1.262c0.517-0.376,1.073-0.682,1.652-0.908c1.376-0.538,2.901-0.48,3.712,0.382
			c0.441,0.472,0.684,1.078,0.722,1.801c0.018,0.205,0.13,0.416,0.34,0.628c0.384,0.384,1.223,0.389,1.895,0.011l0.086-0.06
			l0.16-0.263c0.326-0.538,0.326-0.538,0.571-0.928l0.21-0.337h-1.208v-1.399h2.048c0.556-0.88,1.123-1.767,1.705-2.661
			c0.648-0.998,1.342-1.91,2.057-2.713c0.729-0.818,1.504-1.495,2.306-2.011l1.394-0.633l1.304-0.194l0.486,0.05
			c0.304,0.027,0.364,0.044,0.65,0.176l0.31,0.14c0.414,0.268,0.801,0.695,0.801,1.481
			C116.026,93.115,115.855,93.555,115.518,93.902z M136.8,143.803c-0.419,1.967-1.037,3.69-1.84,5.118
			c-0.818,1.455-1.829,2.609-3.009,3.429c-1.208,0.841-2.606,1.267-4.157,1.267c-1.551,0-2.949-0.426-4.157-1.267
			c-1.179-0.82-2.191-1.974-3.009-3.429c-0.801-1.428-1.42-3.151-1.84-5.119c-0.416-1.948-0.628-4.113-0.628-6.432
			c0-2.314,0.197-4.476,0.583-6.428c0.392-1.971,0.991-3.694,1.777-5.122c0.803-1.455,1.816-2.61,3.013-3.433
			c1.222-0.84,2.655-1.265,4.26-1.265c1.551,0,2.949,0.426,4.157,1.267c1.179,0.822,2.192,1.975,3.009,3.428
			c0.803,1.431,1.422,3.152,1.84,5.119c0.416,1.948,0.628,4.114,0.628,6.435C137.428,139.689,137.216,141.854,136.8,143.803z
			 M140.473,83.087c-1.207,0.841-2.606,1.267-4.157,1.267s-2.95-0.427-4.157-1.267c-1.182-0.823-2.194-1.977-3.007-3.428
			c-0.803-1.427-1.421-3.149-1.842-5.118c-0.415-1.952-0.627-4.117-0.627-6.435s0.197-4.48,0.582-6.426
			c0.392-1.97,0.99-3.693,1.777-5.122c0.803-1.455,1.816-2.611,3.014-3.436c1.219-0.839,2.652-1.264,4.259-1.264
			c1.552,0,2.95,0.426,4.157,1.266c1.182,0.823,2.194,1.977,3.009,3.43c0.803,1.427,1.421,3.149,1.842,5.118
			c0.415,1.951,0.627,4.115,0.627,6.434c0,2.318-0.212,4.483-0.627,6.435c-0.42,1.968-1.039,3.691-1.842,5.118
			C142.668,81.111,141.655,82.264,140.473,83.087z M158.798,152.938h-2.411l-11.793-26.991v26.991h-2.053v-31.139h2.452
			l11.754,26.953v-26.953h2.052V152.938z M159.942,54.504h-5.937v29.171h-2.052V54.504h-5.935v-1.966h13.924V54.504z
			 M174.898,79.578c-0.381,1.03-0.913,1.908-1.585,2.611c-0.673,0.703-1.457,1.246-2.329,1.614
			c-0.871,0.367-1.792,0.553-2.738,0.553c-1.533,0-2.917-0.346-4.116-1.028c-1.196-0.681-2.186-1.668-2.938-2.934l-0.261-0.44
			l1.671-1.209l0.313,0.523c0.624,1.039,1.422,1.827,2.373,2.339c1.627,0.881,3.37,1.04,4.868,0.364
			c0.62-0.277,1.171-0.68,1.639-1.199c0.472-0.524,0.864-1.192,1.163-1.986c0.299-0.794,0.45-1.72,0.45-2.749
			c0-0.938-0.156-1.777-0.463-2.494c-0.314-0.731-0.729-1.384-1.235-1.943c-0.516-0.57-1.102-1.075-1.742-1.502
			c-0.655-0.436-1.319-0.824-1.973-1.152c-0.804-0.401-1.601-0.861-2.37-1.367c-0.79-0.523-1.493-1.143-2.09-1.844
			c-0.602-0.709-1.098-1.538-1.472-2.463c-0.378-0.942-0.571-2.039-0.571-3.263c0-1.306,0.199-2.48,0.59-3.489
			c0.392-1.012,0.932-1.874,1.605-2.564c0.673-0.689,1.466-1.217,2.356-1.57c2.007-0.795,4.37-0.667,6.236,0.227
			c1.076,0.515,1.964,1.384,2.641,2.582l0.232,0.411l-1.548,1.259l-0.33-0.558c-0.561-0.944-1.214-1.597-1.941-1.943
			c-1.268-0.602-2.893-0.774-4.437-0.175c-0.617,0.239-1.179,0.61-1.671,1.104c-0.497,0.496-0.904,1.144-1.212,1.928
			c-0.311,0.793-0.47,1.759-0.47,2.871c0,0.969,0.143,1.819,0.426,2.526c0.285,0.711,0.665,1.333,1.128,1.849
			c0.475,0.526,1.017,0.995,1.611,1.392c0.614,0.409,1.229,0.768,1.827,1.068c0.902,0.464,1.761,0.967,2.56,1.497
			c0.829,0.547,1.571,1.185,2.207,1.895c0.647,0.722,1.173,1.559,1.562,2.488c0.396,0.94,0.597,2.04,0.597,3.269
			C175.462,77.379,175.272,78.557,174.898,79.578z"/>
		<path fill="#FFFFFF" d="M119.808,80.22c0.502-0.503,0.901-1.166,1.182-1.974c0.289-0.828,0.435-1.842,0.434-3.016
			c0.001-1.279-0.177-2.379-0.532-3.27c-0.351-0.886-0.801-1.606-1.338-2.143c-0.534-0.535-1.123-0.927-1.753-1.166
			c-0.64-0.244-1.272-0.368-1.88-0.368H110.8v13.425h4.832c0.865,0,1.664-0.125,2.375-0.372
			C118.701,81.097,119.307,80.721,119.808,80.22z"/>
		<path fill="#FFFFFF" d="M98.092,100.17c-0.228,0-0.489,0.082-0.777,0.243c-0.333,0.188-0.68,0.444-1.031,0.758
			c-0.35,0.314-0.691,0.688-1.013,1.11c-0.326,0.431-0.623,0.882-0.88,1.336c-0.251,0.448-0.452,0.901-0.595,1.343
			c-0.137,0.425-0.207,0.82-0.207,1.179c0,0.287,0.048,0.509,0.14,0.647c0.035,0.053,0.081,0.101,0.233,0.101
			c0.328,0,0.648-0.087,0.98-0.269c0.365-0.201,0.726-0.47,1.072-0.8c0.351-0.339,0.684-0.73,0.989-1.166
			c0.306-0.437,0.577-0.897,0.805-1.368c0.226-0.468,0.407-0.93,0.538-1.372c0.124-0.42,0.187-0.803,0.187-1.137
			c0-0.207-0.046-0.371-0.139-0.5C98.374,100.245,98.32,100.17,98.092,100.17z"/>
	</g>
</g>
</svg>
