<?xml version="1.0" encoding="utf-8"?>
<!-- Generator: Adobe Illustrator 17.0.0, SVG Export Plug-In . SVG Version: 6.00 Build 0)  -->
<!DOCTYPE svg PUBLIC "-//W3C//DTD SVG 1.1//EN" "http://www.w3.org/Graphics/SVG/1.1/DTD/svg11.dtd">
<svg version="1.1" id="Layer_1" xmlns="http://www.w3.org/2000/svg" xmlns:xlink="http://www.w3.org/1999/xlink" x="0px" y="0px"
	 width="200px" height="200px" viewBox="0 0 200 200" enable-background="new 0 0 200 200" xml:space="preserve">
<title>NodeSchool London</title>
<desc>Created with Sketch.</desc>
<g>
	<path fill="#FFFFFF" d="M184.886,48.184L102.431,0.579c-1.337-0.772-3.524-0.772-4.861,0L15.114,48.184
		c-1.337,0.772-2.431,2.666-2.431,4.21v95.211c0,1.544,1.094,3.438,2.431,4.21l82.455,47.606c1.337,0.772,3.524,0.772,4.861,0
		l82.455-47.606c1.337-0.772,2.431-2.666,2.431-4.21V52.394C187.317,50.851,186.223,48.956,184.886,48.184z M132.042,70.897
		c0-0.405,0.232-0.811,0.579-0.984l9.411-5.444c0.318-0.174,0.811-0.174,1.158,0l9.353,5.386c0.319,0.232,0.579,0.579,0.579,0.984
		v2.635c0,0.405-0.232,0.811-0.579,0.984l-5.501,3.359c-0.174,0.087-0.405,0.087-0.579,0c-0.174-0.087-0.261-0.319-0.261-0.492
		V74.69c0-0.145-0.087-0.405-0.261-0.492l-2.982-1.737c-0.174-0.087-0.405-0.087-0.579,0l-2.982,1.737
		c-0.174,0.087-0.261,0.318-0.261,0.492v3.417c0,0.145,0.087,0.405,0.261,0.492l9.526,5.473c0.174,0.087,0.261,0.318,0.261,0.492
		c0,0.232-0.174,0.405-0.347,0.492l-5.704,3.127c-0.405,0.174-0.811,0.174-1.158,0l-9.353-5.386
		c-0.318-0.145-0.579-0.579-0.579-0.984V70.897z M144.609,75.211v2.056c0,0.087-0.087,0.174-0.087,0.174l-1.824,1.071
		c-0.087,0-0.174,0-0.261,0l-1.824-1.071c-0.087,0-0.087-0.087-0.087-0.174v-2.056c0-0.087,0.087-0.174,0.087-0.174l1.824-1.071
		c0.087,0,0.174,0,0.261,0l1.824,1.071C144.609,75.038,144.609,75.125,144.609,75.211z M71.526,99.453v3.619
		c0,0.145-0.087,0.261-0.203,0.318l-3.098,1.824c-0.116,0.058-0.261,0.058-0.376,0l-3.127-1.795
		c-0.116-0.058-0.203-0.203-0.203-0.319v-3.619c0-0.145,0.087-0.261,0.203-0.319l3.098-1.824c0.116-0.058,0.261-0.058,0.376,0
		l3.127,1.795C71.439,99.193,71.526,99.338,71.526,99.453z M58.964,142.104c0,0.752-0.44,1.499-1.096,1.855l-5.578,3.123
		c-0.331,0.166-0.653,0.22-0.967,0.18l-3.412,1.905c-0.04,0.018-0.072,0.027-0.11,0.044l-0.07,0.039
		c-0.178,0.073-0.447,0.188-0.765,0.188h0h-0.087h0c-0.32,0-0.665-0.102-0.973-0.286l-9.032-4.993
		c-0.948-0.578-1.409-1.174-1.409-1.793v-0.603l1.632-0.844l4.896-2.531c0.286-0.162,0.603-0.335,1.016-0.345
		c0.011,0,0.021-0.003,0.033-0.003c0,0,0,0,0,0s0,0,0,0c0.046,0,0.088,0.009,0.132,0.013c0.355,0.033,0.649,0.18,0.869,0.315
		c0.307,0.21,1.169,0.718,1.897,1.14c0.364,0.211,0.698,0.402,0.907,0.521c-0.028-0.023,0.085,0.014,0.12,0.017l2.288-1.321
		l0.001-0.08l0.029-6.003l-0.821,0.456c-0.697,0.348-1.519,0.329-2.112,0.002l-9.432-5.455c-0.585-0.234-1.073-1.015-1.073-1.841
		v-10.917c0-0.679,0.36-1.329,0.987-1.785l9.496-5.5c0.733-0.371,1.537-0.336,2.129-0.012l9.431,5.455
		c0.585,0.234,1.073,1.015,1.073,1.841V142.104z M61.42,81.611v-6.862c0-0.405-0.232-0.811-0.579-0.984l-2.403-1.419
		c-0.174-0.087-0.405-0.174-0.579-0.174c-0.174,0-0.405,0.087-0.579,0.174l-2.403,1.419c-0.318,0.232-0.579,0.579-0.579,0.984v6.862
		c0,0.405-0.232,0.724-0.579,0.984l-5.617,3.214c-0.174,0.087-0.405,0.087-0.579,0c-0.174-0.087-0.261-0.318-0.261-0.492V70.694
		c0-0.405,0.232-0.811,0.579-0.984l9.526-5.444c0.145-0.087,0.318-0.174,0.492-0.174h0.087c0.145,0,0.319,0.087,0.492,0.174
		l9.439,5.473c0.318,0.145,0.579,0.579,0.579,0.984v14.593c0,0.232-0.087,0.405-0.261,0.492c-0.174,0.087-0.405,0.087-0.579,0
		l-5.617-3.214C61.681,82.363,61.42,82.016,61.42,81.611z M84.156,126.816c0,0.677-0.284,1.213-0.87,1.64l-7.53,4.343
		c-0.368,0.172-0.701,0.24-1.044,0.24c-0.344,0-0.677-0.068-0.961-0.197l-9.12-5.285c-0.589-0.263-1.043-1.009-1.043-1.812v-11.756
		c0-1.044,0.393-1.605,1.272-1.816l0.298-0.043c0.929,0,1.851,0.008,2.773,0.016c0.841,0.006,1.682,0.012,2.529,0.013l0.276-0.008
		c0.169,0,0.346,0.037,0.523,0.108c0.304,0.043,0.891,0.511,1.009,1.1c0.009,0.029,0.048,0.188,0.048,0.832v0.764
		c0.027,0.313,0.051,1.162,0.029,3.875v3.027l2.376,1.39c0.847-0.522,1.683-1.01,2.569-1.518c1.204-0.696,1.907-0.093,2.241,0.172
		c1.542,1.296,2.885,2.601,4.372,4.251l0.255,0.282V126.816z M85.598,88.125l-9.439-5.444c-0.347-0.174-0.579-0.579-0.579-0.984
		V70.781c0-0.405,0.261-0.753,0.579-0.984l9.411-5.444c0.347-0.174,0.84-0.174,1.158,0l9.439,5.444
		c0.347,0.174,0.579,0.579,0.579,0.984v10.916c0,0.405-0.261,0.753-0.579,0.984l-9.411,5.444
		C86.409,88.299,85.917,88.299,85.598,88.125z M110.391,117.721l-8.389,4.633c-0.979,0.499-1.671,0.17-2.031-0.046l-1.66-1.017
		l-0.024,10.073c0,0.503-0.254,1.046-0.632,1.35c-0.322,0.276-0.793,0.451-1.016,0.507l-0.118,0.029h-4.812
		c-0.98,0-2.051-0.816-2.171-1.829c-0.022-0.178-0.02-0.621,0.011-2.025l-0.017-0.582v-12.769c0-0.75,0.453-1.462,1.129-1.769
		l0.36-0.164l5.16-3.085c0.967-0.472,1.626-0.213,2.039-0.035c0.555,0.269,2.399,1.485,2.954,1.853l2.166-1.317
		c0.897-0.592,1.234-0.812,1.706-0.812h0.265l0.329,0.159c1.269,0.921,2.16,1.553,2.736,1.955c0.379,0.263,1.17,0.82,2.311,1.669
		c0.453,0.354,0.681,0.909,0.65,1.537C111.298,116.741,110.944,117.373,110.391,117.721z M113.829,88.415l-9.41-5.444
		c-0.319-0.232-0.579-0.579-0.579-0.984V71.042c0-0.405,0.232-0.811,0.579-0.984l9.41-5.444c0.319-0.174,0.811-0.174,1.158,0
		l2.403,1.332c0.145,0.087,0.318,0.087,0.405,0c0.087-0.087,0.174-0.174,0.174-0.347V51.121c0-0.232,0.087-0.405,0.261-0.492
		c0.174-0.087,0.405-0.087,0.579,0l5.588,3.156c0.318,0.145,0.579,0.579,0.579,0.984v27.218c0,0.405-0.232,0.811-0.579,0.984
		l-9.411,5.444C114.669,88.589,114.177,88.589,113.829,88.415z M136.256,127.629l-1.758,1.075l-7.192,4.009
		c-0.178,0.075-0.447,0.19-0.766,0.19h-0.087c-0.431,0-0.793-0.18-0.971-0.286l-8.818-5.088c-0.19-0.083-0.4-0.255-0.582-0.485
		c-0.385-0.302-0.578-0.714-0.578-1.182l-0.019-17.122c-0.017-4.144-0.039-9.574-0.039-9.807c0-0.801,0.625-1.41,1.52-1.479h0.104
		l0-0.004h0.982v0.003l4.572-0.002l0.106,0.023c1.031,0.229,1.499,1.112,1.499,1.835v22.745l2.195,1.218
		c0.103,0.037,0.164,0.058,0.22,0.07l2.239-1.321c0.396-0.217,0.71-0.354,1.021-0.458c0.387-0.128,0.882-0.089,1.156-0.035
		l0.323,0.12l2.205,1.278c1.261,0.729,2.433,1.406,2.707,1.588c0.416,0.267,0.661,0.785,0.673,1.452
		C136.983,126.687,136.718,127.31,136.256,127.629z M164.535,126.555c0,0.288-0.072,0.576-0.197,0.837l-0.039,0.193l-0.06-0.01
		c-0.205,0.336-0.507,0.615-0.863,0.777l-9.449,5.09c-0.172,0.066-0.408,0.153-0.69,0.153h-0.087c-0.344,0-0.69-0.099-1-0.284
		l-9.283-4.987c-0.362-0.18-0.646-0.454-0.822-0.801c-0.257-0.404-0.28-0.866-0.28-0.998v-0.549l0.466-0.29
		c0.3-0.188,5.802-3.135,5.852-3.162c0.164-0.072,0.509-0.199,0.959-0.209l-6.513-4.993c-0.362-0.263-0.615-0.669-0.716-1.124
		l-0.041-0.031l-0.044-0.745l0.07-0.128l0.199-0.528c0.188-0.41,0.491-0.752,0.864-0.955l9.387-5.459
		c0.304-0.157,0.598-0.306,0.988-0.306c0.478,0,0.776,0.151,0.971,0.25l9.406,5.533c0.601,0.4,0.921,1.056,0.878,1.739
		c-0.033,0.536-0.278,0.957-0.673,1.156l-0.795,0.47c-1.363,0.801-1.363,0.801-1.601,0.955c-0.569,0.336-0.897,0.54-1.209,0.735
		c-0.439,0.269-0.847,0.522-1.46,0.862c-0.068,0.037-0.209,0.114-0.416,0.162c4.475,3.75,5.761,5.229,6.086,5.997l0.11,0.06V126.555
		z"/>
	<path fill="#FFFFFF" d="M114.495,72.432c-0.087-0.087-0.174-0.087-0.261,0l-3.214,1.911c-0.087,0.087-0.174,0.174-0.174,0.261
		v3.735c0,0.087,0.087,0.174,0.174,0.261l3.214,1.911c0.087,0.087,0.174,0.087,0.261,0l3.214-1.911
		c0.087-0.087,0.174-0.174,0.174-0.261v-3.735c0-0.087-0.087-0.174-0.174-0.261L114.495,72.432z"/>
	<polygon fill="#FFFFFF" points="44.835,118.942 44.835,121.852 47.361,123.339 49.891,121.835 49.891,118.924 47.364,117.437 	"/>
</g>
</svg>
