<svg xmlns="http://www.w3.org/2000/svg" width="144" height="144" viewBox="0, 0, 144, 144"><path d="M73.181 0l62.116 36.02-.023 72L73.135 144l-62.116-36.02.023-72L73.181 0zm19.86 87.51q-1.607 0-2.821.834-1.213.834-2.032 2.32-.819 1.487-1.229 3.549-.409 2.063-.409 4.52 0 2.457.44 4.519.44 2.063 1.274 3.549.834 1.487 2.032 2.321 1.198.834 2.745.834 1.547 0 2.745-.834 1.198-.834 2.032-2.321.835-1.486 1.274-3.549.44-2.062.44-4.519 0-2.457-.44-4.52-.439-2.062-1.274-3.549-.834-1.486-2.032-2.32-1.198-.834-2.745-.834zm0 .606q1.426 0 2.518.835 1.092.834 1.82 2.259.728 1.426 1.107 3.367.379 1.942.379 4.156 0 2.214-.364 4.14-.364 1.926-1.092 3.367-.728 1.441-1.82 2.275-1.092.834-2.548.834-1.486 0-2.578-.834-1.092-.834-1.82-2.275-.728-1.441-1.077-3.367t-.349-4.14q0-2.214.349-4.156.349-1.941 1.077-3.367.728-1.425 1.82-2.259 1.092-.835 2.578-.835zm-48.259-.606q-1.608 0-2.821.834t-2.032 2.32q-.819 1.487-1.229 3.549-.409 2.063-.409 4.52 0 2.457.439 4.519.44 2.063 1.274 3.549.835 1.487 2.033 2.321 1.198.834 2.745.834 1.547 0 2.745-.834 1.198-.834 2.032-2.321.834-1.486 1.274-3.549.44-2.062.44-4.519 0-2.457-.44-4.52-.44-2.062-1.274-3.549-.834-1.486-2.032-2.32-1.198-.834-2.745-.834zm0 .606q1.425 0 2.517.835 1.092.834 1.82 2.259.728 1.426 1.107 3.367.38 1.942.38 4.156 0 2.214-.364 4.14-.364 1.926-1.092 3.367-.728 1.441-1.82 2.275-1.092.834-2.548.834-1.487 0-2.579-.834-1.091-.834-1.819-2.275-.728-1.441-1.077-3.367t-.349-4.14q0-2.214.349-4.156.349-1.941 1.077-3.367.728-1.425 1.819-2.259 1.092-.835 2.579-.835zm12.042-.121h-1.092v21.476h.667V88.784h.061l9.039 20.687h1.062V87.995h-.668v20.657h-.06l-9.009-20.657zm-25.722 0h-.668v21.476h6.947v-.637h-6.279V87.995zm44.71 0H71.96v21.476h3.822q1.486 0 2.821-.652 1.334-.653 2.305-1.972.971-1.32 1.547-3.352t.576-4.762q0-2.73-.561-4.747t-1.547-3.352q-.986-1.335-2.305-1.987-1.32-.652-2.806-.652zm-.121.607q1.395 0 2.608.606 1.214.607 2.124 1.851.91 1.243 1.425 3.154.516 1.911.516 4.52 0 2.609-.516 4.519-.515 1.911-1.425 3.155-.91 1.244-2.124 1.85-1.213.607-2.608.607h-3.064V88.602h3.064zm29.392-.607h-1.092v21.476h.668V88.784h.06l9.039 20.687h1.062V87.995h-.667v20.657h-.061l-9.009-20.657zM82.141 65.914l-.839.394q-.817.526-1.568 1.369-.751.842-1.435 1.893-.684 1.051-1.334 2.085H75.68v.201h1.185c-.874 1.403-.511.81-1.096 1.774l-.164.111q-.442.25-.942.25-.568 0-.893-.325-.325-.326-.359-.709-.033-.634-.408-1.035-.376-.4-1.06-.4-.584 0-1.159.225-.576.225-1.093.601-.517.375-.959.851-.442.475-.768.967-.325.492-.509.976-.183.484-.183.851 0 .701.367 1.118.367.417 1.084.417.784 0 1.535-.401.751-.4 1.377-1.001.625-.6 1.076-1.317.45-.718.617-1.352h.033q.184.284.517.492.334.209.801.209c.64-.088.336-.005.915-.239l-.231.381q-.734 1.226-1.46 2.352-.725 1.126-1.451 2.094-.726.967-1.485 1.685-.759.717-1.576 1.126-.818.409-1.719.409-.934 0-1.418-.509-.483-.509-.484-1.377.001-.617.351-.967.35-.351.851-.384v-.133h-.151q-.967 0-1.376.458-.409.459-.409 1.11 0 .5.217.876.217.375.568.625.35.251.809.376.458.125.959.125 1.418 0 2.586-.584t2.335-1.835q1.168-1.252 2.436-3.204 1.268-1.951 2.87-4.687h3.87v-.201h-3.77q.534-.867 1.126-1.86.592-.992 1.218-1.843.625-.851 1.268-1.41.642-.559 1.259-.559.384 0 .542.2.159.201.159.534 0 .284-.042.492-.042.209-.108.443.383-.034.634-.292.25-.259.25-.659 0-.468-.334-.693c-.532-.234-.245-.153-.867-.225l-.88.131zm-10.348 5.808q.367 0 .542.242.175.242.175.592 0 .417-.15.926-.15.509-.409 1.043-.258.534-.608 1.034-.351.501-.759.893-.409.392-.851.634t-.893.242q-.333 0-.5-.251-.167-.25-.167-.684 0-.45.167-.967.167-.517.458-1.035.292-.517.659-1.001.367-.483.776-.85.409-.367.809-.593.401-.225.751-.225zM41.354 37.961q-1.607 0-2.821.834-1.213.835-2.032 2.321-.819 1.486-1.229 3.549-.409 2.062-.409 4.519 0 2.457.44 4.52.44 2.063 1.274 3.549.834 1.486 2.032 2.32 1.198.835 2.745.835 1.547 0 2.745-.835 1.198-.834 2.033-2.32.834-1.486 1.273-3.549.44-2.063.44-4.52 0-2.457-.44-4.519-.439-2.063-1.273-3.549-.835-1.486-2.033-2.321-1.198-.834-2.745-.834zm0 .607q1.426 0 2.518.834 1.092.834 1.82 2.26.728 1.426 1.107 3.367t.379 4.155q0 2.215-.364 4.141-.364 1.926-1.092 3.367-.728 1.441-1.82 2.275-1.092.834-2.548.834-1.486 0-2.578-.834-1.092-.834-1.82-2.275-.728-1.441-1.077-3.367t-.349-4.141q0-2.214.349-4.155.349-1.941 1.077-3.367t1.82-2.26q1.092-.834 2.578-.834zm57.784-.607q-1.608 0-2.821.834-1.213.835-2.032 2.321-.819 1.486-1.229 3.549-.409 2.062-.409 4.519 0 2.457.44 4.52.439 2.063 1.274 3.549.834 1.486 2.032 2.32 1.198.835 2.745.835 1.547 0 2.745-.835 1.198-.834 2.032-2.32.835-1.486 1.274-3.549.44-2.063.44-4.52 0-2.457-.44-4.519-.439-2.063-1.274-3.549-.834-1.486-2.032-2.321-1.198-.834-2.745-.834zm0 .607q1.426 0 2.518.834 1.092.834 1.82 2.26.728 1.426 1.107 3.367t.379 4.155q0 2.215-.364 4.141-.364 1.926-1.092 3.367-.728 1.441-1.82 2.275-1.092.834-2.548.834-1.486 0-2.578-.834-1.092-.834-1.82-2.275-.728-1.441-1.077-3.367t-.349-4.141q0-2.214.349-4.155.349-1.941 1.077-3.367t1.82-2.26q1.092-.834 2.578-.834zm23.265-.607q-.97 0-1.85.349-.88.349-1.547 1.031-.667.683-1.062 1.699-.394 1.016-.394 2.351 0 1.244.379 2.184.379.94.986 1.653.607.713 1.41 1.244.804.53 1.654.955.728.364 1.456.849.728.486 1.319 1.138.592.652.955 1.501.364.85.364 1.942 0 1.183-.348 2.108-.349.925-.91 1.547-.561.622-1.305.955-.743.334-1.562.334-1.152 0-2.275-.607-1.122-.606-1.85-1.82l-.546.395q.758 1.274 1.956 1.956 1.199.683 2.746.683.94 0 1.804-.364.865-.364 1.532-1.062.667-.698 1.047-1.729.379-1.031.379-2.366 0-1.244-.395-2.184-.394-.94-1.046-1.668t-1.502-1.289q-.849-.562-1.789-1.047-.667-.334-1.35-.789-.682-.455-1.228-1.061-.546-.607-.88-1.441-.334-.834-.334-1.956 0-1.274.364-2.2.364-.925.956-1.516.591-.592 1.334-.88.744-.288 1.502-.288 1.092 0 1.987.425.895.424 1.562 1.547l.485-.395q-.667-1.183-1.714-1.683-1.046-.501-2.29-.501zm-6.764.486h-9.16v.606h4.246v20.869h.667V39.053h4.247v-.606zm-31.667 0h-4.156v21.475h4.732q.789 0 1.668-.258.88-.257 1.623-.894t1.228-1.745q.486-1.107.486-2.836 0-1.425-.394-2.457-.395-1.031-.986-1.698-.592-.668-1.274-1.016-.683-.349-1.259-.44v-.061q.576-.182 1.152-.546.577-.364 1.032-.971.455-.606.743-1.456.288-.849.288-2.001 0-1.456-.455-2.427-.455-.971-1.152-1.562-.698-.592-1.563-.85-.864-.257-1.713-.257zm.576 10.464q.728 0 1.486.289.759.288 1.395.925.638.637 1.047 1.668.41 1.031.409 2.487.001 1.335-.333 2.29-.334.956-.941 1.563-.606.606-1.44.894-.834.289-1.835.288h-3.853V48.911h4.065zm-.667-9.858q.849 0 1.622.228.774.227 1.365.743.592.516.956 1.395.364.88.364 2.184 0 1.244-.364 2.139-.364.895-.971 1.456-.606.561-1.365.834-.758.273-1.516.273h-3.489v-9.252h3.398zm-27.725-.606h-3.852v21.475h3.822q1.487 0 2.821-.652 1.335-.652 2.305-1.972.971-1.319 1.547-3.351.577-2.033.577-4.763 0-2.729-.561-4.747-.562-2.017-1.547-3.351-.986-1.335-2.306-1.987-1.319-.652-2.806-.652zm-.121.606q1.396 0 2.609.607t2.123 1.85q.91 1.244 1.426 3.155.515 1.911.515 4.519 0 2.609-.515 4.52-.516 1.911-1.426 3.155-.91 1.243-2.123 1.85t-2.609.606h-3.063V39.053h3.063zm-35.368-.606h-1.092v21.475h.668V39.235h.06l9.039 20.687h1.062V38.447h-.667v20.656h-.061l-9.009-20.656zm54.902 0h-7.734v21.475h7.947v-.607h-7.28V49.093h6.643v-.606h-6.643v-9.434h7.067v-.606z" fill="#FFF"/></svg>