<?xml version="1.0" encoding="utf-8"?>
<!-- Generator: Adobe Illustrator 17.0.0, SVG Export Plug-In . SVG Version: 6.00 Build 0)  -->
<!DOCTYPE svg PUBLIC "-//W3C//DTD SVG 1.1//EN" "http://www.w3.org/Graphics/SVG/1.1/DTD/svg11.dtd">
<svg version="1.1" id="Layer_1" xmlns="http://www.w3.org/2000/svg" xmlns:xlink="http://www.w3.org/1999/xlink" x="0px" y="0px"
	 width="850.39px" height="850.39px" viewBox="0 0 850.39 850.39" enable-background="new 0 0 850.39 850.39" xml:space="preserve">
<g>
	<polygon fill="#191A23" points="56.132,212.116 425.195,-0.963 794.258,212.116 794.258,638.274 425.195,851.353 56.132,638.274 	
		"/>
	<g>
		<path fill="#F26737" d="M104.15,653.334l1.281-1.059c1.219-1.021,2.462-2.012,3.656-3.063c1.203-1.039,2.406-2.077,3.608-3.114
			c0.599-0.521,1.206-1.032,1.798-1.561l1.769-1.592c1.176-1.065,2.35-2.128,3.523-3.191c1.17-1.065,2.304-2.169,3.455-3.249
			c1.144-1.089,2.299-2.162,3.427-3.26c1.12-1.108,2.237-2.213,3.353-3.316c4.462-4.413,8.753-8.934,12.874-13.51
			c1.05-1.126,2.036-2.304,3.047-3.453c1.004-1.154,2.005-2.305,3.003-3.452c0.997-1.147,1.943-2.331,2.901-3.497
			c0.955-1.168,1.906-2.332,2.853-3.491c1.838-2.364,3.66-4.708,5.466-7.03c1.748-2.367,3.447-4.734,5.144-7.063
			c1.632-2.376,3.247-4.726,4.842-7.047c1.537-2.362,3.023-4.715,4.504-7.025c0.746-1.151,1.422-2.337,2.127-3.491
			c0.695-1.161,1.385-2.313,2.07-3.457c0.337-0.575,0.684-1.14,1.008-1.717c0.322-0.578,0.642-1.154,0.961-1.728
			c0.637-1.147,1.27-2.284,1.897-3.413c0.313-0.564,0.625-1.125,0.936-1.684l0.465-0.836l0.44-0.846
			c0.579-1.128,1.153-2.246,1.722-3.354c0.566-1.108,1.127-2.205,1.683-3.292c0.56-1.084,1.054-2.189,1.575-3.265
			c1.024-2.161,2.037-4.271,2.968-6.36c0.908-2.099,1.795-4.149,2.659-6.147c0.213-0.5,0.425-0.998,0.636-1.491
			c0.209-0.495,0.394-0.996,0.59-1.488c0.386-0.987,0.766-1.961,1.141-2.921c0.375-0.959,0.744-1.905,1.107-2.836
			c0.366-0.93,0.724-1.846,1.033-2.766c2.626-7.302,4.638-13.716,6.124-19.097c0.737-2.698,1.356-5.113,1.911-7.204
			c0.461-2.072,0.853-3.835,1.171-5.264c0.319-1.427,0.556-2.524,0.708-3.266c0.156-0.74,0.236-1.122,0.236-1.122l-7.416-2.269
			c0,0-0.147,0.362-0.432,1.062c-0.289,0.7-0.706,1.741-1.24,3.103c-0.539,1.359-1.203,3.035-1.984,5.005
			c-0.806,1.914-1.751,4.102-2.767,6.558c-0.256,0.613-0.519,1.243-0.788,1.888c-0.291,0.643-0.59,1.303-0.895,1.978
			c-0.602,1.351-1.233,2.765-1.89,4.239c-0.328,0.736-0.664,1.486-1.005,2.252c-0.361,0.757-0.73,1.528-1.105,2.313
			c-0.745,1.57-1.517,3.196-2.315,4.877c-0.388,0.844-0.827,1.682-1.257,2.538c-0.432,0.856-0.87,1.724-1.315,2.605
			c-0.444,0.88-0.894,1.773-1.351,2.679c-0.231,0.451-0.451,0.911-0.695,1.363c-0.245,0.452-0.491,0.907-0.739,1.365
			c-0.98,1.834-1.985,3.715-3.014,5.641c-0.506,0.966-1.082,1.911-1.629,2.883c-0.55,0.97-1.106,1.951-1.668,2.943
			c-0.568,0.988-1.107,2.003-1.713,2.996c-0.6,0.995-1.207,2-1.819,3.015c-1.229,2.025-2.438,4.11-3.778,6.167
			c-0.656,1.036-1.318,2.08-1.986,3.133c-0.333,0.526-0.668,1.055-1.004,1.585c-0.338,0.529-0.7,1.046-1.051,1.573
			c-1.422,2.095-2.806,4.258-4.287,6.4c-1.501,2.127-3.023,4.283-4.563,6.466c-1.583,2.151-3.185,4.329-4.805,6.53
			c-1.674,2.16-3.366,4.344-5.075,6.548c-1.755,2.168-3.526,4.357-5.312,6.564c-1.84,2.164-3.695,4.345-5.564,6.542
			c-0.954,1.082-1.911,2.168-2.872,3.258c-0.967,1.085-1.907,2.197-2.913,3.26c-3.962,4.302-8.003,8.633-12.238,12.848
			c-1.058,1.055-2.117,2.112-3.179,3.17c-1.071,1.05-2.169,2.076-3.254,3.118c-1.093,1.034-2.168,2.09-3.281,3.111
			c-1.114,1.019-2.228,2.04-3.344,3.062l-1.67,1.539c-0.559,0.511-1.133,1.006-1.699,1.51c-1.136,1.004-2.273,2.01-3.411,3.015
			c-1.128,1.017-2.306,1.978-3.46,2.969l-3.481,2.949c-0.886,0.724-1.773,1.446-2.66,2.169L104.15,653.334z"/>
	</g>
	<path fill="#F26737" d="M641.515,491.703c0.318,1.429,0.71,3.192,1.171,5.264c0.555,2.091,1.174,4.505,1.911,7.204
		c1.486,5.381,3.498,11.795,6.124,19.097c0.309,0.92,0.667,1.836,1.033,2.766c0.364,0.931,0.733,1.877,1.107,2.836
		c0.375,0.96,0.756,1.934,1.142,2.921c0.196,0.492,0.381,0.994,0.59,1.488c0.211,0.494,0.422,0.991,0.636,1.491
		c0.865,1.999,1.751,4.049,2.659,6.147c0.931,2.089,1.944,4.198,2.968,6.36c0.521,1.076,1.015,2.181,1.575,3.265
		c0.555,1.087,1.116,2.184,1.682,3.292c0.569,1.108,1.143,2.226,1.722,3.354l0.44,0.846l0.465,0.836
		c0.31,0.559,0.622,1.12,0.936,1.684c0.627,1.128,1.259,2.266,1.896,3.413c0.319,0.574,0.639,1.15,0.961,1.728
		c0.324,0.577,0.672,1.142,1.009,1.717c0.685,1.144,1.375,2.296,2.07,3.457c0.706,1.154,1.381,2.341,2.128,3.491
		c1.481,2.309,2.967,4.663,4.504,7.025c1.595,2.322,3.21,4.672,4.842,7.047c1.696,2.329,3.396,4.696,5.144,7.063
		c1.805,2.322,3.628,4.666,5.465,7.03c0.947,1.159,1.898,2.323,2.853,3.491c0.958,1.166,1.904,2.35,2.901,3.497
		c0.997,1.147,1.998,2.297,3.003,3.452c1.01,1.149,1.997,2.327,3.047,3.453c4.12,4.576,8.411,9.098,12.874,13.51
		c1.115,1.103,2.233,2.209,3.353,3.316c1.129,1.098,2.284,2.171,3.427,3.26c1.151,1.081,2.285,2.184,3.455,3.249
		c1.173,1.062,2.347,2.126,3.523,3.191l1.769,1.592c0.592,0.529,1.199,1.04,1.798,1.561c1.202,1.037,2.405,2.076,3.608,3.114
		c1.194,1.05,2.437,2.042,3.656,3.063l0.917,0.758l16.234-9.51c-0.759-0.618-1.518-1.235-2.275-1.854l-3.481-2.949
		c-1.153-0.99-2.333-1.951-3.46-2.969c-1.138-1.005-2.275-2.011-3.411-3.015c-0.566-0.504-1.141-0.999-1.699-1.51l-1.67-1.539
		c-1.116-1.022-2.231-2.042-3.344-3.062c-1.113-1.02-2.187-2.076-3.281-3.111c-1.085-1.042-2.183-2.068-3.254-3.118
		c-1.062-1.059-2.121-2.115-3.179-3.17c-4.235-4.215-8.276-8.546-12.238-12.848c-1.006-1.063-1.947-2.175-2.913-3.26
		c-0.961-1.09-1.918-2.176-2.872-3.258c-1.869-2.197-3.724-4.378-5.564-6.542c-1.786-2.207-3.557-4.396-5.312-6.564
		c-1.709-2.204-3.401-4.388-5.075-6.548c-1.62-2.201-3.222-4.379-4.805-6.53c-1.54-2.183-3.062-4.339-4.563-6.466
		c-1.481-2.142-2.865-4.305-4.287-6.4c-0.351-0.527-0.713-1.044-1.051-1.573c-0.336-0.53-0.671-1.059-1.004-1.585
		c-0.667-1.053-1.329-2.097-1.986-3.133c-1.339-2.057-2.549-4.142-3.778-6.167c-0.612-1.015-1.219-2.02-1.819-3.015
		c-0.606-0.993-1.146-2.008-1.713-2.996c-0.562-0.991-1.118-1.972-1.668-2.943c-0.547-0.973-1.123-1.917-1.629-2.883
		c-1.029-1.926-2.034-3.807-3.014-5.641c-0.248-0.458-0.494-0.913-0.739-1.365c-0.244-0.452-0.464-0.912-0.695-1.363
		c-0.457-0.905-0.907-1.798-1.351-2.679c-0.445-0.881-0.883-1.75-1.315-2.605c-0.43-0.857-0.869-1.694-1.257-2.538
		c-0.798-1.68-1.57-3.307-2.315-4.877c-0.375-0.785-0.743-1.557-1.105-2.313c-0.342-0.765-0.677-1.516-1.005-2.252
		c-0.657-1.474-1.287-2.888-1.89-4.239c-0.305-0.675-0.604-1.334-0.895-1.978c-0.269-0.646-0.532-1.275-0.788-1.888
		c-1.016-2.456-1.961-4.644-2.767-6.558c-0.781-1.97-1.445-3.646-1.984-5.005c-0.534-1.362-0.952-2.403-1.24-3.103
		c-0.285-0.701-0.432-1.062-0.432-1.062l-7.416,2.269c0,0,0.08,0.382,0.236,1.122C640.959,489.179,641.196,490.275,641.515,491.703z
		"/>
	<g>
		<defs>
			<polygon id="SVGID_1_" points="56.132,212.116 425.195,-0.963 794.258,212.116 794.258,638.274 425.195,851.353 56.132,638.274 
							"/>
		</defs>
		<clipPath id="SVGID_2_">
			<use xlink:href="#SVGID_1_"  overflow="visible"/>
		</clipPath>
		<g clip-path="url(#SVGID_2_)">
			<g>
				<rect x="258.208" y="521.041" fill="#F26737" width="333.973" height="19.872"/>
				<g>
					<g>
						<polygon fill="#FBF8E7" points="261.957,737.861 261.957,725.789 323.431,664.315 341.748,682.632 275.664,748.716 						"/>
						<polygon fill="#FBF8E7" points="267.442,746.037 199.758,713.331 199.758,486.18 267.442,486.18 						"/>
						<path fill="#FBF8E7" d="M257.622,473.39l-20.192-61.996c-0.363-1.116-1.967-1.92-3.83-1.92s-3.466,0.804-3.83,1.92
							l-20.192,61.996v12.79h48.043V473.39z"/>
						<g>
							<path fill="#F26737" d="M233.6,486.18l-14.223-62.774c-0.256-1.13-1.386-1.944-2.698-1.944s-2.442,0.814-2.698,1.944
								l-14.223,62.774H233.6z"/>
							<path fill="#F26737" d="M267.442,486.18l-14.223-62.774c-0.256-1.13-1.386-1.944-2.698-1.944s-2.442,0.814-2.698,1.944
								L233.6,486.18H267.442z"/>
						</g>
						<g>
							<rect x="199.758" y="530.977" fill="#F26737" width="67.684" height="8.749"/>
							<rect x="199.758" y="581.724" fill="#F26737" width="67.684" height="8.749"/>
							<rect x="199.758" y="632.471" fill="#F26737" width="67.684" height="8.749"/>
						</g>
						<g>
							<g>
								<rect x="208.992" y="500.603" fill="#F26737" width="10.249" height="18.343"/>
								<rect x="228.476" y="500.603" fill="#F26737" width="10.249" height="18.343"/>
								<rect x="247.959" y="500.603" fill="#F26737" width="10.249" height="18.343"/>
							</g>
							<g>
								<rect x="208.992" y="550.794" fill="#F26737" width="10.249" height="18.343"/>
								<rect x="228.476" y="550.794" fill="#F26737" width="10.249" height="18.343"/>
								<rect x="247.959" y="550.794" fill="#F26737" width="10.249" height="18.343"/>
							</g>
							<g>
								<rect x="208.992" y="600.986" fill="#F26737" width="10.249" height="18.343"/>
								<rect x="228.476" y="600.986" fill="#F26737" width="10.249" height="18.343"/>
								<rect x="247.959" y="600.986" fill="#F26737" width="10.249" height="18.343"/>
							</g>
							<g>
								<rect x="208.992" y="651.178" fill="#F26737" width="10.249" height="18.343"/>
								<rect x="228.476" y="651.178" fill="#F26737" width="10.249" height="18.343"/>
								<rect x="247.959" y="651.178" fill="#F26737" width="10.249" height="18.343"/>
							</g>
							<g>
								<rect x="208.992" y="675.956" fill="#F26737" width="10.249" height="18.343"/>
								<rect x="228.476" y="675.956" fill="#F26737" width="10.249" height="18.343"/>
								<rect x="247.959" y="675.956" fill="#F26737" width="10.249" height="18.343"/>
							</g>
						</g>
						<polygon fill="#F26737" points="241.579,737.861 225.622,725.596 225.622,713.718 241.579,713.718 						"/>
					</g>
					<g>
						<polygon fill="#FBF8E7" points="588.433,737.861 588.433,725.789 526.959,664.315 508.642,682.632 574.726,748.716 						"/>
						<polygon fill="#FBF8E7" points="582.948,739.496 650.632,709.243 650.632,486.18 582.948,486.18 						"/>
						<path fill="#FBF8E7" d="M592.768,473.39l20.192-61.996c0.363-1.116,1.967-1.92,3.83-1.92s3.466,0.804,3.83,1.92l20.192,61.996
							v12.79h-48.043V473.39z"/>
						<g>
							<path fill="#F26737" d="M616.79,486.18l14.223-62.774c0.256-1.13,1.385-1.944,2.698-1.944c1.312,0,2.442,0.814,2.698,1.944
								l14.223,62.774H616.79z"/>
							<path fill="#F26737" d="M582.948,486.18l14.223-62.774c0.256-1.13,1.385-1.944,2.698-1.944c1.312,0,2.442,0.814,2.698,1.944
								l14.223,62.774H582.948z"/>
						</g>
						<g>
							<rect x="582.948" y="530.977" fill="#F26737" width="67.684" height="8.749"/>
							<rect x="582.948" y="581.724" fill="#F26737" width="67.684" height="8.749"/>
							<rect x="582.948" y="632.471" fill="#F26737" width="67.684" height="8.749"/>
						</g>
						<g>
							<g>
								<rect x="631.148" y="500.603" fill="#F26737" width="10.249" height="18.343"/>
								<rect x="611.665" y="500.603" fill="#F26737" width="10.249" height="18.343"/>
								<rect x="592.182" y="500.603" fill="#F26737" width="10.249" height="18.343"/>
							</g>
							<g>
								<rect x="631.148" y="550.794" fill="#F26737" width="10.249" height="18.343"/>
								<rect x="611.665" y="550.794" fill="#F26737" width="10.249" height="18.343"/>
								<rect x="592.182" y="550.794" fill="#F26737" width="10.249" height="18.343"/>
							</g>
							<g>
								<rect x="631.148" y="600.986" fill="#F26737" width="10.249" height="18.343"/>
								<rect x="611.665" y="600.986" fill="#F26737" width="10.249" height="18.343"/>
								<rect x="592.182" y="600.986" fill="#F26737" width="10.249" height="18.343"/>
							</g>
							<g>
								<rect x="631.148" y="651.178" fill="#F26737" width="10.249" height="18.343"/>
								<rect x="611.665" y="651.178" fill="#F26737" width="10.249" height="18.343"/>
								<rect x="592.182" y="651.178" fill="#F26737" width="10.249" height="18.343"/>
							</g>
							<g>
								<rect x="631.148" y="675.956" fill="#F26737" width="10.249" height="18.343"/>
								<rect x="611.665" y="675.956" fill="#F26737" width="10.249" height="18.343"/>
								<rect x="592.182" y="675.956" fill="#F26737" width="10.249" height="18.343"/>
							</g>
						</g>
						<polygon fill="#F26737" points="608.811,737.861 624.768,725.596 624.768,713.718 608.811,713.718 						"/>
					</g>
				</g>
			</g>
			<g>
				<g>
					<rect x="375.858" y="763.215" fill="#F26737" width="7.639" height="225.273"/>
					<rect x="391.031" y="763.215" fill="#F26737" width="7.639" height="225.273"/>
					<rect x="406.203" y="763.215" fill="#F26737" width="7.639" height="225.273"/>
					<rect x="421.375" y="763.215" fill="#F26737" width="7.639" height="225.273"/>
					<rect x="436.548" y="763.215" fill="#F26737" width="7.639" height="225.273"/>
					<rect x="451.72" y="763.215" fill="#F26737" width="7.639" height="225.273"/>
					<rect x="466.892" y="763.215" fill="#F26737" width="7.639" height="225.273"/>
				</g>
				<g>
					<polygon fill="#FBF8E7" points="367.901,808.46 367.901,588.786 482.489,588.786 482.489,806.825 426.011,838.713 					"/>
					<rect x="355.805" y="632.075" fill="#FBF8E7" width="138.779" height="113.315"/>
					<rect x="391.137" y="525.126" fill="#FBF8E7" width="68.116" height="25.464"/>
					<path fill="#F26737" d="M391.137,525.126c0,0,21.644-21.644,30.239-100.41c0.019-0.172,7.639-0.173,7.639-0.173
						c13.05,81.485,30.239,100.583,30.239,100.583H391.137z"/>
					<path fill="#F26737" d="M459.253,550.59h-10.504v-19.098h-10.796v19.098h-7.361v-19.098h-10.796v19.098h-7.361v-19.098h-10.796
						v19.098h-10.504c0,25.464-23.236,38.196-23.236,38.196h114.588C482.489,588.786,459.253,576.054,459.253,550.59z"/>
					<polygon fill="#F26737" points="468.636,614.25 468.636,604.701 457.841,604.701 457.841,614.25 449.615,614.25 
						449.615,604.701 438.819,604.701 438.819,614.25 430.593,614.25 430.593,604.701 419.797,604.701 419.797,614.25 
						411.571,614.25 411.571,604.701 400.775,604.701 400.775,614.25 392.549,614.25 392.549,604.701 381.754,604.701 
						381.754,614.25 367.901,614.25 367.901,632.075 482.489,632.075 482.489,614.25 					"/>
					<g>
						<circle fill="#F26737" cx="425.195" cy="688.732" r="44.88"/>
						<path fill="#FBF8E7" d="M425.195,692.552h-17.609c-2.11,0-3.82-1.71-3.82-3.82c0-2.11,1.71-3.82,3.82-3.82h13.79v-26.685
							c0-2.11,1.71-3.82,3.82-3.82c2.11,0,3.82,1.71,3.82,3.82v30.505C429.015,690.842,427.305,692.552,425.195,692.552z"/>
					</g>
				</g>
			</g>
		</g>
	</g>
	<path fill="#F26737" d="M425.195-0.963L56.132,212.116v426.158l369.063,213.079l369.063-213.079V212.116L425.195-0.963z
		 M753.376,212.116H97.014L425.195,22.641L753.376,212.116z M425.195,827.749L76.573,626.472v-301.01h697.244v301.01
		L425.195,827.749z"/>
	<g>
		<polygon fill="#FBF8E7" points="639.897,259.466 639.897,270.885 616.503,270.885 616.503,292.774 604.132,292.774 
			604.132,236.627 641.801,236.627 641.801,248.047 616.503,248.047 616.503,259.466 		"/>
		<polygon fill="#FBF8E7" points="593.133,236.627 593.133,292.774 576.955,292.774 552.451,252.806 552.294,252.806 
			552.294,292.774 539.922,292.774 539.922,236.627 556.734,236.627 580.605,275.644 580.762,275.644 580.762,236.627 		"/>
		<path fill="#FBF8E7" d="M530.553,264.7c0,10.468-6.9,18.081-17.447,18.081c-10.546,0-17.447-7.613-17.447-18.081
			c0-10.467,6.901-18.081,17.447-18.081C523.653,246.618,530.553,254.233,530.553,264.7z"/>
		<path fill="#FBF8E7" d="M471.332,282.781c4.997,0,9.043-2.222,11.581-6.027l10.307,7.692c-4.678,6.66-12.609,9.755-20.301,9.755
			c-17.526,0-30.293-11.499-30.293-29.502c0-18.001,12.767-29.5,30.293-29.5c6.265,0,14.196,2.142,18.954,8.246l-9.514,7.773
			c-2.461-2.935-6.03-4.601-10.629-4.601c-9.358,0-16.257,7.615-16.257,18.081C455.473,275.168,462.372,282.781,471.332,282.781z"/>
		<polygon fill="#FBF8E7" points="434.49,258.515 434.49,269.934 410.143,269.934 410.143,281.354 437.345,281.354 437.345,292.774 
			397.772,292.774 397.772,236.627 435.918,232.538 435.918,248.047 410.143,248.047 410.143,258.515 		"/>
		<path fill="#FBF8E7" d="M389.875,264.859c0,18.159-14.83,27.915-31.563,27.915h-20.223v-56.147h18.557
			C374.727,236.627,389.875,244.32,389.875,264.859z"/>
		<path fill="#FBF8E7" d="M330.238,264.7c0,18.003-12.767,29.502-30.293,29.502c-17.526,0-30.294-11.499-30.294-29.502
			c0-18.001,12.767-29.5,30.294-29.5C317.471,235.2,330.238,246.699,330.238,264.7z"/>
		<polygon fill="#FBF8E7" points="261.801,236.627 261.801,292.774 245.624,292.774 221.119,252.806 220.96,252.806 220.96,292.774 
			208.589,292.774 208.589,236.627 225.401,236.627 249.272,275.644 249.43,275.644 249.43,236.627 		"/>
	</g>
	<g>
		<g>
			<path fill="#F26737" d="M234.914,344.667h5.563v26.86h16.781v5.062h-22.344V344.667z"/>
			<path fill="#F26737" d="M292.052,366.967c-0.821,2.007-1.977,3.762-3.466,5.267c-1.49,1.505-3.253,2.698-5.29,3.58
				c-2.037,0.881-4.287,1.322-6.749,1.322c-2.462,0-4.712-0.433-6.749-1.3c-2.037-0.866-3.785-2.044-5.244-3.534
				c-1.46-1.489-2.599-3.238-3.42-5.244c-0.821-2.006-1.231-4.134-1.231-6.384c0-2.249,0.41-4.378,1.231-6.384
				c0.821-2.006,1.976-3.762,3.466-5.267c1.489-1.504,3.252-2.697,5.29-3.58c2.037-0.881,4.287-1.322,6.749-1.322
				c2.463,0,4.712,0.433,6.749,1.3c2.037,0.866,3.785,2.045,5.244,3.534c1.459,1.49,2.599,3.237,3.42,5.244
				c0.821,2.007,1.231,4.135,1.231,6.385C293.283,362.833,292.873,364.96,292.052,366.967z M286.602,356.273
				c-0.532-1.383-1.277-2.592-2.234-3.626c-0.958-1.033-2.106-1.854-3.443-2.462c-1.338-0.608-2.797-0.912-4.378-0.912
				c-1.581,0-3.032,0.297-4.355,0.889c-1.322,0.593-2.455,1.399-3.397,2.417c-0.943,1.019-1.68,2.219-2.212,3.602
				c-0.532,1.384-0.798,2.85-0.798,4.401c0,1.55,0.266,3.017,0.798,4.4c0.532,1.384,1.277,2.592,2.235,3.625
				c0.958,1.034,2.105,1.855,3.443,2.463c1.337,0.608,2.797,0.912,4.378,0.912c1.58,0,3.032-0.296,4.355-0.889
				c1.322-0.593,2.455-1.398,3.397-2.417c0.942-1.018,1.68-2.219,2.211-3.603c0.532-1.383,0.798-2.85,0.798-4.4
				C287.401,359.123,287.134,357.657,286.602,356.273z"/>
			<path fill="#F26737" d="M322.331,344.667h5.563v31.921h-4.688l-17.566-22.709v22.709h-5.563v-31.921h5.188l17.066,22.071V344.667
				z"/>
			<path fill="#F26737" d="M363.737,366.898c-0.821,1.961-1.984,3.656-3.489,5.084c-1.505,1.429-3.299,2.554-5.381,3.374
				c-2.083,0.821-4.371,1.231-6.863,1.231h-11.902v-31.921h11.902c2.492,0,4.78,0.404,6.863,1.209
				c2.082,0.806,3.876,1.923,5.381,3.351c1.505,1.429,2.668,3.117,3.489,5.062c0.821,1.946,1.231,4.044,1.231,6.293
				C364.968,362.833,364.558,364.938,363.737,366.898z M358.285,356.301c-0.534-1.328-1.28-2.48-2.24-3.457
				c-0.961-0.977-2.126-1.74-3.498-2.29c-1.372-0.549-2.897-0.824-4.573-0.824h-6.309v21.798h6.309c1.676,0,3.2-0.267,4.573-0.801
				c1.371-0.534,2.537-1.282,3.498-2.244c0.96-0.962,1.706-2.107,2.24-3.435c0.533-1.328,0.8-2.786,0.8-4.373
				C359.085,359.086,358.818,357.629,358.285,356.301z"/>
			<path fill="#F26737" d="M402.498,366.967c-0.821,2.007-1.977,3.762-3.466,5.267c-1.49,1.505-3.253,2.698-5.29,3.58
				c-2.037,0.881-4.287,1.322-6.749,1.322c-2.462,0-4.712-0.433-6.749-1.3c-2.037-0.866-3.785-2.044-5.244-3.534
				c-1.46-1.489-2.599-3.238-3.42-5.244c-0.821-2.006-1.231-4.134-1.231-6.384c0-2.249,0.41-4.378,1.231-6.384
				c0.821-2.006,1.976-3.762,3.466-5.267c1.489-1.504,3.252-2.697,5.29-3.58c2.037-0.881,4.287-1.322,6.749-1.322
				s4.712,0.433,6.749,1.3c2.037,0.866,3.785,2.045,5.244,3.534c1.459,1.49,2.599,3.237,3.42,5.244
				c0.821,2.007,1.231,4.135,1.231,6.385C403.729,362.833,403.319,364.96,402.498,366.967z M397.048,356.273
				c-0.532-1.383-1.277-2.592-2.234-3.626c-0.958-1.033-2.106-1.854-3.443-2.462c-1.338-0.608-2.797-0.912-4.378-0.912
				c-1.581,0-3.032,0.297-4.355,0.889c-1.322,0.593-2.455,1.399-3.397,2.417c-0.943,1.019-1.68,2.219-2.212,3.602
				c-0.532,1.384-0.798,2.85-0.798,4.401c0,1.55,0.265,3.017,0.798,4.4c0.532,1.384,1.277,2.592,2.235,3.625
				c0.958,1.034,2.105,1.855,3.443,2.463c1.337,0.608,2.797,0.912,4.378,0.912c1.58,0,3.032-0.296,4.355-0.889
				c1.322-0.593,2.455-1.398,3.397-2.417c0.942-1.018,1.68-2.219,2.211-3.603c0.532-1.383,0.798-2.85,0.798-4.4
				C397.847,359.123,397.58,357.657,397.048,356.273z"/>
			<path fill="#F26737" d="M432.777,344.667h5.563v31.921h-4.688l-17.566-22.709v22.709h-5.563v-31.921h5.188l17.066,22.071V344.667
				z"/>
		</g>
		<g>
			<path fill="#F26737" d="M518.697,350.352c-1.115,0.794-2.297,2-3.548,3.617l-3.984-3.113c0.763-1.068,1.541-2.026,2.335-2.873
				c0.794-0.847,1.656-1.555,2.587-2.125c0.931-0.569,1.953-1.008,3.068-1.317c1.114-0.308,2.388-0.462,3.824-0.462
				c1.587,0,3.037,0.229,4.35,0.687c1.312,0.458,2.427,1.115,3.342,1.969c0.916,0.855,1.626,1.87,2.13,3.045
				c0.503,1.176,0.755,2.481,0.755,3.915c0,1.282-0.168,2.427-0.504,3.434c-0.336,1.007-0.847,1.985-1.534,2.93
				c-0.687,0.947-1.557,1.908-2.61,2.885c-1.053,0.977-2.282,2.045-3.686,3.205l-6.594,5.494h15.247v4.945h-23.169v-4.434
				l11.035-9.371c1.099-0.914,2.03-1.744,2.793-2.491c0.763-0.746,1.381-1.454,1.855-2.126c0.473-0.67,0.816-1.326,1.03-1.965
				c0.213-0.64,0.32-1.326,0.32-2.058c0-1.584-0.496-2.811-1.488-3.679c-0.993-0.869-2.221-1.303-3.686-1.303
				S519.811,349.559,518.697,350.352z"/>
			<path fill="#F26737" d="M566.065,366.996c-0.672,2.03-1.619,3.793-2.839,5.288c-1.221,1.496-2.695,2.679-4.418,3.548
				c-1.725,0.87-3.64,1.305-5.747,1.305s-4.014-0.428-5.724-1.282c-1.71-0.854-3.175-2.03-4.396-3.526
				c-1.221-1.495-2.16-3.251-2.816-5.265c-0.657-2.015-0.984-4.167-0.984-6.457c0-2.289,0.336-4.448,1.007-6.479
				c0.671-2.03,1.618-3.793,2.839-5.288c1.22-1.496,2.694-2.679,4.418-3.548c1.724-0.87,3.64-1.306,5.747-1.306
				c2.106,0,4.014,0.428,5.724,1.282c1.709,0.855,3.174,2.031,4.396,3.526c1.22,1.496,2.159,3.251,2.816,5.266
				c0.656,2.015,0.985,4.167,0.985,6.456S566.736,364.967,566.065,366.996z M560.685,356.121c-0.382-1.404-0.932-2.625-1.648-3.663
				c-0.717-1.037-1.58-1.862-2.587-2.473c-1.008-0.61-2.138-0.916-3.389-0.916c-1.252,0-2.374,0.297-3.365,0.893
				c-0.992,0.595-1.839,1.404-2.541,2.427c-0.703,1.023-1.244,2.237-1.626,3.64c-0.382,1.405-0.573,2.9-0.573,4.487
				c0,1.618,0.191,3.122,0.573,4.51c0.382,1.389,0.931,2.61,1.648,3.663c0.717,1.053,1.58,1.877,2.587,2.473
				c1.007,0.595,2.136,0.893,3.388,0.893c1.251,0,2.373-0.297,3.366-0.893c0.991-0.595,1.839-1.412,2.541-2.45
				c0.702-1.037,1.244-2.251,1.626-3.64c0.381-1.389,0.573-2.877,0.573-4.464C561.257,359.022,561.066,357.525,560.685,356.121z"/>
			<path fill="#F26737" d="M579.252,344.308h3.938v32.28h-5.586v-26.557l-5.769,1.603l-1.191-4.579L579.252,344.308z"/>
			<path fill="#F26737" d="M610.709,351.863c-1.129-0.885-2.221-1.572-3.274-2.061c-1.053-0.488-2.282-0.733-3.686-0.733
				c-1.191,0-2.251,0.254-3.182,0.759c-0.932,0.507-1.718,1.219-2.358,2.139c-0.641,0.92-1.145,2.001-1.511,3.243
				c-0.366,1.242-0.58,2.598-0.641,4.07c0.427-0.396,0.885-0.793,1.374-1.191c0.488-0.396,1.045-0.739,1.671-1.03
				c0.625-0.29,1.312-0.527,2.06-0.71c0.748-0.183,1.595-0.275,2.542-0.275c1.557,0,3.014,0.222,4.372,0.664
				c1.358,0.442,2.549,1.099,3.572,1.969c1.022,0.87,1.824,1.931,2.404,3.182c0.579,1.252,0.87,2.686,0.87,4.304
				c0,1.619-0.305,3.099-0.916,4.442c-0.611,1.343-1.45,2.496-2.518,3.457c-1.068,0.961-2.328,1.71-3.777,2.244
				c-1.45,0.533-3.015,0.801-4.693,0.801c-1.985,0-3.702-0.291-5.151-0.87c-1.45-0.58-2.71-1.404-3.778-2.473
				c-0.611-0.61-1.161-1.289-1.648-2.037c-0.489-0.748-0.901-1.618-1.236-2.61c-0.336-0.992-0.588-2.114-0.755-3.366
				c-0.169-1.251-0.252-2.686-0.252-4.304c0-2.473,0.29-4.769,0.87-6.891c0.58-2.121,1.442-3.968,2.587-5.54
				c1.145-1.572,2.579-2.808,4.304-3.709c1.724-0.9,3.716-1.351,5.975-1.351c2.076,0,3.876,0.311,5.403,0.931
				c1.526,0.62,2.991,1.49,4.396,2.609L610.709,351.863z M607.565,362.371c-1.179-1.053-2.779-1.58-4.801-1.58
				c-1.012,0-1.915,0.153-2.711,0.458c-0.797,0.305-1.478,0.71-2.045,1.214c-0.567,0.503-1.003,1.107-1.31,1.809
				c-0.306,0.702-0.459,1.435-0.459,2.197c0,1.679,0.604,3.068,1.815,4.167c1.21,1.099,2.826,1.648,4.848,1.648
				c2.021,0,3.599-0.557,4.732-1.671c1.133-1.114,1.701-2.51,1.701-4.19C609.335,364.775,608.745,363.425,607.565,362.371z"/>
		</g>
		<circle fill="#F26737" cx="475.947" cy="362.247" r="7.808"/>
	</g>
	<polygon fill="#F26737" points="482.489,745.39 367.901,745.39 367.901,763.215 375.858,763.215 375.858,810.403 383.497,814.715 
		383.497,763.215 391.031,763.215 391.031,818.967 398.67,823.279 398.67,763.215 406.203,763.215 406.203,827.532 413.842,831.844 
		413.842,763.215 421.375,763.215 421.375,836.097 426.011,838.713 429.014,836.919 429.014,763.215 436.548,763.215 
		436.548,832.42 444.187,827.857 444.187,763.215 451.72,763.215 451.72,823.358 459.359,818.796 459.359,763.215 466.893,763.215 
		466.893,814.296 474.532,809.734 474.532,763.215 482.489,763.215 	"/>
</g>
</svg>
