<?xml version="1.0" encoding="utf-8"?>
<!-- Generator: Adobe Illustrator 17.0.0, SVG Export Plug-In . SVG Version: 6.00 Build 0)  -->
<!DOCTYPE svg PUBLIC "-//W3C//DTD SVG 1.1//EN" "http://www.w3.org/Graphics/SVG/1.1/DTD/svg11.dtd">
<svg version="1.1" id="Layer_1" xmlns="http://www.w3.org/2000/svg" xmlns:xlink="http://www.w3.org/1999/xlink" x="0px" y="0px"
	 width="200px" height="200px" viewBox="0 0 200 200" enable-background="new 0 0 200 200" xml:space="preserve">
<g>
	<path fill="#FFFFFF" d="M100,149.767c-5.934,0-10.763,4.829-10.763,10.764s4.828,10.763,10.763,10.763s10.763-4.828,10.763-10.763
		S105.934,149.767,100,149.767z M100,170.396c-5.44,0-9.867-4.425-9.867-9.866s4.426-9.867,9.867-9.867s9.867,4.426,9.867,9.867
		S105.44,170.396,100,170.396z"/>
	<path fill="#FFFFFF" d="M100.416,152.799c-0.731,0-1.326,0.595-1.326,1.326v5.684h-2.721c-0.731,0-1.326,0.595-1.326,1.326
		c0,0.731,0.595,1.326,1.326,1.326h4.047c0.732,0,1.327-0.595,1.327-1.326v-7.01C101.743,153.394,101.148,152.799,100.416,152.799z
		 M100.848,161.135L100.848,161.135c-0.001,0.237-0.194,0.43-0.431,0.43H96.37c-0.237,0-0.429-0.192-0.429-0.43
		c0-0.238,0.192-0.43,0.429-0.43h3.17c0.248,0,0.448-0.201,0.448-0.448v-6.132c0-0.237,0.192-0.43,0.43-0.43s0.43,0.192,0.43,0.43
		V161.135z"/>
	<path fill="#FFFFFF" d="M50.312,121.994h2.355c0.248,0,0.448-0.201,0.448-0.448v-4.216c0-0.247-0.201-0.448-0.448-0.448h-2.355
		c-0.248,0-0.448,0.201-0.448,0.448v4.216C49.864,121.793,50.064,121.994,50.312,121.994z M50.76,117.777h1.459v3.32H50.76V117.777z
		"/>
	<path fill="#FFFFFF" d="M54.79,121.994h2.355c0.248,0,0.448-0.201,0.448-0.448v-4.216c0-0.247-0.201-0.448-0.448-0.448H54.79
		c-0.248,0-0.448,0.201-0.448,0.448v4.216C54.342,121.793,54.542,121.994,54.79,121.994z M55.238,117.777h1.459v3.32h-1.459V117.777
		z"/>
	<path fill="#FFFFFF" d="M59.268,121.994h2.355c0.248,0,0.448-0.201,0.448-0.448v-4.216c0-0.247-0.201-0.448-0.448-0.448h-2.355
		c-0.248,0-0.448,0.201-0.448,0.448v4.216C58.82,121.793,59.02,121.994,59.268,121.994z M59.715,117.777h1.459v3.32h-1.459V117.777z
		"/>
	<path fill="#FFFFFF" d="M50.312,133.529h2.355c0.248,0,0.448-0.201,0.448-0.448v-4.216c0-0.247-0.201-0.448-0.448-0.448h-2.355
		c-0.248,0-0.448,0.201-0.448,0.448v4.216C49.864,133.328,50.064,133.529,50.312,133.529z M50.76,129.312h1.459v3.32H50.76V129.312z
		"/>
	<path fill="#FFFFFF" d="M54.79,133.529h2.355c0.248,0,0.448-0.201,0.448-0.448v-4.216c0-0.247-0.201-0.448-0.448-0.448H54.79
		c-0.248,0-0.448,0.201-0.448,0.448v4.216C54.342,133.328,54.542,133.529,54.79,133.529z M55.238,129.312h1.459v3.32h-1.459V129.312
		z"/>
	<path fill="#FFFFFF" d="M59.268,133.529h2.355c0.248,0,0.448-0.201,0.448-0.448v-4.216c0-0.247-0.201-0.448-0.448-0.448h-2.355
		c-0.248,0-0.448,0.201-0.448,0.448v4.216C58.82,133.328,59.02,133.529,59.268,133.529z M59.715,129.312h1.459v3.32h-1.459V129.312z
		"/>
	<path fill="#FFFFFF" d="M50.312,145.063h2.355c0.248,0,0.448-0.201,0.448-0.448v-4.215c0-0.247-0.2-0.448-0.448-0.448h-2.355
		c-0.248,0-0.448,0.201-0.448,0.448v4.215C49.864,144.862,50.065,145.063,50.312,145.063z M50.76,140.848h1.459v3.319H50.76V140.848
		z"/>
	<path fill="#FFFFFF" d="M54.79,145.063h2.355c0.248,0,0.448-0.201,0.448-0.448v-4.215c0-0.247-0.2-0.448-0.448-0.448H54.79
		c-0.248,0-0.448,0.201-0.448,0.448v4.215C54.342,144.862,54.543,145.063,54.79,145.063z M55.238,140.848h1.459v3.319h-1.459
		V140.848z"/>
	<path fill="#FFFFFF" d="M59.268,145.063h2.355c0.248,0,0.448-0.201,0.448-0.448v-4.215c0-0.247-0.2-0.448-0.448-0.448h-2.355
		c-0.248,0-0.448,0.201-0.448,0.448v4.215C58.82,144.862,59.021,145.063,59.268,145.063z M59.715,140.848h1.459v3.319h-1.459
		V140.848z"/>
	<path fill="#FFFFFF" d="M52.667,151.488h-2.355c-0.248,0-0.448,0.201-0.448,0.448v4.215c0,0.247,0.201,0.448,0.448,0.448h2.355
		c0.248,0,0.448-0.201,0.448-0.448v-4.215C53.115,151.689,52.915,151.488,52.667,151.488z M52.219,155.703H50.76v-3.319h1.459
		V155.703z"/>
	<path fill="#FFFFFF" d="M57.145,151.488H54.79c-0.248,0-0.448,0.201-0.448,0.448v4.215c0,0.247,0.201,0.448,0.448,0.448h2.355
		c0.248,0,0.448-0.201,0.448-0.448v-4.215C57.593,151.689,57.393,151.488,57.145,151.488z M56.697,155.703h-1.459v-3.319h1.459
		V155.703z"/>
	<path fill="#FFFFFF" d="M61.623,151.488h-2.355c-0.248,0-0.448,0.201-0.448,0.448v4.215c0,0.247,0.201,0.448,0.448,0.448h2.355
		c0.248,0,0.448-0.201,0.448-0.448v-4.215C62.071,151.689,61.871,151.488,61.623,151.488z M61.175,155.703h-1.459v-3.319h1.459
		V155.703z"/>
	<path fill="#FFFFFF" d="M57.145,157.181H54.79c-0.248,0-0.448,0.201-0.448,0.448v4.216c0,0.247,0.201,0.448,0.448,0.448h2.355
		c0.248,0,0.448-0.201,0.448-0.448v-4.216C57.593,157.383,57.393,157.181,57.145,157.181z M56.697,161.398h-1.459v-3.32h1.459
		V161.398z"/>
	<path fill="#FFFFFF" d="M61.623,157.181h-2.355c-0.248,0-0.448,0.201-0.448,0.448v4.216c0,0.247,0.201,0.448,0.448,0.448h2.355
		c0.248,0,0.448-0.201,0.448-0.448v-4.216C62.071,157.383,61.871,157.181,61.623,157.181z M61.175,161.398h-1.459v-3.32h1.459
		V161.398z"/>
	<path fill="#FFFFFF" d="M147.333,121.994h2.355c0.247,0,0.448-0.201,0.448-0.448v-4.216c0-0.247-0.201-0.448-0.448-0.448h-2.355
		c-0.247,0-0.448,0.201-0.448,0.448v4.216C146.885,121.793,147.086,121.994,147.333,121.994z M147.781,117.777h1.459v3.32h-1.459
		V117.777z"/>
	<path fill="#FFFFFF" d="M142.855,121.994h2.355c0.247,0,0.448-0.201,0.448-0.448v-4.216c0-0.247-0.201-0.448-0.448-0.448h-2.355
		c-0.247,0-0.448,0.201-0.448,0.448v4.216C142.407,121.793,142.608,121.994,142.855,121.994z M143.303,117.777h1.459v3.32h-1.459
		V117.777z"/>
	<path fill="#FFFFFF" d="M138.377,121.994h2.355c0.247,0,0.448-0.201,0.448-0.448v-4.216c0-0.247-0.201-0.448-0.448-0.448h-2.355
		c-0.247,0-0.448,0.201-0.448,0.448v4.216C137.929,121.793,138.13,121.994,138.377,121.994z M138.825,117.777h1.459v3.32h-1.459
		V117.777z"/>
	<path fill="#FFFFFF" d="M147.333,133.529h2.355c0.247,0,0.448-0.201,0.448-0.448v-4.216c0-0.247-0.201-0.448-0.448-0.448h-2.355
		c-0.247,0-0.448,0.201-0.448,0.448v4.216C146.885,133.328,147.086,133.529,147.333,133.529z M147.781,129.312h1.459v3.32h-1.459
		V129.312z"/>
	<path fill="#FFFFFF" d="M142.855,133.529h2.355c0.247,0,0.448-0.201,0.448-0.448v-4.216c0-0.247-0.201-0.448-0.448-0.448h-2.355
		c-0.247,0-0.448,0.201-0.448,0.448v4.216C142.407,133.328,142.608,133.529,142.855,133.529z M143.303,129.312h1.459v3.32h-1.459
		V129.312z"/>
	<path fill="#FFFFFF" d="M138.377,133.529h2.355c0.247,0,0.448-0.201,0.448-0.448v-4.216c0-0.247-0.201-0.448-0.448-0.448h-2.355
		c-0.247,0-0.448,0.201-0.448,0.448v4.216C137.929,133.328,138.13,133.529,138.377,133.529z M138.825,129.312h1.459v3.32h-1.459
		V129.312z"/>
	<path fill="#FFFFFF" d="M147.333,145.063h2.355c0.247,0,0.448-0.201,0.448-0.448v-4.215c0-0.247-0.201-0.448-0.448-0.448h-2.355
		c-0.247,0-0.448,0.201-0.448,0.448v4.215C146.885,144.862,147.086,145.063,147.333,145.063z M147.781,140.848h1.459v3.319h-1.459
		V140.848z"/>
	<path fill="#FFFFFF" d="M142.855,145.063h2.355c0.247,0,0.448-0.201,0.448-0.448v-4.215c0-0.247-0.201-0.448-0.448-0.448h-2.355
		c-0.247,0-0.448,0.201-0.448,0.448v4.215C142.407,144.862,142.608,145.063,142.855,145.063z M143.303,140.848h1.459v3.319h-1.459
		V140.848z"/>
	<path fill="#FFFFFF" d="M138.377,145.063h2.355c0.247,0,0.448-0.201,0.448-0.448v-4.215c0-0.247-0.201-0.448-0.448-0.448h-2.355
		c-0.247,0-0.448,0.201-0.448,0.448v4.215C137.929,144.862,138.13,145.063,138.377,145.063z M138.825,140.848h1.459v3.319h-1.459
		V140.848z"/>
	<path fill="#FFFFFF" d="M147.333,156.599h2.355c0.247,0,0.448-0.201,0.448-0.448v-4.215c0-0.247-0.201-0.448-0.448-0.448h-2.355
		c-0.247,0-0.448,0.201-0.448,0.448v4.215C146.885,156.397,147.086,156.599,147.333,156.599z M147.781,152.383h1.459v3.319h-1.459
		V152.383z"/>
	<path fill="#FFFFFF" d="M142.855,156.599h2.355c0.247,0,0.448-0.201,0.448-0.448v-4.215c0-0.247-0.201-0.448-0.448-0.448h-2.355
		c-0.247,0-0.448,0.201-0.448,0.448v4.215C142.407,156.397,142.608,156.599,142.855,156.599z M143.303,152.383h1.459v3.319h-1.459
		V152.383z"/>
	<path fill="#FFFFFF" d="M138.377,156.599h2.355c0.247,0,0.448-0.201,0.448-0.448v-4.215c0-0.247-0.201-0.448-0.448-0.448h-2.355
		c-0.247,0-0.448,0.201-0.448,0.448v4.215C137.929,156.397,138.13,156.599,138.377,156.599z M138.825,152.383h1.459v3.319h-1.459
		V152.383z"/>
	<path fill="#FFFFFF" d="M142.855,162.293h2.355c0.247,0,0.448-0.201,0.448-0.448v-4.216c0-0.246-0.201-0.448-0.448-0.448h-2.355
		c-0.247,0-0.448,0.201-0.448,0.448v4.216C142.407,162.092,142.608,162.293,142.855,162.293z M143.303,158.078h1.459v3.32h-1.459
		V158.078z"/>
	<path fill="#FFFFFF" d="M138.377,162.293h2.355c0.247,0,0.448-0.201,0.448-0.448v-4.216c0-0.246-0.201-0.448-0.448-0.448h-2.355
		c-0.247,0-0.448,0.201-0.448,0.448v4.216C137.929,162.092,138.13,162.293,138.377,162.293z M138.825,158.078h1.459v3.32h-1.459
		V158.078z"/>
	<path fill="#FFFFFF" d="M186.438,49.836L100.224,0.06c-0.139-0.08-0.31-0.08-0.448,0L13.561,49.836
		c-0.138,0.081-0.224,0.228-0.224,0.388v99.552c0,0.16,0.086,0.309,0.224,0.388l86.215,49.776c0.07,0.04,0.146,0.061,0.224,0.061
		s0.154-0.021,0.224-0.061l86.214-49.776c0.139-0.08,0.225-0.228,0.225-0.388V50.224C186.663,50.063,186.577,49.916,186.438,49.836z
		 M185.766,149.516L100,199.033l-85.766-49.517V50.483L100,0.966l85.766,49.517V149.516z"/>
	<path fill="#FFFFFF" d="M102.609,177.236h-1.731c-0.248,0-0.448,0.201-0.448,0.448v12.681c0,0.16,0.086,0.309,0.224,0.388
		c0.07,0.04,0.146,0.061,0.224,0.061s0.154-0.021,0.224-0.061l1.731-1c0.139-0.08,0.225-0.228,0.225-0.388v-11.681
		C103.057,177.437,102.857,177.236,102.609,177.236z M102.161,189.107l-0.835,0.482v-11.457h0.835V189.107z"/>
	<path fill="#FFFFFF" d="M99.776,8.74L27.2,50.641c-0.175,0.102-0.261,0.309-0.208,0.504c0.053,0.195,0.23,0.331,0.433,0.331
		h145.153c0.203,0,0.38-0.136,0.433-0.331c0.053-0.196-0.033-0.403-0.209-0.504L100.224,8.74C100.085,8.66,99.915,8.66,99.776,8.74z
		 M170.905,50.581H29.095L100,9.645L170.905,50.581z"/>
	<path fill="#FFFFFF" d="M20.855,77.079v68.357c0,0.16,0.086,0.309,0.224,0.388l4.07,2.349c0.168,0.095,0.477-0.014,0.621-0.141
		l1.548-1.41c0.163-0.149,0.324-0.304,0.484-0.457l0.54-0.516c0.164-0.155,0.329-0.311,0.493-0.473l0.73-0.728
		c0.925-0.921,1.799-1.852,2.821-2.963c0.164-0.174,0.322-0.352,0.478-0.532l1.594-1.838l2.96-3.688l2.16-2.997
		c0.195-0.283,0.383-0.566,0.569-0.849l1.351-2.079c0.221-0.339,0.427-0.682,0.629-1.019l0.664-1.101
		c0.09-0.148,0.174-0.299,0.257-0.447l0.66-1.161c0.086-0.148,0.17-0.296,0.247-0.441l1.722-3.311
		c0.074-0.145,0.146-0.29,0.211-0.429l1.847-4.054c0.002-0.006,0.005-0.013,0.007-0.019l0.002,4.874
		c-0.068,0.203-0.147,0.404-0.23,0.614l-1.402,3.402c-0.179,0.401-0.371,0.807-0.567,1.221l-0.241,0.506
		c-0.073,0.154-0.145,0.311-0.226,0.465l-0.386,0.757l-2.337,4.169c-0.102,0.169-0.203,0.34-0.313,0.51l-0.364,0.57
		c-0.22,0.345-0.442,0.693-0.663,1.032l-1.531,2.195c-0.249,0.343-0.5,0.689-0.748,1.026l-2.083,2.626
		c-0.157,0.193-0.316,0.387-0.48,0.575l-0.91,1.046c-0.154,0.179-0.309,0.357-0.476,0.536c-0.978,1.086-1.968,2.124-2.941,3.086
		l-0.768,0.761c-0.176,0.171-0.355,0.34-0.535,0.51l-0.539,0.51c-0.165,0.156-0.331,0.313-0.498,0.466l-0.7,0.634
		c-0.107,0.097-0.16,0.237-0.145,0.38c0.015,0.142,0.098,0.269,0.221,0.34l59.551,34.382c0.139,0.08,0.31,0.08,0.448,0
		s0.224-0.228,0.224-0.388v-6.642c0-0.247-0.201-0.448-0.448-0.448h-1.381v-3.201h25.438v3.201h-1.381
		c-0.247,0-0.448,0.201-0.448,0.448v6.642c0,0.16,0.086,0.309,0.225,0.388c0.069,0.04,0.145,0.061,0.224,0.061
		c0.079,0,0.154-0.021,0.224-0.061l59.551-34.382c0.124-0.072,0.207-0.198,0.222-0.34c0.016-0.143-0.039-0.284-0.145-0.38
		l-0.698-0.632c-0.169-0.154-0.336-0.313-0.503-0.471l-0.55-0.52c-0.174-0.164-0.348-0.328-0.519-0.494l-0.769-0.763
		c-0.981-0.97-1.97-2.008-2.947-3.09c-0.161-0.173-0.316-0.352-0.471-0.531l-0.909-1.045c-0.162-0.187-0.319-0.378-0.475-0.568
		l-2.082-2.625c-0.256-0.346-0.507-0.692-0.756-1.035l-1.525-2.185c-0.229-0.353-0.454-0.707-0.677-1.056l-0.357-0.559
		c-0.109-0.167-0.21-0.339-0.311-0.509l-2.724-4.926c-0.081-0.155-0.154-0.314-0.228-0.471l-0.193-0.406
		c-0.212-0.445-0.419-0.881-0.609-1.308l-1.405-3.407c-0.073-0.186-0.144-0.368-0.226-0.602v-4.881
		c0.002,0.005,0.004,0.01,0.006,0.015l1.846,4.048c0.069,0.149,0.145,0.3,0.222,0.451l1.712,3.293
		c0.077,0.145,0.159,0.288,0.243,0.432l0.658,1.16c0.086,0.153,0.172,0.309,0.265,0.458l0.647,1.076
		c0.208,0.347,0.419,0.699,0.643,1.043l1.346,2.071c0.189,0.286,0.38,0.573,0.58,0.863l2.165,3.003l2.4,3.03l2.133,2.472
		c0.16,0.184,0.323,0.368,0.487,0.542c0.877,0.954,1.827,1.972,2.825,2.966l1.771,1.724c0.156,0.15,0.314,0.302,0.476,0.449
		l1.548,1.41c0.002,0.001,0.104,0.092,0.106,0.094c0.145,0.123,0.353,0.142,0.516,0.048l4.069-2.349
		c0.139-0.08,0.225-0.228,0.225-0.388V77.079c0-0.248-0.201-0.448-0.448-0.448H21.303C21.055,76.631,20.855,76.832,20.855,77.079z
		 M47.742,126.32v9.651v2.011v9.653v2.011v10.536l-17.875-10.32l0.246-0.222c0.173-0.158,0.342-0.32,0.513-0.48l0.537-0.508
		c0.182-0.172,0.364-0.344,0.546-0.521l0.771-0.763c0.986-0.975,1.987-2.025,2.972-3.118c0.169-0.181,0.331-0.368,0.493-0.555
		l0.908-1.044c0.17-0.195,0.335-0.396,0.498-0.597l2.102-2.651c0.257-0.349,0.509-0.697,0.76-1.042l1.55-2.223
		c0.228-0.351,0.452-0.701,0.673-1.048l0.362-0.566c0.115-0.177,0.222-0.356,0.33-0.536l0.646-1.078l2.104-3.898
		c0.084-0.163,0.162-0.328,0.239-0.492l0.24-0.505c0.199-0.419,0.394-0.831,0.578-1.243l0.613-1.416l0.067-0.167l0.129-0.301V126.32
		z M87.28,178.132h0.933v5.418l-0.933-0.539V178.132z M152.258,149.65v-2.011v-9.653v-2.011v-9.652v-1.432l0.809,1.886
		c0.197,0.437,0.408,0.879,0.623,1.331l0.191,0.403c0.079,0.165,0.157,0.332,0.242,0.498l0.387,0.757l2.364,4.219
		c0.107,0.18,0.215,0.36,0.328,0.536l0.355,0.557c0.224,0.351,0.449,0.705,0.686,1.07l1.545,2.214
		c0.25,0.345,0.503,0.693,0.768,1.051l2.102,2.651c0.118,0.144,0.246,0.299,0.39,0.469c0.034,0.04,0.066,0.081,0.101,0.12
		l0.908,1.043c0.161,0.187,0.324,0.374,0.488,0.549c0.983,1.092,1.984,2.141,2.976,3.123l0.773,0.766
		c0.174,0.17,0.352,0.337,0.529,0.506l0.549,0.519c0.17,0.162,0.341,0.323,0.517,0.484l0.244,0.221l-17.875,10.32V149.65z
		 M55.502,164.664l-4.104-2.37h1.269c0.248,0,0.448-0.201,0.448-0.448v-4.216c0-0.247-0.201-0.448-0.448-0.448h-2.355
		c-0.248,0-0.448,0.201-0.448,0.448v3.779l-1.185-0.684l-0.041-0.024v-10.605h14.659v17.727c0,0.181,0.109,0.344,0.277,0.414
		c0.167,0.067,0.359,0.031,0.489-0.098l12.55-12.55l3.577,3.576l-12.524,12.522L55.502,164.664z M50.76,161.398v-3.32h1.459v3.32
		H50.76z M55.967,111.987l-2.194-9.681l1.735-5.33c0.023-0.036,0.181-0.141,0.459-0.141c0.278,0,0.436,0.106,0.455,0.131l1.739,5.34
		L55.967,111.987z M59.674,99.688c0.019-0.083,0.347-0.083,0.366,0l3.145,13.879h-6.656L59.674,99.688z M55.407,113.567h-6.656
		l3.145-13.879c0.019-0.083,0.347-0.083,0.366,0L55.407,113.567z M55.967,114.463h7.329v8.403H48.638v-0.385v-7.207v-0.811H55.967z
		 M63.745,123.763c0.214,0,0.393-0.149,0.437-0.35h27.543v2.734H64.157c-0.068-0.16-0.228-0.273-0.413-0.273H48.638v-2.011v-0.1
		H63.745z M107.379,123.414v3.181v1.775h-1.517v-2.716c0-0.247-0.201-0.448-0.448-0.448h-2.481c-0.247,0-0.448,0.201-0.448,0.448
		v2.716h-0.795v-2.716c0-0.247-0.201-0.448-0.448-0.448h-2.481c-0.248,0-0.448,0.201-0.448,0.448v2.716h-0.795v-2.716
		c0-0.247-0.201-0.448-0.448-0.448h-2.481c-0.248,0-0.448,0.201-0.448,0.448v2.716h-1.517v-1.775v-3.181H107.379z M92.892,122.517
		c0.112-0.221,0.231-0.456,0.359-0.706c1.295-2.529,3.419-6.674,4.969-13.602c0.517-2.31,0.97-4.928,1.306-7.899
		c0.248-0.006,0.604-0.01,0.971-0.012c1.931,11.826,4.721,17.963,6.226,21.278c0.154,0.339,0.297,0.652,0.425,0.941H92.892z
		 M94.586,129.266c0.248,0,0.448-0.201,0.448-0.448v-2.716h1.585v2.716c0,0.247,0.201,0.448,0.448,0.448h1.691
		c0.248,0,0.448-0.201,0.448-0.448v-2.716h1.585v2.716c0,0.247,0.201,0.448,0.448,0.448h1.691c0.247,0,0.448-0.201,0.448-0.448
		v-2.716h1.585v2.716c0,0.247,0.201,0.448,0.448,0.448h1.975c0.179,4.035,2.739,6.643,4.326,7.881H88.286
		c1.587-1.238,4.146-3.847,4.325-7.881H94.586z M92.498,143.897h1.891c0.248,0,0.448-0.201,0.448-0.448v-1.746h1.585v1.746
		c0,0.247,0.201,0.448,0.448,0.448h1.891c0.248,0,0.448-0.201,0.448-0.448v-1.746h1.585v1.746c0,0.247,0.201,0.448,0.448,0.448
		h1.891c0.247,0,0.448-0.201,0.448-0.448v-1.746h1.585v1.746c0,0.247,0.201,0.448,0.448,0.448h1.89c0.247,0,0.448-0.201,0.448-0.448
		v-1.746h1.585v1.746c0,0.247,0.201,0.448,0.448,0.448h2.736v3.201H87.281v-3.201h2.736c0.248,0,0.448-0.201,0.448-0.448v-1.746
		h1.585v1.746C92.05,143.696,92.251,143.897,92.498,143.897z M110.431,143v-1.746c0-0.247-0.201-0.448-0.448-0.448h-2.481
		c-0.247,0-0.448,0.201-0.448,0.448V143h-0.994v-1.746c0-0.247-0.201-0.448-0.448-0.448h-2.481c-0.247,0-0.448,0.201-0.448,0.448
		V143h-0.995v-1.746c0-0.247-0.201-0.448-0.448-0.448h-2.481c-0.248,0-0.448,0.201-0.448,0.448V143h-0.995v-1.746
		c0-0.247-0.201-0.448-0.448-0.448h-2.481c-0.248,0-0.448,0.201-0.448,0.448V143h-0.995v-1.746c0-0.247-0.201-0.448-0.448-0.448
		h-2.481c-0.248,0-0.448,0.201-0.448,0.448V143h-2.287v-4.957h25.438V143h-0.003H110.431z M63.297,126.77v8.756h-0.001H48.638
		v-8.756H63.297z M63.297,136.421v1.114H48.638v-1.114H63.297z M63.297,138.431v8.757H48.638v-8.757H63.297z M63.297,148.085v1.114
		H48.638v-1.114H63.297z M86.384,177.682v4.81l-0.532-0.306L68.47,172.15l12.669-12.67c0.084-0.085,0.131-0.198,0.131-0.317
		c0-0.118-0.048-0.232-0.131-0.317l-4.21-4.21c-0.175-0.175-0.459-0.175-0.634,0l-12.102,12.104v-17.094v-2.011v-9.653v-2.011
		v-8.931h27.532v1.775c0,5.508-5.057,8.357-5.108,8.385c-0.011,0.006-0.016,0.019-0.027,0.026c-0.047,0.031-0.085,0.068-0.117,0.113
		c-0.011,0.016-0.023,0.031-0.032,0.048c-0.005,0.01-0.014,0.017-0.018,0.027c0,0.001-0.001,0.001-0.001,0.002
		c-0.024,0.055-0.037,0.115-0.037,0.177v5.853v3.649h-2.331c-0.248,0-0.448,0.201-0.448,0.448v26.042
		c0,0.247,0.201,0.448,0.448,0.448h2.331V177.682z M112.72,183.01l-0.933,0.539v-5.418h0.933V183.01z M86.832,173.139
		L86.832,173.139l-2.331,0v-25.146h2.331h26.334h2.333v25.146h-2.333H86.832z M114.572,181.944l-0.957,0.549v-4.81v-3.649h2.333
		c0.247,0,0.448-0.201,0.448-0.448v-26.042c0-0.247-0.201-0.448-0.448-0.448h-2.333v-3.649v-5.853c0-0.063-0.014-0.122-0.037-0.177
		c-0.001-0.002-0.003-0.004-0.004-0.006c-0.004-0.009-0.011-0.015-0.016-0.023c-0.009-0.017-0.021-0.032-0.032-0.047
		c-0.033-0.047-0.072-0.085-0.119-0.115c-0.01-0.007-0.015-0.019-0.025-0.024c-0.051-0.028-5.107-2.862-5.107-8.385v-1.775h27.531
		v8.931v2.011v9.653v2.011v17.093l-12.102-12.102c-0.169-0.167-0.465-0.167-0.634,0l-4.21,4.21c-0.175,0.175-0.175,0.459,0,0.634
		l12.669,12.67L114.572,181.944z M149.24,161.398h-1.459v-3.32h1.459V161.398z M151.362,160.699l-1.226,0.709v-3.779
		c0-0.247-0.201-0.448-0.448-0.448h-2.355c-0.247,0-0.448,0.201-0.448,0.448v4.216c0,0.247,0.201,0.448,0.448,0.448h1.269
		l-10.133,5.851l-6.135,3.542l-12.522-12.523l3.576-3.576l12.549,12.55c0.127,0.126,0.32,0.164,0.488,0.098
		c0.168-0.07,0.277-0.233,0.277-0.414v-17.727h14.66V160.699z M151.363,149.199h-14.66v-1.114h14.66V149.199z M151.363,147.188
		h-14.66v-8.757h14.66V147.188z M151.363,137.535h-14.66v-1.114h14.66V137.535z M151.363,135.525h-14.66v-8.756h14.66V135.525z
		 M151.363,123.863v2.011h-15.108c-0.186,0-0.344,0.112-0.412,0.273h-27.567v-2.733h27.542c0.044,0.2,0.223,0.349,0.437,0.349
		h15.108V123.863z M144.034,111.987l-1.282-5.659l-0.912-4.024l1.735-5.329c0.022-0.036,0.18-0.141,0.459-0.141
		c0.278,0,0.436,0.106,0.454,0.131l1.739,5.34L144.034,111.987z M147.738,99.687c0.017-0.081,0.346-0.081,0.365,0.001l3.146,13.879
		h-6.656L147.738,99.687z M143.472,113.567h-6.657l3.147-13.88c0.018-0.08,0.346-0.083,0.365,0.001L143.472,113.567z
		 M144.033,114.463h7.329v0.811v7.207v0.385h-14.66v-8.403H144.033z M178.249,77.527v67.65l-3.565,2.059l-1.396-1.274
		c-0.156-0.143-0.31-0.29-0.462-0.436l-1.757-1.711c-0.987-0.982-1.928-1.992-2.803-2.943c-0.16-0.17-0.314-0.345-0.468-0.521
		l-0.846-0.96l-3.647-4.492l-2.144-2.976c-0.195-0.282-0.382-0.564-0.567-0.845l-1.34-2.061c-0.221-0.339-0.426-0.683-0.628-1.019
		l-0.651-1.081c-0.088-0.142-0.167-0.286-0.247-0.429l-0.666-1.172c-0.077-0.134-0.153-0.267-0.226-0.403l-1.69-3.249l-0.015-0.029
		c-0.072-0.141-0.142-0.279-0.209-0.425l-0.532-1.12l-1.297-2.891c-0.149-0.362-0.293-0.699-0.426-1.01l-0.408-1v-1.173
		c0-0.033-0.004-0.066-0.012-0.1l-3.268-14.426c-0.104-0.462-0.549-0.796-1.057-0.796c-0.335,0-0.633,0.154-0.833,0.385
		c-0.028,0.032-0.064,0.057-0.087,0.092c-0.064,0.097-0.111,0.203-0.137,0.319l-0.253,1.111l-1.273-3.911
		c-0.145-0.449-0.671-0.75-1.306-0.75s-1.161,0.302-1.306,0.751l-1.273,3.911l-0.252-1.11c-0.026-0.115-0.074-0.223-0.137-0.32
		c-0.014-0.021-0.036-0.034-0.051-0.054c-0.127-0.163-0.299-0.296-0.504-0.364c-0.115-0.039-0.238-0.06-0.365-0.06
		c-0.509,0-0.953,0.334-1.056,0.795l-3.269,14.427c-0.008,0.033-0.012,0.066-0.012,0.1v8.502h-27.682
		c-0.046-0.108-0.1-0.227-0.15-0.341c-0.031-0.07-0.061-0.138-0.093-0.21c-0.108-0.24-0.22-0.489-0.343-0.761
		c-1.504-3.31-4.304-9.472-6.218-21.425c-0.035-0.217-0.223-0.377-0.442-0.377c-2.152,0-2.152,0-2.201,0.439
		c-1.305,11.962-4.504,18.208-6.223,21.563c-0.117,0.229-0.226,0.442-0.33,0.647c-0.031,0.062-0.061,0.121-0.09,0.18
		c-0.048,0.096-0.099,0.196-0.143,0.287H64.193v-8.502c0-0.033-0.004-0.066-0.011-0.1L60.914,99.49
		c-0.104-0.461-0.549-0.795-1.057-0.795c-0.508,0-0.953,0.334-1.057,0.795l-0.252,1.111l-1.274-3.911
		c-0.146-0.449-0.671-0.75-1.306-0.75s-1.16,0.302-1.306,0.751l-1.274,3.911l-0.252-1.111c-0.105-0.461-0.549-0.795-1.057-0.795
		s-0.953,0.335-1.057,0.795l-3.268,14.427c-0.007,0.033-0.011,0.066-0.011,0.1v1.173l-0.392,0.959
		c-0.137,0.323-0.286,0.673-0.442,1.05l-1.831,4.018c-0.062,0.134-0.129,0.267-0.198,0.403l-1.715,3.297
		c-0.073,0.138-0.151,0.274-0.231,0.411l-0.665,1.173c-0.079,0.14-0.156,0.28-0.242,0.42l-0.666,1.104
		c-0.197,0.328-0.397,0.663-0.615,0.997L39.4,131.09c-0.184,0.277-0.368,0.557-0.557,0.83l-1.044,1.478l-2.258,2.99l-3.351,3.977
		c-0.149,0.171-0.299,0.341-0.459,0.512c-1.019,1.106-1.885,2.029-2.799,2.939l-0.727,0.726c-0.158,0.154-0.319,0.308-0.479,0.46
		l-0.542,0.518c-0.155,0.148-0.311,0.298-0.47,0.443l-1.395,1.274l-3.566-2.059V77.527H178.249z"/>
	<path fill="#FFFFFF" d="M106.096,177.236h-1.73c-0.247,0-0.448,0.201-0.448,0.448v10.668c0,0.16,0.086,0.309,0.225,0.388
		c0.069,0.04,0.145,0.061,0.224,0.061s0.154-0.021,0.224-0.061l1.73-1c0.139-0.08,0.225-0.228,0.225-0.388v-9.668
		C106.544,177.437,106.342,177.236,106.096,177.236z M105.648,187.093l-0.834,0.482v-9.443h0.834V187.093z"/>
	<path fill="#FFFFFF" d="M99.122,177.236h-1.731c-0.248,0-0.448,0.201-0.448,0.448v11.681c0,0.16,0.086,0.309,0.224,0.388
		l1.731,0.999c0.07,0.04,0.146,0.061,0.224,0.061s0.154-0.021,0.224-0.061c0.138-0.08,0.224-0.228,0.224-0.388v-12.681
		C99.57,177.437,99.37,177.236,99.122,177.236z M98.674,189.589l-0.834-0.482v-10.975h0.834V189.589z"/>
	<path fill="#FFFFFF" d="M109.583,177.236h-1.731c-0.247,0-0.448,0.201-0.448,0.448v8.654c0,0.16,0.086,0.309,0.225,0.388
		c0.069,0.04,0.145,0.061,0.224,0.061c0.079,0,0.154-0.021,0.224-0.061l1.731-0.999c0.139-0.08,0.225-0.228,0.225-0.388v-7.654
		C110.031,177.437,109.83,177.236,109.583,177.236z M109.135,185.08l-0.835,0.482v-7.43h0.835V185.08z"/>
	<path fill="#FFFFFF" d="M95.636,177.236h-1.731c-0.248,0-0.448,0.201-0.448,0.448v9.668c0,0.16,0.086,0.309,0.224,0.388l1.731,1
		c0.07,0.04,0.146,0.061,0.224,0.061s0.154-0.021,0.224-0.061c0.138-0.08,0.224-0.228,0.224-0.388v-10.668
		C96.084,177.437,95.883,177.236,95.636,177.236z M95.188,187.576l-0.835-0.482v-8.962h0.835V187.576z"/>
	<path fill="#FFFFFF" d="M92.148,177.236h-1.731c-0.248,0-0.448,0.201-0.448,0.448v7.654c0,0.16,0.086,0.309,0.224,0.388
		l1.731,0.999c0.07,0.04,0.146,0.061,0.224,0.061s0.154-0.021,0.224-0.061c0.138-0.08,0.224-0.228,0.224-0.388v-8.654
		C92.596,177.437,92.395,177.236,92.148,177.236z M91.7,185.562l-0.834-0.482v-6.948H91.7V185.562z"/>
	<path fill="#FFFFFF" d="M102.465,60.957v-0.001c0.247,0,0.448-0.201,0.448-0.448v-2.624c0-0.127-0.055-0.249-0.148-0.333
		c-0.095-0.085-0.221-0.129-0.347-0.112l-8.767,0c-0.228,0.024-0.4,0.216-0.4,0.445v12.904c0,0.248,0.201,0.448,0.448,0.448h9.094
		c0.247,0,0.448-0.201,0.448-0.448v-2.625c0-0.248-0.201-0.448-0.448-0.448h-5.804v-1.728h5.147c0.247,0,0.448-0.201,0.448-0.448
		v-2.624c0-0.248-0.201-0.448-0.448-0.448h-5.147v-1.509H102.465z M96.541,63.363h5.147v1.728h-5.147
		c-0.248,0-0.448,0.201-0.448,0.448v2.624c0,0.248,0.201,0.448,0.448,0.448h5.804v1.728h-8.198V58.286l7.871-0.016v1.79h-5.475
		c-0.248,0-0.448,0.201-0.448,0.448v2.406C96.093,63.161,96.293,63.363,96.541,63.363z"/>
	<path fill="#FFFFFF" d="M92.332,64.372c0-4.408-2.947-6.937-8.086-6.937h-4.265c-0.248,0-0.448,0.201-0.448,0.448v12.904
		c0,0.248,0.201,0.448,0.448,0.448h4.648v0.001C88.339,71.236,92.332,69.088,92.332,64.372z M84.628,70.339h-4.199V58.332h3.816
		c2.685,0,7.189,0.784,7.189,6.04C91.434,68.494,88.015,70.339,84.628,70.339z"/>
	<path fill="#FFFFFF" d="M78.625,64.335c0-4.255-3.047-7.227-7.411-7.227c-4.362,0-7.41,2.973-7.41,7.227
		c0,4.256,3.047,7.228,7.41,7.228C75.578,71.565,78.625,68.592,78.625,64.335z M64.701,64.335c0-3.787,2.617-6.331,6.514-6.331
		c3.896,0,6.514,2.544,6.514,6.331c0,3.788-2.617,6.333-6.514,6.333C67.318,70.668,64.701,68.123,64.701,64.335z"/>
	<path fill="#FFFFFF" d="M53.062,71.236c0.248,0,0.448-0.201,0.448-0.448v-7.657l4.838,7.891c0.082,0.132,0.226,0.214,0.382,0.214
		h3.717c0.248,0,0.448-0.201,0.448-0.448V57.884c0-0.248-0.201-0.448-0.448-0.448h-2.843c-0.248,0-0.448,0.201-0.448,0.448v7.436
		l-4.692-7.669c-0.082-0.133-0.226-0.214-0.382-0.214h-3.864c-0.248,0-0.448,0.201-0.448,0.448v12.904
		c0,0.248,0.201,0.448,0.448,0.448H53.062z M50.666,58.332L50.666,58.332h3.165l5.355,8.753c0.082,0.133,0.263,0.214,0.418,0.214
		c0.248,0,0.448-0.201,0.448-0.448v-8.519h1.947V70.34h-3.018l-5.5-8.972c-0.082-0.132-0.226-0.214-0.382-0.214h-0.037
		c-0.248,0-0.448,0.201-0.448,0.448v8.738h-1.947V58.332z"/>
	<path fill="#FFFFFF" d="M120.204,68.939c2.624,0,4.458-1.893,4.458-4.604c0-2.711-1.834-4.603-4.458-4.603
		c-2.625,0-4.459,1.892-4.459,4.603C115.745,67.046,117.579,68.939,120.204,68.939z M120.204,60.629c2.13,0,3.561,1.489,3.561,3.707
		s-1.432,3.707-3.561,3.707c-2.131,0-3.562-1.49-3.562-3.707C116.642,62.119,118.073,60.629,120.204,60.629z"/>
	<path fill="#FFFFFF" d="M149.781,60.957v-0.001c0.248,0,0.448-0.201,0.448-0.448v-2.624c0-0.248-0.2-0.448-0.448-0.448h-8.657
		c-0.247,0-0.448,0.201-0.448,0.448v12.904c0,0.248,0.201,0.448,0.448,0.448h2.843c0.247,0,0.448-0.201,0.448-0.448v-4.582h4.928
		c0.247,0,0.448-0.201,0.448-0.448v-2.624c0-0.248-0.201-0.448-0.448-0.448h-4.928v-1.728H149.781z M143.967,63.581h4.928v1.728
		h-4.928c-0.248,0-0.448,0.201-0.448,0.448v4.582h-1.947V58.332h7.761v1.728h-5.366c-0.248,0-0.448,0.201-0.448,0.448v2.624
		C143.519,63.38,143.719,63.581,143.967,63.581z"/>
	<path fill="#FFFFFF" d="M129.21,71.236c0.247,0,0.448-0.201,0.448-0.448v-7.656l4.837,7.89c0.082,0.132,0.227,0.214,0.382,0.214
		h3.717c0.247,0,0.448-0.201,0.448-0.448V57.884c0-0.248-0.201-0.448-0.448-0.448h-2.842c-0.248,0-0.448,0.201-0.448,0.448v7.437
		l-4.693-7.67c-0.082-0.133-0.227-0.214-0.382-0.214h-3.864c-0.248,0-0.448,0.201-0.448,0.448v12.904c0,0.248,0.2,0.448,0.448,0.448
		H129.21z M129.98,58.332l5.355,8.753c0.082,0.133,0.264,0.214,0.419,0.214c0.247,0,0.448-0.201,0.448-0.448v-8.519h1.946V70.34
		h-3.018l-5.5-8.972c-0.082-0.132-0.227-0.214-0.382-0.214h-0.036c-0.247,0-0.448,0.201-0.448,0.448v8.738h-1.947V58.332H129.98z"/>
	<path fill="#FFFFFF" d="M110.969,57.108c-4.363,0-7.41,2.973-7.41,7.227c0,4.256,3.047,7.228,7.41,7.228
		c2.082,0,3.962-0.91,5.032-2.432c0.139-0.198,0.096-0.472-0.099-0.617l-2.369-1.768c-0.1-0.073-0.224-0.104-0.344-0.083
		c-0.121,0.021-0.228,0.091-0.297,0.193c-0.518,0.776-1.308,1.185-2.289,1.185c-1.823,0-3.197-1.594-3.197-3.707
		c0-2.148,1.383-3.707,3.288-3.707c0.894,0,1.6,0.302,2.099,0.897c0.157,0.187,0.436,0.214,0.627,0.06l2.186-1.786
		c0.187-0.154,0.219-0.43,0.07-0.622C114.668,57.881,112.908,57.108,110.969,57.108z M113.174,60.629
		c-0.643-0.588-1.49-0.897-2.479-0.897c-2.425,0-4.184,1.936-4.184,4.603c0,2.624,1.76,4.604,4.093,4.604
		c1.109,0,2.069-0.426,2.748-1.21l1.648,1.229c-0.934,1.077-2.406,1.708-4.031,1.708c-3.896,0-6.514-2.545-6.514-6.333
		c0-3.787,2.617-6.331,6.514-6.331c0.578,0,2.451,0.107,3.713,1.393L113.174,60.629z"/>
	<polygon fill="#FFFFFF" points="87.793,86.441 87.772,85.617 88.155,86.452 90.884,91.647 91.836,91.647 91.836,83.705 
		90.884,83.705 90.884,88.991 90.909,89.78 90.884,89.78 90.576,88.991 87.772,83.705 86.841,83.705 86.841,91.647 87.793,91.647 	
		"/>
	<polygon fill="#FFFFFF" points="60.154,90.772 56.905,90.772 56.905,83.705 55.872,83.705 55.872,91.647 60.154,91.647 	"/>
	<path fill="#FFFFFF" d="M64.181,91.888c0.904,0,1.593-0.38,2.068-1.139c0.474-0.76,0.712-1.784,0.712-3.075
		c0-1.287-0.237-2.311-0.712-3.069c-0.474-0.76-1.164-1.139-2.068-1.139c-0.901,0-1.589,0.379-2.065,1.139
		c-0.476,0.76-0.714,1.783-0.714,3.069c0,1.29,0.238,2.316,0.714,3.075C62.593,91.508,63.281,91.888,64.181,91.888z M62.936,85.107
		c0.333-0.565,0.748-0.848,1.246-0.848c0.499,0,0.914,0.283,1.246,0.848c0.332,0.565,0.499,1.423,0.499,2.57
		s-0.166,2.005-0.499,2.57c-0.333,0.565-0.748,0.848-1.246,0.848c-0.499,0-0.913-0.283-1.246-0.848
		c-0.333-0.565-0.499-1.423-0.499-2.57C62.437,86.528,62.603,85.672,62.936,85.107z"/>
	<polygon fill="#FFFFFF" points="68.926,86.441 68.905,85.617 69.288,86.452 72.016,91.647 72.968,91.647 72.968,83.705 
		72.016,83.705 72.016,88.991 72.042,89.78 72.016,89.78 71.709,88.991 68.905,83.705 67.973,83.705 67.973,91.647 68.926,91.647 	
		"/>
	<path fill="#FFFFFF" d="M78.208,91.164c0.409-0.323,0.726-0.782,0.95-1.382c0.223-0.598,0.336-1.294,0.336-2.086
		c0-0.836-0.106-1.559-0.318-2.17c-0.211-0.61-0.528-1.067-0.949-1.369c-0.421-0.302-1.065-0.453-1.931-0.453h-1.883v7.942h1.883
		C77.161,91.647,77.799,91.486,78.208,91.164z M75.445,90.772v-6.274h0.771c0.637,0,1.095,0.11,1.374,0.331
		c0.279,0.22,0.494,0.536,0.644,0.945c0.15,0.409,0.225,0.996,0.225,1.757c0,0.778-0.064,1.389-0.191,1.831
		c-0.127,0.442-0.34,0.787-0.639,1.037c-0.298,0.249-0.796,0.373-1.494,0.373H75.445z"/>
	<path fill="#FFFFFF" d="M83.049,91.888c0.904,0,1.593-0.38,2.068-1.139c0.474-0.76,0.712-1.784,0.712-3.075
		c0-1.287-0.237-2.311-0.712-3.069c-0.474-0.76-1.164-1.139-2.068-1.139c-0.901,0-1.589,0.379-2.065,1.139
		c-0.476,0.76-0.714,1.783-0.714,3.069c0,1.29,0.238,2.316,0.714,3.075C81.461,91.508,82.148,91.888,83.049,91.888z M81.803,85.107
		c0.333-0.565,0.748-0.848,1.246-0.848c0.498,0,0.913,0.283,1.246,0.848c0.332,0.565,0.499,1.423,0.499,2.57
		s-0.166,2.005-0.499,2.57c-0.333,0.565-0.748,0.848-1.246,0.848c-0.498,0-0.914-0.283-1.246-0.848s-0.499-1.423-0.499-2.57
		C81.304,86.528,81.47,85.672,81.803,85.107z"/>
	<path fill="#FFFFFF" d="M113.166,90.769h-0.001h-3.833c0.021-0.407,0.126-0.759,0.318-1.053s0.443-0.599,0.755-0.915l0.493-0.483
		l0.585-0.58c0.602-0.592,1.012-1.077,1.231-1.454c0.218-0.376,0.328-0.745,0.328-1.105c0-0.322-0.085-0.625-0.254-0.91
		s-0.428-0.494-0.776-0.629c-0.347-0.135-0.729-0.203-1.143-0.203c-0.281,0-0.638,0.039-1.071,0.115s-0.866,0.218-1.297,0.424v0.848
		c0.407-0.185,0.701-0.308,0.882-0.367c0.181-0.06,0.392-0.112,0.633-0.156c0.241-0.045,0.459-0.067,0.654-0.067
		c0.342,0,0.65,0.094,0.924,0.28c0.274,0.187,0.41,0.451,0.41,0.793c0,0.212-0.059,0.428-0.177,0.647
		c-0.118,0.219-0.361,0.535-0.731,0.946c-0.369,0.411-0.608,0.673-0.718,0.786l-0.544,0.555c-0.291,0.298-0.566,0.608-0.826,0.93
		c-0.261,0.323-0.437,0.612-0.53,0.871c-0.093,0.259-0.138,0.501-0.138,0.727v0.879h4.825V90.769z"/>
	<path fill="#FFFFFF" d="M117.044,91.889c0.908,0,1.6-0.381,2.076-1.143c0.476-0.763,0.714-1.791,0.714-3.085
		c0-1.291-0.238-2.319-0.714-3.08c-0.476-0.763-1.168-1.143-2.076-1.143c-0.904,0-1.596,0.381-2.074,1.143
		c-0.478,0.763-0.717,1.789-0.717,3.08c0,1.295,0.239,2.324,0.717,3.085C115.448,91.508,116.139,91.889,117.044,91.889z
		 M118.796,87.577c0,0.887-0.137,1.694-0.41,2.423c-0.274,0.728-0.736,1.092-1.385,1.092c-0.236,0-0.45-0.063-0.641-0.187
		c-0.191-0.125-0.36-0.313-0.508-0.562l2.735-4.347C118.726,86.502,118.796,87.03,118.796,87.577z M115.738,85.186
		c0.298-0.635,0.732-0.953,1.303-0.953c0.219,0,0.43,0.056,0.633,0.167c0.203,0.112,0.392,0.327,0.566,0.644l-2.755,4.321
		c-0.102-0.438-0.16-0.785-0.174-1.042s-0.021-0.497-0.021-0.719C115.292,86.627,115.44,85.821,115.738,85.186z"/>
	<path fill="#FFFFFF" d="M125.996,90.851h-0.001h-1.916v-7.178h-0.956c-0.552,0.507-1.203,0.92-1.952,1.238v0.863
		c0.473-0.167,0.844-0.331,1.115-0.491c0.271-0.16,0.55-0.354,0.837-0.583v6.15h-1.952v0.796h4.825V90.851z"/>
	<path fill="#FFFFFF" d="M129.823,91.889c0.791,0,1.43-0.28,1.914-0.84c0.485-0.56,0.727-1.219,0.727-1.976
		c0-0.48-0.098-0.9-0.293-1.261s-0.479-0.643-0.85-0.845c-0.371-0.202-0.765-0.304-1.18-0.304c-0.438,0-0.84,0.115-1.205,0.346
		c-0.365,0.231-0.671,0.531-0.917,0.897v-0.205c0-1.003,0.195-1.833,0.585-2.487s0.942-0.982,1.655-0.982
		c0.504,0,1.039,0.135,1.609,0.406v-0.966c-0.507-0.157-1.029-0.236-1.567-0.236c-1,0-1.793,0.386-2.379,1.159
		c-0.585,0.773-0.879,1.823-0.879,3.153c0,1.203,0.23,2.193,0.691,2.973C128.195,91.499,128.891,91.889,129.823,91.889z
		 M128.865,88.002c0.31-0.361,0.707-0.543,1.19-0.543c0.466,0,0.824,0.156,1.076,0.468c0.252,0.312,0.377,0.711,0.377,1.198
		c0,0.373-0.075,0.719-0.223,1.035c-0.149,0.317-0.353,0.552-0.614,0.704c-0.26,0.152-0.519,0.229-0.776,0.229
		c-0.39,0-0.738-0.165-1.04-0.496c-0.304-0.331-0.455-0.757-0.455-1.277C128.399,88.803,128.554,88.363,128.865,88.002z"/>
	<circle fill="#FFFFFF" cx="100.187" cy="88.351" r="1.794"/>
</g>
</svg>
