<?xml version="1.0" encoding="utf-8"?>
<!-- Generator: Adobe Illustrator 17.0.0, SVG Export Plug-In . SVG Version: 6.00 Build 0)  -->
<!DOCTYPE svg PUBLIC "-//W3C//DTD SVG 1.1//EN" "http://www.w3.org/Graphics/SVG/1.1/DTD/svg11.dtd">
<svg version="1.1" id="Layer_1" xmlns="http://www.w3.org/2000/svg" xmlns:xlink="http://www.w3.org/1999/xlink" x="0px" y="0px"
	 width="200px" height="200px" viewBox="0 0 200 200" enable-background="new 0 0 200 200" xml:space="preserve">
<title>NodeSchool London</title>
<desc>Created with Sketch.</desc>
<path fill="#4CAF50" d="M12.683,52.394c0-1.544,1.094-3.438,2.431-4.21L97.569,0.579c1.337-0.772,3.524-0.772,4.861,0l82.455,47.606
	c1.337,0.772,2.431,2.666,2.431,4.21v95.211c0,1.544-1.094,3.438-2.431,4.21l-82.455,47.606c-1.337,0.772-3.524,0.772-4.861,0
	l-82.455-47.606c-1.337-0.772-2.431-2.666-2.431-4.21V52.394z"/>
<g>
	<g id="node">
		<path fill="#FFFFFF" d="M68.456,70.723c0-0.405-0.261-0.84-0.579-0.984l-9.439-5.473c-0.174-0.087-0.347-0.174-0.492-0.174h-0.087
			c-0.174,0-0.347,0.087-0.492,0.174L47.84,69.71c-0.347,0.174-0.579,0.579-0.579,0.984v14.622c0,0.174,0.087,0.405,0.261,0.492
			c0.174,0.087,0.405,0.087,0.579,0l5.617-3.214c0.347-0.261,0.579-0.579,0.579-0.984v-6.862c0-0.405,0.261-0.753,0.579-0.984
			l2.403-1.419c0.174-0.087,0.405-0.174,0.579-0.174s0.405,0.087,0.579,0.174l2.403,1.419c0.347,0.174,0.579,0.579,0.579,0.984
			v6.862c0,0.405,0.261,0.753,0.579,0.984l5.617,3.214c0.174,0.087,0.405,0.087,0.579,0c0.174-0.087,0.261-0.261,0.261-0.492V70.723
			z"/>
		<path fill="#FFFFFF" d="M118.81,50.628c-0.174-0.087-0.405-0.087-0.579,0c-0.174,0.087-0.261,0.261-0.261,0.492v14.478
			c0,0.174-0.087,0.261-0.174,0.347c-0.087,0.087-0.261,0.087-0.405,0l-2.403-1.332c-0.347-0.174-0.84-0.174-1.158,0l-9.41,5.444
			c-0.347,0.174-0.579,0.579-0.579,0.984v10.945c0,0.405,0.261,0.753,0.579,0.984l9.41,5.444c0.347,0.174,0.84,0.174,1.158,0
			l9.41-5.444c0.347-0.174,0.579-0.579,0.579-0.984V54.769c0-0.405-0.261-0.84-0.579-0.984L118.81,50.628z M117.883,78.339
			c0,0.087-0.087,0.174-0.174,0.261l-3.214,1.911c-0.087,0.087-0.174,0.087-0.261,0l-3.214-1.911
			c-0.087-0.087-0.174-0.174-0.174-0.261v-3.735c0-0.087,0.087-0.174,0.174-0.261l3.214-1.911c0.087-0.087,0.174-0.087,0.261,0
			l3.214,1.911c0.087,0.087,0.174,0.174,0.174,0.261V78.339z"/>
		<path fill="#FFFFFF" d="M152.543,74.459c0.347-0.174,0.579-0.579,0.579-0.984v-2.635c0-0.405-0.261-0.753-0.579-0.984
			l-9.353-5.386c-0.347-0.174-0.84-0.174-1.158,0l-9.41,5.444c-0.347,0.174-0.579,0.579-0.579,0.984v10.916
			c0,0.405,0.261,0.84,0.579,0.984l9.353,5.386c0.347,0.174,0.753,0.174,1.158,0l5.704-3.127c0.174-0.087,0.347-0.261,0.347-0.492
			c0-0.174-0.087-0.405-0.261-0.492l-9.526-5.473c-0.174-0.087-0.261-0.347-0.261-0.492V74.69c0-0.174,0.087-0.405,0.261-0.492
			l2.982-1.737c0.174-0.087,0.405-0.087,0.579,0l2.982,1.737c0.174,0.087,0.261,0.347,0.261,0.492v2.635
			c0,0.174,0.087,0.405,0.261,0.492c0.174,0.087,0.405,0.087,0.579,0L152.543,74.459z"/>
		<path fill="#FFFFFF" d="M85.569,64.353c0.347-0.174,0.84-0.174,1.158,0l9.439,5.444c0.347,0.174,0.579,0.579,0.579,0.984v10.916
			c0,0.405-0.261,0.753-0.579,0.984l-9.41,5.444c-0.347,0.174-0.84,0.174-1.158,0l-9.439-5.444
			c-0.347-0.174-0.579-0.579-0.579-0.984V70.781c0-0.405,0.261-0.753,0.579-0.984L85.569,64.353z"/>
		<path fill="#FFFFFF" d="M142.437,73.966c0.087,0,0.174,0,0.261,0l1.824,1.071c0.087,0,0.087,0.087,0.087,0.174v2.056
			c0,0.087-0.087,0.174-0.087,0.174l-1.824,1.071c-0.087,0-0.174,0-0.261,0l-1.824-1.071c-0.087,0-0.087-0.087-0.087-0.174v-2.056
			c0-0.087,0.087-0.174,0.087-0.174L142.437,73.966z"/>
	</g>
	<g id="girls">
		<path fill="#FFFFFF" d="M67.819,97.34c0.116-0.058,0.261-0.058,0.376,0l3.127,1.795c0.116,0.058,0.203,0.203,0.203,0.319v3.619
			c0,0.145-0.087,0.261-0.203,0.319l-3.098,1.824c-0.116,0.058-0.261,0.058-0.376,0l-3.127-1.795
			c-0.116-0.058-0.203-0.203-0.203-0.319v-3.619c0-0.145,0.087-0.261,0.203-0.319L67.819,97.34z"/>
		<g>
			<path d="M57.891,113.045l-9.431-5.455c-0.592-0.325-1.396-0.36-2.129,0.012l-9.496,5.5c-0.628,0.456-0.987,1.106-0.987,1.785
				v10.917c0,0.826,0.488,1.607,1.073,1.841l9.432,5.455c0.593,0.327,1.415,0.346,2.112-0.002l0.821-0.456l-0.029,6.003l-0.001,0.08
				l-2.288,1.321c-0.035-0.004-0.148-0.04-0.12-0.017c-0.209-0.119-0.543-0.31-0.907-0.521c-0.729-0.422-1.591-0.93-1.897-1.14
				c-0.219-0.136-0.514-0.283-0.869-0.315c-0.044-0.004-0.086-0.013-0.132-0.013c0,0,0,0,0,0s0,0,0,0
				c-0.012,0-0.021,0.003-0.033,0.003c-0.413,0.009-0.73,0.183-1.016,0.345l-4.896,2.531l-1.632,0.844v0.603
				c0,0.619,0.461,1.214,1.409,1.793l9.032,4.993c0.307,0.184,0.653,0.286,0.973,0.286h0h0.087h0c0.318,0,0.587-0.114,0.765-0.188
				l0.07-0.039c0.038-0.017,0.07-0.026,0.11-0.044l3.412-1.905c0.314,0.041,0.636-0.013,0.967-0.18l5.578-3.123
				c0.656-0.356,1.096-1.102,1.096-1.855v-27.217C58.964,114.061,58.476,113.279,57.891,113.045z M47.361,123.339l-2.527-1.487
				v-2.91l2.529-1.505l2.527,1.487v2.91L47.361,123.339z"/>
			<path d="M79.528,121.902c-0.335-0.265-1.037-0.868-2.241-0.172c-0.886,0.509-1.722,0.996-2.569,1.518l-2.376-1.39v-3.027
				c0.022-2.713-0.002-3.562-0.029-3.875v-0.764c0-0.644-0.04-0.803-0.048-0.832c-0.118-0.59-0.705-1.058-1.009-1.1
				c-0.177-0.072-0.354-0.108-0.523-0.108l-0.276,0.008c-0.846-0.002-1.687-0.008-2.529-0.013c-0.922-0.008-1.844-0.016-2.773-0.016
				l-0.298,0.043c-0.879,0.211-1.272,0.772-1.272,1.816v11.756c0,0.803,0.454,1.549,1.043,1.812l9.12,5.285
				c0.284,0.13,0.617,0.197,0.961,0.197c0.343,0,0.676-0.068,1.044-0.24l7.53-4.343c0.586-0.427,0.87-0.963,0.87-1.64v-0.381
				l-0.255-0.282C82.413,124.504,81.07,123.198,79.528,121.902z"/>
			<path d="M108.374,112.829c-0.576-0.402-1.468-1.035-2.736-1.955l-0.329-0.159h-0.265c-0.472,0-0.808,0.22-1.706,0.812
				l-2.166,1.317c-0.555-0.367-2.399-1.584-2.954-1.853c-0.413-0.178-1.072-0.437-2.039,0.035l-5.16,3.085l-0.36,0.164
				c-0.676,0.307-1.129,1.019-1.129,1.769v12.769l0.017,0.582c-0.031,1.404-0.033,1.847-0.011,2.025
				c0.12,1.013,1.19,1.829,2.171,1.829h4.812l0.118-0.029c0.223-0.056,0.694-0.23,1.016-0.507c0.378-0.304,0.632-0.847,0.632-1.35
				l0.024-10.073l1.66,1.017c0.36,0.217,1.051,0.545,2.031,0.046l8.389-4.633c0.553-0.348,0.907-0.98,0.944-1.686
				c0.031-0.629-0.197-1.184-0.65-1.537C109.544,113.649,108.753,113.092,108.374,112.829z"/>
			<path d="M136.297,124.513c-0.275-0.182-1.447-0.859-2.707-1.588l-2.205-1.278l-0.323-0.12c-0.275-0.054-0.77-0.093-1.156,0.035
				c-0.311,0.104-0.625,0.242-1.021,0.458l-2.239,1.321c-0.056-0.012-0.118-0.033-0.22-0.07l-2.195-1.218V99.308
				c0-0.723-0.468-1.606-1.499-1.835l-0.106-0.023l-4.572,0.002v-0.003h-0.982l0,0.004h-0.104c-0.895,0.07-1.52,0.679-1.52,1.479
				c0,0.233,0.021,5.662,0.039,9.807l0.019,17.122c0,0.468,0.193,0.88,0.578,1.182c0.182,0.23,0.393,0.402,0.582,0.485l8.818,5.088
				c0.178,0.106,0.54,0.286,0.971,0.286h0.087c0.319,0,0.588-0.114,0.766-0.19l7.192-4.009l1.758-1.075
				c0.462-0.319,0.727-0.942,0.714-1.663C136.958,125.298,136.712,124.78,136.297,124.513z"/>
			<path d="M164.425,125.908c-0.325-0.768-1.611-2.247-6.086-5.997c0.207-0.048,0.348-0.126,0.416-0.162
				c0.613-0.34,1.021-0.594,1.46-0.862c0.311-0.195,0.64-0.398,1.209-0.735c0.238-0.155,0.238-0.155,1.601-0.955l0.795-0.47
				c0.395-0.199,0.64-0.621,0.673-1.156c0.043-0.683-0.277-1.338-0.878-1.739l-9.406-5.533c-0.195-0.099-0.493-0.25-0.971-0.25
				c-0.391,0-0.685,0.149-0.988,0.306l-9.387,5.459c-0.373,0.203-0.677,0.545-0.864,0.955l-0.199,0.528l-0.07,0.128l0.044,0.745
				l0.041,0.031c0.101,0.454,0.354,0.861,0.716,1.124l6.513,4.993c-0.451,0.01-0.795,0.137-0.959,0.209
				c-0.05,0.027-5.552,2.974-5.852,3.162l-0.466,0.29v0.549c0,0.131,0.023,0.594,0.28,0.998c0.176,0.346,0.46,0.621,0.822,0.801
				l9.283,4.987c0.309,0.186,0.656,0.284,1,0.284h0.087c0.282,0,0.518-0.087,0.69-0.153l9.449-5.09
				c0.356-0.162,0.658-0.441,0.863-0.777l0.06,0.01l0.039-0.193c0.126-0.261,0.197-0.549,0.197-0.837v-0.588L164.425,125.908z"/>
		</g>
	</g>
</g>
</svg>
