<?xml version="1.0" encoding="utf-8"?>
<!-- Generator: Adobe Illustrator 17.0.0, SVG Export Plug-In . SVG Version: 6.00 Build 0)  -->
<!DOCTYPE svg PUBLIC "-//W3C//DTD SVG 1.1//EN" "http://www.w3.org/Graphics/SVG/1.1/DTD/svg11.dtd">
<svg version="1.1" id="Layer_1" xmlns="http://www.w3.org/2000/svg" xmlns:xlink="http://www.w3.org/1999/xlink" x="0px" y="0px"
	 width="200px" height="200px" viewBox="0 0 200 200" enable-background="new 0 0 200 200" xml:space="preserve">
<g>
	<g>
		<rect x="18.362" y="0" fill="#F7DF1F" width="163.276" height="163.276"/>
		<g>
			<path d="M146.273,144.828h-30.476c-1.303,0-2.359,1.078-2.359,2.408c0,1.33,1.056,2.408,2.359,2.408h30.476
				c1.304,0,2.359-1.078,2.359-2.408C148.633,145.905,147.577,144.828,146.273,144.828z"/>
			<path d="M153.55,137.785h-45.435c-1.303,0-2.359,1.079-2.359,2.408c0,1.331,1.056,2.408,2.359,2.408h45.435
				c1.304,0,2.359-1.078,2.359-2.408C155.908,138.862,154.853,137.785,153.55,137.785z"/>
			<path d="M129.404,82.145v8.344c0,1.429,0.896,2.588,2.295,2.588c1.401,0,2.295-1.158,2.295-2.588v-8.205
				c1.53-0.86,2.457-2.412,2.457-4.19c0-2.709-2.082-4.903-4.735-4.903c-2.652,0-4.606,2.195-4.606,4.903
				C127.11,79.778,127.875,81.262,129.404,82.145z"/>
			<path d="M158.016,96.139H104.21c-5.52,0-9.994,4.736-9.994,10.37v28.643h73.434v-28.643
				C167.651,100.874,163.537,96.139,158.016,96.139z M114.575,119.412c-3.633,0-6.577-3.006-6.577-6.712
				c0-3.706,2.944-6.712,6.577-6.712c3.632,0,6.577,3.006,6.577,6.712C121.152,116.406,118.207,119.412,114.575,119.412z
				 M148.211,119.412c-3.633,0-6.577-3.006-6.577-6.712c0-3.706,2.944-6.712,6.577-6.712s6.577,3.006,6.577,6.712
				C154.787,116.407,151.843,119.412,148.211,119.412z"/>
		</g>
	</g>
	<g>
		<path d="M18.362,199.61v-25.613h2.71l14.666,20.476v-20.476h3.135v25.613h-3.171l-14.206-19.555v19.555H18.362z"/>
		<path d="M59.021,198.397c-1.258,1.068-3.227,1.603-5.907,1.603c-2.681,0-4.644-0.531-5.89-1.594
			c-1.246-1.063-1.869-2.521-1.869-4.375v-7.563c0-1.854,0.623-3.315,1.869-4.384c1.246-1.068,3.209-1.603,5.89-1.603
			c2.68,0,4.649,0.537,5.907,1.612c1.258,1.074,1.887,2.532,1.887,4.375v7.563C60.908,195.873,60.279,197.328,59.021,198.397z
			 M53.132,197.449c2.964,0,4.446-1.045,4.446-3.135v-8.13c0-2.102-1.482-3.154-4.446-3.154s-4.446,1.051-4.446,3.154v8.13
			C48.686,196.404,50.168,197.449,53.132,197.449z"/>
		<path d="M73.998,180.481c1.512,0,2.899,0.236,4.163,0.708v-8.254h3.33v26.675h-2.267l-0.549-1.24
			c-0.579,0.449-1.34,0.832-2.285,1.152c-0.945,0.319-1.878,0.478-2.799,0.478c-2.563,0-4.443-0.57-5.642-1.71
			c-1.199-1.139-1.798-2.677-1.798-4.614v-7.086c0-1.948,0.643-3.454,1.931-4.516C69.368,181.012,71.341,180.481,73.998,180.481z
			 M70.677,196.492c0.797,0.591,1.733,0.886,2.808,0.886c1.913,0,3.472-0.372,4.676-1.116V183.81c-1.075-0.519-2.38-0.78-3.914-0.78
			c-3.177,0-4.765,1.063-4.765,3.188v7.705C69.481,195.047,69.879,195.902,70.677,196.492z"/>
		<path d="M95.218,200c-2.752,0-4.742-0.573-5.97-1.718s-1.842-2.91-1.842-5.296v-6.536c0-1.854,0.632-3.313,1.895-4.375
			c1.263-1.063,3.174-1.594,5.73-1.594c2.556,0,4.457,0.493,5.703,1.479c1.246,0.986,1.869,2.394,1.869,4.225v4.463H90.737v2.639
			c0,1.558,0.312,2.642,0.938,3.25c0.626,0.608,1.754,0.912,3.383,0.912c1.63,0,2.55-0.035,2.763-0.106
			c0.212-0.071,0.431-0.153,0.655-0.248c0.224-0.095,0.381-0.207,0.469-0.336c0.089-0.131,0.207-0.328,0.354-0.594
			c0.148-0.266,0.257-0.782,0.328-1.55h2.94c-0.118,1.122-0.316,2.026-0.593,2.71c-0.278,0.686-0.715,1.231-1.311,1.639
			c-0.596,0.408-1.311,0.682-2.143,0.823C97.689,199.929,96.587,200,95.218,200z M90.737,188.398h8.643v-2.568
			c0-1.063-0.363-1.795-1.089-2.197c-0.726-0.401-1.792-0.603-3.197-0.603c-1.405,0-2.483,0.242-3.233,0.727
			c-0.75,0.484-1.124,1.281-1.124,2.391V188.398z"/>
		<path d="M109.158,199.61v-25.613h9.282c3.968,0,6.483,0.88,7.545,2.639c0.638,1.051,0.957,2.515,0.957,4.393
			c-0.059,2.539-1.134,4.168-3.224,4.889c1.464,0.33,2.574,1.062,3.33,2.196c0.756,1.134,1.134,2.539,1.134,4.216
			c0,2.539-0.714,4.387-2.143,5.544c-1.429,1.157-3.702,1.735-6.819,1.735H109.158z M112.736,184.855h6.571
			c1.523,0,2.583-0.319,3.179-0.957c0.596-0.638,0.895-1.506,0.895-2.604s-0.08-1.924-0.239-2.479
			c-0.16-0.555-0.46-0.998-0.904-1.329c-0.443-0.331-0.992-0.549-1.647-0.655c-0.655-0.106-1.556-0.159-2.702-0.159h-5.154V184.855z
			 M112.736,196.971h6.217c2.007,0,3.462-0.325,4.366-0.974c0.904-0.649,1.355-2.002,1.355-4.057c0-3.105-1.618-4.658-4.853-4.658
			h-7.085V196.971z"/>
		<path d="M146.735,198.397c-1.258,1.068-3.227,1.603-5.907,1.603c-2.681,0-4.644-0.531-5.89-1.594
			c-1.246-1.063-1.869-2.521-1.869-4.375v-7.563c0-1.854,0.623-3.315,1.869-4.384c1.245-1.068,3.209-1.603,5.89-1.603
			c2.68,0,4.649,0.537,5.907,1.612c1.258,1.074,1.887,2.532,1.887,4.375v7.563C148.622,195.873,147.993,197.328,146.735,198.397z
			 M140.845,197.449c2.964,0,4.446-1.045,4.446-3.135v-8.13c0-2.102-1.482-3.154-4.446-3.154s-4.446,1.051-4.446,3.154v8.13
			C136.4,196.404,137.881,197.449,140.845,197.449z"/>
		<path d="M163.217,199.751c-2.622,0-4.514-0.413-5.677-1.239c-1.163-0.827-1.744-2.25-1.744-4.269V183.35h-3.135v-2.515h3.259
			l0.407-5.81h2.799v5.81h4.712v2.515h-4.712v10.681c0,1.181,0.339,1.963,1.018,2.347s1.863,0.575,3.551,0.575h0.372l-0.354,2.799
			H163.217z"/>
		<path d="M175.031,197.449c2.515,0,3.773-0.939,3.773-2.816c0-0.815-0.112-1.42-0.336-1.815c-0.224-0.396-0.75-0.747-1.577-1.054
			l-4.463-1.647c-1.37-0.485-2.323-1.06-2.861-1.727c-0.537-0.667-0.806-1.502-0.806-2.506c0-1.003,0.101-1.81,0.301-2.418
			s0.532-1.143,0.992-1.603c0.921-0.921,2.574-1.381,4.96-1.381c2.385,0,4.44,0.342,6.164,1.027l-0.762,2.55
			c-0.602-0.248-1.393-0.48-2.373-0.699c-0.98-0.218-1.837-0.328-2.568-0.328c-1.689,0-2.757,0.272-3.206,0.815
			c-0.272,0.342-0.407,0.844-0.407,1.506c0,0.661,0.109,1.13,0.328,1.408c0.219,0.277,0.646,0.528,1.284,0.753l4.41,1.735
			c1.535,0.602,2.545,1.266,3.029,1.993c0.484,0.726,0.726,1.869,0.726,3.427c0,1.558-0.502,2.837-1.506,3.835
			S177.576,200,175.474,200c-1.535,0-2.899-0.165-4.092-0.496c-1.193-0.33-2.108-0.673-2.745-1.027l0.815-2.445
			C171.14,196.977,173,197.449,175.031,197.449z"/>
	</g>
</g>
</svg>
