<?xml version="1.0" encoding="utf-8"?>
<!-- Generator: Adobe Illustrator 19.2.1, SVG Export Plug-In . SVG Version: 6.00 Build 0)  -->
<svg version="1.1" id="Layer_1" xmlns="http://www.w3.org/2000/svg" xmlns:xlink="http://www.w3.org/1999/xlink" x="0px" y="0px"
	 viewBox="0 0 1059.7 150.8" style="enable-background:new 0 0 1059.7 150.8;" xml:space="preserve">
<style type="text/css">
	.st0{fill:#FFFFFF;}
</style>
<g>
	<polygon class="st0" points="1055,65.9 1055,93.8 997.8,93.8 997.8,147.3 967.5,147.3 967.5,10 1059.7,10 1059.7,37.9 997.8,37.9 
		997.8,65.9 	"/>
	<polygon class="st0" points="940.6,10 940.6,147.3 901,147.3 841.1,49.6 840.7,49.6 840.7,147.3 810.5,147.3 810.5,10 851.6,10 
		910,105.4 910.3,105.4 910.3,10 	"/>
	<path class="st0" d="M787.5,78.7c0,25.6-16.9,44.2-42.7,44.2c-25.8,0-42.7-18.6-42.7-44.2c0-25.6,16.9-44.2,42.7-44.2
		C770.7,34.4,787.5,53.1,787.5,78.7z"/>
	<path class="st0" d="M642.7,122.9c12.2,0,22.1-5.4,28.3-14.7l25.2,18.8c-11.4,16.3-30.8,23.9-49.7,23.9
		c-42.9,0-74.1-28.1-74.1-72.2c0-44,31.2-72.2,74.1-72.2c15.3,0,34.7,5.2,46.4,20.2l-23.3,19c-6-7.2-14.8-11.3-26-11.3
		c-22.9,0-39.8,18.6-39.8,44.2C603.9,104.3,620.8,122.9,642.7,122.9z"/>
	<polygon class="st0" points="552.6,63.5 552.6,91.5 493,91.5 493,119.4 559.5,119.4 559.5,147.3 462.7,147.3 462.7,10 556.1,10 
		556.1,37.9 493,37.9 493,63.5 	"/>
	<path class="st0" d="M443.4,79.1c0,44.4-36.3,68.3-77.2,68.3h-49.5V10h45.4C406.4,10,443.4,28.8,443.4,79.1z"/>
	<path class="st0" d="M297.6,78.7c0,44-31.2,72.2-74.1,72.2s-74.1-28.1-74.1-72.2c0-44,31.2-72.2,74.1-72.2
		C266.3,6.5,297.6,34.6,297.6,78.7z"/>
	<polygon class="st0" points="130.2,10 130.2,147.3 90.6,147.3 30.6,49.6 30.3,49.6 30.3,147.3 0,147.3 0,10 41.1,10 99.5,105.4 
		99.9,105.4 99.9,10 	"/>
</g>
</svg>
