<?xml version="1.0" encoding="utf-8"?>
<!-- Generator: Adobe Illustrator 17.0.0, SVG Export Plug-In . SVG Version: 6.00 Build 0)  -->
<!DOCTYPE svg PUBLIC "-//W3C//DTD SVG 1.1//EN" "http://www.w3.org/Graphics/SVG/1.1/DTD/svg11.dtd">
<svg version="1.1" id="Layer_1" xmlns="http://www.w3.org/2000/svg" xmlns:xlink="http://www.w3.org/1999/xlink" x="0px" y="0px"
	 width="1059.65px" height="150.83px" viewBox="0 0 1059.65 150.83" enable-background="new 0 0 1059.65 150.83"
	 xml:space="preserve">
<g>
	<polygon fill="#FFFFFF" points="1054.992,65.866 1054.992,93.797 997.77,93.797 997.77,147.338 967.511,147.338 967.511,10 
		1059.65,10 1059.65,37.935 997.77,37.935 997.77,65.866 	"/>
	<polygon fill="#FFFFFF" points="940.606,10 940.606,147.338 901.035,147.338 841.098,49.575 840.712,49.575 840.712,147.338 
		810.45,147.338 810.45,10 851.573,10 909.962,105.437 910.346,105.437 910.346,10 	"/>
	<path fill="#FFFFFF" d="M787.534,78.668c0,25.606-16.877,44.228-42.676,44.228c-25.796,0-42.677-18.622-42.677-44.228
		c0-25.602,16.88-44.228,42.677-44.228C770.657,34.44,787.534,53.066,787.534,78.668z"/>
	<path fill="#FFFFFF" d="M642.678,122.896c12.222,0,22.118-5.434,28.326-14.741l25.212,18.816
		c-11.443,16.291-30.842,23.86-49.656,23.86c-42.87,0-74.098-28.127-74.098-72.162c0-44.03,31.228-72.157,74.098-72.157
		c15.325,0,34.724,5.238,46.361,20.17L669.65,45.694c-6.02-7.179-14.751-11.254-25.999-11.254
		c-22.891,0-39.766,18.625-39.766,44.228C603.886,104.274,620.76,122.896,642.678,122.896z"/>
	<polygon fill="#FFFFFF" points="552.562,63.54 552.562,91.471 493.007,91.471 493.007,119.405 559.544,119.405 559.544,147.338 
		462.748,147.338 462.748,10 556.053,0 556.053,37.935 493.007,37.935 493.007,63.54 	"/>
	<path fill="#FFFFFF" d="M443.43,79.058c0,44.418-36.276,68.28-77.204,68.28H316.76V10h45.39
		C406.378,10,443.43,28.818,443.43,79.058z"/>
	<path fill="#FFFFFF" d="M297.557,78.668c0,44.036-31.228,72.162-74.098,72.162c-42.87,0-74.099-28.127-74.099-72.162
		c0-44.03,31.229-72.157,74.099-72.157C266.329,6.511,297.557,34.638,297.557,78.668z"/>
	<polygon fill="#FFFFFF" points="130.158,10 130.158,147.338 90.588,147.338 30.648,49.575 30.26,49.575 30.26,147.338 0,147.338 
		0,10 41.122,10 99.511,105.437 99.898,105.437 99.898,10 	"/>
</g>
</svg>
