<?xml version="1.0" encoding="utf-8"?>
<!-- Generator: Adobe Illustrator 17.0.0, SVG Export Plug-In . SVG Version: 6.00 Build 0)  -->
<!DOCTYPE svg PUBLIC "-//W3C//DTD SVG 1.1//EN" "http://www.w3.org/Graphics/SVG/1.1/DTD/svg11.dtd">
<svg version="1.1" id="Layer_1" xmlns="http://www.w3.org/2000/svg" xmlns:xlink="http://www.w3.org/1999/xlink" x="0px" y="0px"
	 width="200px" height="200px" viewBox="0 0 200 200" enable-background="new 0 0 200 200" xml:space="preserve">
<g>
	<path fill="#FFFFFF" d="M100,149.992c-5.961,0-10.811,4.851-10.811,10.812s4.85,10.811,10.811,10.811s10.812-4.85,10.812-10.811
		S105.961,149.992,100,149.992z M100,170.714c-5.465,0-9.911-4.445-9.911-9.91s4.446-9.911,9.911-9.911s9.911,4.446,9.911,9.911
		S105.465,170.714,100,170.714z"/>
	<path fill="#FFFFFF" d="M100.418,153.037c-0.734,0-1.332,0.598-1.332,1.332v5.71h-2.733c-0.734,0-1.332,0.598-1.332,1.332
		s0.598,1.332,1.332,1.332h4.065c0.735,0,1.333-0.598,1.333-1.332v-7.042C101.751,153.635,101.153,153.037,100.418,153.037z
		 M100.851,161.411c0,0.238-0.194,0.432-0.432,0.432h-4.065c-0.238,0-0.431-0.193-0.431-0.432s0.193-0.432,0.431-0.432h3.184
		c0.249,0,0.45-0.202,0.45-0.45v-6.16c0-0.238,0.193-0.432,0.432-0.432s0.432,0.193,0.432,0.432V161.411z"/>
	<path fill="#FFFFFF" d="M50.088,122.094h2.366c0.249,0,0.45-0.202,0.45-0.45v-4.235c0-0.248-0.202-0.45-0.45-0.45h-2.366
		c-0.249,0-0.45,0.202-0.45,0.45v4.235C49.638,121.892,49.839,122.094,50.088,122.094z M50.538,117.858h1.466v3.335h-1.466V117.858z
		"/>
	<path fill="#FFFFFF" d="M54.586,122.094h2.366c0.249,0,0.45-0.202,0.45-0.45v-4.235c0-0.248-0.202-0.45-0.45-0.45h-2.366
		c-0.249,0-0.45,0.202-0.45,0.45v4.235C54.136,121.892,54.337,122.094,54.586,122.094z M55.036,117.858h1.466v3.335h-1.466V117.858z
		"/>
	<path fill="#FFFFFF" d="M59.084,122.094h2.366c0.249,0,0.45-0.202,0.45-0.45v-4.235c0-0.248-0.202-0.45-0.45-0.45h-2.366
		c-0.249,0-0.45,0.202-0.45,0.45v4.235C58.634,121.892,58.835,122.094,59.084,122.094z M59.534,117.858H61v3.335h-1.466V117.858z"/>
	<path fill="#FFFFFF" d="M50.088,133.681h2.366c0.249,0,0.45-0.202,0.45-0.45v-4.235c0-0.248-0.202-0.45-0.45-0.45h-2.366
		c-0.249,0-0.45,0.202-0.45,0.45v4.235C49.638,133.479,49.839,133.681,50.088,133.681z M50.538,129.445h1.466v3.335h-1.466V129.445z
		"/>
	<path fill="#FFFFFF" d="M54.586,133.681h2.366c0.249,0,0.45-0.202,0.45-0.45v-4.235c0-0.248-0.202-0.45-0.45-0.45h-2.366
		c-0.249,0-0.45,0.202-0.45,0.45v4.235C54.136,133.479,54.337,133.681,54.586,133.681z M55.036,129.445h1.466v3.335h-1.466V129.445z
		"/>
	<path fill="#FFFFFF" d="M59.084,133.681h2.366c0.249,0,0.45-0.202,0.45-0.45v-4.235c0-0.248-0.202-0.45-0.45-0.45h-2.366
		c-0.249,0-0.45,0.202-0.45,0.45v4.235C58.634,133.479,58.835,133.681,59.084,133.681z M59.534,129.445H61v3.335h-1.466V129.445z"/>
	<path fill="#FFFFFF" d="M52.454,140.133h-2.366c-0.249,0-0.45,0.202-0.45,0.45v4.234c0,0.248,0.202,0.45,0.45,0.45h2.366
		c0.249,0,0.45-0.202,0.45-0.45v-4.234C52.904,140.335,52.703,140.133,52.454,140.133z M52.004,144.367h-1.466v-3.334h1.466V144.367
		z"/>
	<path fill="#FFFFFF" d="M56.952,140.133h-2.366c-0.249,0-0.45,0.202-0.45,0.45v4.234c0,0.248,0.202,0.45,0.45,0.45h2.366
		c0.249,0,0.45-0.202,0.45-0.45v-4.234C57.402,140.335,57.201,140.133,56.952,140.133z M56.502,144.367h-1.466v-3.334h1.466V144.367
		z"/>
	<path fill="#FFFFFF" d="M61.45,140.133h-2.366c-0.249,0-0.45,0.202-0.45,0.45v4.234c0,0.248,0.202,0.45,0.45,0.45h2.366
		c0.249,0,0.45-0.202,0.45-0.45v-4.234C61.9,140.335,61.699,140.133,61.45,140.133z M61,144.367h-1.466v-3.334H61V144.367z"/>
	<path fill="#FFFFFF" d="M52.454,151.72h-2.366c-0.249,0-0.45,0.202-0.45,0.45v4.234c0,0.248,0.202,0.45,0.45,0.45h2.366
		c0.249,0,0.45-0.202,0.45-0.45v-4.234C52.904,151.922,52.703,151.72,52.454,151.72z M52.004,155.954h-1.466v-3.334h1.466V155.954z"
		/>
	<path fill="#FFFFFF" d="M56.952,151.72h-2.366c-0.249,0-0.45,0.202-0.45,0.45v4.234c0,0.248,0.202,0.45,0.45,0.45h2.366
		c0.249,0,0.45-0.202,0.45-0.45v-4.234C57.402,151.922,57.201,151.72,56.952,151.72z M56.502,155.954h-1.466v-3.334h1.466V155.954z"
		/>
	<path fill="#FFFFFF" d="M61.45,151.72h-2.366c-0.249,0-0.45,0.202-0.45,0.45v4.234c0,0.248,0.202,0.45,0.45,0.45h2.366
		c0.249,0,0.45-0.202,0.45-0.45v-4.234C61.9,151.922,61.699,151.72,61.45,151.72z M61,155.954h-1.466v-3.334H61V155.954z"/>
	<path fill="#FFFFFF" d="M56.952,157.439h-2.366c-0.249,0-0.45,0.202-0.45,0.45v4.235c0,0.248,0.202,0.45,0.45,0.45h2.366
		c0.249,0,0.45-0.202,0.45-0.45v-4.235C57.402,157.642,57.201,157.439,56.952,157.439z M56.502,161.675h-1.466v-3.335h1.466V161.675
		z"/>
	<path fill="#FFFFFF" d="M61.45,157.439h-2.366c-0.249,0-0.45,0.202-0.45,0.45v4.235c0,0.248,0.202,0.45,0.45,0.45h2.366
		c0.249,0,0.45-0.202,0.45-0.45v-4.235C61.9,157.642,61.699,157.439,61.45,157.439z M61,161.675h-1.466v-3.335H61V161.675z"/>
	<path fill="#FFFFFF" d="M147.546,122.094h2.366c0.248,0,0.45-0.202,0.45-0.45v-4.235c0-0.248-0.202-0.45-0.45-0.45h-2.366
		c-0.248,0-0.45,0.202-0.45,0.45v4.235C147.096,121.892,147.298,122.094,147.546,122.094z M147.996,117.858h1.466v3.335h-1.466
		V117.858z"/>
	<path fill="#FFFFFF" d="M143.048,122.094h2.366c0.248,0,0.45-0.202,0.45-0.45v-4.235c0-0.248-0.202-0.45-0.45-0.45h-2.366
		c-0.248,0-0.45,0.202-0.45,0.45v4.235C142.598,121.892,142.8,122.094,143.048,122.094z M143.498,117.858h1.466v3.335h-1.466
		V117.858z"/>
	<path fill="#FFFFFF" d="M138.55,122.094h2.366c0.248,0,0.45-0.202,0.45-0.45v-4.235c0-0.248-0.202-0.45-0.45-0.45h-2.366
		c-0.248,0-0.45,0.202-0.45,0.45v4.235C138.1,121.892,138.302,122.094,138.55,122.094z M139,117.858h1.466v3.335H139V117.858z"/>
	<path fill="#FFFFFF" d="M147.546,133.681h2.366c0.248,0,0.45-0.202,0.45-0.45v-4.235c0-0.248-0.202-0.45-0.45-0.45h-2.366
		c-0.248,0-0.45,0.202-0.45,0.45v4.235C147.096,133.479,147.298,133.681,147.546,133.681z M147.996,129.445h1.466v3.335h-1.466
		V129.445z"/>
	<path fill="#FFFFFF" d="M143.048,133.681h2.366c0.248,0,0.45-0.202,0.45-0.45v-4.235c0-0.248-0.202-0.45-0.45-0.45h-2.366
		c-0.248,0-0.45,0.202-0.45,0.45v4.235C142.598,133.479,142.8,133.681,143.048,133.681z M143.498,129.445h1.466v3.335h-1.466
		V129.445z"/>
	<path fill="#FFFFFF" d="M138.55,133.681h2.366c0.248,0,0.45-0.202,0.45-0.45v-4.235c0-0.248-0.202-0.45-0.45-0.45h-2.366
		c-0.248,0-0.45,0.202-0.45,0.45v4.235C138.1,133.479,138.302,133.681,138.55,133.681z M139,129.445h1.466v3.335H139V129.445z"/>
	<path fill="#FFFFFF" d="M149.912,140.133h-2.366c-0.248,0-0.45,0.202-0.45,0.45v4.234c0,0.248,0.202,0.45,0.45,0.45h2.366
		c0.248,0,0.45-0.202,0.45-0.45v-4.234C150.362,140.335,150.16,140.133,149.912,140.133z M149.462,144.367h-1.466v-3.334h1.466
		V144.367z"/>
	<path fill="#FFFFFF" d="M145.414,140.133h-2.366c-0.248,0-0.45,0.202-0.45,0.45v4.234c0,0.248,0.202,0.45,0.45,0.45h2.366
		c0.248,0,0.45-0.202,0.45-0.45v-4.234C145.864,140.335,145.662,140.133,145.414,140.133z M144.964,144.367h-1.466v-3.334h1.466
		V144.367z"/>
	<path fill="#FFFFFF" d="M140.916,140.133h-2.366c-0.248,0-0.45,0.202-0.45,0.45v4.234c0,0.248,0.202,0.45,0.45,0.45h2.366
		c0.248,0,0.45-0.202,0.45-0.45v-4.234C141.366,140.335,141.164,140.133,140.916,140.133z M140.466,144.367H139v-3.334h1.466
		V144.367z"/>
	<path fill="#FFFFFF" d="M149.912,151.72h-2.366c-0.248,0-0.45,0.202-0.45,0.45v4.234c0,0.248,0.202,0.45,0.45,0.45h2.366
		c0.248,0,0.45-0.202,0.45-0.45v-4.234C150.362,151.922,150.16,151.72,149.912,151.72z M149.462,155.954h-1.466v-3.334h1.466
		V155.954z"/>
	<path fill="#FFFFFF" d="M145.414,151.72h-2.366c-0.248,0-0.45,0.202-0.45,0.45v4.234c0,0.248,0.202,0.45,0.45,0.45h2.366
		c0.248,0,0.45-0.202,0.45-0.45v-4.234C145.864,151.922,145.662,151.72,145.414,151.72z M144.964,155.954h-1.466v-3.334h1.466
		V155.954z"/>
	<path fill="#FFFFFF" d="M140.916,151.72h-2.366c-0.248,0-0.45,0.202-0.45,0.45v4.234c0,0.248,0.202,0.45,0.45,0.45h2.366
		c0.248,0,0.45-0.202,0.45-0.45v-4.234C141.366,151.922,141.164,151.72,140.916,151.72z M140.466,155.954H139v-3.334h1.466V155.954z
		"/>
	<path fill="#FFFFFF" d="M145.414,157.439h-2.366c-0.248,0-0.45,0.202-0.45,0.45v4.235c0,0.248,0.202,0.45,0.45,0.45h2.366
		c0.248,0,0.45-0.202,0.45-0.45v-4.235C145.864,157.642,145.662,157.439,145.414,157.439z M144.964,161.675h-1.466v-3.335h1.466
		V161.675z"/>
	<path fill="#FFFFFF" d="M140.916,157.439h-2.366c-0.248,0-0.45,0.202-0.45,0.45v4.235c0,0.248,0.202,0.45,0.45,0.45h2.366
		c0.248,0,0.45-0.202,0.45-0.45v-4.235C141.366,157.642,141.164,157.439,140.916,157.439z M140.466,161.675H139v-3.335h1.466
		V161.675z"/>
	<path fill="#FFFFFF" d="M186.827,49.61l-86.602-50c-0.14-0.08-0.311-0.08-0.45,0l-86.603,50c-0.139,0.081-0.225,0.229-0.225,0.39
		v100c0,0.161,0.086,0.31,0.225,0.39l86.603,50c0.07,0.04,0.147,0.061,0.225,0.061s0.155-0.021,0.225-0.061l86.602-50
		c0.14-0.08,0.226-0.229,0.226-0.39V50C187.053,49.839,186.967,49.691,186.827,49.61z M186.152,149.74L100,199.48l-86.152-49.74
		V50.26L100,0.52l86.152,49.74V149.74z"/>
	<path fill="#FFFFFF" d="M102.621,177.584h-1.739c-0.249,0-0.45,0.202-0.45,0.45v12.738c0,0.161,0.086,0.31,0.225,0.39
		c0.07,0.04,0.147,0.061,0.225,0.061s0.155-0.021,0.225-0.061l1.739-1.004c0.14-0.08,0.226-0.229,0.226-0.39v-11.734
		C103.071,177.786,102.87,177.584,102.621,177.584z M102.171,189.509l-0.839,0.484v-11.509h0.839V189.509z"/>
	<path fill="#FFFFFF" d="M99.775,8.329L26.872,50.419c-0.176,0.102-0.262,0.31-0.209,0.506c0.053,0.196,0.231,0.333,0.435,0.333
		h145.807c0.204,0,0.382-0.137,0.435-0.333c0.053-0.197-0.033-0.405-0.21-0.506L100.225,8.329
		C100.085,8.249,99.915,8.249,99.775,8.329z M171.224,50.359H28.776L100,9.238L171.224,50.359z"/>
	<path fill="#FFFFFF" d="M20.498,76.976v68.665c0,0.161,0.086,0.31,0.225,0.39l4.088,2.36c0.169,0.095,0.479-0.014,0.624-0.142
		l1.555-1.416c0.164-0.15,0.325-0.305,0.486-0.459l0.542-0.518c0.165-0.156,0.33-0.312,0.495-0.475l0.733-0.731
		c0.929-0.925,1.807-1.86,2.834-2.976c0.165-0.175,0.323-0.354,0.48-0.534l1.601-1.846l2.973-3.705l2.17-3.011
		c0.196-0.284,0.385-0.569,0.572-0.853l1.357-2.088c0.222-0.341,0.429-0.685,0.632-1.024l0.667-1.106
		c0.09-0.149,0.175-0.3,0.258-0.449l0.663-1.166c0.086-0.149,0.171-0.297,0.248-0.443l1.73-3.326
		c0.074-0.146,0.147-0.291,0.212-0.431l1.855-4.072c0.002-0.006,0.005-0.013,0.007-0.019l0.002,4.896
		c-0.068,0.204-0.148,0.406-0.231,0.617l-1.408,3.417c-0.18,0.403-0.373,0.811-0.57,1.226l-0.242,0.508
		c-0.073,0.155-0.146,0.312-0.227,0.467l-0.388,0.76l-2.348,4.188c-0.102,0.17-0.204,0.342-0.314,0.512l-0.366,0.573
		c-0.221,0.347-0.444,0.696-0.666,1.037l-1.538,2.205c-0.25,0.345-0.502,0.692-0.751,1.031l-2.092,2.638
		c-0.158,0.194-0.317,0.389-0.482,0.578l-0.914,1.051c-0.155,0.18-0.31,0.359-0.478,0.538c-0.982,1.091-1.977,2.134-2.954,3.1
		l-0.771,0.764c-0.177,0.172-0.357,0.342-0.537,0.512l-0.541,0.512c-0.166,0.157-0.332,0.314-0.5,0.468l-0.703,0.637
		c-0.107,0.097-0.161,0.238-0.146,0.382c0.015,0.143,0.098,0.27,0.222,0.342l59.819,34.537c0.14,0.08,0.311,0.08,0.45,0
		c0.139-0.08,0.225-0.229,0.225-0.39v-6.672c0-0.248-0.202-0.45-0.45-0.45h-1.387v-3.215h25.553v3.215h-1.387
		c-0.248,0-0.45,0.202-0.45,0.45v6.672c0,0.161,0.086,0.31,0.226,0.39c0.069,0.04,0.146,0.061,0.225,0.061s0.155-0.021,0.225-0.061
		l59.819-34.537c0.125-0.072,0.208-0.199,0.223-0.342c0.016-0.144-0.039-0.285-0.146-0.382l-0.701-0.635
		c-0.17-0.155-0.338-0.314-0.505-0.473l-0.552-0.522c-0.175-0.165-0.35-0.33-0.521-0.496l-0.772-0.766
		c-0.985-0.974-1.979-2.017-2.96-3.104c-0.162-0.174-0.317-0.354-0.473-0.533l-0.913-1.05c-0.163-0.188-0.32-0.38-0.477-0.571
		l-2.091-2.637c-0.257-0.348-0.509-0.695-0.759-1.04l-1.532-2.195c-0.23-0.355-0.456-0.71-0.68-1.061l-0.359-0.562
		c-0.109-0.168-0.211-0.34-0.312-0.511l-2.736-4.948c-0.081-0.156-0.155-0.315-0.229-0.473l-0.194-0.408
		c-0.213-0.447-0.421-0.885-0.612-1.314l-1.411-3.422c-0.073-0.187-0.145-0.37-0.227-0.605v-4.903
		c0.002,0.005,0.004,0.01,0.006,0.015l1.854,4.066c0.069,0.15,0.146,0.301,0.223,0.453l1.72,3.308
		c0.077,0.146,0.16,0.289,0.244,0.434l0.661,1.165c0.086,0.154,0.173,0.31,0.266,0.46l0.65,1.081
		c0.209,0.349,0.421,0.702,0.646,1.048l1.352,2.08c0.19,0.287,0.382,0.576,0.583,0.867l2.175,3.017l2.411,3.044l2.143,2.483
		c0.161,0.185,0.324,0.37,0.489,0.544c0.881,0.958,1.835,1.981,2.838,2.979l1.779,1.732c0.157,0.151,0.315,0.303,0.478,0.451
		l1.555,1.416c0.002,0.001,0.104,0.092,0.106,0.094c0.146,0.124,0.355,0.143,0.518,0.048l4.087-2.36
		c0.14-0.08,0.226-0.229,0.226-0.39V76.976c0-0.249-0.202-0.45-0.45-0.45H20.948C20.699,76.526,20.498,76.728,20.498,76.976z
		 M55.769,112.042l-2.204-9.725l1.743-5.354c0.023-0.036,0.182-0.142,0.461-0.142s0.438,0.106,0.457,0.132l1.747,5.364
		L55.769,112.042z M59.492,99.687c0.019-0.083,0.349-0.083,0.368,0l3.159,13.942h-6.686L59.492,99.687z M55.206,113.629H48.52
		l3.159-13.942c0.019-0.083,0.349-0.083,0.368,0L55.206,113.629z M55.769,114.529h7.362v8.441H48.407v-0.387v-7.239v-0.815H55.769z
		 M107.412,123.52v3.195v1.783h-1.524v-2.728c0-0.248-0.202-0.45-0.45-0.45h-2.492c-0.248,0-0.45,0.202-0.45,0.45v2.728h-0.799
		v-2.728c0-0.248-0.202-0.45-0.45-0.45h-2.492c-0.249,0-0.45,0.202-0.45,0.45v2.728h-0.799v-2.728c0-0.248-0.202-0.45-0.45-0.45
		h-2.492c-0.249,0-0.45,0.202-0.45,0.45v2.728h-1.524v-1.783v-3.195H107.412z M92.86,122.619c0.112-0.222,0.232-0.458,0.361-0.709
		c1.301-2.54,3.434-6.704,4.991-13.663c0.519-2.32,0.974-4.95,1.312-7.935c0.249-0.006,0.607-0.01,0.975-0.012
		c1.94,11.879,4.742,18.044,6.254,21.374c0.155,0.341,0.298,0.655,0.427,0.945H92.86z M112.776,143.194h-2.298v-1.754
		c0-0.248-0.202-0.45-0.45-0.45h-2.492c-0.248,0-0.45,0.202-0.45,0.45v1.754h-0.998v-1.754c0-0.248-0.202-0.45-0.45-0.45h-2.492
		c-0.248,0-0.45,0.202-0.45,0.45v1.754h-0.999v-1.754c0-0.248-0.202-0.45-0.45-0.45h-2.492c-0.249,0-0.45,0.202-0.45,0.45v1.754
		h-0.999v-1.754c0-0.248-0.202-0.45-0.45-0.45h-2.492c-0.249,0-0.45,0.202-0.45,0.45v1.754h-0.999v-1.754
		c0-0.248-0.202-0.45-0.45-0.45h-2.492c-0.249,0-0.45,0.202-0.45,0.45v1.754h-2.297v-4.979h25.553V143.194z M87.224,144.095h2.748
		c0.249,0,0.45-0.202,0.45-0.45v-1.754h1.592v1.754c0,0.248,0.202,0.45,0.45,0.45h1.899c0.249,0,0.45-0.202,0.45-0.45v-1.754h1.592
		v1.754c0,0.248,0.202,0.45,0.45,0.45h1.899c0.249,0,0.45-0.202,0.45-0.45v-1.754h1.592v1.754c0,0.248,0.202,0.45,0.45,0.45h1.899
		c0.248,0,0.45-0.202,0.45-0.45v-1.754h1.592v1.754c0,0.248,0.202,0.45,0.45,0.45h1.898c0.248,0,0.45-0.202,0.45-0.45v-1.754h1.592
		v1.754c0,0.248,0.202,0.45,0.45,0.45h2.748v3.215H87.224V144.095z M88.233,137.315c1.594-1.244,4.165-3.864,4.344-7.917h1.985
		c0.249,0,0.45-0.202,0.45-0.45v-2.728h1.592v2.728c0,0.248,0.202,0.45,0.45,0.45h1.699c0.249,0,0.45-0.202,0.45-0.45v-2.728h1.592
		v2.728c0,0.248,0.202,0.45,0.45,0.45h1.699c0.248,0,0.45-0.202,0.45-0.45v-2.728h1.592v2.728c0,0.248,0.202,0.45,0.45,0.45h1.984
		c0.18,4.053,2.751,6.673,4.345,7.917H88.233z M91.688,126.265H63.996c-0.068-0.161-0.229-0.274-0.415-0.274H48.407v-2.02v-0.1
		h15.175c0.215,0,0.395-0.15,0.439-0.352h27.667V126.265z M48.407,136.586h14.725v1.119H48.407V136.586z M63.131,135.686H48.407
		v-8.795h14.725V135.686z M48.407,138.605h14.725v8.796H48.407V138.605z M48.407,148.302h14.725v1.119H48.407V148.302z
		 M29.551,150.088l0.247-0.223c0.174-0.159,0.344-0.321,0.515-0.482l0.539-0.51c0.183-0.173,0.366-0.346,0.548-0.523l0.774-0.766
		c0.99-0.979,1.996-2.034,2.985-3.132c0.17-0.182,0.333-0.37,0.495-0.558l0.912-1.049c0.171-0.196,0.336-0.398,0.5-0.6l2.112-2.663
		c0.258-0.351,0.511-0.7,0.763-1.047l1.557-2.233c0.229-0.353,0.454-0.704,0.676-1.053l0.364-0.569
		c0.115-0.178,0.223-0.358,0.331-0.538l0.649-1.083l2.114-3.916c0.084-0.164,0.163-0.329,0.24-0.494l0.241-0.507
		c0.2-0.421,0.396-0.835,0.581-1.249l0.616-1.422l0.067-0.168l0.13-0.302v1.438v9.695v2.02v9.696v2.02v10.584L29.551,150.088z
		 M51.179,162.575h1.275c0.249,0,0.45-0.202,0.45-0.45v-4.235c0-0.248-0.202-0.45-0.45-0.45h-2.366c-0.249,0-0.45,0.202-0.45,0.45
		v3.796l-1.19-0.687l-0.041-0.024v-10.653h14.725v17.807c0,0.182,0.11,0.346,0.278,0.416c0.168,0.067,0.361,0.031,0.491-0.098
		l12.607-12.607l3.593,3.592L67.521,172.01l-12.219-7.054L51.179,162.575z M50.538,161.675v-3.335h1.466v3.335H50.538z
		 M85.789,182.558l-17.461-10.082l12.726-12.727c0.084-0.085,0.132-0.199,0.132-0.318s-0.048-0.233-0.132-0.318l-4.229-4.229
		c-0.176-0.176-0.461-0.176-0.637,0l-12.157,12.158v-17.171v-2.02v-9.696v-2.02v-8.971h27.656v1.783c0,5.533-5.08,8.395-5.131,8.423
		c-0.011,0.006-0.016,0.019-0.027,0.026c-0.047,0.031-0.085,0.068-0.118,0.114c-0.011,0.016-0.023,0.031-0.032,0.048
		c-0.005,0.01-0.014,0.017-0.018,0.027c0,0.001-0.001,0.001-0.001,0.002c-0.024,0.055-0.037,0.115-0.037,0.178v5.879v3.665h-2.342
		c-0.249,0-0.45,0.202-0.45,0.45v26.159c0,0.248,0.202,0.45,0.45,0.45h2.342v3.665v4.832L85.789,182.558z M88.16,178.484v5.442
		l-0.937-0.541v-4.901H88.16z M86.773,173.469h-2.342V148.21h2.342h26.453h2.343v25.259h-2.343H86.773z M111.84,178.484h0.937v4.901
		l-0.937,0.541V178.484z M113.677,182.866v-4.832v-3.665h2.343c0.248,0,0.45-0.202,0.45-0.45V147.76c0-0.248-0.202-0.45-0.45-0.45
		h-2.343v-3.665v-5.879c0-0.063-0.014-0.123-0.037-0.178c-0.001-0.002-0.003-0.004-0.004-0.006
		c-0.004-0.009-0.011-0.015-0.016-0.023c-0.009-0.017-0.021-0.032-0.032-0.047c-0.033-0.047-0.072-0.085-0.12-0.116
		c-0.01-0.007-0.015-0.019-0.025-0.024c-0.051-0.028-5.13-2.875-5.13-8.423v-1.783h27.655v8.971v2.02v9.696v2.02v17.17
		l-12.156-12.157c-0.17-0.168-0.467-0.168-0.637,0l-4.229,4.229c-0.176,0.176-0.176,0.461,0,0.637l12.726,12.727l-17.034,9.835
		L113.677,182.866z M140.142,99.686c0.018-0.08,0.348-0.083,0.367,0.001l3.159,13.942h-6.687L140.142,99.686z M143.771,96.963
		c0.022-0.036,0.181-0.142,0.461-0.142c0.279,0,0.438,0.106,0.456,0.132l1.747,5.364l-2.203,9.725l-1.288-5.684l-0.916-4.042
		L143.771,96.963z M151.48,113.629h-6.686l3.159-13.943c0.017-0.081,0.348-0.081,0.367,0.001L151.48,113.629z M144.231,114.529
		h7.362v0.815v7.239v0.387h-14.726v-8.441H144.231z M136.868,136.586h14.726v1.119h-14.726V136.586z M151.594,135.686h-14.726
		v-8.795h14.726V135.686z M136.868,138.605h14.726v8.796h-14.726V138.605z M136.868,148.302h14.726v1.119h-14.726V148.302z
		 M136.418,123.871h15.176v0.1v2.02h-15.176c-0.187,0-0.346,0.113-0.414,0.274h-27.691v-2.745h27.666
		C136.023,123.721,136.203,123.871,136.418,123.871z M150.362,161.685v-3.796c0-0.248-0.202-0.45-0.45-0.45h-2.366
		c-0.248,0-0.45,0.202-0.45,0.45v4.235c0,0.248,0.202,0.45,0.45,0.45h1.275l-10.179,5.877l-6.163,3.558l-12.578-12.579l3.592-3.592
		l12.606,12.607c0.128,0.127,0.321,0.165,0.49,0.098c0.169-0.07,0.278-0.234,0.278-0.416v-17.807h14.726v10.653L150.362,161.685z
		 M149.462,161.675h-1.466v-3.335h1.466V161.675z M153.932,128.237l0.192,0.405c0.079,0.166,0.158,0.334,0.243,0.5l0.389,0.76
		l2.375,4.238c0.107,0.181,0.216,0.362,0.33,0.538l0.357,0.559c0.225,0.353,0.451,0.708,0.689,1.075l1.552,2.224
		c0.251,0.347,0.505,0.696,0.771,1.056l2.111,2.663c0.119,0.145,0.247,0.3,0.392,0.471c0.034,0.04,0.066,0.081,0.101,0.121
		l0.912,1.048c0.162,0.188,0.325,0.376,0.49,0.552c0.987,1.097,1.993,2.151,2.989,3.137l0.777,0.769
		c0.175,0.171,0.354,0.339,0.531,0.508l0.551,0.521c0.171,0.163,0.343,0.325,0.519,0.486l0.245,0.222l-17.955,10.367v-10.583v-2.02
		v-9.696v-2.02v-9.695v-1.438l0.813,1.895C153.504,127.339,153.716,127.783,153.932,128.237z M21.398,77.426h157.204v67.955
		l-3.581,2.068l-1.402-1.28c-0.157-0.144-0.311-0.291-0.464-0.438l-1.765-1.719c-0.991-0.986-1.937-2.001-2.816-2.956
		c-0.161-0.171-0.315-0.347-0.47-0.523l-0.85-0.964l-3.663-4.512l-2.154-2.989c-0.196-0.283-0.384-0.567-0.57-0.849l-1.346-2.07
		c-0.222-0.341-0.428-0.686-0.631-1.024l-0.654-1.086c-0.088-0.143-0.168-0.287-0.248-0.431l-0.669-1.177
		c-0.077-0.135-0.154-0.268-0.227-0.405l-1.698-3.264l-0.015-0.029c-0.072-0.142-0.143-0.28-0.21-0.427l-0.534-1.125l-1.303-2.904
		c-0.15-0.364-0.294-0.702-0.428-1.015l-0.41-1.005v-1.178c0-0.033-0.004-0.066-0.012-0.1l-3.283-14.491
		c-0.104-0.464-0.551-0.8-1.062-0.8c-0.337,0-0.636,0.155-0.837,0.387c-0.028,0.032-0.064,0.057-0.087,0.092
		c-0.064,0.097-0.112,0.204-0.138,0.32l-0.254,1.116l-1.279-3.929c-0.146-0.451-0.674-0.753-1.312-0.753s-1.166,0.303-1.312,0.754
		l-1.279,3.929l-0.253-1.115c-0.026-0.116-0.074-0.224-0.138-0.321c-0.014-0.021-0.036-0.034-0.051-0.054
		c-0.128-0.164-0.3-0.297-0.506-0.366c-0.115-0.039-0.239-0.06-0.367-0.06c-0.511,0-0.957,0.336-1.061,0.799l-3.284,14.492
		c-0.008,0.033-0.012,0.066-0.012,0.1v8.54h-27.807c-0.046-0.108-0.1-0.228-0.151-0.343c-0.031-0.07-0.061-0.139-0.093-0.211
		c-0.108-0.241-0.221-0.491-0.345-0.764c-1.511-3.325-4.323-9.515-6.246-21.522c-0.035-0.218-0.224-0.379-0.444-0.379
		c-2.162,0-2.162,0-2.211,0.441c-1.311,12.016-4.524,18.29-6.251,21.66c-0.118,0.23-0.227,0.444-0.331,0.65
		c-0.031,0.062-0.061,0.122-0.09,0.181c-0.048,0.096-0.099,0.197-0.144,0.288H64.032v-8.54c0-0.033-0.004-0.066-0.011-0.1
		l-3.283-14.492c-0.105-0.463-0.552-0.799-1.062-0.799s-0.957,0.336-1.062,0.799l-0.253,1.116l-1.28-3.929
		c-0.147-0.451-0.674-0.753-1.312-0.753s-1.165,0.303-1.312,0.754l-1.28,3.929l-0.253-1.116c-0.105-0.463-0.551-0.799-1.062-0.799
		s-0.957,0.336-1.062,0.799l-3.283,14.492c-0.007,0.033-0.011,0.066-0.011,0.1v1.178l-0.394,0.963
		c-0.138,0.324-0.287,0.676-0.444,1.055l-1.839,4.036c-0.062,0.135-0.13,0.268-0.199,0.405l-1.723,3.312
		c-0.073,0.139-0.152,0.275-0.232,0.413l-0.668,1.178c-0.079,0.141-0.157,0.281-0.243,0.422l-0.669,1.109
		c-0.198,0.33-0.399,0.666-0.618,1.002l-1.35,2.077c-0.185,0.278-0.37,0.559-0.56,0.834l-1.049,1.485l-2.268,3.003l-3.366,3.995
		c-0.15,0.172-0.3,0.343-0.461,0.514c-1.024,1.111-1.894,2.038-2.812,2.952l-0.73,0.729c-0.159,0.155-0.32,0.309-0.481,0.462
		l-0.544,0.52c-0.156,0.149-0.312,0.299-0.472,0.445l-1.401,1.28l-3.582-2.068V77.426z"/>
	<path fill="#FFFFFF" d="M106.123,177.584h-1.738c-0.248,0-0.45,0.202-0.45,0.45v10.716c0,0.161,0.086,0.31,0.226,0.39
		c0.069,0.04,0.146,0.061,0.225,0.061s0.155-0.021,0.225-0.061l1.738-1.004c0.14-0.08,0.226-0.229,0.226-0.39v-9.712
		C106.573,177.786,106.371,177.584,106.123,177.584z M105.673,187.486l-0.838,0.484v-9.486h0.838V187.486z"/>
	<path fill="#FFFFFF" d="M99.118,177.584h-1.739c-0.249,0-0.45,0.202-0.45,0.45v11.734c0,0.161,0.086,0.31,0.225,0.39l1.739,1.004
		c0.07,0.04,0.147,0.061,0.225,0.061s0.155-0.021,0.225-0.061c0.139-0.08,0.225-0.229,0.225-0.39v-12.738
		C99.568,177.786,99.367,177.584,99.118,177.584z M98.668,189.993l-0.838-0.484v-11.024h0.838V189.993z"/>
	<path fill="#FFFFFF" d="M109.626,177.584h-1.739c-0.248,0-0.45,0.202-0.45,0.45v8.693c0,0.161,0.086,0.31,0.226,0.39
		c0.069,0.04,0.146,0.061,0.225,0.061s0.155-0.021,0.225-0.061l1.739-1.004c0.14-0.08,0.226-0.229,0.226-0.39v-7.689
		C110.076,177.786,109.874,177.584,109.626,177.584z M109.176,185.464l-0.839,0.484v-7.464h0.839V185.464z"/>
	<path fill="#FFFFFF" d="M95.616,177.584h-1.739c-0.249,0-0.45,0.202-0.45,0.45v9.712c0,0.161,0.086,0.31,0.225,0.39l1.739,1.004
		c0.07,0.04,0.147,0.061,0.225,0.061s0.155-0.021,0.225-0.061c0.139-0.08,0.225-0.229,0.225-0.39v-10.716
		C96.066,177.786,95.864,177.584,95.616,177.584z M95.166,187.971l-0.839-0.484v-9.002h0.839V187.971z"/>
	<path fill="#FFFFFF" d="M92.113,177.584h-1.739c-0.249,0-0.45,0.202-0.45,0.45v7.689c0,0.161,0.086,0.31,0.225,0.39l1.739,1.004
		c0.07,0.04,0.147,0.061,0.225,0.061s0.155-0.021,0.225-0.061c0.139-0.08,0.225-0.229,0.225-0.39v-8.693
		C92.563,177.786,92.361,177.584,92.113,177.584z M91.663,185.948l-0.838-0.484v-6.979h0.838V185.948z"/>
	<path fill="#FFFFFF" d="M102.476,60.781c0.248,0,0.45-0.202,0.45-0.45v-3.58c0-0.128-0.055-0.25-0.149-0.335
		c-0.095-0.085-0.222-0.13-0.349-0.112l-8.806,0.944c-0.229,0.024-0.402,0.217-0.402,0.447v12.962c0,0.249,0.202,0.45,0.45,0.45
		h9.135c0.248,0,0.45-0.202,0.45-0.45V68.02c0-0.249-0.202-0.45-0.45-0.45h-5.83v-1.736h5.17c0.248,0,0.45-0.202,0.45-0.45v-2.636
		c0-0.249-0.202-0.45-0.45-0.45h-5.17v-1.516H102.476z M96.525,63.198h5.17v1.736h-5.17c-0.249,0-0.45,0.202-0.45,0.45v2.636
		c0,0.249,0.202,0.45,0.45,0.45h5.83v1.736H94.12V58.099l7.906-0.847v2.629h-5.5c-0.249,0-0.45,0.202-0.45,0.45v2.417
		C96.075,62.996,96.276,63.198,96.525,63.198z"/>
	<path fill="#FFFFFF" d="M84.56,71.107c3.726,0,7.737-2.158,7.737-6.895c0-4.428-2.96-6.968-8.122-6.968h-4.284
		c-0.249,0-0.45,0.202-0.45,0.45v12.962c0,0.249,0.202,0.45,0.45,0.45H84.56z M80.341,58.145h3.833c2.697,0,7.221,0.788,7.221,6.067
		c0,4.141-3.434,5.994-6.836,5.994h-4.218V58.145z"/>
	<path fill="#FFFFFF" d="M78.529,64.175c0-4.274-3.061-7.26-7.444-7.26c-4.382,0-7.443,2.986-7.443,7.26
		c0,4.275,3.061,7.261,7.443,7.261C75.468,71.437,78.529,68.451,78.529,64.175z M64.542,64.175c0-3.804,2.629-6.36,6.543-6.36
		c3.914,0,6.543,2.556,6.543,6.36c0,3.805-2.629,6.361-6.543,6.361C67.171,70.536,64.542,67.98,64.542,64.175z"/>
	<path fill="#FFFFFF" d="M52.851,71.107c0.249,0,0.45-0.202,0.45-0.45v-7.692l4.86,7.927c0.082,0.133,0.227,0.215,0.384,0.215h3.734
		c0.249,0,0.45-0.202,0.45-0.45V57.695c0-0.249-0.202-0.45-0.45-0.45h-2.856c-0.249,0-0.45,0.202-0.45,0.45v7.469L54.26,57.46
		c-0.082-0.134-0.227-0.215-0.384-0.215h-3.881c-0.249,0-0.45,0.202-0.45,0.45v12.962c0,0.249,0.202,0.45,0.45,0.45H52.851z
		 M50.445,58.145h3.178l5.379,8.792c0.082,0.134,0.264,0.215,0.42,0.215c0.249,0,0.45-0.202,0.45-0.45v-8.557h1.956v12.062h-3.032
		l-5.525-9.012c-0.082-0.133-0.227-0.215-0.384-0.215h-0.037c-0.249,0-0.45,0.202-0.45,0.45v8.777h-1.956V58.145z"/>
	<path fill="#FFFFFF" d="M120.295,68.8c2.636,0,4.478-1.902,4.478-4.625s-1.842-4.624-4.478-4.624c-2.637,0-4.479,1.901-4.479,4.624
		S117.658,68.8,120.295,68.8z M120.295,60.452c2.14,0,3.577,1.496,3.577,3.724s-1.438,3.724-3.577,3.724
		c-2.141,0-3.578-1.497-3.578-3.724S118.154,60.452,120.295,60.452z"/>
	<path fill="#FFFFFF" d="M150.005,60.781c0.249,0,0.45-0.202,0.45-0.45v-2.636c0-0.249-0.201-0.45-0.45-0.45h-8.696
		c-0.248,0-0.45,0.202-0.45,0.45v12.962c0,0.249,0.202,0.45,0.45,0.45h2.856c0.248,0,0.45-0.202,0.45-0.45v-4.603h4.95
		c0.248,0,0.45-0.202,0.45-0.45v-2.636c0-0.249-0.202-0.45-0.45-0.45h-4.95v-1.736H150.005z M144.165,63.417h4.95v1.736h-4.95
		c-0.249,0-0.45,0.202-0.45,0.45v4.603h-1.956V58.145h7.796v1.736h-5.39c-0.249,0-0.45,0.202-0.45,0.45v2.636
		C143.715,63.216,143.916,63.417,144.165,63.417z"/>
	<path fill="#FFFFFF" d="M129.342,71.107c0.248,0,0.45-0.202,0.45-0.45v-7.691l4.859,7.926c0.082,0.133,0.228,0.215,0.384,0.215
		h3.734c0.248,0,0.45-0.202,0.45-0.45V57.695c0-0.249-0.202-0.45-0.45-0.45h-2.855c-0.249,0-0.45,0.202-0.45,0.45v7.47l-4.714-7.705
		c-0.082-0.134-0.228-0.215-0.384-0.215h-3.881c-0.249,0-0.45,0.202-0.45,0.45v12.962c0,0.249,0.201,0.45,0.45,0.45H129.342z
		 M126.936,58.145h3.179l5.379,8.792c0.082,0.134,0.265,0.215,0.421,0.215c0.248,0,0.45-0.202,0.45-0.45v-8.557h1.955v12.062h-3.032
		l-5.525-9.012c-0.082-0.133-0.228-0.215-0.384-0.215h-0.036c-0.248,0-0.45,0.202-0.45,0.45v8.777h-1.956V58.145z"/>
	<path fill="#FFFFFF" d="M111.018,56.915c-4.383,0-7.443,2.986-7.443,7.26c0,4.275,3.061,7.261,7.443,7.261
		c2.091,0,3.98-0.914,5.055-2.443c0.14-0.199,0.096-0.474-0.099-0.62l-2.38-1.776c-0.1-0.073-0.225-0.104-0.346-0.083
		c-0.122,0.021-0.229,0.091-0.298,0.194c-0.52,0.779-1.314,1.19-2.299,1.19c-1.831,0-3.211-1.601-3.211-3.724
		c0-2.158,1.389-3.724,3.303-3.724c0.898,0,1.607,0.303,2.108,0.901c0.158,0.188,0.438,0.215,0.63,0.06l2.196-1.794
		c0.188-0.155,0.22-0.432,0.07-0.625C114.734,57.692,112.966,56.915,111.018,56.915z M113.233,60.452
		c-0.646-0.591-1.497-0.901-2.49-0.901c-2.436,0-4.203,1.945-4.203,4.624c0,2.636,1.768,4.625,4.111,4.625
		c1.114,0,2.078-0.428,2.76-1.215l1.655,1.235c-0.938,1.082-2.417,1.716-4.049,1.716c-3.914,0-6.543-2.556-6.543-6.361
		c0-3.804,2.629-6.36,6.543-6.36c0.581,0,2.462,0.107,3.73,1.399L113.233,60.452z"/>
	<polygon fill="#FFFFFF" points="87.738,86.38 87.717,85.553 88.102,86.391 90.843,91.61 91.799,91.61 91.799,83.632 90.843,83.632 
		90.843,88.942 90.868,89.734 90.843,89.734 90.534,88.942 87.717,83.632 86.782,83.632 86.782,91.61 87.738,91.61 	"/>
	<polygon fill="#FFFFFF" points="59.975,90.731 56.711,90.731 56.711,83.632 55.673,83.632 55.673,91.61 59.975,91.61 	"/>
	<path fill="#FFFFFF" d="M64.02,91.852c0.908,0,1.6-0.382,2.077-1.144c0.476-0.763,0.715-1.792,0.715-3.089
		c0-1.293-0.238-2.321-0.715-3.083c-0.476-0.763-1.169-1.144-2.077-1.144c-0.905,0-1.596,0.381-2.074,1.144
		c-0.478,0.763-0.717,1.791-0.717,3.083c0,1.296,0.239,2.326,0.717,3.089C62.424,91.47,63.116,91.852,64.02,91.852z M62.769,85.04
		c0.334-0.568,0.751-0.852,1.252-0.852s0.918,0.284,1.252,0.852c0.334,0.568,0.501,1.429,0.501,2.582
		c0,1.153-0.167,2.014-0.501,2.582c-0.334,0.568-0.751,0.852-1.252,0.852s-0.917-0.284-1.252-0.852
		c-0.334-0.568-0.501-1.429-0.501-2.582C62.268,86.468,62.435,85.608,62.769,85.04z"/>
	<polygon fill="#FFFFFF" points="68.786,86.38 68.765,85.553 69.15,86.391 71.89,91.61 72.846,91.61 72.846,83.632 71.89,83.632 
		71.89,88.942 71.916,89.734 71.89,89.734 71.582,88.942 68.765,83.632 67.829,83.632 67.829,91.61 68.786,91.61 	"/>
	<path fill="#FFFFFF" d="M78.11,91.125c0.411-0.324,0.729-0.786,0.954-1.388c0.224-0.601,0.337-1.3,0.337-2.095
		c0-0.84-0.106-1.566-0.319-2.18c-0.212-0.613-0.53-1.072-0.953-1.375c-0.423-0.303-1.07-0.455-1.94-0.455h-1.892v7.978h1.892
		C77.058,91.61,77.699,91.448,78.11,91.125z M75.334,90.731v-6.302h0.775c0.64,0,1.1,0.111,1.38,0.332
		c0.28,0.221,0.496,0.538,0.647,0.949c0.151,0.411,0.226,1,0.226,1.765c0,0.782-0.064,1.395-0.192,1.839
		c-0.128,0.444-0.342,0.791-0.642,1.042c-0.299,0.25-0.8,0.375-1.501,0.375H75.334z"/>
	<path fill="#FFFFFF" d="M82.973,91.852c0.908,0,1.6-0.382,2.077-1.144c0.476-0.763,0.715-1.792,0.715-3.089
		c0-1.293-0.238-2.321-0.715-3.083c-0.476-0.763-1.169-1.144-2.077-1.144c-0.905,0-1.596,0.381-2.074,1.144
		c-0.478,0.763-0.717,1.791-0.717,3.083c0,1.296,0.239,2.326,0.717,3.089C81.377,91.47,82.068,91.852,82.973,91.852z M81.721,85.04
		c0.334-0.568,0.751-0.852,1.252-0.852c0.5,0,0.917,0.284,1.252,0.852c0.334,0.568,0.501,1.429,0.501,2.582
		c0,1.153-0.167,2.014-0.501,2.582c-0.334,0.568-0.751,0.852-1.252,0.852c-0.5,0-0.918-0.284-1.252-0.852
		c-0.334-0.568-0.501-1.429-0.501-2.582C81.22,86.468,81.387,85.608,81.721,85.04z"/>
	<path fill="#FFFFFF" d="M113.224,90.728h-3.85c0.021-0.409,0.127-0.762,0.319-1.058c0.192-0.296,0.445-0.602,0.758-0.919
		l0.495-0.485l0.588-0.583c0.605-0.595,1.017-1.082,1.237-1.461c0.219-0.378,0.329-0.748,0.329-1.11
		c0-0.323-0.085-0.628-0.255-0.914c-0.17-0.286-0.43-0.496-0.779-0.632c-0.349-0.136-0.732-0.204-1.148-0.204
		c-0.282,0-0.641,0.039-1.076,0.116c-0.435,0.077-0.87,0.219-1.303,0.426v0.852c0.409-0.186,0.704-0.309,0.886-0.369
		c0.182-0.06,0.394-0.113,0.636-0.157c0.242-0.045,0.461-0.067,0.657-0.067c0.344,0,0.653,0.094,0.928,0.281
		c0.275,0.188,0.412,0.453,0.412,0.797c0,0.213-0.059,0.43-0.178,0.65c-0.119,0.22-0.363,0.537-0.734,0.95
		c-0.371,0.413-0.611,0.676-0.721,0.79l-0.546,0.557c-0.292,0.299-0.569,0.611-0.83,0.934c-0.262,0.324-0.439,0.615-0.532,0.875
		c-0.093,0.26-0.139,0.503-0.139,0.73v0.883h4.847V90.728z"/>
	<path fill="#FFFFFF" d="M117.121,91.853c0.912,0,1.607-0.383,2.085-1.148c0.478-0.766,0.717-1.799,0.717-3.099
		c0-1.297-0.239-2.329-0.717-3.094c-0.478-0.766-1.173-1.148-2.085-1.148c-0.908,0-1.603,0.383-2.083,1.148
		c-0.48,0.766-0.72,1.797-0.72,3.094c0,1.301,0.24,2.334,0.72,3.099C115.518,91.47,116.212,91.853,117.121,91.853z M118.881,87.522
		c0,0.891-0.138,1.702-0.412,2.434c-0.275,0.731-0.739,1.097-1.391,1.097c-0.237,0-0.452-0.063-0.644-0.188
		c-0.192-0.126-0.362-0.314-0.51-0.565l2.747-4.367C118.81,86.442,118.881,86.972,118.881,87.522z M115.809,85.12
		c0.299-0.638,0.735-0.957,1.309-0.957c0.22,0,0.432,0.056,0.636,0.168c0.204,0.112,0.394,0.328,0.569,0.647l-2.767,4.34
		c-0.103-0.44-0.161-0.789-0.175-1.047c-0.014-0.258-0.021-0.499-0.021-0.722C115.361,86.567,115.51,85.758,115.809,85.12z"/>
	<path fill="#FFFFFF" d="M126.112,90.81h-1.925V83.6h-0.96c-0.554,0.509-1.208,0.924-1.961,1.244v0.867
		c0.475-0.168,0.848-0.332,1.12-0.493c0.272-0.161,0.552-0.356,0.841-0.586v6.178h-1.961v0.8h4.847V90.81z"/>
	<path fill="#FFFFFF" d="M129.957,91.853c0.795,0,1.436-0.281,1.923-0.844c0.487-0.563,0.73-1.224,0.73-1.985
		c0-0.482-0.098-0.904-0.294-1.267c-0.196-0.363-0.481-0.646-0.854-0.849c-0.373-0.203-0.768-0.305-1.185-0.305
		c-0.44,0-0.844,0.116-1.21,0.348c-0.367,0.232-0.674,0.533-0.921,0.901v-0.206c0-1.008,0.196-1.841,0.588-2.498
		c0.392-0.657,0.946-0.986,1.662-0.986c0.506,0,1.044,0.136,1.616,0.408V83.6c-0.509-0.158-1.034-0.237-1.574-0.237
		c-1.005,0-1.801,0.388-2.39,1.164c-0.588,0.776-0.883,1.831-0.883,3.167c0,1.208,0.231,2.203,0.694,2.986
		C128.322,91.461,129.021,91.853,129.957,91.853z M128.995,87.948c0.311-0.363,0.71-0.545,1.195-0.545
		c0.468,0,0.828,0.157,1.081,0.47c0.253,0.313,0.379,0.714,0.379,1.203c0,0.375-0.075,0.722-0.224,1.04
		c-0.15,0.318-0.355,0.554-0.617,0.707c-0.261,0.153-0.521,0.23-0.779,0.23c-0.392,0-0.741-0.166-1.045-0.498
		c-0.305-0.332-0.457-0.76-0.457-1.283C128.527,88.753,128.683,88.311,128.995,87.948z"/>
	<circle fill="#FFFFFF" cx="100.188" cy="88.299" r="1.802"/>
</g>
</svg>
