<?xml version="1.0" encoding="utf-8"?>
<!-- Generator: Adobe Illustrator 17.0.0, SVG Export Plug-In . SVG Version: 6.00 Build 0)  -->
<!DOCTYPE svg PUBLIC "-//W3C//DTD SVG 1.1//EN" "http://www.w3.org/Graphics/SVG/1.1/DTD/svg11.dtd">
<svg version="1.1" id="Layer_1" xmlns="http://www.w3.org/2000/svg" xmlns:xlink="http://www.w3.org/1999/xlink" x="0px" y="0px"
	 width="200px" height="200px" viewBox="0 0 200 200" enable-background="new 0 0 200 200" xml:space="preserve">
<g>
	<g>
		<path fill="#FFFFFF" d="M165.016,123.843l-2.243-4.113c-1.332,1.725-2.803,3.342-4.387,4.848v0.485l3.526,2.058
			C163,126.076,164.036,124.983,165.016,123.843z"/>
		<path fill="#FFFFFF" d="M166.696,80.3c-0.868-2.186-1.923-4.283-3.156-6.265l-9.219,6.508l0.081,0.921h1.544v3.71L166.696,80.3z"
			/>
		<path fill="#FFFFFF" d="M161.536,127.466l-3.151-1.838v2.877l0.35,1.401C159.704,129.13,160.635,128.312,161.536,127.466z"/>
		<path fill="#FFFFFF" d="M165.624,111.394l-7.238-2.975v7.062l3.383,2.326C163.248,115.798,164.542,113.654,165.624,111.394z"/>
		<path fill="#FFFFFF" d="M131.835,52.798l1.874-3.748c-1.098-0.119-2.207-0.201-3.326-0.246L131.835,52.798z"/>
		<path fill="#FFFFFF" d="M158.385,121.829c1.102-1.149,2.135-2.36,3.094-3.628l-3.094-2.127V121.829z"/>
		<path fill="#FFFFFF" d="M132.35,52.86c0.985,0.093,1.958,0.223,2.922,0.379l0.306-3.961c-0.448-0.066-0.902-0.113-1.355-0.167
			L132.35,52.86z"/>
		<path fill="#FFFFFF" d="M153.203,60.455c0.068,0.047,0.137,0.094,0.205,0.142l4.071-2.221c-1.058-0.792-2.152-1.541-3.279-2.246
			L153.203,60.455z"/>
		<path fill="#FFFFFF" d="M128.386,48.754c-1.141,0-2.269,0.053-3.39,0.129l-1.085,3.977c1.391-0.131,2.799-0.203,4.225-0.203
			c1.069,0,2.125,0.051,3.175,0.125l-1.452-3.993C129.368,48.776,128.88,48.754,128.386,48.754z"/>
		<path fill="#FFFFFF" d="M153.858,60.907c2.022,1.456,3.902,3.083,5.633,4.851l1.88-4.135c-1.105-1.028-2.261-2.004-3.464-2.925
			L153.858,60.907z"/>
		<path fill="#FFFFFF" d="M160.042,65.726l4.231-1.154c-0.808-0.897-1.647-1.767-2.524-2.6L160.042,65.726z"/>
		<path fill="#FFFFFF" d="M152.507,59.975c0.089,0.059,0.175,0.122,0.263,0.182l0.991-4.299c-0.561-0.343-1.129-0.673-1.706-0.994
			L152.507,59.975z"/>
		<path fill="#FFFFFF" d="M153.638,72.8l0.633,7.18l9.006-6.357c-1.383-2.164-2.972-4.192-4.743-6.057L153.638,72.8z"/>
		<path fill="#FFFFFF" d="M153.58,72.147l4.612-4.93c-1.675-1.722-3.499-3.307-5.463-4.721L153.58,72.147z"/>
		<path fill="#FFFFFF" d="M127.635,91.219l-19.284-31.712c-2.197,1.166-4.271,2.523-6.203,4.042l24.112,27.669H127.635z"/>
		<path fill="#FFFFFF" d="M94.735,62.239c1.204,0.946,2.136,1.965,2.781,2.77c0.887-0.863,1.817-1.684,2.778-2.47l-3.685-2.01
			C95.969,61.084,95.343,61.652,94.735,62.239z"/>
		<path fill="#FFFFFF" d="M99.078,66.215c1.152,0.253,2.874,0.754,4.194,1.684c2.031,1.431,2.602,4.012,2.789,4.86
			c0.211,0.951,0.2,2.449-0.205,3.921l18.299,14.539h1.456l-23.849-27.367C100.833,64.602,99.937,65.39,99.078,66.215z"/>
		<path fill="#FFFFFF" d="M97.012,60.192l3.67,2.002l-1.101-4.038C98.699,58.806,97.844,59.486,97.012,60.192z"/>
		<path fill="#FFFFFF" d="M108.786,59.285l19.419,31.935h0.313l-12.69-34.796C113.374,57.167,111.021,58.132,108.786,59.285z"/>
		<path fill="#FFFFFF" d="M116.3,56.292L128.63,90.1v-0.832c0-0.537,0.156-1.034,0.409-1.467l-5.613-32.924
			C120.98,55.148,118.599,55.624,116.3,56.292z"/>
		<path fill="#FFFFFF" d="M104.231,55.133l3.312,2.576l-0.718-3.95C105.945,54.192,105.079,54.648,104.231,55.133z"/>
		<path fill="#FFFFFF" d="M132.024,54.792l-0.718,31.574c0.084-0.007,0.165-0.025,0.25-0.025v-4.878h1.535l2.029-26.27
			C134.1,55.024,133.069,54.887,132.024,54.792z"/>
		<path fill="#FFFFFF" d="M168.33,103.809l-9.945-1.785v5.868l7.445,3.06C166.886,108.675,167.727,106.287,168.33,103.809z"/>
		<path fill="#FFFFFF" d="M130.816,86.448l0.72-31.692c-1.123-0.089-2.255-0.147-3.401-0.147c-1.426,0-2.836,0.071-4.225,0.208
			l5.53,32.44C129.809,86.869,130.283,86.588,130.816,86.448z"/>
		<path fill="#FFFFFF" d="M169.403,96.097l-11.018,0.279v5.153l10.059,1.805C168.983,100.991,169.31,98.573,169.403,96.097z"/>
		<path fill="#FFFFFF" d="M115.947,50.356v4.009c2.266-0.647,4.607-1.117,7.01-1.396l-2.174-3.622
			C119.141,49.603,117.528,49.943,115.947,50.356z"/>
		<path fill="#FFFFFF" d="M123.423,52.799l1.058-3.878c-1.069,0.084-2.131,0.192-3.178,0.344L123.423,52.799z"/>
		<path fill="#FFFFFF" d="M169.442,94.621c0-1.991-0.156-3.948-0.447-5.862l-10.609,2.312v4.816l11.031-0.279
			C169.424,95.279,169.442,94.952,169.442,94.621z"/>
		<path fill="#FFFFFF" d="M158.385,89.268v1.305l10.532-2.295c-0.429-2.6-1.116-5.117-2.037-7.525l-10.935,4.957v0.681
			C157.328,86.624,158.385,87.821,158.385,89.268z"/>
		<path fill="#FFFFFF" d="M107.28,53.534L108,57.498c2.142-1.098,4.389-2.025,6.724-2.765l-3.049-3.048
			C110.172,52.23,108.707,52.849,107.28,53.534z"/>
		<path fill="#FFFFFF" d="M115.244,54.562c0.071-0.022,0.143-0.04,0.214-0.061v-4.01c-1.108,0.302-2.204,0.632-3.277,1.009
			L115.244,54.562z"/>
		<path fill="#FFFFFF" d="M100.001,57.842l1.105,4.052c1.875-1.46,3.876-2.772,5.988-3.918l-3.326-2.586
			C102.47,56.15,101.214,56.969,100.001,57.842z"/>
		<path fill="#FFFFFF" d="M174.967,103.903h-4.654c-0.013,0.057-0.027,0.114-0.041,0.171l3.854,3.084
			C174.442,106.087,174.731,105.005,174.967,103.903z"/>
		<path fill="#FFFFFF" d="M173.976,107.664l-3.83-3.064c-0.582,2.307-1.359,4.539-2.318,6.679l4.728,0.315
			C173.089,110.311,173.564,109.001,173.976,107.664z"/>
		<path fill="#FFFFFF" d="M172.361,112.071l-4.754-0.317c-0.012,0.025-0.023,0.049-0.035,0.074l3.186,3.583
			C171.336,114.322,171.874,113.209,172.361,112.071z"/>
		<path fill="#FFFFFF" d="M80.564,82.245c-0.212,0.12-0.454,0.194-0.716,0.194c-0.432,0-0.816-0.19-1.083-0.488h-7.209v4.439
			c1.381,0.234,2.439,1.431,2.439,2.878v1.951h3.902c-0.808,0-1.463-0.655-1.463-1.463c0-0.808,0.655-1.463,1.463-1.463
			c0.58,0,1.076,0.34,1.313,0.829C79.491,86.774,79.944,84.477,80.564,82.245z"/>
		<path fill="#FFFFFF" d="M77.898,91.219h1.114c0.014-0.194,0.029-0.388,0.046-0.581C78.791,90.989,78.373,91.219,77.898,91.219z"/>
		<path fill="#FFFFFF" d="M175.939,94.902l-4.58,0.981c-0.002,0.057-0.002,0.114-0.004,0.171l4.441,2.049
			C175.878,97.046,175.932,95.98,175.939,94.902z"/>
		<path fill="#FFFFFF" d="M100.419,0L13.812,50.023v58.757h30.427V89.268c0-1.614,1.313-2.927,2.927-2.927v-4.878h1.536l0.226-2.926
			H22.087L21.8,78.241c-0.091-0.093-2.232-2.318-3.448-5.199c-1.018-2.411-1.197-5.452-0.849-7.21
			c0.353-1.782,2.078-4.11,4.393-5.931c1.794-1.412,4.377-1.709,6.228-1.709c0.245,0,0.469,0.005,0.666,0.013
			c0.492-1.78,1.929-5.95,5.047-8.257c3.088-2.286,8.074-3.635,10.451-3.425c1.766,0.151,4.431,1.182,6.888,2.935l0.869-11.251
			v-1.135c0-1.076,0.876-1.951,1.951-1.951h10.244c1.076,0,1.951,0.876,1.951,1.951v1.044l1.03,11.693
			c1.045,0.398,2.075,0.89,2.972,1.492c2.628,1.766,4.332,4.098,4.948,5.027c1.047,0.177,3.616,0.724,5.45,2.034
			c0.683,0.488,1.2,1.103,1.612,1.742c1.415-0.521,2.77-0.829,3.668-0.898c1.656-0.127,4.783,0.553,7.215,1.927
			c1.103-1.084,2.258-2.117,3.463-3.096c-0.039,0.003-0.076,0.012-0.115,0.012c-0.808,0-1.463-0.655-1.463-1.463
			c0-0.808,0.655-1.463,1.463-1.463c0.808,0,1.463,0.655,1.463,1.463c0,0.163-0.033,0.316-0.082,0.462
			c1.874-1.425,3.855-2.721,5.932-3.877c-0.807-0.002-1.46-0.656-1.46-1.463c0-0.808,0.655-1.463,1.463-1.463
			c0.808,0,1.463,0.655,1.463,1.463c0,0.291-0.087,0.56-0.234,0.788c2.484-1.293,5.099-2.377,7.814-3.25
			c-0.701-0.109-1.239-0.709-1.239-1.441c0-0.808,0.655-1.463,1.463-1.463c0.808,0,1.463,0.655,1.463,1.463
			c0,0.416-0.175,0.789-0.453,1.055c2.633-0.772,5.359-1.33,8.156-1.669c-0.514-0.227-0.874-0.74-0.874-1.338
			c0-0.808,0.655-1.463,1.463-1.463c0.808,0,1.463,0.655,1.463,1.463c0,0.483-0.237,0.907-0.597,1.174
			c1.562-0.144,3.143-0.224,4.744-0.224c0.875,0,1.744,0.024,2.608,0.067c-0.255-0.263-0.414-0.621-0.414-1.016
			c0-0.808,0.655-1.463,1.463-1.463c0.808,0,1.463,0.655,1.463,1.463c0,0.474-0.229,0.892-0.579,1.159
			c0.941,0.083,1.876,0.186,2.801,0.319l0.706-9.144v-1.115c0-1.076,0.875-1.951,1.95-1.951h10.244c1.076,0,1.951,0.876,1.951,1.951
			v1.049l1.27,14.403c1.419,0.741,2.797,1.545,4.128,2.412c-0.021-0.098-0.032-0.199-0.032-0.303c0-0.808,0.655-1.463,1.463-1.463
			c0.808,0,1.463,0.655,1.463,1.463c0,0.729-0.535,1.329-1.233,1.44c2.189,1.554,4.24,3.278,6.135,5.151
			c0.114-0.695,0.713-1.226,1.439-1.226c0.808,0,1.463,0.655,1.463,1.463c0,0.745-0.559,1.354-1.28,1.445
			c1.736,1.888,3.316,3.911,4.73,6.047c0.144-0.658,0.728-1.15,1.428-1.15c0.808,0,1.463,0.655,1.463,1.463
			c0,0.808-0.655,1.463-1.463,1.463c-0.115,0-0.226-0.017-0.333-0.042c1.104,1.836,2.089,3.745,2.936,5.724
			c0.242-0.475,0.73-0.804,1.3-0.804c0.808,0,1.463,0.655,1.463,1.463c0,0.808-0.655,1.463-1.463,1.463
			c-0.17,0-0.331-0.035-0.482-0.088c0.924,2.476,1.633,5.048,2.125,7.692c0.247-0.459,0.726-0.775,1.284-0.775
			c0.808,0,1.463,0.655,1.463,1.463c0,0.808-0.655,1.463-1.463,1.463c-0.382,0-0.726-0.15-0.987-0.389
			c0.321,2.196,0.498,4.437,0.498,6.718c0,0.302-0.018,0.6-0.024,0.901c0.262-0.246,0.612-0.4,1-0.4
			c0.808,0,1.463,0.655,1.463,1.463c0,0.808-0.655,1.463-1.463,1.463c-0.429,0-0.812-0.188-1.079-0.483
			c-0.162,2.563-0.537,5.069-1.103,7.508c0.213-0.121,0.456-0.196,0.719-0.196c0.808,0,1.463,0.655,1.463,1.463
			c0,0.808-0.655,1.463-1.463,1.463c-0.524,0-0.98-0.277-1.238-0.691c-0.473,1.685-1.041,3.33-1.695,4.936l-0.011,0.161
			l-0.054-0.004c-0.145,0.353-0.282,0.71-0.436,1.058c0.158-0.059,0.328-0.095,0.506-0.095c0.808,0,1.463,0.655,1.463,1.463
			c0,0.808-0.655,1.463-1.463,1.463c-0.638,0-1.174-0.41-1.375-0.979c-1.295,2.624-2.836,5.113-4.584,7.448
			c0.182-0.081,0.381-0.128,0.593-0.128c0.808,0,1.463,0.655,1.463,1.463c0,0.808-0.655,1.463-1.463,1.463
			c-0.808,0-1.463-0.655-1.463-1.463c0-0.08,0.011-0.157,0.024-0.234c-1.739,2.189-3.667,4.231-5.764,6.099
			c0.754,0.059,1.35,0.682,1.35,1.452c0,0.808-0.655,1.463-1.463,1.463c-0.808,0-1.463-0.655-1.463-1.463
			c0-0.042,0.009-0.081,0.012-0.122c-0.641,0.525-1.295,1.035-1.963,1.529v1.458l0.918-0.542v3.249l-0.918,0.528v4.444
			c1.636-0.346,4.944-0.99,6.914-0.99c2.091,0,4.592,0.664,7.241,1.37c2.508,0.668,5.103,1.357,7.434,1.496
			c2.898,0.166,5.472-0.487,7.006-1.006v-92.61L100.419,0z M42.693,78.539l2.275,7.476l-1.866,0.568l-2.275-7.476L42.693,78.539z
			 M35.891,82.456l2.233,7.977l-1.879,0.526l-2.233-7.977L35.891,82.456z M28.589,78.562l2.454,9.202l-1.885,0.503l-2.454-9.202
			L28.589,78.562z M138.19,31.122c-0.146,0.293-0.488,0.439-0.78,0.439c-0.146,0-0.293,0-0.439-0.098l-32.976-19.024L117.751,30
			c0.293,0.39,0.244,0.976-0.146,1.268c-0.146,0.146-0.341,0.195-0.537,0.195c-0.293,0-0.537-0.098-0.732-0.342l-15.024-19.171
			v18.732c0,0.537-0.39,0.927-0.927,0.927c-0.537,0-0.927-0.439-0.927-0.927V11.951L84.434,31.122
			c-0.293,0.39-0.878,0.439-1.268,0.146c-0.39-0.293-0.439-0.878-0.146-1.268l13.756-17.561l-32.39,18.683
			c-0.39,0.244-0.976,0.098-1.22-0.341c-0.244-0.439-0.098-0.976,0.342-1.22L99.946,8.537c0.049,0,0.098-0.049,0.146-0.049h0.195
			h0.049c0.049,0,0.049,0,0.049,0h0.146h0.049h0.049c0.049,0,0.098,0,0.146,0.049L137.8,29.902
			C138.239,30.146,138.385,30.732,138.19,31.122z"/>
		<path fill="#FFFFFF" d="M175.754,98.623l-4.414-2.037c-0.111,2.331-0.422,4.611-0.912,6.828h4.631
			C175.378,101.844,175.608,100.246,175.754,98.623z"/>
		<path fill="#FFFFFF" d="M175.592,89.116l-4.671-0.667c0.308,2.015,0.472,4.076,0.472,6.173c0,0.255-0.015,0.507-0.02,0.761
			l4.568-0.979C175.932,92.614,175.808,90.851,175.592,89.116z"/>
		<path fill="#FFFFFF" d="M81.444,87.266l3.789,2.067c0.256-1.966,0.65-3.89,1.177-5.762l-4.342,0.668
			C81.828,85.237,81.616,86.245,81.444,87.266z"/>
		<path fill="#FFFFFF" d="M88.964,81.951c-0.135,0.391-0.268,0.783-0.39,1.179l25.424,8.089h5.922l-17.889-9.268H88.964z"/>
		<path fill="#FFFFFF" d="M170.824,87.867c0.004,0.026,0.01,0.051,0.014,0.077l4.687,0.669c-0.124-0.911-0.272-1.815-0.451-2.708
			L170.824,87.867z"/>
		<path fill="#FFFFFF" d="M102.64,81.693l-0.017,0.016l18.357,9.511h2.392l-17.669-14.039c-0.094,0.275-0.198,0.548-0.323,0.812
			C104.411,80.047,102.711,81.627,102.64,81.693z"/>
		<path fill="#FFFFFF" d="M87.122,89.932l8.46,1.287h16.808l-23.954-7.622C87.828,85.648,87.385,87.763,87.122,89.932z"/>
		<path fill="#FFFFFF" d="M158.385,151.219c0,1.614-1.312,2.926-2.926,2.926h-23.902c-1.614,0-2.926-1.312-2.926-2.926v-0.489
			h-1.594v0.001c0,0.941-0.766,1.707-1.707,1.707H77.768c-0.941,0-1.707-0.766-1.707-1.707v-0.001h-2.065v0.489
			c0,1.614-1.313,2.926-2.927,2.926H47.166c-1.614,0-2.927-1.312-2.927-2.926v-0.489H15.038L100.419,200l86.18-49.757h-28.214
			V151.219z M117.868,163.579l2.195-3.756c0.146-0.293,0.537-0.39,0.829-0.244l0.098,0.049c0.244,0.146,0.341,0.341,0.341,0.634
			l0.488,3.805l1.415-2.439c0.146-0.293,0.537-0.39,0.829-0.195c0.293,0.146,0.39,0.537,0.195,0.829l-2.195,3.756
			c-0.146,0.293-0.537,0.39-0.829,0.244h-0.049c-0.244-0.146-0.342-0.341-0.342-0.634l-0.488-3.951l-1.463,2.537
			c-0.146,0.293-0.537,0.39-0.829,0.195C117.77,164.262,117.673,163.872,117.868,163.579z M100.385,157.366
			c1.707,0,2.878,1.268,2.878,2.829c0,1.561-1.219,2.829-2.927,2.829c-1.659-0.049-2.878-1.268-2.878-2.829
			C97.459,158.634,98.678,157.366,100.385,157.366z M77.472,160.654c0.293-0.146,0.634-0.049,0.829,0.244l1.902,3.317l1.951-1.122
			c0.244-0.146,0.585-0.049,0.732,0.195c0.146,0.244,0.049,0.585-0.195,0.732l-2.439,1.415c-0.293,0.146-0.634,0.049-0.829-0.244
			l-2.195-3.707C77.082,161.191,77.179,160.85,77.472,160.654z M59.995,167.122c-0.62,0-1.122-0.502-1.122-1.122
			c0-0.62,0.502-1.122,1.122-1.122s1.122,0.502,1.122,1.122C61.117,166.62,60.615,167.122,59.995,167.122z M137.312,169.122
			l-36.439,21.024h-0.049c-0.049,0-0.049,0.049-0.098,0.049h-0.049h-0.049c-0.049,0.049-0.098,0.049-0.195,0.049
			c-0.049,0-0.146-0.049-0.195-0.049h-0.049h-0.049h-0.049c-0.049,0-0.049-0.049-0.098-0.049h-0.049l-37.024-21.366
			c-0.439-0.244-0.585-0.78-0.341-1.22c0.244-0.439,0.78-0.585,1.22-0.341l32.976,19.024L83.02,168.683
			c-0.293-0.39-0.244-0.976,0.146-1.268c0.39-0.293,0.976-0.244,1.268,0.146l15.024,19.171V168c0-0.537,0.39-0.927,0.927-0.927
			c0.537,0,0.927,0.439,0.927,0.927v18.732l15.024-19.171c0.293-0.39,0.878-0.439,1.268-0.146c0.39,0.293,0.439,0.878,0.146,1.268
			l-13.756,17.561l32.341-18.683c0.39-0.244,0.976-0.098,1.22,0.342C137.8,168.341,137.654,168.927,137.312,169.122z
			 M139.995,167.122c-0.62,0-1.122-0.502-1.122-1.122c0-0.62,0.502-1.122,1.122-1.122c0.62,0,1.122,0.502,1.122,1.122
			C141.117,166.62,140.615,167.122,139.995,167.122z"/>
		<path fill="#FFFFFF" d="M179.859,145.588c-2.527-0.151-5.219-0.867-7.821-1.56c-2.521-0.671-4.902-1.305-6.738-1.305
			c-1.947,0-5.56,0.742-6.914,1.036v4.533h28.595v-3.603c-1.506,0.462-3.622,0.93-6.034,0.93
			C180.589,145.62,180.227,145.61,179.859,145.588z"/>
		<path fill="#FFFFFF" d="M80.969,91.219h4.063c0.038-0.458,0.08-0.914,0.133-1.368l-3.809-2.077
			C81.18,88.909,81.058,90.06,80.969,91.219z"/>
		<path fill="#FFFFFF" d="M86.989,91.219h5.35l-5.281-0.804C87.029,90.682,87.012,90.952,86.989,91.219z"/>
		<path fill="#FFFFFF" d="M170.514,115.871l-3.166-3.561c-1.093,2.27-2.39,4.428-3.866,6.456l4.559,1.14
			C168.935,118.606,169.758,117.259,170.514,115.871z"/>
		<path fill="#FFFFFF" d="M100.337,161.854c0.976,0.049,1.659-0.732,1.659-1.659c0-0.976-0.683-1.756-1.659-1.756
			s-1.659,0.78-1.659,1.707C98.678,161.073,99.361,161.854,100.337,161.854z"/>
		<path fill="#FFFFFF" d="M167.748,120.336l-4.578-1.145c-0.026,0.035-0.052,0.071-0.078,0.106l2.259,4.141
			C166.192,122.437,166.995,121.405,167.748,120.336z"/>
		<path fill="#FFFFFF" d="M86.897,81.951h-4.213c-0.175,0.588-0.342,1.179-0.493,1.776l4.371-0.673
			C86.672,82.686,86.778,82.316,86.897,81.951z"/>
		<path fill="#FFFFFF" d="M168.639,79.904c0.005,0.012,0.01,0.025,0.015,0.037l4.653-0.358c-0.349-0.967-0.72-1.924-1.134-2.86
			L168.639,79.904z"/>
		<path fill="#FFFFFF" d="M165.265,73.122c1.234,1.999,2.296,4.107,3.179,6.303l3.514-3.162c-0.62-1.364-1.307-2.693-2.057-3.984
			L165.265,73.122z"/>
		<path fill="#FFFFFF" d="M168.836,80.416c0.832,2.237,1.465,4.563,1.897,6.956l4.25-1.962c-0.388-1.827-0.901-3.609-1.507-5.351
			L168.836,80.416z"/>
		<path fill="#FFFFFF" d="M164.998,72.674l4.636-0.843c-0.558-0.935-1.139-1.856-1.762-2.749L164.998,72.674z"/>
		<path fill="#FFFFFF" d="M159.973,66.25c1.758,1.855,3.34,3.866,4.735,6.005l2.866-3.583c-0.914-1.28-1.896-2.511-2.937-3.694
			L159.973,66.25z"/>
		<path fill="#FFFFFF" d="M43.76,48.454c-2.233,0-6.288,1.231-8.763,3.063c-3.344,2.476-4.492,7.862-4.503,7.916l-0.181,0.875
			l-0.889-0.103c-0.005-0.001-0.53-0.061-1.299-0.061c-1.263,0-3.594,0.168-5.021,1.29c-1.91,1.503-3.425,3.467-3.685,4.777
			c-0.284,1.431-0.124,4.045,0.732,6.072c0.836,1.98,2.203,3.648,2.78,4.302h26.149l0.217-2.809h-7.384l-0.215-0.115
			c-0.115-0.061-2.816-1.53-3.665-4.356c-0.637-2.126,0.385-5.33,1.074-6.574l0.138-0.254c0.605-1.122,1.864-3.457,4.125-4.242
			c0.849-0.295,1.86-0.444,3.005-0.444c1.059,0,2.035,0.127,2.699,0.242c0.297-0.756,0.839-1.929,1.684-3.165l0.239-3.091
			c-2.387-1.976-5.2-3.164-6.875-3.307C44.008,48.459,43.888,48.454,43.76,48.454z"/>
		<path fill="#FFFFFF" d="M46.373,59.742c-0.927,0-1.722,0.113-2.365,0.336c-1.544,0.537-2.523,2.35-3.047,3.325l-0.149,0.274
			c-0.535,0.966-1.342,3.631-0.911,5.068c0.499,1.662,1.993,2.741,2.524,3.081h7.022l0.889-11.507l-0.862-0.215
			C49.458,60.1,48.006,59.742,46.373,59.742z"/>
		<path fill="#FFFFFF" d="M79.457,59.951c-1.905-1.361-4.99-1.752-5.021-1.756l-0.476-0.058l-0.245-0.414
			c-0.017-0.028-1.706-2.849-4.611-4.801c-0.508-0.341-1.087-0.646-1.691-0.919l1.406,15.952c0.134-0.061,0.262-0.131,0.405-0.18
			c0.782-0.268,1.713-0.404,2.767-0.404c0.938,0,1.806,0.107,2.414,0.208c0.474-1.168,1.543-3.323,3.507-5.062
			c0.711-0.63,1.579-1.165,2.485-1.621C80.136,60.539,79.828,60.215,79.457,59.951z"/>
		<path fill="#FFFFFF" d="M92.7,63.169c-2.011-1.333-5.169-2.134-6.679-2.017c-1.623,0.124-4.983,1.201-6.815,2.823
			c-2.351,2.082-3.224,4.967-3.232,4.996l-0.264,0.893l-0.906-0.221c-0.013-0.003-1.332-0.323-2.812-0.323
			c-0.838,0-1.556,0.101-2.135,0.299c-0.309,0.106-0.589,0.274-0.849,0.473L69.881,80h31.696c0.463-0.479,1.439-1.571,2.038-2.839
			c0.707-1.498,0.708-3.236,0.542-3.98c-0.147-0.667-0.595-2.692-2.008-3.687c-1.714-1.207-4.52-1.563-4.549-1.566l-0.472-0.058
			l-0.247-0.409C96.866,67.435,95.333,64.913,92.7,63.169z"/>
		<path fill="#FFFFFF" d="M44.239,110.731H13.02v38.05h31.219V110.731z M40.824,113.658h1.464v8.781h-1.464V113.658z
			 M28.629,113.658h1.464v8.781h-1.464V113.658z M16.434,113.658h1.464v8.781h-1.464V113.658z M23.02,133.171
			c0,1.211-0.985,2.196-2.195,2.196h-2.927c-1.21,0-2.196-0.985-2.196-2.196v-2.926c0-1.211,0.985-2.196,2.196-2.196h2.927
			c1.21,0,2.195,0.985,2.195,2.196V133.171z M23.751,122.439h-1.464v-8.781h1.464V122.439z M32.776,133.171
			c0,1.211-0.985,2.196-2.196,2.196h-2.927c-1.21,0-2.195-0.985-2.195-2.196v-2.926c0-1.211,0.985-2.196,2.195-2.196h2.927
			c1.21,0,2.196,0.985,2.196,2.196V133.171z M34.97,113.658h1.464v8.781H34.97V113.658z M42.532,133.171
			c0,1.211-0.985,2.196-2.196,2.196H37.41c-1.21,0-2.195-0.985-2.195-2.196v-2.926c0-1.211,0.985-2.196,2.195-2.196h2.927
			c1.21,0,2.196,0.985,2.196,2.196V133.171z"/>
		<path fill="#FFFFFF" d="M40.337,129.513H37.41c-0.403,0-0.731,0.329-0.731,0.732v2.926c0,0.403,0.328,0.732,0.731,0.732h2.927
			c0.404,0,0.732-0.329,0.732-0.732v-2.926C41.068,129.841,40.74,129.513,40.337,129.513z"/>
		<path fill="#FFFFFF" d="M30.58,129.513h-2.927c-0.403,0-0.731,0.329-0.731,0.732v2.926c0,0.403,0.328,0.732,0.731,0.732h2.927
			c0.404,0,0.732-0.329,0.732-0.732v-2.926C31.312,129.841,30.984,129.513,30.58,129.513z"/>
		<path fill="#FFFFFF" d="M20.825,129.513h-2.927c-0.404,0-0.732,0.329-0.732,0.732v2.926c0,0.403,0.328,0.732,0.732,0.732h2.927
			c0.403,0,0.731-0.329,0.731-0.732v-2.926C21.556,129.841,21.228,129.513,20.825,129.513z"/>
		<path fill="#FFFFFF" d="M46.19,89.268v21.463v38.05v2.439c0,0.538,0.438,0.976,0.976,0.976h23.903
			c0.538,0,0.976-0.438,0.976-0.976v-0.489V91.219v-1.951c0-0.538-0.438-0.976-0.976-0.976H47.166
			C46.628,88.293,46.19,88.73,46.19,89.268z M53.508,148.892h-1.464v-44.404h1.464V148.892z M59.849,148.892h-1.464v-44.404h1.464
			V148.892z M66.19,148.892h-1.464v-44.404h1.464V148.892z M48.873,92.142c0-1.21,0.985-2.196,2.196-2.196h16.098
			c1.21,0,2.195,0.985,2.195,2.196v7.804c0,1.21-0.985,2.195-2.195,2.195H51.068c-1.21,0-2.196-0.985-2.196-2.195V92.142z"/>
		<path fill="#FFFFFF" d="M51.068,100.678h2.439v-3.791h-3.171v3.06C50.337,100.35,50.665,100.678,51.068,100.678z"/>
		<rect x="54.971" y="96.886" fill="#FFFFFF" width="3.414" height="3.791"/>
		<rect x="59.849" y="96.886" fill="#FFFFFF" width="3.414" height="3.791"/>
		<path fill="#FFFFFF" d="M67.897,99.946v-3.06h-3.17v3.791h2.439C67.569,100.678,67.897,100.35,67.897,99.946z"/>
		<path fill="#FFFFFF" d="M53.507,91.41h-2.439c-0.404,0-0.732,0.328-0.732,0.732v3.281h3.171V91.41z"/>
		<rect x="54.971" y="91.41" fill="#FFFFFF" width="3.414" height="4.013"/>
		<path fill="#FFFFFF" d="M67.897,92.142c0-0.404-0.328-0.732-0.731-0.732h-2.439v4.013h3.17V92.142z"/>
		<rect x="59.849" y="91.41" fill="#FFFFFF" width="3.414" height="4.013"/>
		<rect x="49.117" y="83.414" fill="#FFFFFF" width="20.488" height="2.927"/>
		<path fill="#FFFFFF" d="M53.751,41.439l-3.092,40.025h17.393l-3.528-40.029c-0.094,0.014-0.187,0.029-0.285,0.029H53.995
			C53.912,41.463,53.832,41.449,53.751,41.439z M62.256,43.384l1.526,35.608l-1.462,0.063l-1.526-35.608L62.256,43.384z
			 M55.978,43.384l1.462,0.063l-1.526,35.608l-1.462-0.063L55.978,43.384z"/>
		<rect x="53.995" y="37.073" fill="#FFFFFF" width="10.244" height="2.439"/>
		<path fill="#FFFFFF" d="M89.453,99.261h-0.778v3.345h0.778c0.849,0,1.415-0.711,1.415-1.672
			C90.867,99.93,90.302,99.261,89.453,99.261z"/>
		<path fill="#FFFFFF" d="M77.679,147.57c-0.013-0.083-0.026-0.167-0.026-0.253v-1.464c0-0.941,0.766-1.707,1.707-1.707h0.035
			c-0.023-0.111-0.035-0.226-0.035-0.343v-1.464c0-0.941,0.766-1.707,1.707-1.707h4.078v-28.06
			c-0.252-0.407-0.435-0.862-0.527-1.352H73.995v37.561h2.144C76.343,148.106,76.948,147.609,77.679,147.57z"/>
		<path fill="#FFFFFF" d="M113.926,99.22c-0.849,0-1.415,0.753-1.415,1.714s0.601,1.714,1.415,1.756
			c0.849,0,1.415-0.753,1.415-1.714S114.739,99.22,113.926,99.22z"/>
		<path fill="#FFFFFF" d="M119.62,99.22c-0.849,0-1.415,0.753-1.415,1.714s0.601,1.714,1.415,1.756c0.849,0,1.415-0.753,1.415-1.714
			S120.433,99.22,119.62,99.22z"/>
		<path fill="#FFFFFF" d="M126.956,148.781h1.674v-37.561h-9.683c-0.121,0.653-0.41,1.238-0.805,1.732v27.681h3.414
			c0.941,0,1.708,0.766,1.708,1.707v1.464c0,0.118-0.012,0.232-0.035,0.343h0.213c0.941,0,1.708,0.766,1.708,1.707v1.464
			c0,0.084-0.013,0.164-0.025,0.244h0.204C126.1,147.561,126.745,148.078,126.956,148.781z"/>
		<path fill="#FFFFFF" d="M84.254,99.22c-0.849,0-1.415,0.753-1.415,1.714s0.566,1.714,1.415,1.756c0.849,0,1.415-0.753,1.415-1.714
			S85.067,99.22,84.254,99.22z"/>
		<path fill="#FFFFFF" d="M111.8,112.147c-0.135-0.293-0.241-0.6-0.302-0.927H92.069c-0.098,0.53-0.297,1.023-0.581,1.453v27.96
			H111.8V112.147z"/>
		<path fill="#FFFFFF" d="M128.63,93.171H73.995v16.099h10.761c0.501-1.553,1.911-2.684,3.589-2.684
			c1.677,0,3.087,1.131,3.588,2.684h19.701c0.501-1.553,1.912-2.684,3.589-2.684c1.677,0,3.087,1.131,3.588,2.684h9.819V93.171z
			 M80.824,103.108c0,0.376-0.248,0.627-0.531,0.627h-0.035c-0.248,0-0.389-0.167-0.53-0.376l-2.051-3.178v2.969
			c0,0.334-0.212,0.585-0.495,0.585c-0.283,0-0.495-0.251-0.495-0.627v-4.39c0-0.376,0.248-0.627,0.531-0.627h0.106
			c0.248,0,0.389,0.167,0.53,0.376l1.981,3.094v-2.843c0-0.335,0.212-0.585,0.495-0.585c0.283,0,0.495,0.251,0.495,0.585V103.108z
			 M84.219,103.777c-1.45,0-2.476-1.254-2.476-2.843c0-1.547,1.061-2.843,2.511-2.843c1.45,0,2.476,1.254,2.476,2.843
			C86.73,102.481,85.669,103.777,84.219,103.777z M89.453,103.693h-1.309c-0.283,0-0.495-0.251-0.531-0.627v-4.265
			c0-0.376,0.248-0.627,0.531-0.627h1.309c1.45,0,2.476,1.213,2.476,2.76S90.938,103.693,89.453,103.693z M95.995,103.693h-2.617
			c-0.283,0-0.495-0.251-0.53-0.627V98.76c0-0.376,0.248-0.627,0.53-0.627h2.582c0.248,0,0.46,0.251,0.46,0.544
			c0,0.293-0.212,0.544-0.46,0.544h-2.087v1.129h1.768c0.248,0,0.46,0.251,0.46,0.544c0,0.293-0.212,0.543-0.46,0.543h-1.768v1.171
			h2.122c0.248,0,0.46,0.251,0.46,0.544C96.455,103.443,96.243,103.693,95.995,103.693z M99.037,103.777
			c-0.637,0-1.238-0.209-1.768-0.669c-0.106-0.084-0.212-0.251-0.141-0.544c0-0.293,0.212-0.544,0.495-0.544
			c0.106,0,0.212,0.084,0.283,0.125c0.354,0.293,0.743,0.502,1.202,0.502c0.424,0,0.672-0.167,0.672-0.502
			c0-0.335-0.177-0.46-0.955-0.711c-0.955-0.251-1.556-0.585-1.556-1.672c0-1.003,0.672-1.672,1.627-1.672
			c0.566,0,1.061,0.167,1.485,0.502c0.106,0.084,0.212,0.251,0.212,0.502c0,0.293-0.212,0.544-0.495,0.544
			c-0.071,0-0.177-0.042-0.248-0.084c-0.354-0.251-0.672-0.376-0.99-0.376c-0.389,0-0.601,0.251-0.601,0.502
			c0,0.334,0.212,0.46,1.026,0.711c0.955,0.293,1.485,0.711,1.485,1.672C100.77,103.15,100.063,103.777,99.037,103.777z
			 M105.474,103.066c-0.424,0.46-0.919,0.711-1.662,0.711c-1.344,0-2.369-1.254-2.44-2.885c0-1.547,0.99-2.843,2.44-2.843
			c0.707,0,1.167,0.209,1.556,0.544c0.106,0.125,0.212,0.293,0.212,0.502c0,0.335-0.212,0.585-0.495,0.585
			c-0.141,0-0.248-0.084-0.318-0.125c-0.283-0.251-0.601-0.376-0.955-0.376c-0.778,0-1.344,0.753-1.344,1.714
			c0,0.962,0.53,1.756,1.344,1.756c0.46,0,0.743-0.125,1.026-0.418c0.106-0.084,0.212-0.125,0.318-0.125
			c0.283,0,0.495,0.251,0.495,0.544C105.65,102.815,105.58,102.983,105.474,103.066z M110.602,103.108
			c0,0.376-0.248,0.627-0.53,0.627c-0.318,0-0.531-0.293-0.531-0.627v-1.673h-1.91v1.673c0,0.376-0.248,0.627-0.531,0.627
			c-0.318,0-0.53-0.251-0.53-0.627v-4.39c0-0.376,0.248-0.627,0.53-0.627c0.318,0,0.531,0.293,0.531,0.627v1.631h1.91v-1.631
			c0-0.376,0.248-0.627,0.531-0.627c0.318,0,0.53,0.293,0.53,0.627V103.108z M113.926,103.777c-1.45,0-2.476-1.254-2.511-2.843
			c0-1.547,1.061-2.843,2.511-2.843s2.476,1.254,2.476,2.843C116.402,102.481,115.376,103.777,113.926,103.777z M119.62,103.777
			c-1.45,0-2.476-1.254-2.476-2.843c0-1.547,1.061-2.843,2.511-2.843s2.476,1.254,2.476,2.843
			C122.131,102.481,121.07,103.777,119.62,103.777z M125.95,103.693h-2.405c-0.283,0-0.531-0.251-0.566-0.627V98.76
			c0-0.376,0.248-0.627,0.53-0.627c0.318,0,0.531,0.293,0.531,0.627v3.847h1.91c0.248,0,0.46,0.251,0.46,0.544
			C126.41,103.443,126.198,103.693,125.95,103.693z"/>
		<path fill="#FFFFFF" d="M77.768,150.975h47.561c0.134,0,0.243-0.11,0.243-0.243v-1.464c0-0.134-0.11-0.243-0.243-0.243h-1.887
			H79.361h-1.593c-0.134,0-0.244,0.11-0.244,0.243v1.464C77.524,150.866,77.633,150.975,77.768,150.975z"/>
		<path fill="#FFFFFF" d="M79.117,145.853v1.464c0,0.135,0.11,0.244,0.244,0.244h44.081c0.135,0,0.244-0.11,0.244-0.244v-1.464
			c0-0.134-0.11-0.243-0.244-0.243H79.361C79.227,145.61,79.117,145.72,79.117,145.853z"/>
		<path fill="#FFFFFF" d="M85.146,142.096h-4.078c-0.134,0-0.244,0.11-0.244,0.243v1.464c0,0.135,0.11,0.244,0.244,0.244h40.488
			c0.135,0,0.244-0.11,0.244-0.244v-1.464c0-0.134-0.11-0.243-0.244-0.243h-3.414v0.099H111.8v-0.099H91.488v0.099h-6.342V142.096z"
			/>
		<path fill="#FFFFFF" d="M86.61,113.939v26.793h3.414v-26.762c-0.509,0.261-1.074,0.421-1.68,0.421
			C87.717,114.39,87.132,114.217,86.61,113.939z"/>
		<path fill="#FFFFFF" d="M88.345,108.049c-1.287,0-2.333,1.094-2.333,2.439c0,1.345,1.047,2.439,2.333,2.439
			c1.286,0,2.333-1.094,2.333-2.439C90.678,109.143,89.631,108.049,88.345,108.049z M88.345,111.512
			c-0.599,0-1.085-0.502-1.085-1.122s0.486-1.122,1.085-1.122s1.085,0.502,1.085,1.122S88.944,111.512,88.345,111.512z"/>
		<path fill="#FFFFFF" d="M113.263,113.813v26.918h3.415V114.09c-0.449,0.192-0.94,0.301-1.455,0.301
			C114.504,114.39,113.837,114.172,113.263,113.813z"/>
		<path fill="#FFFFFF" d="M117.556,110.488c0-1.345-1.047-2.439-2.332-2.439c-1.287,0-2.333,1.094-2.333,2.439
			c0,1.345,1.047,2.439,2.333,2.439C116.509,112.926,117.556,111.832,117.556,110.488z M115.223,111.512
			c-0.599,0-1.085-0.502-1.085-1.122s0.486-1.122,1.085-1.122c0.599,0,1.085,0.502,1.085,1.122S115.822,111.512,115.223,111.512z"/>
		<path fill="#FFFFFF" d="M131.557,152.196h23.902c0.538,0,0.976-0.438,0.976-0.976V89.268c0-0.538-0.438-0.976-0.976-0.976h-23.902
			c-0.538,0-0.976,0.438-0.976,0.976v1.951v59.511v0.489C130.58,151.758,131.018,152.196,131.557,152.196z M137.898,148.892h-1.464
			v-44.404h1.464V148.892z M144.239,148.892h-1.464v-44.404h1.464V148.892z M150.58,148.892h-1.464v-44.404h1.464V148.892z
			 M133.263,92.142c0-1.21,0.985-2.196,2.196-2.196h16.098c1.21,0,2.194,0.985,2.194,2.196v7.804c0,1.21-0.985,2.195-2.194,2.195
			h-16.098c-1.211,0-2.196-0.985-2.196-2.195V92.142z"/>
		<path fill="#FFFFFF" d="M152.287,99.946v-3.06h-3.171v3.791h2.44C151.96,100.678,152.287,100.35,152.287,99.946z"/>
		<rect x="139.361" y="91.41" fill="#FFFFFF" width="3.414" height="4.013"/>
		<rect x="144.239" y="91.41" fill="#FFFFFF" width="3.414" height="4.013"/>
		<path fill="#FFFFFF" d="M137.898,91.41h-2.439c-0.403,0-0.732,0.328-0.732,0.732v3.281h3.171V91.41z"/>
		<path fill="#FFFFFF" d="M152.287,92.142c0-0.404-0.327-0.732-0.731-0.732h-2.44v4.013h3.171V92.142z"/>
		<rect x="144.239" y="96.886" fill="#FFFFFF" width="3.414" height="3.791"/>
		<rect x="139.361" y="96.886" fill="#FFFFFF" width="3.414" height="3.791"/>
		<path fill="#FFFFFF" d="M135.459,100.678h2.439v-3.791h-3.171v3.06C134.727,100.35,135.056,100.678,135.459,100.678z"/>
		<rect x="133.507" y="83.414" fill="#FFFFFF" width="20.489" height="2.927"/>
		<path fill="#FFFFFF" d="M138.142,41.439l-3.092,40.025h17.393l-3.528-40.029c-0.094,0.014-0.188,0.029-0.285,0.029h-10.244
			C138.302,41.463,138.222,41.449,138.142,41.439z M146.645,43.384l1.527,35.608l-1.462,0.063l-1.527-35.608L146.645,43.384z
			 M140.369,43.384l1.462,0.063l-1.527,35.608l-1.462-0.063L140.369,43.384z"/>
		<rect x="138.385" y="37.073" fill="#FFFFFF" width="10.245" height="2.439"/>
	</g>
</g>
</svg>
