<?xml version="1.0" encoding="utf-8"?>
<!-- Generator: Adobe Illustrator 17.0.0, SVG Export Plug-In . SVG Version: 6.00 Build 0)  -->
<!DOCTYPE svg PUBLIC "-//W3C//DTD SVG 1.1//EN" "http://www.w3.org/Graphics/SVG/1.1/DTD/svg11.dtd">
<svg version="1.1" id="Layer_1" xmlns="http://www.w3.org/2000/svg" xmlns:xlink="http://www.w3.org/1999/xlink" x="0px" y="0px"
	 width="200px" height="200px" viewBox="0 0 200 200" enable-background="new 0 0 200 200" xml:space="preserve">
<g>
	<ellipse fill="#FFFFFF" cx="74.952" cy="93.603" rx="10.07" ry="10.278"/>
	<path fill="#FFFFFF" d="M100,0L13.378,50v100L100,200l86.622-50V50L100,0z M101.197,33.109c4.063,0,7.25,3.361,7.25,7.508
		c0,2.723-1.42,5.1-3.762,6.416v12.562c0,2.189-1.369,3.962-3.514,3.962c-2.142,0-3.514-1.773-3.514-3.962V46.819
		c-2.342-1.352-3.513-3.625-3.513-6.203C94.145,36.47,97.137,33.109,101.197,33.109z M123.487,150.169H76.825
		c-1.995,0-3.612-1.649-3.612-3.686c0-2.037,1.617-3.688,3.612-3.688h46.662c1.996,0,3.612,1.651,3.612,3.688
		C127.099,148.519,125.483,150.169,123.487,150.169z M134.628,139.385H65.061c-1.995,0-3.612-1.65-3.612-3.687
		c0-2.034,1.617-3.686,3.612-3.686h69.567c1.996,0,3.611,1.65,3.611,3.686C138.239,137.735,136.624,139.385,134.628,139.385z
		 M156.22,127.979H43.78V84.123c0-8.626,6.851-15.877,15.302-15.877h82.385c8.453,0,14.752,7.251,14.752,15.877V127.979z"/>
	<ellipse fill="#FFFFFF" cx="126.453" cy="93.603" rx="10.07" ry="10.278"/>
</g>
</svg>
