<?xml version="1.0" encoding="utf-8"?>
<!-- Generator: Adobe Illustrator 17.0.0, SVG Export Plug-In . SVG Version: 6.00 Build 0)  -->
<!DOCTYPE svg PUBLIC "-//W3C//DTD SVG 1.1//EN" "http://www.w3.org/Graphics/SVG/1.1/DTD/svg11.dtd">
<svg version="1.1" id="Layer_1" xmlns="http://www.w3.org/2000/svg" xmlns:xlink="http://www.w3.org/1999/xlink" x="0px" y="0px"
	 width="200px" height="200px" viewBox="0 0 200 200" enable-background="new 0 0 200 200" xml:space="preserve">
<path fill="#FFFFFF" d="M107.812,133.733c0.964-1.911,0.175-3.412-0.283-3.852c-0.048-0.042-0.115-0.066-0.187-0.066
	c-0.084,0-0.157,0.03-0.211,0.084c-1.151,1.338-1.652,1.784-2.49,2.441c-2.001,1.628-4.292-0.205-5.769-1.067
	c-3.273-1.917-5.895-0.711-6.54,0.778c-0.633,1.489,0.072,3.291,1.851,3.062c2.49-0.326,2.604,0.06,4.412,1.2
	c3.352,2.134,5.793,0.977,7.053-0.03C106.685,135.451,107.27,134.746,107.812,133.733z"/>
<path fill="#FFFFFF" d="M113.538,23.189h-0.513c-0.958,0-1.959,0.06-2.978,0.169c-3.4,0.337-6.372,1.181-8.367,2.23
	c-0.096,0.042-0.163,0.139-0.163,0.247c0,0.145,0.127,0.265,0.283,0.265h0.048c0.573-0.09,1.157-0.169,1.766-0.229
	c5.522-0.555,10.169,0.362,10.398,2.043c0.169,1.272-2.236,2.622-5.787,3.442c-0.193,0.048-0.313,0.199-0.313,0.374
	c0,0.181,0.12,0.331,0.307,0.374c1.489,0.434,3.225,0.699,5.064,0.747c5.715,0.121,10.386-1.935,10.459-4.599
	C123.81,25.588,119.247,23.321,113.538,23.189z"/>
<path fill="#FFFFFF" d="M88.781,37.331c-4.346,0-7.457,0.567-10.157,0.639c-2.701,0.072-4.78-1.911-5.751-3.122
	c-0.796-0.994-3.352-1.947-4.738,1.248c-1.405,3.225,1.194,6.685,3.346,7.137c0,0,3.581,6.643,6.293,3.743
	c1.923-2.043,2.996-3.153,13.273-3.894c4.895-0.362,5.401-1.495,5.251-2.695C96.135,38.97,93.181,37.331,88.781,37.331z"/>
<path fill="#FFFFFF" d="M186.988,89.684c0-49.14-39.857-88.967-89.009-88.967c-49.164,0-89.015,39.827-89.015,88.967
	c0,9.94,1.627,19.506,4.641,28.434h6.197c5.486,0,10.585-1.32,14.865-3.556c1.079-0.543,2.303-0.892,3.605-0.892
	c2.731,0,5.075,1.067,6.57,3.508c1.278,2.218,2.483,3.527,3.954,4.455c1.272,0.82,3.008,1.489,5.486,1.374
	c1.175-0.054,2.947-0.337,3.394-1.555c0.506-1.398-0.127-2.453-1.838-3.159c-2.399-1.007-3.056-2.483-4.328-4.75
	c-1.284-2.273-4.051-3.472-4.485-7.74c-0.428-4.208,2.869-9.5,9.38-7.812c4.708,1.224,7.746,7.029,8.885,9.024
	c0.591,1.043,2.701,2.266,4.407,0.711c1.7-1.567,3.267-1.567,4.551,0.428c1.091,1.694,9.096,12.358,17.765,12.641
	c8.807,0.283,13.503-1.989,17.343-1.851c2.688,0.102,3.996,1.459,5.533,1.7c2.707,0.434,4.629-2.013,7.613-1.863
	c2.411,0.109,5.046,1.724,7.746,1.724s8.391-3.261,8.312-1.917c-0.138,2.381-1.965,6.582-2.411,8.524
	c-0.313,1.344-0.042,4.605-0.85,7.216c-0.723,2.658-3.201,6.034-3.846,6.992c-2.176,3.267-3.762,4.25-5.546,7.668
	c-1.983,3.834-5.25,7.384-6.106,8.523c-1.091,1.459,6.167-0.042,8.741-2.489c2.188-2.068,6.016-8.319,12.08-9.651
	c4.087-0.904,4.907-2.471,4.412-3.924c-0.085-0.163-0.127-0.374-0.127-0.573c0-0.555,0.325-1.037,0.795-1.272
	c4.226-1.754,9.952-2.851,16.252-2.851c3.677,0,7.318,0.494,10.748,1.29C181.738,124.103,186.988,107.515,186.988,89.684z
	 M170.358,87.929c-4.262,23.419-42.6,31.297-79.877,20.019C54.958,97.194,23.763,75.771,27.374,63.233
	c2.098-7.312,13.689-10.429,29.133-8.759c-2.339,4.774-2.17,10.392,8.053,16.637c12.502,7.095,33.63,13.153,39.339,12.556
	c2.128-0.211,4.045-1.272,2.128-2.55c-1.917-1.278-3.617-3.834-4.684-8.301c-0.603-2.489-1.278-5.961-14.696-8.511
	C57.84,58.814,58.955,50.677,59.805,45.987c0,0,2.556-11.495,3.629-15.54c1.061-4.045,3.81-13.328,22.358-9.15
	c10.718,2.411,16.499-0.59,19.453-1.344c8.029-2.062,16.902-0.639,21.803,4.4c5.07,5.214,12.062,21.315,15.408,33.353
	c1.706,6.112,1.248,9.048,0.398,11.116c-0.615,1.404-0.982,2.297-3.092,5.877c-0.368,0.639-0.066,1.32,0.748,0.904
	c5.57-2.857,6.818-6.637,7.698-9.591C163.329,69.418,172.293,77.29,170.358,87.929z"/>
<path fill="#FFFFFF" d="M185.555,134.816c0-0.509-0.3-0.731-0.903-0.731h-0.98v2.567h0.387v-1.112h0.448l0.677,1.112h0.438
	l-0.734-1.132C185.268,135.473,185.555,135.274,185.555,134.816z M184.059,135.21v-0.798h0.529c0.266,0,0.556,0.064,0.556,0.377
	c0,0.398-0.29,0.421-0.62,0.421H184.059z"/>
<path fill="#FFFFFF" d="M187.033,135.372c0-1.385-1.125-2.517-2.513-2.517c-1.388,0-2.517,1.132-2.517,2.517
	c0,1.385,1.129,2.51,2.517,2.51C185.908,137.882,187.033,136.757,187.033,135.372z M184.52,137.434
	c-1.145,0-2.072-0.923-2.072-2.058c0-1.149,0.926-2.072,2.072-2.072c1.139,0,2.065,0.923,2.065,2.072
	C186.585,136.511,185.658,137.434,184.52,137.434z"/>
<path fill="#FFFFFF" d="M17.206,171.471h-0.238l-0.317-6.345H9.338c0.178,2.973,0.274,6.259,0.274,10.732L9.543,198.52h8.453
	v-17.318c0-0.908,0.079-1.804,0.218-2.547c0.756-3.828,3.551-6.388,7.574-6.388c1.017,0,1.757,0.083,2.55,0.241v-7.954
	c-0.68-0.155-1.163-0.185-1.985-0.185C22.749,164.369,18.851,166.767,17.206,171.471z"/>
<path fill="#FFFFFF" d="M46.786,164.31c-10.748,0-16.341,8.717-16.341,17.936c0,10.233,6.359,16.929,17.209,16.929
	c4.849,0,8.816-0.902,11.673-2.114l-1.252-5.81c-2.55,0.935-5.335,1.546-9.219,1.546c-5.411,0-10.098-2.649-10.319-8.7l22.352,0.066
	c0.159-0.786,0.297-2.041,0.297-3.614C61.187,173.238,57.653,164.31,46.786,164.31z M38.518,178.213
	c0.38-3.419,2.543-8.139,7.746-8.139c5.658,0,7.006,5.044,6.966,8.139H38.518z"/>
<path fill="#FFFFFF" d="M97.592,152.262l-8.443-2.382v18.841h-0.139c-1.496-2.467-4.793-4.35-9.368-4.35
	c-8.037,0-15.033,6.646-14.98,17.834c0,10.266,6.319,17.067,14.299,17.067c4.819,0,8.856-2.296,10.851-6.038h0.149l0.38,5.288h7.531
	c-0.155-2.273-0.281-5.946-0.281-9.364V152.262z M89.149,184.041c0,0.885-0.066,1.711-0.258,2.464
	c-0.849,3.657-3.842,6.008-7.297,6.008c-5.318,0-8.364-4.482-8.364-10.616c0-6.197,3.016-10.996,8.456-10.996
	c3.802,0,6.524,2.682,7.267,5.932c0.145,0.684,0.195,1.529,0.195,2.203V184.041z"/>
<path fill="#FFFFFF" d="M119.936,164.332c-2.547,0-4.829,0.733-6.742,1.916c-1.988,1.163-3.604,2.963-4.568,4.819h-0.135V155.44
	l-3.306-0.978v44.061h3.306v-20.44c0-1.358,0.102-2.299,0.453-3.293c1.427-4.162,5.348-7.571,10.088-7.571
	c6.844,0,9.216,5.486,9.216,11.505v19.799h3.306v-20.159C131.553,165.914,123.103,164.332,119.936,164.332z"/>
<path fill="#FFFFFF" d="M161.235,177.545c0-5.972-1.846-13.213-11.495-13.213c-3.026,0-6.755,0.819-9.814,2.89l1.05,2.401
	c2.421-1.708,5.47-2.491,8.397-2.491c7.914-0.05,8.558,6.544,8.558,9.853v0.892c-13.606-0.145-20.423,4.506-20.423,12.218
	c0,4.453,3.135,9.186,9.863,9.186c5.315,0,9.041-2.973,10.663-5.549h0.155l0.489,4.786h3.045c-0.383-2.56-0.489-5.292-0.489-7.938
	C161.235,190.583,161.235,177.545,161.235,177.545z M157.585,189.837c-1.156,3.254-4.327,6.702-9.899,6.702
	c-3.485,0-6.656-2.16-6.656-6.963c0-8.023,9.615-9.127,16.902-8.919c0,0,0,7.174,0,7.174
	C157.932,188.406,157.823,189.126,157.585,189.837z"/>
<path fill="#FFFFFF" d="M174.405,157.732l-3.306,1.219v6.144h-5.642v2.682h5.642v21.137c0,3.412,0.519,6.217,2.031,7.974
	c1.308,1.599,3.333,2.365,5.774,2.365c2.018,0,3.534-0.347,4.615-0.803l-0.4-2.56c-0.855,0.301-2.078,0.525-3.799,0.525
	c-3.597,0-4.915-2.662-4.915-6.913v-21.725h9.536v-2.682h-9.536V157.732z"/>
<path fill="#FFFFFF" d="M189.586,196.034c0-0.499-0.294-0.717-0.885-0.717h-0.961v2.517h0.38v-1.09h0.439l0.664,1.09h0.429
	l-0.72-1.11C189.306,196.678,189.586,196.483,189.586,196.034z M188.12,196.42v-0.783h0.519c0.261,0,0.545,0.063,0.545,0.37
	c0,0.39-0.284,0.413-0.608,0.413H188.12z"/>
<path fill="#FFFFFF" d="M188.572,194.112c-1.361,0-2.467,1.11-2.467,2.467c0,1.358,1.107,2.461,2.467,2.461s2.464-1.103,2.464-2.461
	S189.933,194.112,188.572,194.112z M188.572,198.601c-1.123,0-2.031-0.905-2.031-2.018c0-1.126,0.908-2.031,2.031-2.031
	c1.116,0,2.025,0.905,2.025,2.031C190.596,197.696,189.688,198.601,188.572,198.601z"/>
</svg>
