<?xml version="1.0" encoding="utf-8"?>
<!-- Generator: Adobe Illustrator 17.0.0, SVG Export Plug-In . SVG Version: 6.00 Build 0)  -->
<!DOCTYPE svg PUBLIC "-//W3C//DTD SVG 1.1//EN" "http://www.w3.org/Graphics/SVG/1.1/DTD/svg11.dtd">
<svg version="1.1" id="Layer_1" xmlns="http://www.w3.org/2000/svg" xmlns:xlink="http://www.w3.org/1999/xlink" x="0px" y="0px"
	 width="200px" height="200px" viewBox="0 0 200 200" enable-background="new 0 0 200 200" xml:space="preserve">
<path fill="#FFFFFF" d="M172.486,137.256c-3.429-0.783-7.068-1.283-10.744-1.283c-6.297,0-12.021,1.097-16.245,2.85
	c-0.47,0.235-0.795,0.723-0.795,1.271c0,0.205,0.042,0.41,0.127,0.578c0.494,1.446-0.325,3.007-4.411,3.917
	c-6.062,1.326-9.888,7.586-12.075,9.653c-2.573,2.44-9.828,3.941-8.737,2.476c0.856-1.127,4.121-4.676,6.104-8.508
	c1.784-3.423,3.368-4.399,5.543-7.671c0.645-0.958,3.121-4.326,3.844-6.99c0.807-2.603,0.536-5.869,0.85-7.213
	c0.446-1.94,2.272-6.14,2.41-8.526c0.078-1.332-5.61,1.928-8.309,1.928c-2.699,0-5.333-1.621-7.743-1.729
	c-2.983-0.145-4.905,2.296-7.61,1.862c-1.537-0.241-2.844-1.597-5.531-1.693c-3.838-0.145-8.532,2.127-17.335,1.85
	c-8.665-0.283-16.667-10.954-17.757-12.648c-1.283-1.982-2.85-1.982-4.549-0.416c-1.705,1.549-3.814,0.325-4.405-0.717
	c-1.139-1.988-4.176-7.791-8.882-9.014c-6.508-1.687-9.804,3.603-9.376,7.803c0.434,4.272,3.2,5.471,4.483,7.743
	c1.271,2.266,1.928,3.736,4.326,4.742c1.711,0.711,2.344,1.759,1.838,3.157c-0.446,1.217-2.217,1.5-3.392,1.555
	c-2.477,0.121-4.212-0.554-5.483-1.362c-1.47-0.946-2.675-2.248-3.953-4.459c-1.494-2.446-3.838-3.507-6.568-3.507
	c-1.302,0-2.525,0.343-3.603,0.892c-4.278,2.235-9.376,3.549-14.859,3.549l-6.194,0.006c11.864,35.171,45.143,60.49,84.339,60.49
	C129.096,177.844,156.627,161.695,172.486,137.256"/>
<path d="M172.486,137.268c-3.429-0.795-7.068-1.289-10.744-1.289c-6.297,0-12.021,1.097-16.245,2.85
	c-0.47,0.235-0.795,0.717-0.795,1.271c0,0.199,0.042,0.41,0.127,0.572c0.494,1.452-0.325,3.019-4.411,3.923
	c-6.062,1.332-9.888,7.58-12.075,9.647c-2.573,2.446-9.828,3.947-8.737,2.489c0.856-1.139,4.121-4.688,6.104-8.52
	c1.784-3.416,3.368-4.399,5.543-7.664c0.645-0.958,3.121-4.332,3.844-6.99c0.807-2.609,0.536-5.869,0.85-7.213
	c0.446-1.94,2.272-6.14,2.41-8.52c0.078-1.344-5.61,1.916-8.309,1.916c-2.699,0-5.333-1.615-7.743-1.723
	c-2.983-0.151-4.905,2.296-7.61,1.862c-1.537-0.241-2.844-1.597-5.531-1.699c-3.838-0.139-8.532,2.133-17.335,1.85
	c-8.665-0.283-16.667-10.942-17.757-12.636c-1.283-1.994-2.85-1.994-4.549-0.428c-1.705,1.555-3.814,0.331-4.405-0.711
	c-1.139-1.994-4.176-7.797-8.882-9.02c-6.508-1.687-9.804,3.603-9.376,7.809c0.434,4.266,3.2,5.465,4.483,7.737
	c1.271,2.266,1.928,3.742,4.326,4.748c1.711,0.705,2.344,1.759,1.838,3.157c-0.446,1.217-2.217,1.5-3.392,1.555
	c-2.477,0.114-4.212-0.554-5.483-1.374c-1.47-0.928-2.675-2.235-3.953-4.453c-1.494-2.44-3.838-3.507-6.568-3.507
	c-1.302,0-2.525,0.349-3.603,0.892c-4.278,2.235-9.376,3.555-14.859,3.555h-6.194c-3.013-8.924-4.64-18.486-4.64-28.422
	C8.814,39.811,48.649,0,97.793,0c49.132,0,88.973,39.811,88.973,88.931C186.766,106.754,181.518,123.337,172.486,137.268"/>
<path d="M117.385,129.112c0.458,0.44,1.247,1.94,0.283,3.85c-0.542,1.012-1.127,1.717-2.163,2.549c-1.259,1.006-3.7,2.163-7.05,0.03
	c-1.808-1.139-1.922-1.524-4.411-1.199c-1.778,0.229-2.483-1.573-1.85-3.061c0.645-1.488,3.266-2.693,6.538-0.777
	c1.476,0.862,3.766,2.693,5.766,1.067c0.838-0.657,1.338-1.103,2.489-2.44c0.054-0.054,0.127-0.084,0.211-0.084
	C117.27,129.046,117.336,129.07,117.385,129.112"/>
<path fill="#E93442" d="M90.864,42.347c-10.274,0.741-11.346,1.85-13.268,3.892c-2.711,2.898-6.291-3.742-6.291-3.742
	c-2.151-0.452-4.748-3.911-3.344-7.134c1.386-3.194,3.941-2.242,4.736-1.247c0.97,1.211,3.049,3.194,5.748,3.121
	c2.699-0.072,5.809-0.639,10.153-0.639c4.399,0,7.351,1.639,7.514,3.055C96.263,40.853,95.757,41.986,90.864,42.347 M101.662,25.374
	h-0.048c-0.157,0-0.283-0.121-0.283-0.265c0-0.108,0.066-0.205,0.163-0.247c1.994-1.048,4.965-1.892,8.363-2.229
	c1.018-0.108,2.019-0.169,2.977-0.169h0.512c5.706,0.133,10.268,2.398,10.201,5.061c-0.072,2.663-4.742,4.718-10.454,4.597
	c-1.838-0.048-3.573-0.313-5.061-0.747c-0.187-0.042-0.307-0.193-0.307-0.374c0-0.175,0.121-0.325,0.313-0.374
	c3.549-0.819,5.953-2.169,5.785-3.441c-0.229-1.681-4.875-2.597-10.394-2.043C102.819,25.205,102.235,25.283,101.662,25.374
	 M147.999,65.269c-0.88,2.953-2.127,6.731-7.695,9.587c-0.813,0.416-1.115-0.265-0.747-0.904c2.109-3.579,2.477-4.471,3.091-5.875
	c0.85-2.067,1.308-5.001-0.398-11.111c-3.344-12.033-10.334-28.127-15.401-33.339c-4.899-5.037-13.768-6.459-21.794-4.399
	c-2.953,0.753-8.731,3.754-19.444,1.344c-18.541-4.176-21.288,5.104-22.349,9.147c-1.073,4.043-3.627,15.534-3.627,15.534
	c-0.85,4.688-1.964,12.822,26.832,18.312c13.413,2.549,14.088,6.02,14.69,8.508c1.067,4.465,2.766,7.02,4.682,8.297
	c1.916,1.277,0,2.338-2.127,2.549c-5.706,0.597-26.826-5.459-39.323-12.551C54.169,64.124,54,58.508,56.338,53.736
	c-15.437-1.669-27.025,1.446-29.121,8.755c-3.609,12.533,27.573,33.948,63.081,44.697c37.262,11.274,75.584,3.398,79.844-20.011
	C172.077,76.542,163.117,68.673,147.999,65.269"/>
<g id="g3880">
	<path d="M184.096,135.431h0.538l0.812,1.334h0.525l-0.881-1.358c0.457-0.057,0.8-0.295,0.8-0.845c0-0.61-0.36-0.877-1.083-0.877
		h-1.176v3.08h0.465C184.096,136.765,184.096,135.431,184.096,135.431z M184.096,135.035v-0.958h0.635
		c0.319,0,0.667,0.077,0.667,0.453c0,0.477-0.348,0.505-0.744,0.505H184.096z"/>
	<path d="M187.664,135.23c0,1.661-1.35,3.011-3.015,3.011s-3.019-1.35-3.019-3.011s1.354-3.019,3.019-3.019
		S187.664,133.569,187.664,135.23 M184.649,132.748c-1.374,0-2.486,1.107-2.486,2.486c0,1.362,1.112,2.47,2.486,2.47
		c1.366,0,2.478-1.107,2.478-2.47C187.127,133.856,186.015,132.748,184.649,132.748"/>
</g>
<path d="M17.206,171.471h-0.238l-0.317-6.345H9.338c0.178,2.973,0.274,6.259,0.274,10.732L9.543,198.52h8.453v-17.318
	c0-0.908,0.079-1.804,0.218-2.547c0.756-3.828,3.551-6.388,7.574-6.388c1.017,0,1.757,0.083,2.55,0.241v-7.954
	c-0.68-0.155-1.163-0.185-1.985-0.185C22.749,164.369,18.851,166.767,17.206,171.471z"/>
<path d="M46.786,164.31c-10.748,0-16.341,8.717-16.341,17.936c0,10.233,6.359,16.929,17.209,16.929
	c4.849,0,8.816-0.902,11.673-2.114l-1.252-5.81c-2.55,0.935-5.335,1.546-9.219,1.546c-5.411,0-10.098-2.649-10.319-8.7l22.352,0.066
	c0.159-0.786,0.297-2.041,0.297-3.614C61.187,173.238,57.653,164.31,46.786,164.31z M38.518,178.213
	c0.38-3.419,2.543-8.139,7.746-8.139c5.658,0,7.006,5.044,6.966,8.139L38.518,178.213L38.518,178.213z"/>
<path d="M97.592,152.262l-8.443-2.382v18.841H89.01c-1.496-2.467-4.793-4.35-9.368-4.35c-8.037,0-15.033,6.646-14.98,17.834
	c0,10.266,6.319,17.067,14.299,17.067c4.819,0,8.856-2.296,10.851-6.038h0.149l0.38,5.288h7.531
	c-0.155-2.273-0.281-5.946-0.281-9.364v-36.896H97.592z M89.149,184.041c0,0.885-0.066,1.711-0.258,2.464
	c-0.849,3.657-3.842,6.008-7.297,6.008c-5.318,0-8.364-4.482-8.364-10.616c0-6.197,3.016-10.996,8.456-10.996
	c3.802,0,6.524,2.682,7.267,5.932c0.145,0.684,0.195,1.529,0.195,2.203L89.149,184.041L89.149,184.041z"/>
<path d="M119.936,164.332c-2.547,0-4.829,0.733-6.742,1.916c-1.988,1.163-3.604,2.963-4.568,4.819h-0.135V155.44l-3.306-0.978
	v44.061h3.306v-20.44c0-1.358,0.102-2.299,0.453-3.293c1.427-4.162,5.348-7.571,10.088-7.571c6.844,0,9.216,5.486,9.216,11.505
	v19.799h3.306v-20.159C131.553,165.914,123.103,164.332,119.936,164.332z"/>
<path d="M161.235,177.545c0-5.972-1.846-13.213-11.495-13.213c-3.026,0-6.755,0.819-9.814,2.89l1.05,2.401
	c2.421-1.708,5.47-2.491,8.397-2.491c7.914-0.05,8.558,6.544,8.558,9.853v0.892c-13.606-0.145-20.423,4.506-20.423,12.218
	c0,4.453,3.135,9.186,9.863,9.186c5.315,0,9.041-2.973,10.663-5.549h0.155l0.489,4.786h3.045c-0.383-2.56-0.489-5.292-0.489-7.938
	C161.235,190.583,161.235,177.545,161.235,177.545z M157.585,189.837c-1.156,3.254-4.327,6.702-9.899,6.702
	c-3.485,0-6.656-2.16-6.656-6.963c0-8.023,9.615-9.127,16.902-8.919v7.174C157.932,188.406,157.823,189.126,157.585,189.837z"/>
<path d="M174.405,157.732l-3.306,1.219v6.144h-5.642v2.682h5.642v21.137c0,3.412,0.519,6.217,2.031,7.974
	c1.308,1.599,3.333,2.365,5.774,2.365c2.018,0,3.534-0.347,4.615-0.803l-0.4-2.56c-0.855,0.301-2.078,0.525-3.799,0.525
	c-3.597,0-4.915-2.662-4.915-6.913v-21.725h9.536v-2.682h-9.536L174.405,157.732L174.405,157.732z"/>
<path d="M189.586,196.034c0-0.499-0.294-0.717-0.885-0.717h-0.961v2.517h0.38v-1.09h0.439l0.664,1.09h0.429l-0.72-1.11
	C189.306,196.678,189.586,196.483,189.586,196.034z M188.12,196.42v-0.783h0.519c0.261,0,0.545,0.063,0.545,0.37
	c0,0.39-0.284,0.413-0.608,0.413L188.12,196.42L188.12,196.42z"/>
<path d="M188.572,194.112c-1.361,0-2.467,1.11-2.467,2.467c0,1.358,1.107,2.461,2.467,2.461s2.464-1.103,2.464-2.461
	S189.933,194.112,188.572,194.112z M188.572,198.601c-1.123,0-2.031-0.905-2.031-2.018c0-1.126,0.908-2.031,2.031-2.031
	c1.116,0,2.025,0.905,2.025,2.031C190.596,197.696,189.688,198.601,188.572,198.601z"/>
</svg>
