<?xml version="1.0" encoding="utf-8"?>
<!-- Generator: Adobe Illustrator 17.0.0, SVG Export Plug-In . SVG Version: 6.00 Build 0)  -->
<!DOCTYPE svg PUBLIC "-//W3C//DTD SVG 1.1//EN" "http://www.w3.org/Graphics/SVG/1.1/DTD/svg11.dtd">
<svg version="1.1" id="Layer_1" xmlns="http://www.w3.org/2000/svg" xmlns:xlink="http://www.w3.org/1999/xlink" x="0px" y="0px"
	 width="200px" height="200px" viewBox="0 0 200 200" enable-background="new 0 0 200 200" xml:space="preserve">
<g>
	<path fill="#FFFFFF" d="M37.373,156.87c0-1.339,1.678-2.064,3.748-2.064c3.357,0,7.384,1.06,10.349,2.204l1.147-7.895
		c-2.825-1.004-7.189-2.148-11.412-2.148c-8.475,0-15.244,3.878-15.244,11.243c0,11.522,15.915,10.462,15.915,14.87
		c0,1.534-1.678,2.399-4.224,2.399c-3.496,0-7.664-0.865-11.356-2.678l-1.063,8.035c3.496,1.674,7.58,2.539,12.615,2.539
		c9.119,0,15.776-4.296,15.776-11.773C53.624,160.357,37.373,161.222,37.373,156.87z"/>
	<path fill="#FFFFFF" d="M82.434,146.938c-5.035,0-9.258,2.539-11.748,5.887h-0.392l0.28-5.635l-11.552,0.949v34.482h11.804v-25.248
		c1.343-0.809,3.301-1.339,5.175-1.339c3.832,0,5.846,2.148,5.846,6.696v19.891h11.86v-23.1
		C93.707,150.676,88.476,146.938,82.434,146.938z"/>
	<path fill="#FFFFFF" d="M174.766,182.647l-14.293-20.366l13.818-14.591h-14.573c0,0-7.916,10.908-10.265,13.782v-38.109
		l-11.804,18.413v40.843h11.804v-16.404h0.951l9.454,16.404v0.028H174.766z"/>
	<path fill="#FFFFFF" d="M117.51,163.537c-0.951,2.957-1.874,8.397-1.874,8.397s-0.727-5.635-1.734-8.593l-5.175-15.539h-13.23
		l14.377,34.817c-1.958,4.631-4.979,8.537-9.007,8.537c-0.727,0-1.454-0.028-2.154-0.112l-4.699,7.253
		c1.482,0.837,4.308,1.702,7.664,1.702c8.727,0,14.573-7.058,18.657-17.492l13.706-34.705h-11.692L117.51,163.537z"/>
	<path fill="#FFFFFF" d="M82.931,24.548l-0.927-6.461c-1.517,3.081-3.067,6.414-4.352,9.483c-1.662,3.968-2.884,7.495-3.025,9.469
		l1.998,5.372c3.402-4.687,5.13-11.526,5.887-15.423C82.72,25.918,82.855,25.069,82.931,24.548z"/>
	<path fill="#FFFFFF" d="M141.6,100.31V31.819c0,0-4.566-1.707-13-3.256c-3.201-8-8.034-17.013-8.825-18.471l-0.549-1.016
		c-0.939-1.836-1.651-3.162-1.901-3.624L114.383,0l-3.814,26.419c-3.283-0.198-6.8-0.314-10.541-0.314
		c-3.804,0-7.379,0.12-10.713,0.325l-1.079-7.462C88.238,18.951,85.494,0,85.494,0l-3.005,5.453
		c-0.287,0.53-1.187,2.196-2.343,4.465l-0.097,0.175c-0.794,1.461-5.682,10.508-8.908,18.52c-8.293,1.535-12.797,3.206-12.797,3.206
		v68.491l41.628,29.371L141.6,100.31z M138.972,33.805v65.179l-13.342,9.561l-2.897-26.768c2.669-3.565,4.308-6.091,4.853-7.49
		c1.102-2.829,0.109-14.628-0.936-24.164l4.49-12.081V37.4c0-1.569-0.48-3.688-1.238-6.066
		C135.803,32.605,138.972,33.805,138.972,33.805z M100.018,28.366c4.091,0,10.552,0.343,10.552,0.343l-0.925,6.458l-1.386,2.275
		c-2.248-0.681-5.256-1.36-8.313-1.36c-3.051,0-6.04,0.675-8.277,1.356l-1.383-2.272l-0.926-6.451
		C92.66,28.496,96.214,28.366,100.018,28.366z M60.958,98.985v-65.18c0,0,3.166-1.194,9.066-2.463
		c-0.757,2.374-1.234,4.491-1.234,6.057v0.643l4.49,12.081c-1.045,9.536-2.039,21.335-0.937,24.163
		c0.548,1.409,2.204,3.957,4.901,7.558l-2.892,26.741L60.958,98.985z M82.084,114.125l1.949-18.017
		c-1.056-3.969-1.316-8.298-1.378-10.372l-2.889,26.727l-3.094-2.215l3.104-28.709c-2.154-2.829-4.727-6.388-5.374-8.051
		c-0.722-1.854-0.307-10.616,1.11-23.446l0.022-0.195l-4.536-12.199V37.4c0-2.045,1.019-5.408,2.503-9.202
		c2.379-6.082,5.955-13.273,8.464-17.938l1.987-3.698l2.874,20.039l1.337,9.325l2.53,4.152l0.627-0.213
		c2.136-0.72,5.365-1.577,8.626-1.577c3.439,0,6.904,0.991,8.664,1.581l0.629,0.21l2.528-4.153l1.338-9.334l2.872-20.031
		l1.988,3.698c2.507,4.661,6.079,11.845,8.458,17.923c1.487,3.8,2.509,7.169,2.509,9.217v0.247l-4.534,12.199l0.02,0.195
		c1.417,12.83,1.831,21.594,1.11,23.448c-0.643,1.65-3.181,5.167-5.328,7.986l3.108,28.734l-1.881,1.349l-21.464,15.381
		L82.084,114.125z"/>
	<path fill="#FFFFFF" d="M98.632,98.485l0.003-1.644l-0.024-0.014c0,0,0.062-1.386-0.138-1.85c-0.356-0.822-1.134-0.628-1.739,0.441
		c-0.026,0.045-0.04,0.101-0.064,0.149c-1.707-1.23-3.44-2.765-3.44-3.944c0-1.084,1.353-2.981,1.409-3.056l-0.922-17.342
		l-5.871,6.692l-3.745,1.093c-2.399-3.136-4.587-6.207-5.022-7.208c-0.313-1.443,0.223-10.916,1.432-21.73l0.094-0.847l-0.647-1.74
		c1.783-2.035,3.363-4.627,4.717-7.737l3.996,6.559l2.863-1.23c0.044-0.019,4.339-1.827,8.414-1.827h0.02v-2.204h-0.019
		c-4.6,0-9.24,1.987-9.284,2.006l-1.103,0.471l-4.049-6.645l-0.591-4.119l-1.123,3.181c-1.617,4.582-3.645,8.171-6.028,10.664
		l-0.356,0.375l0.937,2.521l-0.036,0.328c-0.849,7.608-1.967,20.48-1.346,22.635l0.024,0.072c0.698,1.793,5.34,7.896,8.103,11.321
		l0.306,0.381L85.4,84.723c0,0.302,0.022,7.458,1.888,12.571c1.507,4.125,4.88,4.57,6.262,4.571
		C97.121,101.865,98.571,98.622,98.632,98.485z"/>
	<path fill="#FFFFFF" d="M105.482,104.571c-1.178,2.274-3.33,3.006-5.517,3.006c-2.19,0-4.349-0.724-5.529-3.005
		c-0.291,0.03-0.586,0.048-0.886,0.048c-0.147,0-0.288-0.01-0.432-0.018c0.387,3.488,4.25,4.776,6.895,4.776
		c2.609,0,6.42-1.288,6.801-4.776c-0.143,0.008-0.284,0.018-0.431,0.018C106.077,104.62,105.776,104.602,105.482,104.571z"/>
	<path fill="#FFFFFF" d="M98.005,103.308c-0.487,0.322-1.001,0.581-1.537,0.784c0.842,0.96,1.999,1.444,3.496,1.444
		c1.497,0,2.655-0.484,3.497-1.442c-0.535-0.203-1.047-0.461-1.535-0.781c-0.684,0.566-1.447,0.569-1.962,0.569
		C99.453,103.883,98.689,103.873,98.005,103.308z"/>
	<path fill="#FFFFFF" d="M123.406,42.285l1.949-5.245c-0.141-1.975-1.364-5.506-3.028-9.476c-1.285-3.068-2.834-6.398-4.35-9.477
		l-0.853,5.958c0.036,0.282,0.186,1.38,0.492,2.952C118.37,30.862,120.075,37.611,123.406,42.285z"/>
	<path fill="#FFFFFF" d="M107.288,63.783v0.125c0,1.833,1.488,3.319,3.324,3.319c1.836,0,3.324-1.486,3.324-3.319v-0.125h-2.528
		c0.475,0.298,0.758,0.852,0.675,1.442c-0.111,0.804-0.855,1.365-1.66,1.252c-0.624-0.088-1.098-0.555-1.227-1.137
		c0.434-0.006,0.812-0.325,0.874-0.767c0.04-0.292-0.066-0.565-0.258-0.758c0.015-0.009,0.026-0.023,0.04-0.032H107.288z"/>
	<path fill="#FFFFFF" d="M106.216,71.224l-0.922,17.343c0.058,0.08,1.408,1.972,1.408,3.055c0,1.179-1.731,2.714-3.441,3.944
		c-0.023-0.047-0.038-0.103-0.063-0.149c-0.604-1.069-1.383-1.263-1.74-0.441c-0.2,0.464-0.136,1.85-0.136,1.85l-0.028,0.018v1.577
		c0.064,0.138,1.526,3.443,5.089,3.443c1.379,0,4.752-0.445,6.259-4.57c1.867-5.112,1.889-12.268,1.889-12.571l-0.001-0.489
		l0.307-0.381c0.945-1.171,2.109-2.658,3.263-4.182l-6.013-1.756L106.216,71.224z"/>
	<path fill="#FFFFFF" d="M87.591,57.213c-4.211,0-1.063,3.568-0.692,3.971h7.963C94.135,60.279,91.397,57.213,87.591,57.213z"/>
	<path fill="#FFFFFF" d="M112.34,57.213c-3.806,0-6.547,3.067-7.272,3.971h7.964C113.401,60.781,116.551,57.213,112.34,57.213z"/>
	<path fill="#FFFFFF" d="M85.991,63.783v0.125c0,1.833,1.49,3.319,3.325,3.319c1.836,0,3.325-1.486,3.325-3.319v-0.125h-2.528
		c0.473,0.298,0.755,0.852,0.674,1.442c-0.114,0.804-0.856,1.365-1.66,1.252c-0.625-0.088-1.097-0.555-1.226-1.137
		c0.434-0.006,0.811-0.325,0.872-0.767c0.042-0.292-0.064-0.565-0.258-0.758c0.013-0.009,0.026-0.023,0.04-0.032H85.991z"/>
</g>
</svg>
