<?xml version="1.0" encoding="utf-8"?>
<!-- Generator: Adobe Illustrator 17.0.0, SVG Export Plug-In . SVG Version: 6.00 Build 0)  -->
<!DOCTYPE svg PUBLIC "-//W3C//DTD SVG 1.1//EN" "http://www.w3.org/Graphics/SVG/1.1/DTD/svg11.dtd">
<svg version="1.1" id="Layer_1" xmlns="http://www.w3.org/2000/svg" xmlns:xlink="http://www.w3.org/1999/xlink" x="0px" y="0px"
	 width="200px" height="200px" viewBox="0 0 200 200" enable-background="new 0 0 200 200" xml:space="preserve">
<g>
	<path fill="#FFFFFF" d="M37.373,156.87c0-1.339,1.678-2.064,3.748-2.064c3.357,0,7.384,1.06,10.349,2.204l1.147-7.895
		c-2.825-1.004-7.189-2.148-11.412-2.148c-8.475,0-15.244,3.878-15.244,11.243c0,11.522,15.915,10.462,15.915,14.87
		c0,1.534-1.678,2.399-4.224,2.399c-3.496,0-7.664-0.865-11.356-2.678l-1.063,8.035c3.496,1.674,7.58,2.539,12.615,2.539
		c9.119,0,15.776-4.296,15.776-11.773C53.624,160.357,37.373,161.222,37.373,156.87z"/>
	<path fill="#FFFFFF" d="M82.434,146.938c-5.035,0-9.258,2.539-11.748,5.887h-0.392l0.28-5.635l-11.552,0.949v34.482h11.804v-25.248
		c1.343-0.809,3.301-1.339,5.175-1.339c3.832,0,5.846,2.148,5.846,6.696v19.891h11.86v-23.1
		C93.707,150.676,88.476,146.938,82.434,146.938z"/>
	<path fill="#FFFFFF" d="M174.766,182.647l-14.293-20.366l13.818-14.591h-14.573c0,0-7.916,10.908-10.265,13.782v-38.109
		l-11.804,18.413v40.843h11.804v-16.404h0.951l9.454,16.404v0.028H174.766z"/>
	<path fill="#FFFFFF" d="M117.51,163.537c-0.951,2.957-1.874,8.397-1.874,8.397s-0.727-5.635-1.734-8.593l-5.175-15.539h-13.23
		l14.377,34.817c-1.958,4.631-4.979,8.537-9.007,8.537c-0.727,0-1.454-0.028-2.154-0.112l-4.699,7.253
		c1.482,0.837,4.308,1.702,7.664,1.702c8.727,0,14.573-7.058,18.657-17.492l13.706-34.705h-11.692L117.51,163.537z"/>
</g>
<g>
	<path fill="#FFFFFF" d="M130.363,37.489c0-6.824-10.099-25.699-11.254-27.833l-0.781-1.447h0.006
		c-0.771-1.495-1.354-2.562-1.562-2.952L113.94,0l-4.071,28.128l-1.499,10.827c-1.104-0.344-2.488-0.713-4.008-0.989
		c-1.348-1.546-2.847-2.978-4.357-2.978c-0.786,0-1.499,1.067-2.16,2.671c-2.436,0.25-4.727,0.838-6.34,1.343l-1.327-10.879
		l-1.426-9.853C88.757,18.25,86.117,0,86.117,0l-2.884,5.236c-0.26,0.485-1.056,1.952-2.082,3.956l-0.249,0.452
		c-1.156,2.134-11.327,21.014-11.327,27.833v0.417l4.653,12.279c-0.739,6.699-2.171,21.254-1.051,24.1
		c0.697,1.78,3.378,5.449,5.642,8.401l-3.051,28.161l4.201,2.936l1.9-17.506l0.536,0.38l0.156-1.364
		c0.287,1.359,0.651,2.723,1.119,3.998c0.963,2.618,2.67,4.602,4.856,5.778c0.125,6.273,6.012,9.656,11.556,9.656
		c5.503,0,11.343-3.383,11.468-9.656c2.186-1.176,3.882-3.16,4.841-5.778c0.484-1.317,0.859-2.722,1.145-4.128l0.141,1.353
		l0.572-0.417l1.91,17.516l4.201-3.045l-3.051-27.984c2.254-2.93,4.883-6.548,5.57-8.302c1.114-2.847-0.364-17.401-1.109-24.101
		l4.581-12.284V37.489z"/>
	<path fill="#FFFFFF" d="M58.487,34.584c0,0,15.356-5.705,41.565-5.705c26.219,0,41.455,5.705,41.455,5.705v68.362h0.006
		L99.99,132.267L58.487,102.94V34.584z"/>
	<path fill="#3D3D65" d="M117.86,84.509H99.964V54.63L81.808,83.639l-2.821,29.774l20.701,14.731l0.276,0.208l21.17-15.043
		l-3.279-28.796L117.86,84.509z"/>
	<path id="Shape_13_" fill="#DCDBDB" d="M61.143,37.322c0,0,14.241-5.289,38.571-5.289c24.324,0,38.468,5.294,38.468,5.294v63.5
		L99.663,128.05v-0.009h-0.001l-38.519-27.224V37.322z"/>
	<path id="Shape_1_" fill="#C8C6C6" d="M100.219,32.033c-0.021,0-0.037,0-0.052,0v96.007l38.519-27.224V37.322
		C138.687,37.322,124.543,32.033,100.219,32.033z"/>
	<path fill="#3D3D65" d="M121.03,113.242l-3.269-28.733H99.871v43.777L121.03,113.242L121.03,113.242z"/>
	<path fill="#55557C" d="M78.986,113.409l20.977,14.939V54.64L81.813,83.634l-2.821,29.774L78.986,113.409L78.986,113.409z"/>
	<path fill="#BC9375" d="M108.995,104.919c0,4.93-4.643,7.371-8.901,7.371c-4.258,0-8.995-2.447-8.995-7.371"/>
	<path fill="#083451" d="M106.377,102.128c0,5.778-3.134,7.324-6.329,7.324c-3.201,0-6.34-1.546-6.34-7.324"/>
	<path fill="#FFFFFF" d="M100.047,107.47c-3.42,0-5.086-2.488-5.086-7.6h1.634c0,5.986,2.332,5.986,3.457,5.986
		c1.119,0,3.451,0,3.451-5.986h1.629c0,5.112-1.666,7.6-5.08,7.6H100.047z"/>
	<g>
		<path id="Shape_2_" fill="#C49A7E" d="M127.182,40.982c0-6.231-10.619-25.845-10.619-25.845l-3.602,24.871l-3.227,5.257
			l-9.666,0.385l-0.042,0.078V45.65l-9.671-0.39l-3.227-5.257l-3.592-24.866c0,0-10.629,19.613-10.629,25.845l4.492,11.972
			c0,0-2.27,20.124-1.233,22.758c1.03,2.634,8.193,11.441,8.193,11.441s-0.021,7.407,1.941,12.732c1.406,3.8,4.476,5.34,7.433,5.34
			c4.529,0,6.299-4.112,6.299-4.112s1.811,4.112,6.335,4.112c2.952,0,6.027-1.541,7.433-5.346
			c1.957-5.325,1.941-12.738,1.941-12.738s7.158-8.808,8.193-11.441c1.041-2.634-1.233-22.747-1.233-22.747l4.487-11.982
			L127.182,40.982z"/>
		<path id="Shape_3_" fill="#D7B7A0" d="M100.047,45.693l-0.021,0.037v-0.078l-9.671-0.39l-3.227-5.247l-3.591-24.881
			c0,0-10.629,19.629-10.629,25.855l4.487,11.972c0,0-2.264,20.124-1.228,22.758c1.03,2.634,8.193,11.441,8.193,11.441
			S84.338,94.566,86.3,99.89c1.406,3.8,4.476,5.34,7.433,5.34c4.529,0,6.299-4.112,6.299-4.112s0,0.016,0.021,0.042V45.693H100.047z
			"/>
	</g>
	<path fill="#3D3D65" d="M122.794,54.135c-0.833-1.708,0.343-5.746,0.343-5.746c-6.715-6.819-8.38-21.04-8.38-21.04
		c-1.26,4.476-3.982,17.698-3.982,17.698s-5.008-1.853-10.707-1.864h-0.042c-0.313,0-0.625,0.011-0.937,0.021v55.739l0.432,0.615
		v-0.302h0.26v0.302v-0.302h0.521v0.302v-0.302h0.27v0.302l4.633-6.715l1.015-18.854l5.778,6.533l7.444,2.15
		c0,0,2.78-1.968,2.78-1.962c1.182-1.639,1.572-3.035,1.858-3.763c1.041-2.639-1.281-22.81-1.281-22.81L122.794,54.135
		L122.794,54.135z"/>
	<path fill="#55557C" d="M100.099,43.183c-0.011,0-0.016,0-0.021,0c-5.7,0.011-10.707,1.858-10.707,1.858
		s-2.727-13.211-3.977-17.698c0,0-1.687,14.226-8.396,21.045c0,0,1.171,4.04,0.348,5.746c0,0-2.321,20.176-1.291,22.81
		c0.286,0.729,0.677,2.123,1.864,3.763l2.785,1.962l7.433-2.155l5.778-6.527l1.01,18.854l4.633,6.715v-0.313h0.27v0.313v-0.313h0.26
		V43.188L100.099,43.183z"/>
	<g>
		<g id="Group">
			<path id="Shape_4_" fill="#353252" d="M113.545,66.758h-8.693v0.088c0,3.008,2.629,5.444,5.705,5.444
				c3.081,0,5.705-2.436,5.705-5.444v-0.088h-2.722H113.545z"/>
			<path id="Shape_5_" fill="#FFFFFF" d="M107.028,66.758v0.088c0,1.791,1.457,3.238,3.259,3.238c1.811,0,3.264-1.447,3.264-3.238
				v-0.088H107.028z"/>
			<path id="Shape_6_" fill="#353252" d="M111.291,66.758h-1.53c-0.011,0-0.021,0-0.037,0.011c0.187,0.042,0.297,0.468,0.26,0.749
				c-0.067,0.437-0.437,0.729-0.864,0.744c0.12,0.562,0.588,1.021,1.208,1.104c0.781,0.115,1.51-0.417,1.624-1.208
				c0.083-0.572-0.198-1.395-0.666-1.395L111.291,66.758z"/>
		</g>
		<g id="Group_1_">
			<path id="Shape_7_" fill="#353252" d="M92.562,66.758h-8.687v0.088c0,3.008,2.623,5.444,5.7,5.444
				c3.081,0,5.705-2.436,5.705-5.444v-0.088H92.562z"/>
			<path id="Shape_8_" fill="#FFFFFF" d="M86.045,66.758v0.088c0,1.791,1.457,3.238,3.259,3.238c1.806,0,3.259-1.447,3.259-3.238
				v-0.088H86.045z"/>
			<path id="Shape_9_" fill="#353252" d="M90.313,66.758h-1.53c-0.016,0-0.026,0-0.042,0.011c0.187,0.042,0.297,0.468,0.26,0.749
				c-0.067,0.437-0.437,0.729-0.869,0.744c0.13,0.562,0.593,1.021,1.213,1.104c0.781,0.115,1.52-0.417,1.629-1.208
				c0.088-0.572-0.193-1.395-0.656-1.395L90.313,66.758z"/>
		</g>
	</g>
	<path fill="#C49A7E" d="M112.884,64.192c0.375-0.396,3.472-3.878-0.677-3.878c-3.748,0-6.434,2.993-7.147,3.878h7.829H112.884z"/>
	<path fill="#D7B7A0" d="M95.013,64.192c-0.713-0.885-3.404-3.878-7.152-3.878c-4.144,0-1.041,3.487-0.677,3.878H95.013z"/>
	<path fill="#55557C" d="M81.87,65.249h15.856v1.478H81.87V65.249z"/>
	<path fill="#353252" d="M129.302,41.033c0-6.58-9.744-24.803-10.858-26.859l-3.113-5.778l-4.466,30.92l-2.056,3.368
		c-1.989-0.666-5.377-1.588-8.781-1.588s-6.767,0.922-8.745,1.583l-2.061-3.363l-1.562-10.837c0-0.021,0-0.042,0-0.052h-0.021
		l-2.889-20.03l-3.175,5.778c-1.119,2.051-10.958,20.275-10.958,26.859v0.38l4.503,11.869c-0.729,6.455-2.093,20.509-1.015,23.252
		c0.677,1.717,3.259,5.257,5.444,8.099l-2.946,27.188l4.06,2.837l2.134-19.781c0.313,1.926,0.77,3.956,1.447,5.794
		c0.927,2.53,2.572,4.445,4.685,5.58c0.12,6.054,5.799,9.318,11.155,9.318c5.31,0,10.942-3.264,11.067-9.318
		c2.098-1.145,3.738-3.051,4.669-5.57c0.703-1.915,1.161-4.04,1.468-6.038l2.155,19.853l4.06-2.931l-2.946-27.006
		c2.171-2.832,4.711-6.319,5.377-8.016c1.083-2.749-0.348-16.797-1.067-23.268l4.425-11.858v-0.385L129.302,41.033z M75.093,40.685
		c0.25-3.415,3.837-11.597,7.262-18.489l0.911,6.299c-0.348,2.363-1.941,11.608-6.205,17.438l-1.968-5.252
		C75.093,40.68,75.093,40.685,75.093,40.685z M100.094,111.269c-2.394,0-5.778-1.056-6.621-3.852c0.088,0,0.177,0.016,0.26,0.016
		c0.468,0,0.895-0.052,1.312-0.104c1.213,1.666,3.097,2.176,5.008,2.176s3.8-0.505,5.013-2.176c0.417,0.052,0.843,0.104,1.302,0.104
		c0.088,0,0.172-0.016,0.26-0.016c-0.833,2.79-4.18,3.842-6.527,3.842L100.094,111.269z M97.336,106.678
		c0.588-0.26,1.109-0.562,1.572-0.895c0.417,0.125,0.833,0.125,1.145,0.125c0.302,0,0.703,0,1.124-0.12
		c0.468,0.328,0.989,0.635,1.572,0.885c-0.729,0.546-1.624,0.848-2.696,0.848c-1.078,0-1.978-0.302-2.706-0.843H97.336z
		 M121.904,74.978c-0.625,1.614-4.976,7.329-7.86,10.879l-0.489,0.593v0.76c0,0.073,0,7.08-1.811,11.988
		c-1.302,3.55-4.206,3.93-5.388,3.93c-3.003,0-4.3-2.722-4.342-2.821l-0.172-2.551h-3.644l-0.172,2.535
		c-0.052,0.12-1.312,2.832-4.3,2.832c-1.182,0-4.081-0.375-5.388-3.92c-1.801-4.893-1.811-11.92-1.811-11.988v-0.76l-0.479-0.593
		c-2.884-3.55-7.235-9.265-7.845-10.827c-0.489-1.697,0.313-12.623,1.353-21.779l0.052-0.51l-0.812-2.166
		c2.8-2.899,4.757-6.907,6.111-10.707l0.13,0.937l4.446,7.22l1.733-0.739c0.052-0.021,4.492-1.895,8.813-1.895
		c4.294,0,8.813,1.885,8.859,1.9l1.728,0.729l4.435-7.214l0.177-1.213c1.337,3.837,3.295,7.902,6.106,10.869l-0.853,2.275
		l0.052,0.51c1.03,9.161,1.843,20.083,1.369,21.733L121.904,74.978z M123.086,45.807c-4.617-6.418-6.059-16.85-6.184-17.802
		l0.833-5.81c3.436,6.892,7.017,15.075,7.267,18.489l-1.926,5.117L123.086,45.807z"/>
	<g>
		<path id="Shape_10_" fill="#353252" d="M105.159,90.365H94.956c0,0-1.364,2.374-1.364,3.139c0,2.28,6.278,5.908,6.278,5.908
			s6.626-3.738,6.626-5.908c0-1.041-1.337-3.134-1.337-3.134V90.365z"/>
		<g>
			<path id="Shape_11_" fill="#C49A7E" d="M103.202,97.319c-0.572-1-1.302-1.182-1.645-0.417c-0.339,0.781-0.146,2.212,0.417,3.206
				c0.572,1,1.312,1.182,1.645,0.417C103.957,99.745,103.764,98.318,103.202,97.319z"/>
			<path fill="#D7B7A0" d="M96.903,97.319c-0.572,1-0.765,2.431-0.432,3.201c0.339,0.781,1.072,0.593,1.639-0.406
				c0.572-0.989,0.76-2.431,0.417-3.201c-0.328-0.77-1.062-0.588-1.629,0.417L96.903,97.319z"/>
		</g>
	</g>
</g>
</svg>
