<?xml version="1.0" encoding="UTF-8" standalone="no"?>
<svg width="650px" height="825px" viewBox="0 0 650 825" version="1.1" xmlns="http://www.w3.org/2000/svg" xmlns:xlink="http://www.w3.org/1999/xlink">
    <!-- Generator: Sketch 3.7.1 (28215) - http://www.bohemiancoding.com/sketch -->
    <title>wordmark-symbol _vertical _NODECONF</title>
    <desc>Created with Sketch.</desc>
    <defs></defs>
    <g id="Logo" stroke="none" stroke-width="1" fill="none" fill-rule="evenodd">
        <g id="wordmark-symbol-_vertical-_NODECONF">
            <rect id="Rectangle-2" fill="#131E36" x="0" y="0" width="650" height="825"></rect>
            <g id="wordmark" transform="translate(50.000000, 475.000000)" fill="#FFFFFF">
                <path d="M46.6728972,220.96558 C28.1682243,220.96558 13.1588785,217.786957 0.308411215,211.634783 L4.21495327,182.104348 C17.7850467,188.769203 33.1028037,191.947826 45.953271,191.947826 C55.3084112,191.947826 61.4766355,188.769203 61.4766355,183.12971 C61.4766355,166.928986 2.98130841,170.825362 2.98130841,128.477899 C2.98130841,101.408333 27.8598131,87.1557971 59.0093458,87.1557971 C74.5327103,87.1557971 90.5700935,91.3597826 100.953271,95.051087 L96.7383178,124.068841 C85.8411215,119.864855 71.0373832,115.968478 58.7009346,115.968478 C51.0934579,115.968478 44.9252336,118.63442 44.9252336,123.556159 C44.9252336,139.551812 104.654206,136.373188 104.654206,177.69529 C104.654206,205.175 80.1869159,220.96558 46.6728972,220.96558 L46.6728972,220.96558 Z" id="Shape"></path>
                <path d="M208.383178,218.197101 L208.383178,145.088768 C208.383178,128.375362 200.981308,120.480072 186.897196,120.480072 C180.009346,120.480072 172.813084,122.428261 167.878505,125.401812 L167.878505,218.197101 L124.495327,218.197101 L124.495327,91.4623188 L166.953271,87.976087 L165.925234,108.688406 L167.364486,108.688406 C176.514019,96.384058 192.037383,87.0532609 210.542056,87.0532609 C232.747664,87.0532609 251.971963,100.793116 251.971963,133.297101 L251.971963,218.197101 L208.383178,218.197101 L208.383178,218.197101 Z" id="Shape"></path>
                <path d="M495.102804,218.197101 L460.35514,157.905797 L456.859813,157.905797 L456.859813,218.197101 L413.476636,218.197101 L413.476636,68.084058 L456.859813,0.410144928 L456.859813,140.474638 C465.495327,129.913406 494.588785,89.8217391 494.588785,89.8217391 L548.149533,89.8217391 L497.364486,143.448188 L549.897196,218.299638 L495.102804,218.299638 L495.102804,218.197101 Z" id="Shape"></path>
                <path d="M357.242991,90.2318841 L339.457944,148.062319 C335.962617,158.931159 332.570093,178.925725 332.570093,178.925725 C332.570093,178.925725 329.897196,158.213406 326.196262,147.344565 L307.17757,90.2318841 L258.551402,90.2318841 L311.392523,218.197101 C304.196262,235.218116 293.093458,249.573188 278.28972,249.573188 C275.616822,249.573188 272.943925,249.470652 270.373832,249.163043 L253.102804,275.822464 L253.102804,275.822464 C258.551402,278.898551 268.934579,282.077174 281.271028,282.077174 C313.345794,282.077174 334.831776,256.135507 349.841121,217.786957 L400.214953,90.2318841 L357.242991,90.2318841 L357.242991,90.2318841 Z" id="Shape"></path>
            </g>
            <g id="Group-3" transform="translate(172.000000, 22.000000)">
                <path d="M223.767696,33.3614308 L225.786113,37.0940441 C230.19479,45.2194452 268.778589,117.219297 268.776488,143.232615 L268.776488,144.757684 L251.284606,191.628135 C254.128507,217.176671 259.784804,272.689179 255.514752,283.534805 C252.878787,290.243033 242.830617,304.043351 234.235902,315.21889 L229.72437,315.227881 L234.396984,358.152626 L220.310416,368.339515 L214.541405,315.258142 L209.388862,315.268411 C208.880206,316.994355 208.324073,318.692436 207.715757,320.343738 C204.488813,329.112337 198.786405,335.757149 191.492627,339.692993 C191.065315,360.713932 171.499204,372.054776 153.063997,372.054776 C134.475916,372.054776 114.745879,360.723047 114.311199,339.709399 C107.002687,335.766264 101.292912,329.121452 98.0622839,320.343738 C97.481068,318.763578 96.9468948,317.141457 96.4558553,315.493491 L91.4163617,315.503535 L85.6260248,368.904643 L71.5394564,359.067769 L76.258619,315.533745 L71.826884,315.542578 C63.1649577,304.317241 52.9235531,290.311506 50.2623841,283.52858 C45.9923317,272.680879 51.4280895,217.176671 54.2761914,191.623986 L36.4671533,144.759759 L36.4671533,143.232615 C36.4671533,117.219297 75.3597065,45.2194452 79.7746845,37.0940441 L80.1297873,36.4509387 C84.3790494,28.1118331 87.6845715,21.9892331 88.7406151,20.0419923 L99.7862676,0 C99.7862676,0 109.874151,69.6529417 109.866784,69.7149235 L115.305805,107.343336 L120.39207,149.023169 C126.563853,147.078011 135.227043,144.828065 144.521912,143.904535 C147.054406,137.695823 149.803908,133.549841 152.828239,133.549841 C158.625663,133.549841 164.403632,139.130584 169.601651,145.09322 C175.335943,146.133101 180.558969,147.525326 184.737465,148.810696 L190.468551,107.345159 L205.964145,0 L216.781406,20.0419923 C217.700946,21.7399573 220.315891,26.6126905 223.767696,33.3614308 Z" id="Shape-Copy-45" fill="#FFFFFF"></path>
                <path d="M152.998917,476.62887 L0,368.67792 L0,116.947757 C0,116.947757 56.5728847,95.9450549 153.206858,95.9450549 C249.840831,95.9450549 306,116.947757 306,116.947757 L306,368.67792 L152.998917,476.62887 Z" id="Shape-Copy-44" fill="#FFFFFF"></path>
                <g id="Group" transform="translate(9.313869, 24.113030)" fill="#131E36">
                    <path d="M253.696197,91.0483516 C256.480735,99.7892308 258.244607,107.576703 258.244607,113.344615 L258.244607,115.706374 L241.741511,160.107033 C245.58239,195.155604 249.231027,238.51978 245.180069,248.918242 C243.178373,254.061099 237.153464,263.343956 227.34317,276.448352 L237.989817,374.831209 L287.025434,339.68967 L287.025434,100.133407 C287.025434,100.133407 275.379921,95.7224176 253.696197,91.0483516 L253.696197,91.0483516 Z" id="Shape"></path>
                    <path d="M113.169179,113.487033 C121.388026,110.984835 132.373574,108.502418 143.589019,108.502418 C154.826266,108.502418 165.883161,110.998681 174.143627,113.500879 L179.239035,105.137802 L182.637955,81.4015385 C182.637955,81.4015385 158.889115,80.1415385 143.854591,80.1415385 C129.874426,80.1415385 116.81187,80.6221978 104.684761,81.4292308 L108.087645,105.137802 L113.169179,113.487033 L113.169179,113.487033 Z" id="Shape"></path>
                    <path d="M42.140665,248.916264 C38.0877251,238.521758 41.7423076,195.157582 45.5831865,160.109011 L29.0800911,115.708352 L29.0800911,113.346593 C29.0800911,107.588571 30.8340529,99.810989 33.6146272,91.083956 C11.9309036,95.7481319 0.293317896,100.135385 0.293317896,100.135385 L0.293317896,339.695604 L49.5251412,374.975604 L60.1539512,276.693626 C50.240599,263.460659 44.1542527,254.094725 42.140665,248.916264 L42.140665,248.916264 Z" id="Shape"></path>
                    <path d="M237.615242,245.986813 C240.265012,239.172527 238.74293,206.96044 233.534556,159.806374 L233.459244,159.088352 L250.122872,114.252527 L250.122872,113.344615 C250.122872,93.781978 224.790511,41.4356044 209.815444,13.5949451 L202.510243,0.00395604396 L187.03376,107.928791 L177.742717,123.193187 L175.431848,122.41978 C168.961017,120.251868 156.225471,116.61033 143.587038,116.61033 C131.602623,116.61033 119.73514,119.759341 111.88294,122.405934 L109.579998,123.189231 L100.28301,107.930769 L84.8045457,0.00593406593 L77.5013265,13.5969231 C62.5282406,41.4375824 37.1919164,93.78 37.1919164,113.346593 L37.1919164,114.254505 L53.8634714,159.09033 L53.7841963,159.808352 C48.5758218,206.962418 47.049776,239.166593 49.7035102,245.980879 C52.0837453,252.094945 61.5392837,265.173626 69.456885,275.572088 L58.0491971,381.08967 L69.4192293,389.229231 L80.0381299,290.998681 C80.2660458,298.62 81.2232927,314.531209 85.1038092,329.119121 L77.9413033,395.339341 L143.654421,442.434066 L222.54108,385.904176 L229.455851,380.947253 L218.032309,275.338681 C225.922164,264.975824 235.250862,252.051429 237.615242,245.986813 L237.615242,245.986813 Z M209.863009,42.3652747 C222.64612,68.3287912 236.059468,99.1542857 236.979059,112.023297 L229.814571,131.299121 C212.594036,107.131648 207.185492,67.8540659 206.727678,64.263956 L209.863009,42.3652747 L209.863009,42.3652747 Z M189.14446,186.165495 C204.61896,186.165495 193.042813,199.27978 191.687209,200.761319 L162.416857,200.761319 C165.082483,197.436264 175.154385,186.165495 189.14446,186.165495 L189.14446,186.165495 Z M180.798773,213.214945 C180.572839,214.840879 179.183542,216.013846 177.588131,216.035604 C178.059818,218.171868 179.801888,219.888791 182.096903,220.213187 C185.053864,220.630549 187.788855,218.567473 188.197122,215.612308 C188.502331,213.444396 187.463827,211.407033 185.717793,210.313187 L195.008836,210.313187 L195.008836,210.772088 C195.008836,217.507253 189.540835,222.970549 182.792542,222.970549 C176.044248,222.970549 170.576248,217.509231 170.576248,210.772088 L170.576248,210.313187 L180.000076,210.313187 C179.948547,210.346813 179.906928,210.396264 179.851435,210.42989 C180.556984,211.138022 180.947414,212.142857 180.798773,213.214945 L180.798773,213.214945 Z M150.870438,355.604835 C152.662055,356.781758 154.544839,357.731209 156.510862,358.476923 C153.417151,361.997802 149.162059,363.776044 143.658385,363.776044 C138.154711,363.776044 133.901601,361.993846 130.80789,358.467033 C132.775895,357.721319 134.664624,356.767912 136.456242,355.585055 C138.969263,357.66 141.777583,357.697582 143.660367,357.697582 C145.551078,357.697582 148.357417,357.683736 150.870438,355.604835 L150.870438,355.604835 Z M102.528478,213.214945 C102.302544,214.840879 100.915229,216.013846 99.3217996,216.035604 C99.7954684,218.171868 101.531593,219.888791 103.828589,220.213187 C106.783569,220.630549 109.512615,218.567473 109.930791,215.612308 C110.228072,213.444396 109.193532,211.407033 107.453444,210.313187 L116.744486,210.313187 L116.744486,210.772088 C116.744486,217.507253 111.27054,222.970549 104.522247,222.970549 C97.7798988,222.970549 92.3019889,217.509231 92.3019889,210.772088 L92.3019889,210.313187 L101.729781,210.313187 C101.678252,210.346813 101.630687,210.396264 101.58114,210.42989 C102.292634,211.138022 102.683064,212.142857 102.528478,213.214945 L102.528478,213.214945 Z M95.6374891,200.761319 C94.2739572,199.277802 82.7017735,186.165495 98.1802381,186.165495 C112.170313,186.165495 122.232306,197.436264 124.905859,200.761319 L95.6374891,200.761319 L95.6374891,200.761319 Z M50.5319351,112.023297 C51.4554901,99.1542857 64.8628925,68.3307692 77.6479854,42.3652747 L81.0548331,66.1114286 C79.760667,74.9907692 73.815034,109.807912 57.8767737,131.765934 L50.5319351,112.023297 L50.5319351,112.023297 Z M97.0684047,333.480659 C90.2071442,314.687473 90.1278691,288.38967 90.1278691,287.278022 L90.1338147,285.48 L89.0100901,284.07956 C78.8549489,271.493407 61.7949459,249.062637 59.2284143,242.471868 L59.1392298,242.208791 C56.8561067,234.286813 60.9645391,186.976484 64.0859965,159.015165 L64.2168004,157.810549 L60.772297,148.545495 L62.0803363,147.168791 C70.8402356,138.006593 78.2940775,124.813187 84.2357468,107.974286 L88.3620161,96.2821978 L90.534154,111.42 L105.414092,135.842637 L109.467031,134.10989 C109.629545,134.040659 126.685585,126.735824 143.591001,126.735824 L143.660367,126.735824 L143.660367,134.837802 L143.587038,134.837802 C128.61197,134.837802 112.824332,141.48 112.6638,141.551209 L102.142012,146.072967 L87.456298,121.966813 C82.4798032,133.39978 76.6748835,142.923956 70.120814,150.404835 L72.4970853,156.801758 L72.1522386,159.915165 C67.7108507,199.661538 65.7388825,234.478681 66.8903534,239.781758 C68.4877468,243.460879 76.5302064,254.749451 85.3475802,266.275385 L99.1137025,262.26 L120.692387,237.665275 L124.081397,301.403077 C123.875282,301.68 118.902751,308.652527 118.902751,312.636264 C118.902751,316.968132 125.270524,322.609451 131.545149,327.131209 C131.634333,326.955165 131.68388,326.751429 131.780992,326.585275 C134.004659,322.656923 136.862527,321.942857 138.172548,324.963297 C138.907824,326.668352 138.679908,331.763736 138.679908,331.763736 L138.769093,331.815165 L138.759183,337.856044 C138.537213,338.36044 133.205962,350.28 120.081968,350.28 C115.004398,350.276044 102.607753,348.642198 97.0684047,333.480659 L97.0684047,333.480659 Z M143.83279,377.895165 C134.109698,377.895165 119.911527,373.161758 118.490521,360.342198 C119.021664,360.36989 119.538934,360.407473 120.079986,360.407473 C121.183892,360.407473 122.267979,360.342198 123.338193,360.231429 C127.674542,368.612308 135.60998,371.274725 143.658385,371.274725 C151.698863,371.274725 159.606555,368.582637 163.936957,360.225495 C165.017081,360.338242 166.122969,360.405495 167.244711,360.405495 C167.783782,360.405495 168.303034,360.367912 168.828232,360.34022 C167.429026,373.161758 153.423096,377.895165 143.83279,377.895165 L143.83279,377.895165 Z M198.314608,284.07956 L197.186919,285.48 L197.190883,287.278022 C197.190883,288.38967 197.111608,314.691429 190.248365,333.480659 C184.710999,348.642198 172.312373,350.278022 167.244711,350.278022 C154.148464,350.278022 148.773611,338.130989 148.53975,337.622637 L148.53975,331.827033 L148.642807,331.761758 C148.642807,331.761758 148.410928,326.666374 149.144223,324.961319 C150.456226,321.940879 153.320039,322.654945 155.539742,326.583297 C155.63289,326.749451 155.688383,326.955165 155.771621,327.129231 C162.056156,322.607473 168.419965,316.966154 168.419965,312.634286 C168.419965,308.654505 163.459325,301.697802 163.245282,301.405055 L166.634293,237.663297 L188.207031,262.258022 L210.308931,268.71033 C206.065731,274.31011 201.786857,279.775385 198.314608,284.07956 L198.314608,284.07956 Z" id="Shape"></path>
                </g>
            </g>
        </g>
    </g>
</svg>