<?xml version="1.0" encoding="utf-8"?>
<!-- Generator: Adobe Illustrator 17.0.0, SVG Export Plug-In . SVG Version: 6.00 Build 0)  -->
<!DOCTYPE svg PUBLIC "-//W3C//DTD SVG 1.1//EN" "http://www.w3.org/Graphics/SVG/1.1/DTD/svg11.dtd">
<svg version="1.1" id="Layer_1" xmlns="http://www.w3.org/2000/svg" xmlns:xlink="http://www.w3.org/1999/xlink" x="0px" y="0px"
	 width="200px" height="200px" viewBox="0 0 200 200" enable-background="new 0 0 200 200" xml:space="preserve">
<g>
	<path fill="#FFFFFF" d="M88.254,164.504c-3.367,0-6.192,1.698-7.856,3.94h-0.263l0.188-3.77l-7.728,0.632v23.071h7.896v-16.892
		c0.898-0.543,2.209-0.898,3.464-0.898c2.56,0,3.908,1.441,3.908,4.481v13.308h7.931v-15.455
		C95.794,167.003,92.294,164.504,88.254,164.504z"/>
	<path fill="#FFFFFF" d="M149.682,165.009h-9.745c0,0-5.294,7.295-6.865,9.218v-25.496l-7.895,12.321v27.324h7.895v-10.975h0.636
		l6.324,10.975v0.02H150l-9.559-13.626L149.682,165.009z"/>
	<path fill="#FFFFFF" d="M58.119,171.146c0-0.896,1.125-1.382,2.507-1.382c2.244,0,4.939,0.711,6.922,1.474l0.766-5.282
		c-1.887-0.671-4.808-1.437-7.631-1.437c-5.669,0-10.193,2.596-10.193,7.524c0,7.708,10.639,6.997,10.639,9.948
		c0,1.026-1.121,1.607-2.823,1.607c-2.339,0-5.128-0.58-7.595-1.792L50,187.182c2.337,1.121,5.071,1.701,8.436,1.701l0.002-0.006
		c6.099,0,10.55-2.874,10.55-7.876C68.989,173.479,58.119,174.057,58.119,171.146z"/>
	<path fill="#FFFFFF" d="M114.944,165.082l-3.233,10.527c-0.636,1.98-1.253,5.62-1.253,5.62s-0.486-3.77-1.161-5.75l-3.462-10.4
		h-8.847l9.613,23.292c-1.309,3.099-3.328,5.714-6.02,5.714c-0.488,0-0.975-0.02-1.441-0.075l-3.144,4.852
		c0.995,0.561,2.882,1.139,5.128,1.139c5.837,0,9.745-4.723,12.475-11.705l9.169-23.219h-7.822V165.082z"/>
	<polygon fill="#FFFFFF" points="87.863,188.376 87.863,188.374 87.859,188.374 	"/>
</g>
<g>
	<g>
		<path fill="#FFFFFF" d="M122.036,9.87l0.939,1.74c1.389,2.566,13.531,25.26,13.531,33.465v0.482l-5.508,14.77
			c0.895,8.055,2.672,25.554,1.333,28.977c-0.826,2.109-3.987,6.459-6.697,9.982l3.668,33.646l-5.051,3.661l-2.297-21.06
			l-0.688,0.501l-0.169-1.627c-0.344,1.69-0.795,3.38-1.377,4.963c-1.152,3.148-3.192,5.533-5.82,6.947
			c-0.15,7.542-7.172,11.61-13.788,11.61c-6.665,0-13.744-4.068-13.894-11.61c-2.629-1.414-4.681-3.799-5.839-6.947
			c-0.563-1.533-1.001-3.173-1.346-4.807l-0.188,1.64l-0.645-0.457l-2.284,21.048l-5.051-3.53l3.668-33.859
			c-2.722-3.549-5.946-7.961-6.784-10.101c-1.346-3.423,0.376-20.922,1.264-28.977l-5.595-14.764v-0.501
			c0-8.199,12.229-30.899,13.619-33.465l0.3-0.544c1.233-2.41,2.191-4.174,2.503-4.757L83.308,0c0,0,3.173,21.943,3.167,21.968
			l1.715,11.847l1.596,13.08c1.94-0.607,4.694-1.314,7.623-1.615c0.795-1.928,1.652-3.211,2.597-3.211
			c1.815,0,3.617,1.721,5.238,3.58c1.828,0.332,3.492,0.776,4.819,1.189l1.802-13.018L116.76,0l3.405,6.321
			c0.25,0.469,0.951,1.752,1.878,3.549H122.036z"/>
		<path fill="#FFFFFF" d="M149.912,123.776L99.987,159.03l-49.9-35.261V41.582c0,0,18.463-6.859,49.975-6.859
			c31.524,0,49.843,6.859,49.843,6.859v82.194H149.912z"/>
		<path fill="#3C3C64" d="M121.473,101.608H99.956V65.684l-21.83,34.879l-3.392,35.799l24.89,17.712l0.332,0.25l25.454-18.087
			l-3.943-34.622L121.473,101.608z"/>
		<g>
			<path id="Shape" fill="#DCDBDB" d="M99.593,153.949L53.28,121.216V44.874c0,0,17.123-6.359,46.376-6.359
				c29.246,0,46.251,6.365,46.251,6.365v76.348l-46.313,32.732V153.949z"/>
			<path id="Shape_1_" fill="#C7C6C6" d="M100.263,38.515c-0.025,0-0.044,0-0.063,0v115.433l46.313-32.732V44.874
				C146.514,44.874,129.509,38.515,100.263,38.515z"/>
		</g>
		<path fill="#3C3C64" d="M125.285,136.155l-3.93-34.547H99.844v52.635L125.285,136.155L125.285,136.155z"/>
		<path fill="#54547B" d="M74.734,136.356l25.222,17.962V65.696l-21.824,34.86l-3.392,35.799H74.734z"/>
		<path fill="#BC9375" d="M110.815,126.148c0,5.927-5.583,8.862-10.702,8.862c-5.12,0-10.815-2.942-10.815-8.862"/>
		<path fill="#0A3351" d="M107.667,122.793c0,6.947-3.768,8.806-7.61,8.806c-3.849,0-7.623-1.859-7.623-8.806"/>
		<path fill="#FFFFFF" d="M100.056,129.215c-4.112,0-6.115-2.992-6.115-9.138h1.965c0,7.197,2.804,7.197,4.156,7.197
			c1.346,0,4.149,0,4.149-7.197h1.959c0,6.146-2.003,9.138-6.108,9.138H100.056z"/>
		<g>
			<path id="Shape_2_" fill="#C49A7E" d="M132.682,49.274c0-7.492-12.768-31.074-12.768-31.074l-4.331,29.903l-3.88,6.321
				l-11.622,0.463l-0.05,0.094v-0.094l-11.628-0.469l-3.88-6.321L80.204,18.2c0,0-12.78,23.582-12.78,31.074l5.401,14.395
				c0,0-2.729,24.196-1.483,27.363c1.239,3.167,9.851,13.756,9.851,13.756s-0.025,8.906,2.334,15.308
				c1.69,4.569,5.382,6.421,8.937,6.421c5.445,0,7.573-4.944,7.573-4.944s2.178,4.944,7.617,4.944c3.549,0,7.247-1.853,8.937-6.428
				c2.353-6.403,2.334-15.315,2.334-15.315s8.606-10.59,9.851-13.756c1.252-3.167-1.483-27.35-1.483-27.35l5.395-14.407
				L132.682,49.274z"/>
			<path id="Shape_3_" fill="#D7B7A0" d="M100.056,54.938l-0.025,0.044v-0.094l-11.628-0.469l-3.88-6.309l-4.318-29.916
				c0,0-12.78,23.601-12.78,31.086l5.395,14.395c0,0-2.722,24.196-1.477,27.363c1.239,3.167,9.851,13.756,9.851,13.756
				s-0.025,8.906,2.334,15.308c1.69,4.569,5.382,6.421,8.937,6.421c5.445,0,7.573-4.944,7.573-4.944s0,0.019,0.025,0.05V54.938
				H100.056z"/>
		</g>
		<path fill="#3C3C64" d="M127.406,65.089c-1.001-2.053,0.413-6.909,0.413-6.909c-8.074-8.199-10.076-25.297-10.076-25.297
			c-1.515,5.382-4.788,21.279-4.788,21.279s-6.021-2.228-12.874-2.241h-0.05c-0.376,0-0.751,0.013-1.127,0.025v67.017l0.519,0.739
			v-0.363h0.313v0.363v-0.363h0.626v0.363v-0.363h0.325v0.363l5.57-8.074l1.22-22.669l6.947,7.855l8.95,2.585
			c0,0,3.342-2.366,3.342-2.359c1.421-1.971,1.89-3.649,2.234-4.525c1.252-3.173-1.54-27.425-1.54-27.425H127.406z"/>
		<path fill="#54547B" d="M100.119,51.921c-0.013,0-0.019,0-0.025,0c-6.853,0.013-12.874,2.234-12.874,2.234
			s-3.279-15.884-4.782-21.279c0,0-2.028,17.105-10.095,25.303c0,0,1.408,4.857,0.419,6.909c0,0-2.791,24.258-1.552,27.425
			c0.344,0.876,0.814,2.553,2.241,4.525l3.348,2.359l8.937-2.591l6.947-7.848l1.214,22.669l5.57,8.074v-0.376h0.325v0.376v-0.376
			h0.313V51.927L100.119,51.921z"/>
		<g>
			<g id="Group">
				<path id="Shape_4_" fill="#343152" d="M116.285,80.266h-10.452v0.106c0,3.617,3.161,6.546,6.859,6.546
					c3.705,0,6.859-2.929,6.859-6.546v-0.106h-3.273H116.285z"/>
				<path id="Shape_5_" fill="#FFFFFF" d="M108.449,80.266v0.106c0,2.153,1.752,3.893,3.918,3.893c2.178,0,3.924-1.74,3.924-3.893
					v-0.106H108.449z"/>
				<path id="Shape_6_" fill="#343152" d="M113.575,80.266h-1.84c-0.013,0-0.025,0-0.044,0.013c0.225,0.05,0.357,0.563,0.313,0.901
					c-0.081,0.526-0.526,0.876-1.039,0.895c0.144,0.676,0.707,1.227,1.452,1.327c0.939,0.138,1.815-0.501,1.953-1.452
					c0.1-0.688-0.238-1.677-0.801-1.677L113.575,80.266z"/>
			</g>
			<g id="Group_1_">
				<path id="Shape_7_" fill="#343152" d="M91.056,80.266H80.611v0.106c0,3.617,3.154,6.546,6.853,6.546
					c3.705,0,6.859-2.929,6.859-6.546v-0.106H91.056z"/>
				<path id="Shape_8_" fill="#FFFFFF" d="M83.221,80.266v0.106c0,2.153,1.752,3.893,3.918,3.893c2.172,0,3.918-1.74,3.918-3.893
					v-0.106H83.221z"/>
				<path id="Shape_9_" fill="#343152" d="M88.353,80.266h-1.84c-0.019,0-0.031,0-0.05,0.013c0.225,0.05,0.357,0.563,0.313,0.901
					c-0.081,0.526-0.526,0.876-1.045,0.895c0.156,0.676,0.713,1.227,1.458,1.327c0.939,0.138,1.827-0.501,1.959-1.452
					c0.106-0.688-0.232-1.677-0.789-1.677L88.353,80.266z"/>
			</g>
		</g>
		<path fill="#C49A7E" d="M115.49,77.181c0.451-0.476,4.174-4.663-0.814-4.663c-4.506,0-7.736,3.599-8.593,4.663h9.413H115.49z"/>
		<path fill="#D7B7A0" d="M94.004,77.181c-0.857-1.064-4.093-4.663-8.599-4.663c-4.982,0-1.252,4.193-0.814,4.663H94.004z"/>
		<path fill="#54547B" d="M78.201,78.451h19.064v1.777H78.201V78.451z"/>
		<path fill="#343152" d="M135.23,49.336c0-7.911-11.716-29.822-13.055-32.294l-3.743-6.947l-5.37,37.176l-2.472,4.049
			c-2.391-0.801-6.465-1.909-10.558-1.909s-8.136,1.108-10.514,1.903l-2.478-4.043l-1.878-13.03c0-0.025,0-0.05,0-0.063h-0.025
			l-3.474-24.083l-3.818,6.947C76.499,19.508,64.67,41.419,64.67,49.336v0.457l5.414,14.27c-0.876,7.761-2.516,24.659-1.22,27.957
			c0.814,2.065,3.918,6.321,6.546,9.738l-3.542,32.689l4.882,3.411l2.566-23.783c0.376,2.316,0.926,4.757,1.74,6.966
			c1.114,3.042,3.092,5.345,5.633,6.709c0.144,7.279,6.972,11.203,13.412,11.203c6.384,0,13.156-3.924,13.306-11.203
			c2.522-1.377,4.494-3.668,5.614-6.697c0.845-2.303,1.396-4.857,1.765-7.26l2.591,23.87l4.882-3.524l-3.542-32.47
			c2.61-3.405,5.664-7.598,6.465-9.638c1.302-3.305-0.419-20.196-1.283-27.976l5.32-14.257v-0.463L135.23,49.336z M70.053,48.917
			c0.3-4.106,4.613-13.944,8.731-22.23l1.095,7.573c-0.419,2.841-2.334,13.957-7.46,20.966l-2.366-6.315V48.917z M100.113,133.783
			c-2.879,0-6.947-1.27-7.961-4.631c0.106,0,0.213,0.019,0.313,0.019c0.563,0,1.076-0.063,1.577-0.125
			c1.458,2.003,3.724,2.616,6.021,2.616s4.569-0.607,6.027-2.616c0.501,0.063,1.014,0.125,1.565,0.125
			c0.106,0,0.207-0.019,0.313-0.019c-1.001,3.355-5.026,4.619-7.848,4.619L100.113,133.783z M96.796,128.263
			c0.707-0.313,1.333-0.676,1.89-1.076c0.501,0.15,1.001,0.15,1.377,0.15c0.363,0,0.845,0,1.352-0.144
			c0.563,0.394,1.189,0.764,1.89,1.064c-0.876,0.657-1.953,1.02-3.242,1.02c-1.296,0-2.378-0.363-3.254-1.014L96.796,128.263z
			 M126.336,90.149c-0.751,1.94-5.983,8.812-9.45,13.08l-0.588,0.713v0.914c0,0.088,0,8.512-2.178,14.414
			c-1.565,4.268-5.057,4.725-6.478,4.725c-3.611,0-5.17-3.273-5.22-3.392l-0.207-3.067h-4.381l-0.207,3.048
			c-0.063,0.144-1.577,3.405-5.17,3.405c-1.421,0-4.907-0.451-6.478-4.713c-2.165-5.883-2.178-14.332-2.178-14.414v-0.914
			l-0.576-0.713c-3.467-4.268-8.699-11.14-9.432-13.018c-0.588-2.04,0.376-15.177,1.627-26.186l0.063-0.613l-0.976-2.604
			c3.367-3.486,5.72-8.305,7.348-12.874l0.156,1.127l5.345,8.681l2.084-0.889c0.063-0.025,5.401-2.278,10.596-2.278
			c5.163,0,10.596,2.266,10.652,2.284l2.078,0.876l5.332-8.674l0.213-1.458c1.608,4.613,3.962,9.501,7.341,13.068l-1.026,2.735
			l0.063,0.613c1.239,11.015,2.216,24.146,1.646,26.13L126.336,90.149z M127.757,55.075c-5.551-7.717-7.285-20.259-7.435-21.404
			l1.001-6.985c4.131,8.286,8.437,18.125,8.737,22.23l-2.316,6.152L127.757,55.075z"/>
		<g>
			<path id="Shape_10_" fill="#343152" d="M106.202,108.649H93.935c0,0-1.64,2.854-1.64,3.774c0,2.741,7.548,7.103,7.548,7.103
				s7.967-4.494,7.967-7.103c0-1.252-1.608-3.768-1.608-3.768L106.202,108.649z"/>
			<g>
				<path id="Shape_11_" fill="#C49A7E" d="M103.849,117.01c-0.688-1.202-1.565-1.421-1.978-0.501
					c-0.407,0.939-0.175,2.66,0.501,3.855c0.688,1.202,1.577,1.421,1.978,0.501C104.757,119.927,104.525,118.212,103.849,117.01z"/>
				<path fill="#D7B7A0" d="M96.276,117.01c-0.688,1.202-0.92,2.923-0.519,3.849c0.407,0.939,1.289,0.713,1.971-0.488
					c0.688-1.189,0.914-2.923,0.501-3.849c-0.394-0.926-1.277-0.707-1.959,0.501L96.276,117.01z"/>
			</g>
		</g>
	</g>
</g>
</svg>
