<?xml version="1.0" encoding="utf-8"?>
<!-- Generator: Adobe Illustrator 17.0.0, SVG Export Plug-In . SVG Version: 6.00 Build 0)  -->
<!DOCTYPE svg PUBLIC "-//W3C//DTD SVG 1.1//EN" "http://www.w3.org/Graphics/SVG/1.1/DTD/svg11.dtd">
<svg version="1.1" id="Layer_1" xmlns="http://www.w3.org/2000/svg" xmlns:xlink="http://www.w3.org/1999/xlink" x="0px" y="0px"
	 width="200px" height="200px" viewBox="0 0 200 200" enable-background="new 0 0 200 200" xml:space="preserve">
<g>
	<path fill="#FFFFFF" d="M88.254,164.504c-3.367,0-6.192,1.698-7.856,3.94h-0.263l0.188-3.77l-7.728,0.632v23.071h7.896v-16.892
		c0.898-0.543,2.209-0.898,3.464-0.898c2.56,0,3.908,1.441,3.908,4.481v13.308h7.931v-15.455
		C95.794,167.003,92.294,164.504,88.254,164.504z"/>
	<path fill="#FFFFFF" d="M149.682,165.009h-9.745c0,0-5.294,7.295-6.865,9.218v-25.496l-7.895,12.321v27.324h7.895v-10.975h0.636
		l6.324,10.975v0.02H150l-9.559-13.626L149.682,165.009z"/>
	<path fill="#FFFFFF" d="M58.119,171.146c0-0.896,1.125-1.382,2.507-1.382c2.244,0,4.939,0.711,6.922,1.474l0.766-5.282
		c-1.887-0.671-4.808-1.437-7.631-1.437c-5.669,0-10.193,2.596-10.193,7.524c0,7.708,10.639,6.997,10.639,9.948
		c0,1.026-1.121,1.607-2.823,1.607c-2.339,0-5.128-0.58-7.595-1.792L50,187.182c2.337,1.121,5.071,1.701,8.436,1.701l0.002-0.006
		c6.099,0,10.55-2.874,10.55-7.876C68.989,173.479,58.119,174.057,58.119,171.146z"/>
	<path fill="#FFFFFF" d="M114.944,165.082l-3.233,10.527c-0.636,1.98-1.253,5.62-1.253,5.62s-0.486-3.77-1.161-5.75l-3.462-10.4
		h-8.847l9.613,23.292c-1.309,3.099-3.328,5.714-6.02,5.714c-0.488,0-0.975-0.02-1.441-0.075l-3.144,4.852
		c0.995,0.561,2.882,1.139,5.128,1.139c5.837,0,9.745-4.723,12.475-11.705l9.169-23.219h-7.822v0.005H114.944z"/>
	<polygon fill="#FFFFFF" points="87.863,188.376 87.863,188.374 87.859,188.374 	"/>
</g>
<g>
	<path opacity="0.1" fill="#FFFFFF" d="M100.2,37.848c-0.183,0-0.36-0.004-0.544-0.004c-0.948,0-1.882,0.007-2.804,0.02
		c-0.147,0.002-0.29,0.006-0.437,0.009c-0.786,0.013-1.567,0.028-2.335,0.05c-0.077,0.002-0.152,0.005-0.23,0.008
		c-0.838,0.025-1.667,0.054-2.482,0.088c-0.01,0-0.019,0.001-0.029,0.001c-0.872,0.037-1.731,0.079-2.576,0.127
		c-0.001,0-0.002,0-0.003,0l1.072,7.412l0.943,1.538c2.601-0.718,5.85-1.357,9.169-1.357c0.085,0,0.17,0.005,0.255,0.006
		c3.252,0.031,6.414,0.654,8.954,1.355l0.94-1.539l1.066-7.378C107.73,37.981,104.076,37.858,100.2,37.848z"/>
	<polygon fill="#3C3C64" points="99.847,123.57 99.844,123.567 99.844,123.572 	"/>
	
		<line fill="none" stroke="#C49A7E" stroke-width="0" stroke-linecap="round" stroke-linejoin="round" x1="115.49" y1="46.51" x2="115.496" y2="46.51"/>
	<g>
		<polygon fill="#FFFFFF" points="53.28,120.545 68.994,131.651 68.994,131.651 		"/>
		<path opacity="0.1" fill="#FFFFFF" d="M72.211,101.956c-5.152-6.785-5.954-8.819-6.226-9.51c-1.437-3.657-0.3-17.445,0.95-28.668
			l-5.157-13.592l-0.195-0.514v-0.55v-0.457c0-1.882,0.539-4.353,1.404-7.112c-0.001,0-0.002,0-0.003,0.001
			c-0.373,0.082-0.734,0.164-1.086,0.245c-0.029,0.007-0.059,0.013-0.088,0.02c-0.344,0.08-0.678,0.158-1.002,0.236
			c-0.031,0.008-0.063,0.015-0.094,0.022c-0.325,0.078-0.64,0.156-0.945,0.232c-0.019,0.005-0.039,0.01-0.058,0.015
			c-2.575,0.646-4.408,1.205-5.441,1.542c-0.007,0.002-0.015,0.005-0.022,0.007c-0.119,0.039-0.227,0.074-0.324,0.107
			c-0.015,0.005-0.029,0.01-0.043,0.014c-0.088,0.029-0.168,0.057-0.236,0.08c-0.015,0.005-0.028,0.01-0.043,0.015
			c-0.061,0.021-0.117,0.041-0.16,0.056c-0.016,0.006-0.029,0.01-0.042,0.015c-0.029,0.01-0.06,0.021-0.077,0.028
			c-0.024,0.009-0.043,0.016-0.043,0.016v76.342l15.714,11.106L72.211,101.956z"/>
		<path opacity="0.1" fill="#FFFFFF" d="M136.598,41.497c0.016,0.05,0.031,0.098,0.047,0.147c0.916,2.829,1.498,5.3,1.498,7.021
			l-0.836,3.215l-4.435,11.884c2.686,24.452,1.473,27.53,1.015,28.692c-0.459,1.168-1.6,3.406-6.145,9.407l3.193,29.275l0.042,0.387
			l15.535-10.98V44.203C146.513,44.203,143.057,42.914,136.598,41.497z"/>
		<path fill="#FFFFFF" d="M149.905,123.105V40.911c0,0-5.218-1.952-14.871-3.774c-3.482-9-8.832-19.471-10.308-22.195l-3.74-6.941
			L116.675,0l-1.299,8.995l-3.666,25.379c-3.652-0.203-7.535-0.322-11.648-0.322c-4.185,0-8.132,0.124-11.844,0.334L84.545,8.995
			l-1.283-8.868l-4.316,7.852l-3.818,6.947c-2.097,3.842-7.314,13.681-10.628,22.313c-9.345,1.792-14.414,3.672-14.414,3.672v82.187
			l49.9,35.261l49.925-35.254H149.905z M146.513,120.545l-15.535,10.98l-0.042-0.387l-3.193-29.275
			c4.545-6.001,5.687-8.239,6.145-9.407c0.458-1.163,1.671-4.241-1.015-28.692l4.435-11.884l0.836-3.215
			c0-1.721-0.582-4.192-1.498-7.021c-0.016-0.05-0.03-0.097-0.047-0.147c6.458,1.417,9.915,2.706,9.915,2.706V120.545z
			 M91.34,38.021c0.01,0,0.019-0.001,0.029-0.001c0.815-0.035,1.644-0.063,2.482-0.088c0.077-0.002,0.152-0.005,0.23-0.008
			c0.767-0.022,1.548-0.037,2.335-0.05c0.147-0.002,0.289-0.007,0.437-0.009c0.922-0.013,1.856-0.02,2.804-0.02
			c0.184,0,0.361,0.003,0.544,0.004v-0.004c0.019,0,0.038,0,0.063,0c0.95,0,1.887,0.007,2.81,0.02
			c0.125,0.002,0.246,0.005,0.371,0.007c2.685,0.044,5.261,0.138,7.72,0.276l-0.005,0.036l-1.066,7.378l-0.94,1.539
			c-2.54-0.701-5.702-1.324-8.954-1.355c-0.085-0.001-0.17-0.006-0.255-0.006c-3.318,0-6.567,0.64-9.169,1.357l-0.943-1.538
			l-1.072-7.412l0,0c0.001,0,0.002,0,0.003,0C89.61,38.1,90.469,38.058,91.34,38.021z M53.28,120.545V44.203
			c0,0,0.015-0.006,0.043-0.016c0.018-0.006,0.049-0.017,0.077-0.028c0.015-0.005,0.024-0.009,0.042-0.015
			c0.043-0.015,0.1-0.035,0.16-0.056c0.015-0.005,0.027-0.009,0.043-0.015c0.069-0.024,0.148-0.051,0.236-0.08
			c0.015-0.005,0.028-0.009,0.043-0.014c0.097-0.033,0.205-0.068,0.324-0.107c0.007-0.002,0.015-0.005,0.022-0.007
			c1.034-0.337,2.866-0.896,5.441-1.542c0.019-0.005,0.039-0.01,0.058-0.015c0.304-0.076,0.62-0.154,0.945-0.232
			c0.031-0.007,0.062-0.015,0.094-0.022c0.324-0.078,0.658-0.157,1.002-0.236c0.029-0.007,0.059-0.013,0.088-0.02
			c0.352-0.081,0.714-0.163,1.086-0.245c0.001,0,0.002,0,0.003-0.001l0,0c-0.865,2.759-1.404,5.231-1.404,7.112v0.457v0.55
			l0.195,0.514l5.157,13.592c-1.25,11.223-2.387,25.011-0.95,28.668c0.273,0.691,1.074,2.725,6.226,9.51l-3.218,29.695l0,0
			L53.28,120.545z M99.844,153.567l-23.087-16.442l-0.007,0.062l-4.882-3.411l3.542-32.689c-2.628-3.417-5.732-7.673-6.546-9.738
			c-1.296-3.298,0.344-20.196,1.22-27.957l-5.414-14.27v-0.457c0-7.917,11.829-29.828,13.175-32.294l3.818-6.947l3.474,24.083h0.025
			c0,0.013,0,0.038,0,0.063L87.04,46.6l2.478,4.043c2.378-0.795,6.421-1.903,10.514-1.903c4.093,0,8.167,1.108,10.558,1.909
			l2.472-4.049l5.37-37.176l3.743,6.947c1.339,2.472,13.055,24.383,13.055,32.294l-0.011-0.001v0.463l-5.32,14.257
			c0.864,7.78,2.585,24.671,1.283,27.976c-0.801,2.04-3.855,6.233-6.465,9.638l3.542,32.47l-4.882,3.524l-0.015-0.141
			l-23.406,16.641v0.155l-0.109-0.077l-0.003,0.002V153.567z"/>
		<path opacity="0.1" fill="#FFFFFF" d="M120.786,113.122c-0.369,2.403-0.92,4.957-1.765,7.26c-1.12,3.029-3.092,5.32-5.614,6.697
			c-0.15,7.279-6.922,11.203-13.306,11.203c-0.048,0-0.097-0.005-0.145-0.005c-6.397-0.058-13.124-3.973-13.267-11.198
			c-2.541-1.364-4.519-3.667-5.633-6.709c-0.814-2.209-1.364-4.65-1.74-6.966l-2.559,23.721l23.087,16.442l0.003,0.002l0.109,0.077
			v-0.155l23.406-16.641L120.786,113.122z"/>
		<path opacity="0.4" fill="#FFFFFF" d="M106.09,128.375c-1.458,2.009-3.73,2.616-6.027,2.616s-4.563-0.613-6.021-2.616
			c-0.501,0.062-1.014,0.125-1.577,0.125c-0.1,0-0.207-0.019-0.313-0.019c1.014,3.361,5.082,4.631,7.961,4.631l0.007-0.012
			c2.822,0,6.847-1.264,7.848-4.619c-0.106,0-0.207,0.019-0.313,0.019C107.104,128.5,106.591,128.438,106.09,128.375z"/>
		<path opacity="0.4" fill="#FFFFFF" d="M100.056,128.544h0.006c0.731,0,1.392-0.099,1.99-0.29c0.453-0.168,0.876-0.385,1.253-0.668
			c-0.701-0.3-1.327-0.67-1.89-1.064c-0.507,0.144-0.989,0.144-1.352,0.144c-0.376,0-0.876,0-1.377-0.15
			c-0.557,0.4-1.183,0.763-1.89,1.076h0.013c0.376,0.279,0.798,0.494,1.25,0.661C98.659,128.444,99.323,128.544,100.056,128.544z"/>
		<path fill="#FFFFFF" d="M127.747,54.389l2.313-6.144c-0.3-4.105-4.606-13.944-8.737-22.23L120.322,33
			C120.472,34.144,122.204,46.671,127.747,54.389z"/>
		<path opacity="0.4" fill="#FFFFFF" d="M107.477,88.288l-1.077,20.019c0.428,0.716,1.41,2.465,1.41,3.445
			c0,1.307-1.999,3.086-3.994,4.537c0.011,0.018,0.022,0.031,0.033,0.05c0.676,1.202,0.908,2.917,0.501,3.855
			c-0.394,0.904-1.258,0.703-1.94-0.444l0.012,0.182c0.05,0.119,1.609,3.392,5.22,3.392c1.421,0,4.913-0.457,6.478-4.725
			c2.178-5.902,2.178-14.326,2.178-14.414v-0.914l0.588-0.713c1.109-1.365,2.397-2.995,3.662-4.646l-6.124-1.769L107.477,88.288z"/>
		<path fill="#FFFFFF" d="M79.879,33.589l-1.095-7.573c-4.117,8.283-8.428,18.117-8.73,22.225l2.365,6.314
			C77.545,47.546,79.46,36.43,79.879,33.589z"/>
		<path opacity="0.4" fill="#FFFFFF" d="M95.757,120.188c-0.39-0.9-0.178-2.547,0.466-3.743c-1.937-1.453-3.928-3.285-3.928-4.693
			c0-0.732,1.035-2.682,1.46-3.452l-1.072-20.013l-6.947,7.848l-6.17,1.789c1.264,1.647,2.551,3.277,3.659,4.64l0.576,0.713v0.914
			c0,0.082,0.013,8.531,2.178,14.414c1.571,4.262,5.057,4.713,6.478,4.713c3.593,0,5.107-3.261,5.17-3.405l0.004-0.065
			C96.964,120.909,96.145,121.084,95.757,120.188z"/>
		<path opacity="0.1" fill="#FFFFFF" d="M124.689,63.354l-0.063-0.613l1.026-2.735c-3.379-3.567-5.733-8.455-7.341-13.068
			l-0.213,1.458l-5.332,8.674l-2.078-0.876c-0.056-0.018-5.441-2.262-10.583-2.282c-0.023,0-0.046-0.002-0.069-0.002
			c-5.195,0-10.533,2.253-10.596,2.278l-2.084,0.889l-5.345-8.681l-0.156-1.127c-1.628,4.569-3.981,9.388-7.348,12.874l0.976,2.604
			L75.42,63.36c-1.251,11.009-2.215,24.146-1.627,26.186c0.499,1.278,3.081,4.869,5.773,8.378l6.17-1.789l6.947-7.848l1.072,20.013
			c0.109-0.198,0.18-0.322,0.18-0.322h6.17h6.097v0.006c0,0,0.079,0.124,0.198,0.323l1.077-20.019l6.947,7.855l6.124,1.769
			c2.692-3.512,5.277-7.114,5.788-8.434l-0.001,0.006C126.905,87.5,125.928,74.369,124.689,63.354z M85.405,71.847
			c4.506,0,7.742,3.599,8.599,4.663h-9.413C84.153,76.04,80.423,71.847,85.405,71.847z M94.323,79.701
			c0,3.617-3.154,6.546-6.859,6.546c-3.699,0-6.853-2.929-6.853-6.546v-0.106h2.61h3.292h1.84h2.703h0.001h3.266V79.701z
			 M114.676,71.847c4.988,0,1.265,4.187,0.814,4.663h-9.407C106.94,75.446,110.17,71.847,114.676,71.847z M119.551,79.701
			c0,3.617-3.154,6.546-6.859,6.546c-3.698,0-6.859-2.929-6.859-6.546v-0.106h2.616h3.286h1.84h2.703h0.007h0.006h3.26V79.701z"/>
		<path opacity="0.2" fill="#FFFFFF" d="M112.692,86.247c3.705,0,6.859-2.929,6.859-6.546v-0.106h-3.26v0.106
			c0,2.153-1.746,3.893-3.924,3.893c-2.166,0-3.918-1.74-3.918-3.893v-0.106h-2.616v0.106
			C105.833,83.318,108.994,86.247,112.692,86.247z"/>
		<path fill="#FFFFFF" d="M112.367,83.594c2.178,0,3.924-1.74,3.924-3.893v-0.106h-0.006h-0.007h-2.703l-0.006,0.007
			c0.563,0,0.901,0.989,0.801,1.677c-0.138,0.951-1.014,1.59-1.953,1.452c-0.745-0.1-1.308-0.651-1.452-1.327
			c0.513-0.019,0.958-0.369,1.039-0.895c0.044-0.338-0.088-0.851-0.313-0.901c0.019-0.013,0.031-0.013,0.044-0.013h-3.286v0.106
			C108.449,81.854,110.201,83.594,112.367,83.594z"/>
		<path opacity="0.1" fill="#FFFFFF" d="M112.004,80.509c-0.081,0.526-0.526,0.876-1.039,0.895c0.144,0.676,0.707,1.227,1.452,1.327
			c0.939,0.138,1.815-0.501,1.953-1.452c0.1-0.688-0.238-1.677-0.801-1.677l0.006-0.007h-1.84c-0.013,0-0.025,0-0.044,0.013
			C111.916,79.658,112.048,80.171,112.004,80.509z"/>
		<path opacity="0.2" fill="#FFFFFF" d="M94.323,79.701v-0.106h-3.266v0.106c0,2.153-1.746,3.893-3.918,3.893
			c-2.166,0-3.918-1.74-3.918-3.893v-0.106h-2.61v0.106c0,3.617,3.154,6.546,6.853,6.546C91.169,86.247,94.323,83.318,94.323,79.701
			z"/>
		<path fill="#FFFFFF" d="M87.139,83.594c2.172,0,3.918-1.74,3.918-3.893v-0.106h-0.001h-2.703l0.006,0.007
			c0.557,0,0.895,0.989,0.789,1.677c-0.132,0.951-1.02,1.59-1.959,1.452c-0.745-0.1-1.302-0.651-1.458-1.327
			c0.519-0.019,0.964-0.369,1.045-0.895c0.044-0.338-0.088-0.851-0.313-0.901c0.019-0.013,0.031-0.013,0.05-0.013h-3.292v0.106
			C83.221,81.854,84.973,83.594,87.139,83.594z"/>
		<path opacity="0.1" fill="#FFFFFF" d="M86.776,80.509c-0.081,0.526-0.526,0.876-1.045,0.895c0.156,0.676,0.713,1.227,1.458,1.327
			c0.939,0.138,1.827-0.501,1.959-1.452c0.106-0.688-0.232-1.677-0.789-1.677l-0.006-0.007h-1.84c-0.019,0-0.031,0-0.05,0.013
			C86.688,79.658,86.82,80.171,86.776,80.509z"/>
		<path opacity="0.2" fill="#FFFFFF" d="M114.676,71.847c-4.506,0-7.736,3.599-8.593,4.663h9.407
			C115.941,76.034,119.664,71.847,114.676,71.847z"/>
		<path opacity="0.2" fill="#FFFFFF" d="M94.004,76.51c-0.857-1.064-4.093-4.663-8.599-4.663c-4.982,0-1.252,4.193-0.814,4.663
			H94.004z"/>
		<path opacity="0.2" fill="#FFFFFF" d="M81.056,120.37c1.114,3.042,3.092,5.345,5.633,6.709c0.143,7.224,6.87,11.139,13.267,11.198
			c0.048,0,0.097,0.005,0.145,0.005c6.384,0,13.156-3.924,13.306-11.203c2.522-1.377,4.494-3.668,5.614-6.697
			c0.845-2.303,1.396-4.857,1.765-7.26l2.576,23.729l0.015,0.141l4.882-3.524l-3.542-32.47c2.61-3.405,5.664-7.598,6.465-9.638
			c1.302-3.305-0.419-20.196-1.283-27.976l5.32-14.257v-0.463l0.011,0.001c0-7.911-11.716-29.822-13.055-32.294l-3.743-6.947
			l-5.37,37.176l-2.472,4.049c-2.391-0.801-6.465-1.909-10.558-1.909c-4.093,0-8.136,1.108-10.514,1.903L87.04,46.6l-1.878-13.03
			c0-0.025,0-0.05,0-0.063h-0.025L81.663,9.424l-3.818,6.947C76.499,18.837,64.67,40.748,64.67,48.665v0.457l5.414,14.27
			c-0.876,7.761-2.516,24.659-1.22,27.957c0.814,2.065,3.918,6.321,6.546,9.738l-3.542,32.689l4.882,3.411l0.007-0.062l2.559-23.721
			C79.692,115.72,80.242,118.161,81.056,120.37z M120.322,33l1.001-6.985c4.131,8.286,8.437,18.125,8.737,22.23l-2.313,6.144
			C122.204,46.671,120.472,34.144,120.322,33z M110.688,56.194l2.078,0.876l5.332-8.674l0.213-1.458
			c1.608,4.613,3.962,9.501,7.341,13.068l-1.026,2.735l0.063,0.613c1.239,11.015,2.216,24.146,1.646,26.13l0.001-0.006
			c-0.511,1.32-3.096,4.922-5.788,8.434c-1.265,1.651-2.554,3.282-3.662,4.646l-0.588,0.713v0.914c0,0.088,0,8.512-2.178,14.414
			c-1.565,4.268-5.057,4.725-6.478,4.725c-3.611,0-5.17-3.273-5.22-3.392l-0.012-0.182c-0.012-0.021-0.026-0.036-0.038-0.057
			c-0.331-0.585-0.554-1.297-0.649-1.981c-1.086,0.694-1.88,1.143-1.88,1.143s-0.621-0.361-1.496-0.93
			c-0.109,0.62-0.316,1.25-0.619,1.775c-0.031,0.055-0.065,0.097-0.097,0.148l-0.004,0.065c-0.063,0.144-1.577,3.405-5.17,3.405
			c-1.421,0-4.907-0.451-6.478-4.713c-2.165-5.883-2.178-14.332-2.178-14.414v-0.914l-0.576-0.713
			c-1.108-1.364-2.395-2.993-3.659-4.64c-2.692-3.509-5.274-7.1-5.773-8.378c-0.588-2.04,0.376-15.177,1.627-26.186l0.063-0.613
			l-0.976-2.604c3.367-3.486,5.72-8.305,7.348-12.874l0.156,1.127l5.345,8.681l2.084-0.889c0.063-0.025,5.401-2.278,10.596-2.278
			c0.023,0,0.046,0.002,0.069,0.002C105.247,53.932,110.632,56.176,110.688,56.194z M100.12,133.1l-0.007,0.012
			c-2.879,0-6.947-1.27-7.961-4.631c0.106,0,0.213,0.019,0.313,0.019c0.563,0,1.076-0.063,1.577-0.125
			c1.458,2.003,3.724,2.616,6.021,2.616s4.569-0.607,6.027-2.616c0.501,0.063,1.014,0.125,1.565,0.125
			c0.106,0,0.207-0.019,0.313-0.019C106.967,131.836,102.942,133.1,100.12,133.1z M96.809,127.592h-0.013
			c0.707-0.313,1.333-0.676,1.89-1.076c0.501,0.15,1.001,0.15,1.377,0.15c0.363,0,0.845,0,1.352-0.144
			c0.563,0.394,1.189,0.764,1.89,1.064c-0.378,0.283-0.8,0.5-1.253,0.668c-0.598,0.222-1.255,0.352-1.989,0.352
			c-0.74,0-1.402-0.13-2.004-0.353C97.607,128.086,97.185,127.872,96.809,127.592z M78.784,26.016l1.095,7.573
			c-0.419,2.841-2.334,13.957-7.46,20.966l-2.365-6.314C70.356,44.133,74.667,34.299,78.784,26.016z"/>
		<path fill="#FFFFFF" d="M101.871,115.838c0.407-0.906,1.262-0.702,1.945,0.451c1.995-1.451,3.994-3.23,3.994-4.537
			c0-0.98-0.982-2.729-1.41-3.445c-0.119-0.199-0.198-0.323-0.198-0.323v-0.006h-6.097h-6.17c0,0-0.071,0.124-0.18,0.322
			c-0.425,0.77-1.46,2.72-1.46,3.452c0,1.408,1.991,3.241,3.928,4.693c0.019-0.034,0.034-0.072,0.053-0.106l-0.006,0.013
			c0.682-1.208,1.565-1.427,1.959-0.501c0.231,0.518,0.256,1.288,0.118,2.074c0.875,0.569,1.496,0.93,1.496,0.93
			s0.794-0.449,1.88-1.143C101.624,117,101.663,116.317,101.871,115.838z"/>
		<path opacity="0.1" fill="#FFFFFF" d="M104.35,120.194c0.407-0.938,0.175-2.653-0.501-3.855c-0.011-0.018-0.022-0.032-0.033-0.05
			c-0.683-1.154-1.539-1.357-1.945-0.451c-0.208,0.479-0.247,1.162-0.148,1.874c0.095,0.684,0.318,1.395,0.649,1.981
			c0.012,0.021,0.025,0.037,0.038,0.057C103.092,120.897,103.956,121.098,104.35,120.194z"/>
		<path opacity="0.1" fill="#FFFFFF" d="M98.229,115.851c-0.394-0.926-1.277-0.707-1.959,0.501l0.006-0.013
			c-0.019,0.034-0.034,0.072-0.053,0.106c-0.644,1.196-0.856,2.843-0.466,3.743c0.388,0.896,1.207,0.721,1.874-0.34
			c0.032-0.051,0.065-0.093,0.097-0.148c0.303-0.524,0.511-1.154,0.619-1.775C98.485,117.139,98.46,116.369,98.229,115.851z"/>
	</g>
</g>
</svg>
