<?xml version="1.0" encoding="utf-8"?>
<!-- Generator: Adobe Illustrator 17.0.0, SVG Export Plug-In . SVG Version: 6.00 Build 0)  -->
<!DOCTYPE svg PUBLIC "-//W3C//DTD SVG 1.1//EN" "http://www.w3.org/Graphics/SVG/1.1/DTD/svg11.dtd">
<svg version="1.1" id="Layer_1" xmlns="http://www.w3.org/2000/svg" xmlns:xlink="http://www.w3.org/1999/xlink" x="0px" y="0px"
	 width="200px" height="200px" viewBox="0 0 200 200" enable-background="new 0 0 200 200" xml:space="preserve">
<g>
	<g id="text-technology">
		<path fill="#FFFFFF" d="M20.603,117.347c-0.374-0.32-1.068-0.427-1.975-0.427h-6.405v24.713H9.127c-0.374,0-0.534-0.16-0.534-0.48
			V116.92h-7.74c-0.374,0-0.534-0.16-0.534-0.48v-2.615h19.269c0.32,0,0.534,0.16,0.587,0.48L20.603,117.347z"/>
		<path fill="#FFFFFF" d="M39.979,132.079c0,0.641-0.374,0.907-1.121,0.907H26.955c0.427,4.11,2.615,6.138,6.512,6.138
			c1.815,0,3.469-0.267,4.911-0.854l0.907,2.669c-1.548,0.747-3.63,1.121-6.245,1.121c-3.096,0-5.498-0.907-7.206-2.776
			c-1.655-1.761-2.455-4.163-2.455-7.152c0-3.096,0.747-5.551,2.242-7.313c1.495-1.761,3.683-2.669,6.565-2.669
			c2.669,0,4.644,0.961,5.978,2.882C39.392,126.848,39.979,129.143,39.979,132.079z M36.456,130.318
			c-0.214-3.683-1.708-5.498-4.644-5.498s-4.59,1.815-4.857,5.498H36.456z"/>
		<path fill="#FFFFFF" d="M58.767,140.939c-1.708,0.694-3.63,1.068-5.765,1.068c-2.615,0-4.75-0.747-6.352-2.188
			c-1.868-1.708-2.829-4.323-2.829-7.686c0-2.829,0.801-5.124,2.349-6.886c1.708-1.868,4.003-2.829,6.992-2.829
			c1.441,0,2.722,0.214,3.79,0.587c0.374,0.16,0.587,0.427,0.641,0.801l0.32,2.882c-1.388-0.907-2.936-1.334-4.697-1.334
			c-1.655,0-3.042,0.587-4.11,1.761c-1.121,1.228-1.655,2.989-1.655,5.284c0,4.484,2.028,6.725,6.085,6.725
			c1.441,0,2.882-0.32,4.43-0.961L58.767,140.939z"/>
		<path fill="#FFFFFF" d="M79.103,141.633h-2.882c-0.374,0-0.534-0.16-0.534-0.48v-11.209c0-3.149-1.388-4.75-4.11-4.75
			c-2.135,0-3.896,1.014-5.338,3.042v13.397h-2.882c-0.374,0-0.534-0.16-0.534-0.48v-25.193c0-1.014-0.214-1.761-0.587-2.135
			l2.188-0.214c0.587-0.053,0.961-0.107,1.174-0.107c0.427,0,0.587,0.16,0.587,0.534v10.729c1.601-1.708,3.576-2.562,5.925-2.562
			c4.644,0,6.939,2.295,6.939,6.939v12.49H79.103z"/>
		<path fill="#FFFFFF" d="M101.201,141.633h-2.882c-0.374,0-0.534-0.16-0.534-0.48v-11.209c0-3.149-1.388-4.75-4.11-4.75
			c-2.135,0-3.896,1.014-5.338,3.042v13.397h-2.882c-0.374,0-0.534-0.16-0.534-0.48v-13.451c0-2.349-0.214-3.95-0.641-4.964h2.722
			c0.32,0,0.534,0.107,0.641,0.374c0.16,0.32,0.267,1.014,0.374,2.028c1.655-1.922,3.736-2.882,6.245-2.882
			c4.644,0,6.939,2.295,6.939,6.939V141.633z"/>
		<path fill="#FFFFFF" d="M124.046,132.186c0,2.989-0.854,5.391-2.509,7.206c-1.655,1.815-3.843,2.722-6.459,2.722
			s-4.804-0.907-6.459-2.722c-1.655-1.815-2.509-4.217-2.509-7.206c0-3.203,0.854-5.658,2.509-7.419
			c1.548-1.655,3.736-2.509,6.459-2.509s4.857,0.854,6.459,2.509C123.245,126.475,124.046,128.983,124.046,132.186z M120.47,132.186
			c0-2.135-0.48-3.843-1.388-5.177c-0.907-1.334-2.242-1.975-3.95-1.975c-1.708,0-3.042,0.641-3.95,1.975
			c-0.907,1.334-1.388,3.042-1.388,5.177s0.427,3.79,1.334,5.071c0.961,1.388,2.295,2.082,4.003,2.082
			c1.761,0,3.096-0.694,4.057-2.082C120.043,135.975,120.47,134.267,120.47,132.186z"/>
		<path fill="#FFFFFF" d="M132.479,141.633h-2.882c-0.374,0-0.534-0.16-0.534-0.48v-25.193c0-1.014-0.214-1.761-0.587-2.135
			l2.188-0.214c0.587-0.053,0.961-0.107,1.174-0.107c0.427,0,0.587,0.16,0.587,0.534v27.595H132.479z"/>
		<path fill="#FFFFFF" d="M155.324,132.186c0,2.989-0.854,5.391-2.509,7.206c-1.655,1.815-3.843,2.722-6.458,2.722
			c-2.615,0-4.804-0.907-6.459-2.722c-1.655-1.815-2.509-4.217-2.509-7.206c0-3.203,0.854-5.658,2.509-7.419
			c1.548-1.655,3.736-2.509,6.459-2.509c2.722,0,4.857,0.854,6.458,2.509C154.524,126.475,155.324,128.983,155.324,132.186z
			 M151.748,132.186c0-2.135-0.48-3.843-1.388-5.177c-0.907-1.334-2.242-1.975-3.95-1.975s-3.042,0.641-3.95,1.975
			c-0.907,1.334-1.388,3.042-1.388,5.177s0.427,3.79,1.334,5.071c0.961,1.388,2.295,2.082,4.003,2.082
			c1.761,0,3.096-0.694,4.057-2.082C151.321,135.975,151.748,134.267,151.748,132.186z"/>
		<path fill="#FFFFFF" d="M176.781,123.859c-0.374,0.427-0.534,1.121-0.534,2.135v14.839c0,5.658-2.936,8.487-8.86,8.487
			c-2.455,0-4.59-0.32-6.512-1.014l0.747-2.722c1.761,0.587,3.469,0.907,5.124,0.907c4.11,0,6.138-1.548,6.138-4.697v-1.655
			c-1.548,1.121-3.469,1.708-5.658,1.708c-2.455,0-4.377-0.801-5.765-2.402c-1.388-1.601-2.082-3.896-2.082-6.832
			c0-3.363,0.907-5.978,2.669-7.793c1.708-1.655,4.003-2.509,6.939-2.509C172.191,122.204,174.753,122.792,176.781,123.859z
			 M172.885,137.096v-11.316c-1.174-0.534-2.509-0.747-4.003-0.747c-1.761,0-3.149,0.534-4.163,1.655
			c-1.121,1.228-1.655,2.989-1.655,5.391c0,4.537,1.655,6.832,5.017,6.832C169.843,138.911,171.444,138.324,172.885,137.096z"/>
		<path fill="#FFFFFF" d="M198.292,122.738c-0.374,0.214-0.747,0.907-1.174,2.082l-7.259,18.788
			c-0.801,1.975-1.655,3.416-2.615,4.323c-1.068,0.961-2.562,1.441-4.377,1.441c-1.334,0-2.509-0.267-3.63-0.854l0.907-2.669
			c0.801,0.48,1.548,0.747,2.349,0.747c1.014,0,1.868-0.267,2.509-0.801c0.641-0.534,1.281-1.548,1.868-3.042l0.801-2.082
			l-7.206-15.799c-0.267-0.587-0.48-1.014-0.587-1.228c-0.214-0.427-0.427-0.694-0.587-0.801h3.363c0.427,0,0.694,0.267,0.907,0.747
			l5.658,13.077l5.017-13.077c0.214-0.48,0.534-0.747,0.961-0.747h3.096V122.738z"/>
	</g>
	<g id="logo-tesco">
		<g>
			<path fill="#FFFFFF" d="M15.372,95.036h24.446c0.214,0,0.214,0.214,0,0.214c-2.936,1.174-6.886,4.911-6.886,4.911
				c-2.776,2.349-4.911,3.95-9.448,3.95H0.16c-0.214,0-0.214-0.214,0-0.214c2.562-1.388,6.298-5.124,6.298-5.124
				C8.06,97.224,11.209,95.036,15.372,95.036L15.372,95.036L15.372,95.036z"/>
			<path fill="#FFFFFF" d="M175.394,95.036h24.446c0.214,0,0.214,0.214,0,0.214c-2.776,1.174-6.725,4.911-6.725,4.911
				c-2.776,2.349-4.911,3.95-9.448,3.95h-23.485c-0.214,0-0.214-0.214,0-0.214c2.562-1.388,6.298-5.124,6.298-5.124
				C168.295,97.224,171.444,95.036,175.394,95.036L175.394,95.036L175.394,95.036z"/>
			<path fill="#FFFFFF" d="M55.404,95.036h24.446c0.214,0,0.214,0.214,0,0.214c-2.722,1.174-6.672,4.911-6.672,4.911
				c-2.776,2.349-4.911,3.95-9.448,3.95H40.406c-0.214,0-0.214-0.214,0-0.214c2.562-1.388,6.298-5.124,6.298-5.124
				C48.145,97.224,51.294,95.036,55.404,95.036L55.404,95.036L55.404,95.036z"/>
			<path fill="#FFFFFF" d="M95.276,95.036h24.446c0.214,0,0.214,0.214,0,0.214c-2.776,1.174-6.725,4.911-6.725,4.911
				c-2.776,2.349-4.911,3.95-9.448,3.95H80.278c-0.214,0-0.214-0.214,0-0.214c2.562-1.388,6.298-5.124,6.298-5.124
				C88.177,97.224,91.326,95.036,95.276,95.036L95.276,95.036L95.276,95.036z"/>
			<path fill="#FFFFFF" d="M135.362,95.036h24.446c0.214,0,0.214,0.214,0,0.214c-2.776,1.174-6.725,4.911-6.725,4.911
				c-2.776,2.349-4.911,3.95-9.448,3.95h-23.272c-0.214,0-0.214-0.214,0-0.214c2.562-1.388,6.298-5.124,6.298-5.124
				C128.263,97.224,131.412,95.036,135.362,95.036L135.362,95.036L135.362,95.036z"/>
		</g>
		<g>
			<path fill="#FFFFFF" d="M142.087,50.841c-15.372,0-25.46,7.313-25.46,18.575c0,10.248,9.287,17.187,23.272,17.187
				c4.537,0,8.487-0.587,13.237-1.761v-8.7c-3.363,3.576-7.313,4.911-11.636,4.911c-8.273,0-13.824-5.124-13.824-12.65
				c0-7.313,5.925-12.65,14.038-12.65c4.537,0,8.113,1.601,10.835,4.323v-8.273C149.56,51.054,145.823,50.841,142.087,50.841
				L142.087,50.841L142.087,50.841z"/>
			<path fill="#FFFFFF" d="M26.581,56.765c5.711,0,12.437,0.961,15.372,3.363v-8.273H1.334v8.273
				c2.936-2.188,8.86-3.149,15.372-3.149v22.525c0,3.363-0.214,4.163-1.761,5.925h13.024c-1.388-1.761-1.761-2.776-1.761-5.925
				V56.819h0.374V56.765z"/>
			<path fill="#FFFFFF" d="M68.642,65.039c-2.349,0.801-6.512,0.961-8.7,0.961h-3.309v-8.86h4.537
				c4.163,0,11.262,0.801,13.824,3.149v-8.487H45.53c1.388,1.761,1.601,2.776,1.601,5.925V79.45c0,3.363-0.214,4.323-1.601,5.925
				h31.385v-8.113c-4.323,3.149-12.437,3.149-15.799,2.936h-4.484V70.91h3.363c2.349,0,6.298,0.214,8.7,0.961v-6.832H68.642
				L68.642,65.039z"/>
			<path fill="#FFFFFF" d="M112.25,53.029c-4.537-1.388-10.835-2.349-15.372-2.349c-8.487,0-16.76,2.562-16.76,11.049
				c0,14.625,25.674,6.886,25.674,15.799c0,2.936-4.537,4.163-8.113,4.163c-6.512,0-11.262-0.961-16.974-4.323v7.313
				c4.323,1.388,10.088,2.188,16.6,2.188c8.86,0,17.187-2.349,17.187-10.835c0-15.372-25.674-8.487-25.674-15.959
				c0-2.936,4.163-4.163,7.686-4.163c6.138,0,12.65,1.761,16.173,5.124v-7.9h-0.427V53.029z"/>
			<path fill="#FFFFFF" d="M165.359,68.828c0-7.099,4.537-12.81,11.422-12.81c6.886,0,11.422,5.711,11.422,12.81
				c0.214,6.886-4.323,12.65-11.262,12.65C169.896,81.425,165.359,75.714,165.359,68.828L165.359,68.828L165.359,68.828z
				 M198.719,68.401c0-10.675-8.273-17.774-20.71-17.774c-13.397,0.214-22.685,7.686-22.685,18.575
				c0,10.462,8.487,17.561,20.923,17.561C189.432,86.763,198.719,79.237,198.719,68.401L198.719,68.401L198.719,68.401z"/>
		</g>
	</g>
</g>
</svg>
