<?xml version="1.0" encoding="utf-8"?>
<!-- Generator: Adobe Illustrator 17.0.0, SVG Export Plug-In . SVG Version: 6.00 Build 0)  -->
<!DOCTYPE svg PUBLIC "-//W3C//DTD SVG 1.1//EN" "http://www.w3.org/Graphics/SVG/1.1/DTD/svg11.dtd">
<svg version="1.1" id="Layer_1" xmlns="http://www.w3.org/2000/svg" xmlns:xlink="http://www.w3.org/1999/xlink" x="0px" y="0px"
	 width="200px" height="200px" viewBox="0 0 200 200" enable-background="new 0 0 200 200" xml:space="preserve">
<g>
	<g>
		<path opacity="0.4" fill="#FFFFFF" enable-background="new    " d="M10.247,47.519c8.591-6.56,21.008-18.927,27.595-27.482
			S57.999,7.86,67.999,11.989c9.999,4.13,26.962,8.656,37.696,10.059c10.733,1.403,20.668,11.297,22.076,21.986
			s5.954,27.583,10.1,37.542c4.146,9.959,0.51,23.473-8.08,30.033c-8.591,6.56-21.009,18.927-27.595,27.483
			c-6.587,8.556-20.157,12.177-30.156,8.048c-9.999-4.13-26.962-8.656-37.696-10.059s-20.668-11.297-22.076-21.986
			s-5.954-27.583-10.1-37.542C-1.98,67.594,1.656,54.079,10.247,47.519z"/>
		<path fill="#FFFFFF" d="M70.209,47.519c8.591-6.56,21.008-18.927,27.595-27.482c6.587-8.556,20.157-12.177,30.156-8.048
			c9.999,4.13,26.962,8.656,37.696,10.059c10.733,1.403,20.668,11.297,22.076,21.986s5.954,27.583,10.1,37.542
			c4.146,9.959,0.51,23.473-8.08,30.033c-8.591,6.56-21.009,18.927-27.595,27.483c-6.587,8.556-20.157,12.177-30.156,8.048
			c-9.999-4.13-26.962-8.656-37.696-10.059s-20.668-11.297-22.076-21.986c-1.409-10.689-5.954-27.583-10.1-37.542
			C57.982,67.594,61.619,54.079,70.209,47.519z"/>
	</g>
	<g>
		<path fill="#FFFFFF" d="M1.548,166.254v-2.833H9.46v2.833H7.088l2.623,11.568c0.056,0.238,0.084,0.503,0.126,0.809
			c0.056,0.294,0.084,0.531,0.098,0.698l0.014,0.265h0.111c0.07-0.641,0.181-1.228,0.321-1.772l3.796-14.401h3l3.795,14.401
			c0.07,0.238,0.126,0.503,0.181,0.809c0.056,0.294,0.098,0.531,0.111,0.698l0.028,0.265h0.111c0.042-0.641,0.112-1.228,0.224-1.772
			l2.637-11.568h-2.373v-2.833h7.912v2.833h-1.856l-4.312,17.457h-4.2l-3.405-12.81c-0.056-0.252-0.126-0.517-0.181-0.823
			c-0.056-0.322-0.084-0.572-0.111-0.754l-0.028-0.279h-0.084c-0.056,0.683-0.154,1.297-0.307,1.856l-3.405,12.81h-4.2
			l-4.312-17.457L1.548,166.254L1.548,166.254z"/>
		<path fill="#FFFFFF" d="M30.006,176.427c0-1.452,0.363-2.763,1.075-3.936c0.725-1.172,1.688-2.079,2.902-2.721
			c1.228-0.655,2.568-0.977,4.019-0.977c1.479,0,2.805,0.307,4.033,0.963c1.228,0.642,2.191,1.563,2.917,2.735
			c0.725,1.172,1.088,2.484,1.088,3.936c0,1.451-0.349,2.777-1.074,3.949c-0.726,1.172-1.675,2.08-2.903,2.721
			c-1.214,0.642-2.554,0.963-4.033,0.963s-2.819-0.321-4.047-0.963c-1.214-0.641-2.177-1.534-2.902-2.707
			C30.369,179.218,30.006,177.892,30.006,176.427z M33.69,176.427c0,1.325,0.419,2.414,1.256,3.265
			c0.851,0.837,1.884,1.27,3.084,1.27c1.2,0,2.219-0.433,3.056-1.27c0.837-0.851,1.256-1.94,1.256-3.265
			c0-1.326-0.419-2.414-1.256-3.266c-0.837-0.865-1.856-1.284-3.056-1.284c-1.2,0-2.219,0.418-3.07,1.284
			C34.123,174.013,33.69,175.101,33.69,176.427z"/>
		<path fill="#FFFFFF" d="M48.179,171.85v-2.707h3.796c1.312,0,1.953,0.586,1.953,1.758v0.865l-0.056,0.907h0.056
			c0.349-1.089,0.935-1.982,1.758-2.679c0.837-0.712,1.786-1.061,2.861-1.061l0.656,0.057v3.572
			c-0.237-0.042-0.53-0.057-0.879-0.057c-0.697,0-1.339,0.126-1.898,0.433c-0.558,0.293-1.005,0.698-1.339,1.2
			c-0.335,0.503-0.572,1.06-0.754,1.689c-0.167,0.614-0.265,1.284-0.265,1.995v3.168h2.079v2.721h-7.828v-2.721h2.121v-8.512
			c0-0.418-0.209-0.627-0.628-0.627L48.179,171.85L48.179,171.85z"/>
		<path fill="#FFFFFF" d="M60.266,166.128v-2.707h5.889v11.233h1.912l2.372-2.805H68.75v-2.707h7.005v2.707h-1.884l-3.168,3.74
			v0.056c0.028,0,0.084,0.014,0.167,0.084c0.098,0.056,0.237,0.181,0.419,0.405c0.196,0.209,0.363,0.46,0.53,0.753l2.051,3.6
			c0.126,0.196,0.251,0.335,0.419,0.405c0.167,0.056,0.433,0.098,0.782,0.098h0.823v2.721h-2.708c-0.628,0-1.102-0.084-1.409-0.237
			c-0.307-0.167-0.6-0.503-0.879-1.019l-2.623-4.605c-0.056-0.126-0.139-0.209-0.237-0.293c-0.084-0.084-0.196-0.139-0.321-0.167
			c-0.111-0.042-0.209-0.07-0.321-0.07c-0.098-0.014-0.224-0.014-0.391-0.014h-0.851v3.684h1.577v2.721h-7.326v-2.721h2.121v-14.862
			H60.266z"/>
		<path fill="#FFFFFF" d="M78.298,179.482v-2.316h3.405v1.521c0,0.628,0.335,1.117,1.032,1.507c0.698,0.376,1.549,0.572,2.54,0.572
			c1.06,0,1.898-0.224,2.54-0.656c0.656-0.447,0.977-1.06,0.977-1.856c0-0.209-0.014-0.391-0.07-0.572
			c-0.056-0.195-0.098-0.363-0.181-0.502c-0.07-0.154-0.181-0.294-0.321-0.433c-0.139-0.154-0.251-0.265-0.377-0.376
			c-0.111-0.111-0.279-0.223-0.502-0.349c-0.209-0.139-0.391-0.237-0.544-0.307c-0.139-0.084-0.349-0.167-0.628-0.279
			c-0.265-0.126-0.474-0.209-0.642-0.266c-0.154-0.07-0.391-0.154-0.697-0.265c-0.307-0.126-0.53-0.223-0.698-0.279
			c-0.446-0.181-0.823-0.322-1.158-0.461c-0.321-0.139-0.684-0.307-1.089-0.516c-0.391-0.224-0.74-0.419-1.019-0.628
			c-0.279-0.223-0.544-0.475-0.837-0.768c-0.279-0.307-0.502-0.6-0.684-0.935c-0.167-0.335-0.307-0.712-0.419-1.158
			c-0.111-0.447-0.167-0.921-0.167-1.424c0-0.991,0.181-1.842,0.558-2.595c0.391-0.754,0.893-1.339,1.535-1.772
			c0.656-0.446,1.382-0.768,2.163-0.977c0.795-0.223,1.646-0.321,2.54-0.321c1.102,0,2.135,0.126,3.084,0.39
			c0.963,0.252,1.744,0.67,2.386,1.228c0.642,0.558,0.963,1.2,0.963,1.953v2.665h-3.391v-1.368c0-0.502-0.293-0.879-0.907-1.158
			c-0.6-0.279-1.312-0.418-2.135-0.418c-0.879,0-1.604,0.167-2.177,0.558c-0.558,0.377-0.851,0.935-0.851,1.675
			c0,0.419,0.098,0.809,0.293,1.144c0.196,0.335,0.488,0.628,0.879,0.879c0.391,0.252,0.782,0.447,1.172,0.628
			c0.405,0.167,0.907,0.376,1.493,0.6c0.084,0.028,0.139,0.042,0.167,0.056c0.531,0.195,0.963,0.349,1.298,0.488
			c0.335,0.126,0.74,0.307,1.214,0.531c0.474,0.223,0.865,0.432,1.158,0.642c0.307,0.195,0.614,0.446,0.949,0.767
			c0.335,0.307,0.6,0.628,0.782,0.978c0.195,0.335,0.335,0.739,0.461,1.2c0.139,0.446,0.195,0.949,0.195,1.479
			c0,1.005-0.195,1.898-0.6,2.693c-0.391,0.781-0.921,1.409-1.619,1.898c-0.684,0.474-1.465,0.851-2.33,1.102
			c-0.865,0.251-1.786,0.376-2.763,0.376c-0.865,0-1.689-0.098-2.512-0.293c-0.809-0.195-1.549-0.474-2.233-0.837
			c-0.67-0.376-1.2-0.865-1.619-1.452C78.508,180.878,78.298,180.208,78.298,179.482z"/>
		<path fill="#FFFFFF" d="M94.614,166.128v-2.707h5.889v7.089c0,0.209,0.014,0.419-0.014,0.628c-0.014,0.195-0.028,0.349-0.056,0.46
			l-0.014,0.14h0.056c0.405-0.795,1.047-1.48,1.94-2.066c0.893-0.586,1.926-0.879,3.084-0.879c3.405,0,5.093,1.842,5.093,5.54v6.657
			h2.122v2.721h-5.75v-8.624c0-0.977-0.167-1.702-0.502-2.205c-0.335-0.517-0.921-0.768-1.786-0.768c-1.256,0-2.26,0.461-3.028,1.41
			c-0.753,0.949-1.144,2.107-1.144,3.503v3.963h2.093v2.721h-7.842v-2.721h2.121v-14.862H94.614z"/>
		<path fill="#FFFFFF" d="M114.127,179.622c0-0.614,0.111-1.172,0.335-1.674c0.223-0.503,0.502-0.907,0.864-1.243
			c0.364-0.335,0.796-0.628,1.298-0.879c0.502-0.251,0.991-0.446,1.479-0.586c0.502-0.14,1.018-0.252,1.577-0.335
			c0.572-0.084,1.06-0.126,1.452-0.154c0.404-0.028,0.809-0.042,1.199-0.042h0.922v-0.489c0-0.879-0.223-1.521-0.726-1.912
			c-0.488-0.404-1.144-0.6-1.967-0.6c-0.641,0-1.297,0.111-1.995,0.348c-0.683,0.223-1.213,0.46-1.577,0.698l-0.544,0.349
			l-1.34-2.512c0.07-0.056,0.154-0.111,0.265-0.195c0.111-0.084,0.364-0.237,0.754-0.432c0.39-0.21,0.795-0.391,1.213-0.544
			c0.42-0.167,0.95-0.307,1.591-0.432c0.643-0.14,1.298-0.196,1.953-0.196c1.955,0,3.447,0.489,4.466,1.479
			c1.033,0.977,1.535,2.4,1.535,4.27v5.819c0,0.419,0.209,0.628,0.627,0.628h1.312v2.721h-3.433c-0.627,0-1.089-0.139-1.396-0.432
			c-0.307-0.307-0.46-0.67-0.46-1.117v-0.167c0-0.139,0-0.279,0.014-0.39c0.028-0.126,0.042-0.21,0.056-0.266l0.014-0.084h-0.056
			c-0.028,0.07-0.084,0.154-0.154,0.294c-0.056,0.126-0.209,0.349-0.488,0.683c-0.266,0.321-0.545,0.6-0.88,0.851
			c-0.321,0.252-0.753,0.461-1.312,0.67c-0.544,0.195-1.129,0.307-1.772,0.307c-0.851,0-1.633-0.167-2.358-0.474
			c-0.711-0.322-1.298-0.823-1.772-1.507C114.364,181.38,114.127,180.571,114.127,179.622z M117.783,179.343
			c0,0.558,0.195,1.032,0.572,1.424c0.39,0.376,0.908,0.572,1.549,0.572c0.948,0,1.73-0.404,2.386-1.241
			c0.671-0.837,0.991-1.744,0.991-2.707v-0.475h-0.601c-0.363,0-0.697,0-1.06,0.028c-0.349,0.028-0.754,0.085-1.256,0.196
			c-0.488,0.098-0.906,0.223-1.27,0.39c-0.363,0.167-0.655,0.391-0.92,0.712C117.922,178.548,117.783,178.925,117.783,179.343z"/>
		<path fill="#FFFFFF" d="M130.135,171.85v-2.707h3.753c0.643,0,1.089,0.126,1.368,0.376c0.293,0.251,0.432,0.572,0.432,0.991v0.084
			l-0.028,0.656h0.056c0.042-0.07,0.084-0.154,0.154-0.265c0.084-0.111,0.238-0.307,0.503-0.586
			c0.279-0.293,0.572-0.544,0.892-0.754c0.335-0.223,0.768-0.418,1.326-0.586c0.572-0.182,1.172-0.266,1.814-0.266
			c1.967,0,3.516,0.698,4.689,2.108c1.171,1.395,1.758,3.237,1.758,5.526c0,2.288-0.615,4.116-1.87,5.526
			c-1.256,1.396-2.847,2.107-4.787,2.107c-0.53,0-1.033-0.07-1.535-0.209c-0.488-0.139-0.894-0.321-1.2-0.516
			c-0.307-0.21-0.572-0.419-0.809-0.614c-0.223-0.209-0.39-0.377-0.502-0.517l-0.155-0.209h-0.056
			c0.056,0.335,0.085,0.754,0.085,1.256v3.461h2.121v2.721h-7.857v-2.721h2.107v-14.233c0-0.418-0.209-0.627-0.627-0.627
			L130.135,171.85L130.135,171.85z M135.912,176.51c0,1.2,0.322,2.246,0.963,3.139c0.655,0.893,1.549,1.34,2.664,1.34
			c1.047,0,1.913-0.39,2.61-1.2c0.697-0.809,1.047-1.912,1.047-3.307c0-1.382-0.336-2.484-1.005-3.321
			c-0.669-0.837-1.535-1.256-2.624-1.256c-1.032,0-1.884,0.376-2.595,1.158C136.276,173.845,135.912,174.989,135.912,176.51z"/>
		<path fill="#FFFFFF" d="M148.893,176.427c0-2.261,0.685-4.075,2.051-5.498c1.382-1.424,3.168-2.135,5.344-2.135
			c2.039,0,3.614,0.642,4.759,1.953c1.159,1.312,1.73,2.959,1.73,4.968l-0.084,1.228h-10.089c0.111,1.284,0.587,2.275,1.396,2.987
			c0.824,0.698,1.814,1.06,2.973,1.06c0.446,0,0.892-0.042,1.34-0.154c0.46-0.111,0.837-0.251,1.171-0.391
			c0.335-0.154,0.643-0.307,0.908-0.446c0.279-0.154,0.474-0.279,0.614-0.391l0.195-0.154l1.41,2.568
			c-0.056,0.056-0.154,0.126-0.265,0.223c-0.111,0.084-0.363,0.252-0.754,0.489c-0.39,0.223-0.781,0.432-1.213,0.614
			c-0.418,0.167-0.963,0.335-1.633,0.488c-0.671,0.139-1.34,0.223-2.023,0.223c-1.563,0-2.931-0.349-4.145-1.047
			c-1.199-0.698-2.121-1.633-2.748-2.777C149.214,179.078,148.893,177.808,148.893,176.427z M152.689,174.794h6.35
			c-0.028-0.977-0.293-1.758-0.837-2.33c-0.531-0.586-1.2-0.865-1.997-0.865c-0.906,0-1.661,0.279-2.302,0.865
			C153.275,173.05,152.871,173.817,152.689,174.794z"/>
		<path fill="#FFFFFF" d="M165.823,183.711v-3.656h3.628v3.656H165.823z"/>
		<path fill="#FFFFFF" d="M172.62,171.85v-2.707h5.89v11.847h2.079v2.721h-7.829v-2.721h2.122v-9.14H172.62z M174.854,166.645
			v-3.224h3.656v3.224H174.854z"/>
		<path fill="#FFFFFF" d="M182.418,176.427c0-1.452,0.364-2.763,1.075-3.936c0.725-1.172,1.689-2.079,2.903-2.721
			c1.227-0.655,2.567-0.977,4.018-0.977c1.479,0,2.804,0.307,4.032,0.963c1.228,0.642,2.19,1.563,2.917,2.735
			c0.725,1.172,1.088,2.484,1.088,3.936c0,1.451-0.348,2.777-1.073,3.949c-0.726,1.172-1.675,2.08-2.903,2.721
			c-1.215,0.642-2.553,0.963-4.032,0.963c-1.48,0-2.819-0.321-4.046-0.963c-1.215-0.641-2.178-1.534-2.903-2.707
			C182.782,179.218,182.418,177.892,182.418,176.427z M186.102,176.427c0,1.325,0.42,2.414,1.256,3.265
			c0.852,0.837,1.884,1.27,3.084,1.27c1.199,0,2.218-0.433,3.056-1.27c0.837-0.851,1.255-1.94,1.255-3.265
			c0-1.326-0.418-2.414-1.255-3.266c-0.838-0.865-1.857-1.284-3.056-1.284c-1.2,0-2.218,0.418-3.07,1.284
			C186.536,174.013,186.102,175.101,186.102,176.427z"/>
	</g>
</g>
</svg>
