<?xml version="1.0" encoding="utf-8"?>
<!-- Generator: Adobe Illustrator 17.0.0, SVG Export Plug-In . SVG Version: 6.00 Build 0)  -->
<!DOCTYPE svg PUBLIC "-//W3C//DTD SVG 1.1//EN" "http://www.w3.org/Graphics/SVG/1.1/DTD/svg11.dtd">
<svg version="1.1" id="Layer_1" xmlns="http://www.w3.org/2000/svg" xmlns:xlink="http://www.w3.org/1999/xlink" x="0px" y="0px"
	 width="200px" height="200px" viewBox="0 0 200 200" enable-background="new 0 0 200 200" xml:space="preserve">
<g>
	<g>
		<g>
			<path fill="#BB8A71" d="M124.964,74.128L23.882,177.608c0,0-2.398,2.398-9.54-4.744s-4.744-9.54-4.744-9.54L114.034,63.198
				L124.964,74.128z"/>
			<path fill="#AD7861" d="M121.47,70.634l3.494,3.494L23.882,177.608c0,0-1.815,1.803-6.976-2.41L121.47,70.634z"/>
		</g>
		<g>
			<polygon fill="#C4BEAD" points="168.113,46.946 173.89,52.723 194.223,73.055 200,78.833 189.924,94.686 174.071,104.762 
				168.294,98.984 147.961,78.652 142.184,72.875 152.26,57.022 			"/>
			<polygon fill="#E0DACA" points="194.223,73.055 200,78.833 189.924,94.686 174.071,104.762 168.294,98.984 178.37,83.131 			"/>
			<path fill="#C4BEAD" d="M168.113,46.946c0,0-3.586,3.216-6.29,0.512s0.53-6.272,0.53-6.272l-14.705-14.705
				c-27.866-21.689-55.118-3.26-55.118-3.26l1.01,4.455c18.786-5.123,39.279,9.905,28.179,24.734l-7.685,10.788
				c0,0-0.431,1.923,4.661,7.015s6.269,3.915,6.269,3.915s6.703-4.102,8.445-5.168s5.539-4.369,8.419-1.489
				c2.88,2.88,0.356,5.404,0.356,5.404L168.113,46.946z"/>
			<g>
				<path fill="#B7B2A7" d="M168.113,46.946l-0.039,0.039l-0.027,0.017C168.087,46.969,168.113,46.946,168.113,46.946z"/>
				<path fill="#B7B2A7" d="M161.824,47.458c1.531,1.531,3.344,1.163,4.63,0.557l-14.185,9.016l-9.395,14.782
					c0.457-1.002,0.695-2.602-1.045-4.342c-1.666-1.666-3.638-1.26-5.343-0.417l10.782-15.024l15.086-10.843
					C162.353,41.186,159.12,44.754,161.824,47.458z"/>
				<path fill="#B7B2A7" d="M142.223,72.836l-0.039,0.039c0,0,0.032-0.036,0.048-0.053L142.223,72.836z"/>
			</g>
			<path fill="#C4BEAD" d="M124.964,74.128"/>
		</g>
	</g>
	<g>
		<g>
			<path fill="#C4BEAD" d="M47.935,32.655c-7.329-7.329-17.699-9.753-27.047-7.286l18.745,18.745l-4.217,15.738l-15.738,4.217
				L0.933,45.324c-2.466,9.348-0.043,19.718,7.286,27.047c8.396,8.396,20.779,10.341,31.048,5.881l93.308,100.823
				c0.264,0.284,0.565,0.586,0.854,0.854c6.329,5.857,16.208,5.475,22.065-0.854c5.857-6.329,5.475-16.207-0.854-22.064
				L53.816,63.702C58.276,53.433,56.332,41.051,47.935,32.655z"/>
			<path fill="#ADA89C" d="M0.047,51.079c0.44-0.326,0.886-0.653,1.249-0.979l16.176,16.176l1.274,1.274l1.74-0.466l15.738-4.217
				l1.74-0.466l0.466-1.74l4.217-15.738l0.466-1.74l-1.274-1.274L25.805,25.873c0.26-0.237,0.526-0.491,0.797-0.763
				c0.201-0.201,0.409-0.426,0.616-0.646c-2.131,0.066-4.256,0.358-6.33,0.905l18.745,18.745l-4.217,15.738l-15.738,4.217
				L0.933,45.324C0.435,47.211,0.146,49.141,0.047,51.079z"/>
		</g>
		<circle fill="#AFABA1" cx="143.606" cy="168.042" r="6.241"/>
	</g>
</g>
<polygon fill="#56C1B6" points="11.235,51.31 14.543,38.965 26.888,35.657 35.925,44.694 32.617,57.039 20.272,60.347 "/>
</svg>
