<?xml version="1.0" encoding="utf-8"?>
<!-- Generator: Adobe Illustrator 17.0.0, SVG Export Plug-In . SVG Version: 6.00 Build 0)  -->
<!DOCTYPE svg PUBLIC "-//W3C//DTD SVG 1.1//EN" "http://www.w3.org/Graphics/SVG/1.1/DTD/svg11.dtd">
<svg version="1.1" id="Layer_1" xmlns="http://www.w3.org/2000/svg" xmlns:xlink="http://www.w3.org/1999/xlink" x="0px" y="0px"
	 width="200px" height="200px" viewBox="0 0 200 200" enable-background="new 0 0 200 200" xml:space="preserve">
<g>
	<polygon fill="#56C1B6" points="81.4,114.373 62.799,82.156 81.4,49.939 118.6,49.939 137.201,82.156 118.6,114.373 	"/>
	<polygon opacity="0.3" fill="#5BA9A4" points="144.199,151.622 125.599,119.406 144.199,87.189 181.4,87.189 200,119.406 
		181.4,151.622 	"/>
	<polygon opacity="0.2" fill="#5BA9A4" points="144.199,79.29 125.599,47.074 144.199,14.857 181.4,14.857 200,47.074 181.4,79.29 	
		"/>
	<polygon opacity="0.4" fill="#5BA9A4" points="81.4,186.704 62.799,154.488 81.4,122.271 118.6,122.271 137.201,154.488 
		118.6,186.704 	"/>
	<polygon opacity="0.1" fill="#5BA9A4" points="18.6,77.729 0,45.512 18.6,13.296 55.801,13.296 74.401,45.512 55.801,77.729 	"/>
	<polygon opacity="0.2" fill="#5BA9A4" points="18.6,149.106 0,116.889 18.6,84.672 55.801,84.672 74.401,116.889 55.801,149.106 	
		"/>
</g>
</svg>
