<?xml version="1.0" encoding="utf-8"?>
<!-- Generator: Adobe Illustrator 17.0.0, SVG Export Plug-In . SVG Version: 6.00 Build 0)  -->
<!DOCTYPE svg PUBLIC "-//W3C//DTD SVG 1.1//EN" "http://www.w3.org/Graphics/SVG/1.1/DTD/svg11.dtd">
<svg version="1.1" id="Layer_1" xmlns="http://www.w3.org/2000/svg" xmlns:xlink="http://www.w3.org/1999/xlink" x="0px" y="0px"
	 width="150px" height="194.5px" viewBox="0 -44.5 150 194.5" enable-background="new 0 -44.5 150 194.5" xml:space="preserve">
<g>
	<path fill="#349946" d="M150,75c0,41.423-33.577,75-75,75c-41.422,0-75-33.578-75-75S33.579,0,75,0C116.423,0,150,33.578,150,75z"
		/>
	<path fill="#B1DAAE" d="M37.586,105.402c0,1.115-0.273,2.017-1.382,2.043v0.018c-0.599,0.05,0.142,0.071-0.337,0.071
		c-3.761,0-6.42-0.826-7.975-2.478c-1.558-1.652-2.335-4.453-2.335-8.407V83.182c0-2.133-0.313-3.72-0.935-4.762
		c-0.618-1.032-1.697-1.774-3.233-2.232c-0.778-0.308-1.333-1.06-1.333-1.946c0-0.876,0.536-1.625,1.297-1.943v-0.004
		c2.803-0.741,4.204-2.945,4.204-6.609V51.317c0-3.567,0.801-6.143,2.406-7.724c1.604-1.58,4.24-2.371,7.904-2.371h0.337v0.002
		c1.148,0.008,1.457,0.938,1.457,2.089c0,1.148-0.309,1.44-1.457,1.447v0.025c-2.755,0.048-4.611,0.515-5.569,1.401
		c-0.958,0.887-1.437,2.598-1.437,5.138v14.648c0,1.653-0.217,3.173-0.647,4.562c-0.502,1.558-1.785,2.853-3.844,3.88
		c1.654,0.887,2.815,1.964,3.487,3.232c0.668,1.271,1.005,3.067,1.005,5.391v14.109c0,2.731,0.454,4.544,1.365,5.442
		c0.91,0.897,2.79,1.358,5.64,1.384V104C37.313,104.027,37.586,104.288,37.586,105.402z"/>
	<path fill="#B1DAAE" d="M113.797,104.001v-0.028c2.85-0.025,4.729-0.486,5.639-1.384c0.913-0.899,1.366-2.711,1.366-5.442v-14.11
		c0-2.323,0.337-4.119,1.006-5.391c0.67-1.269,1.831-2.346,3.484-3.232c-2.059-1.028-3.34-2.323-3.845-3.88
		c-0.431-1.389-0.646-2.909-0.646-4.562V51.324c0-2.54-0.479-4.252-1.437-5.138s-2.814-1.353-5.568-1.401v-0.024
		c-1.148-0.007-2.078-0.299-2.078-1.448c0-1.15,0.93-2.081,2.078-2.089v-0.001h0.337c3.664,0,6.299,0.791,7.902,2.371
		c1.604,1.581,2.408,4.157,2.408,7.725v14.368c0,3.664,1.4,5.869,4.203,6.609V72.3c0.762,0.318,1.296,1.066,1.296,1.943
		c0,0.887-0.554,1.638-1.331,1.946c-1.537,0.457-2.615,1.199-3.232,2.231c-0.623,1.042-0.936,2.629-0.936,4.762V96.65
		c0,3.953-0.778,6.754-2.334,8.406c-1.557,1.652-4.216,2.478-7.977,2.478c-0.477,0,0.265-0.021-0.336-0.07v-0.018
		c-1.109-0.027-2.005-0.927-2.005-2.042C111.793,104.288,112.688,104.027,113.797,104.001L113.797,104.001z"/>
	<path fill="#FFFFFF" d="M64.843,67.971c2.18,0,4.041-0.761,5.581-2.284c1.542-1.524,2.311-3.354,2.311-5.489
		c0-2.127-0.771-3.947-2.317-5.461c-1.545-1.514-3.403-2.271-5.575-2.271c-2.171,0-4.025,0.755-5.561,2.263
		c-1.536,1.509-2.302,3.333-2.302,5.469c0,2.135,0.767,3.965,2.302,5.489C60.818,67.21,62.672,67.971,64.843,67.971z M61.671,57.021
		c0.874-0.883,1.931-1.324,3.172-1.324c1.25,0,2.311,0.439,3.18,1.316c0.869,0.878,1.303,1.939,1.303,3.183
		c0,1.264-0.435,2.335-1.303,3.213c-0.868,0.878-1.929,1.316-3.18,1.316c-1.242,0-2.298-0.438-3.172-1.316s-1.311-1.939-1.311-3.184
		C60.36,58.972,60.797,57.904,61.671,57.021z M102.859,55.9c2.148,0,3.548,0.952,4.044,2.714h-8.021
		C99.517,56.853,100.897,55.9,102.859,55.9z M108.287,83.451c-1.417-1.479-3.16-2.22-5.23-2.22c-1.476,0-2.772,0.397-3.893,1.192
		c-0.28,0.21-0.515,0.397-0.706,0.561v-5.275c0-0.949-0.768-1.717-1.719-1.717c-0.945,0-1.715,0.768-1.715,1.717v17.424h0.001
		c0.003,0.886,0.723,1.604,1.608,1.604c0.887,0,1.605-0.718,1.608-1.604h0.017v-0.465c0.708,0.765,1.502,1.308,2.383,1.622
		c0.807,0.297,1.628,0.446,2.476,0.446c2.057,0,3.789-0.752,5.191-2.256c1.405-1.503,2.106-3.354,2.106-5.548
		C110.416,86.76,109.707,84.932,108.287,83.451z M105.58,92.044c-0.812,0.829-1.819,1.244-3.027,1.244
		c-1.194,0-2.204-0.404-3.018-1.206c-0.812-0.807-1.222-1.806-1.222-3.006c0-1.302,0.395-2.361,1.18-3.182
		c0.786-0.818,1.806-1.229,3.06-1.229c1.2,0,2.204,0.413,3.02,1.234c0.813,0.825,1.22,1.846,1.22,3.062
		C106.792,90.189,106.389,91.216,105.58,92.044z M88.688,83v12.134h-0.003c-0.004,0.886-0.736,1.603-1.642,1.603
		s-1.641-0.72-1.641-1.609l0.017-0.166v-0.667c-0.305,0.393-0.542,0.685-0.72,0.877c-0.957,1.044-2.329,1.565-4.119,1.565
		c-1.182,0-2.254-0.251-3.217-0.755c-0.961-0.503-1.669-1.176-2.119-2.018c-0.397-0.748-0.643-1.663-0.732-2.746
		c-0.03-0.374-0.043-1.33-0.043-2.875v-5.339l-0.001-0.005c0-0.948,0.786-1.717,1.753-1.717c0.969,0,1.752,0.769,1.752,1.717
		l-0.03,0.282v5.062c0,1.008,0.01,1.615,0.03,1.827c0,0.699,0.131,1.326,0.396,1.881c0.447,0.969,1.387,1.453,2.813,1.453
		c2.668,0,4.003-1.72,4.003-5.161v-5.344c0-0.948,0.785-1.717,1.75-1.717C87.902,81.282,88.688,82.051,88.688,83z M89.669,47.415
		c-0.928,0-1.681,0.763-1.682,1.704v5.1c-0.815-0.699-1.618-1.178-2.413-1.437c-0.662-0.21-1.372-0.316-2.129-0.316
		c-2.062,0-3.79,0.738-5.183,2.213c-1.391,1.475-2.088,3.305-2.088,5.489c0,2.194,0.695,4.044,2.08,5.547
		c1.388,1.504,3.088,2.255,5.104,2.255c1.676,0,3.064-0.468,4.16-1.408c0.257-0.22,0.47-0.44,0.641-0.66v0.342h0.016v0.002
		c0,0.888,0.711,1.609,1.589,1.609s1.59-0.721,1.59-1.609V49.119C91.354,48.178,90.598,47.415,89.669,47.415z M86.909,63.293
		c-0.795,0.819-1.795,1.231-2.995,1.231c-1.164,0-2.151-0.413-2.953-1.238c-0.806-0.823-1.208-1.833-1.208-3.032
		c0-1.236,0.399-2.271,1.2-3.104c0.799-0.833,1.787-1.25,2.961-1.25c1.239,0,2.247,0.402,3.022,1.207
		c0.777,0.805,1.165,1.845,1.165,3.118C88.101,61.452,87.704,62.475,86.909,63.293z M70.188,94.646c0,0.865-0.702,1.568-1.566,1.568
		H59.96c-0.864,0-1.566-0.703-1.566-1.568c0-0.864,0.702-1.565,1.566-1.565h2.652v-13.33H59.96v-0.015
		c-0.864,0-1.566-0.7-1.566-1.564c0-0.865,0.702-1.566,1.566-1.566h4.493c0.866,0,1.567,0.701,1.567,1.566l-0.007,0.067l0.004,0.006
		v14.834h2.605C69.487,93.08,70.188,93.781,70.188,94.646z M44.214,85.806c-0.835,0.868-1.252,2.009-1.252,3.151
		c0,1.14,0.417,2.283,1.252,3.151c1.67,1.737,4.388,1.737,6.058,0c0.626-0.651,2.047-0.651,2.72,0c0.673,0.648,0.673,1.701,0,2.354
		c-1.572,1.516-3.636,2.274-5.7,2.274c-2.065,0-4.128-0.759-5.7-2.274c-3.143-3.037-3.143-7.977,0-11.012
		c3.144-3.033,8.257-3.033,11.4,0c0.673,0.65,0.673,1.704,0,2.355c-0.672,0.648-2.094,0.648-2.72,0
		C48.602,84.068,45.884,84.068,44.214,85.806z M44.165,57.039c-0.827,0.869-1.241,2.01-1.241,3.152c0,1.14,0.415,2.283,1.241,3.152
		c1.653,1.738,4.343,1.736,5.998,0c0.617-0.65,2.026-0.649,2.692,0s0.666,1.702,0,2.353c-1.557,1.518-3.601,2.275-5.644,2.275
		c-2.044,0-4.087-0.757-5.643-2.275c-3.111-3.036-3.111-7.975,0-11.009c3.111-3.035,8.174-3.035,11.287,0
		c0.666,0.648,0.666,1.703,0,2.352c-0.666,0.65-2.075,0.65-2.692,0C48.508,55.3,45.817,55.3,44.165,57.039z M109.468,65.833
		c0.69-0.673,0.69-1.765,0-2.44c-0.689-0.674-1.956-0.674-2.6,0l0.004-0.003c-0.823,0.729-1.967,1.106-2.972,1.132l-0.549,0.001
		c-1.188,0-2.185-0.274-2.997-0.819c-0.808-0.546-1.31-1.326-1.5-2.255h9.716c1.087,0,1.966-0.902,1.966-2.014l-0.015-0.142
		l0.015-0.036c-0.219-1.774-0.914-3.243-2.085-4.491c-1.438-1.532-3.251-2.3-5.436-2.3c-2.138,0-3.95,0.759-5.483,2.278
		c-1.533,1.518-2.301,3.365-2.301,5.539c0,2.223,0.741,4.06,2.223,5.512c1.479,1.451,3.359,2.176,5.641,2.176l0.021-0.001
		l0.733,0.001c2.04,0,4.08-0.729,5.669-2.188L109.468,65.833z"/>
</g>
<g>
	<g>
		<path fill="#E7C41E" d="M75-41.388c-6.532-5.985-18.786-3.172-18.786,7.024S75-13.337,75-13.337s18.786-10.831,18.786-21.027
			S81.532-47.373,75-41.388z"/>
		<path fill="#EACF60" d="M93.786-34.364c0-10.196-12.254-13.009-18.786-7.024v28.051C75-13.337,93.786-24.168,93.786-34.364z"/>
	</g>
	<g>
		<path fill="#E7C41E" d="M123.029-24.068c-3.702-5.928-13.611-6.376-15.763,1.375c-2.152,7.751,9.843,19.949,9.843,19.949
			s16.566-4.269,18.718-12.02S129.258-27.239,123.029-24.068z"/>
		<path fill="#EACF60" d="M135.827-14.764c2.152-7.751-6.57-12.475-12.798-9.304l-5.92,21.324
			C117.11-2.744,133.676-7.013,135.827-14.764z"/>
	</g>
	<g>
		<path fill="#E7C41E" d="M26.971-24.068c3.702-5.928,13.611-6.376,15.763,1.375c2.152,7.751-9.843,19.949-9.843,19.949
			s-16.566-4.269-18.718-12.02S20.742-27.239,26.971-24.068z"/>
		<path fill="#EACF60" d="M14.173-14.764c-2.152-7.751,6.57-12.475,12.798-9.304l5.92,21.324
			C32.89-2.744,16.324-7.013,14.173-14.764z"/>
	</g>
</g>
</svg>
