<?xml version="1.0" encoding="utf-8"?>
<!-- Generator: Adobe Illustrator 17.0.0, SVG Export Plug-In . SVG Version: 6.00 Build 0)  -->
<!DOCTYPE svg PUBLIC "-//W3C//DTD SVG 1.1//EN" "http://www.w3.org/Graphics/SVG/1.1/DTD/svg11.dtd">
<svg version="1.1" id="Layer_1" xmlns="http://www.w3.org/2000/svg" xmlns:xlink="http://www.w3.org/1999/xlink" x="0px" y="0px"
	 width="200px" height="200px" viewBox="0 0 200 200" enable-background="new 0 0 200 200" xml:space="preserve">
<g>
	<g>
		<path fill="#EA8053" d="M55.179,56.448c0.219,0,0.435-0.011,0.653-0.017v0.017c4.319,0,8.407-0.986,12.052-2.745
			c0.953-10.587,7.018-19.696,15.712-24.843c0-0.06,0.005-0.12,0.005-0.18c0-15.336-12.432-27.768-27.768-27.768v0.017
			c-0.218-0.005-0.434-0.017-0.653-0.017c-15.336,0-27.768,12.432-27.768,27.768S39.843,56.448,55.179,56.448z"/>
		<path fill="#EA8053" d="M132.089,53.355c3.815,1.972,8.141,3.093,12.732,3.093c15.336,0,27.768-12.432,27.768-27.768
			S160.157,0.912,144.821,0.912s-27.768,12.432-27.768,27.768c0,0.196,0.011,0.389,0.015,0.584
			C125.312,34.417,131.064,43.186,132.089,53.355z"/>
		<path fill="#EA8053" d="M144.821,67.452c-5.664,0-11.037,1.23-15.882,3.422c-3.603,7.305-9.888,13.047-17.571,15.942
			c-2.646,4.594-4.381,9.778-4.938,15.314c-2.1-0.302-4.245-0.466-6.429-0.466c-1.962,0-3.89,0.14-5.785,0.384
			c-0.554-5.387-2.223-10.44-4.761-14.938c-8.191-2.834-14.886-8.869-18.581-16.616c-4.622-1.958-9.705-3.042-15.041-3.042v0.017
			c-0.218-0.004-0.434-0.017-0.653-0.017c-21.311,0-38.588,17.276-38.588,38.588v9.212l83.837,83.837l82.98-82.98V106.04
			C183.408,84.728,166.132,67.452,144.821,67.452z M55.62,140.135c0.036-0.211,0.103-0.602,0.212-1.244
			C55.747,139.394,55.665,139.875,55.62,140.135z"/>
	</g>
	<path fill="none" d="M100,88.882c-3.694,0-7.24-0.629-10.546-1.773c2.538,4.498,4.207,9.551,4.761,14.938
		c1.895-0.244,3.823-0.384,5.785-0.384c2.184,0,4.329,0.164,6.429,0.466c0.557-5.535,2.293-10.72,4.938-15.314
		C107.832,88.148,104.002,88.882,100,88.882z"/>
	<polygon fill="#EA8053" points="55.179,153.839 55.833,154.493 55.833,154.493 	"/>
	<path fill="#EEC3AC" d="M111.368,86.816c-2.646,4.594-4.381,9.778-4.938,15.314c21.706,3.119,38.39,21.784,38.391,44.353v-79.03
		c-5.664,0-11.037,1.23-15.882,3.422C125.336,78.179,119.051,83.921,111.368,86.816z"/>
	<polygon fill="#EEC3AC" points="55.833,154.493 55.833,154.696 56.036,154.696 56.036,154.696 55.833,154.493 	"/>
	<path fill="#EEC3AC" d="M94.215,102.048c-0.554-5.387-2.223-10.44-4.761-14.938c-8.191-2.834-14.886-8.869-18.581-16.616
		c-4.622-1.958-9.705-3.042-15.041-3.042v0.017v71.423C59.122,119.627,74.698,104.565,94.215,102.048z"/>
	<path fill="#EEC3AC" d="M83.597,28.86c0-0.06,0.005-0.12,0.005-0.18c0-15.336-12.432-27.768-27.768-27.768v0.017v55.504v0.017
		c4.319,0,8.407-0.986,12.052-2.745C68.837,43.116,74.903,34.007,83.597,28.86z"/>
	<path fill="#EEC3AC" d="M132.089,53.355c3.815,1.972,8.141,3.093,12.732,3.093V0.912c-15.336,0-27.768,12.432-27.768,27.768
		c0,0.196,0.011,0.389,0.015,0.584C125.312,34.417,131.064,43.186,132.089,53.355z"/>
	<path fill="#F26A3A" d="M89.454,87.109c3.306,1.144,6.851,1.773,10.546,1.773c4.002,0,7.832-0.734,11.368-2.067
		c7.683-2.895,13.968-8.637,17.571-15.942c2.119-4.297,3.315-9.13,3.315-14.245c0-1.105-0.056-2.197-0.165-3.274
		c-1.025-10.169-6.777-18.938-15.022-24.091c-4.951-3.095-10.798-4.889-17.067-4.889c-5.991,0-11.597,1.639-16.403,4.485
		c-8.694,5.147-14.759,14.256-15.712,24.843c-0.087,0.964-0.138,1.939-0.138,2.926c0,4.964,1.124,9.664,3.127,13.865
		C74.568,78.241,81.263,84.276,89.454,87.109z"/>
</g>
</svg>
