<?xml version="1.0" encoding="utf-8"?>
<!-- Generator: Adobe Illustrator 17.0.0, SVG Export Plug-In . SVG Version: 6.00 Build 0)  -->
<!DOCTYPE svg PUBLIC "-//W3C//DTD SVG 1.1//EN" "http://www.w3.org/Graphics/SVG/1.1/DTD/svg11.dtd">
<svg version="1.1" id="Layer_1" xmlns="http://www.w3.org/2000/svg" xmlns:xlink="http://www.w3.org/1999/xlink" x="0px" y="0px"
	 width="200px" height="200px" viewBox="0 0 200 200" enable-background="new 0 0 200 200" xml:space="preserve">
<g>
	<ellipse opacity="0.2" cx="100" cy="187.431" rx="83.608" ry="12.569"/>
	<path fill="#EE7748" d="M154.897,22.739c-30.319-30.319-79.476-30.319-109.795,0c-30.319,30.319-30.319,79.476,0,109.795
		C60.262,147.693,100,187.431,100,187.431s39.738-39.738,54.897-54.897C185.216,102.215,185.216,53.058,154.897,22.739z"/>
	<path fill="#EA896B" d="M40.125,30.206c30.319-30.319,79.476-30.319,109.795,0c25.504,25.504,29.551,64.337,12.147,94.075
		c22.918-30.417,20.532-73.84-7.17-101.541c-30.319-30.319-79.476-30.319-109.795,0c-4.815,4.815-8.862,10.106-12.147,15.719
		C35.121,35.584,37.507,32.823,40.125,30.206z"/>
	<circle opacity="0.3" fill="#D36441" cx="100" cy="80.161" r="26.874"/>
	<circle fill="#C6593C" cx="100" cy="80.161" r="5.976"/>
</g>
</svg>
