<?xml version="1.0" encoding="utf-8"?>
<!-- Generator: Adobe Illustrator 17.0.0, SVG Export Plug-In . SVG Version: 6.00 Build 0)  -->
<!DOCTYPE svg PUBLIC "-//W3C//DTD SVG 1.1//EN" "http://www.w3.org/Graphics/SVG/1.1/DTD/svg11.dtd">
<svg version="1.1" id="Layer_1" xmlns="http://www.w3.org/2000/svg" xmlns:xlink="http://www.w3.org/1999/xlink" x="0px" y="0px"
	 width="200px" height="200px" viewBox="0 0 200 200" enable-background="new 0 0 200 200" xml:space="preserve">
<g>
	<g>
		<g>
			<path fill="#AF6D25" d="M152.455,31.213c-1.35-0.78-3.56-0.78-4.91,0l-45.09,26.033c-1.35,0.78-3.56,0.78-4.91,0l-45.09-26.033
				c-1.35-0.78-3.56-0.78-4.91,0L2.455,57.247C1.105,58.026,0,59.94,0,61.499v52.066c0,1.559,1.105,3.472,2.456,4.251l95.089,54.825
				c1.351,0.779,3.561,0.779,4.911,0l95.089-54.825c1.351-0.779,2.456-2.691,2.456-4.251V61.499c0-1.559-1.105-3.472-2.455-4.252
				L152.455,31.213z"/>
		</g>
		<path fill="#D18A32" d="M197.545,57.247l-45.09-26.033c-1.35-0.78-3.56-0.78-4.91,0l-45.09,26.033
			c-1.35,0.78-2.455,2.693-2.455,4.252v111.725c0.89,0,1.78-0.195,2.456-0.584l95.089-54.825c1.351-0.779,2.456-2.691,2.456-4.251
			V61.499C200,59.94,198.895,58.026,197.545,57.247z"/>
	</g>
	<g>
		<g>
			<path fill="#E59E24" d="M152.455,27.361c-1.35-0.78-3.56-0.78-4.91,0l-45.09,26.033c-1.35,0.78-3.56,0.78-4.91,0l-45.09-26.033
				c-1.35-0.78-3.56-0.78-4.91,0L2.455,53.395C1.105,54.174,0,56.088,0,57.647v52.066c0,1.559,1.105,3.472,2.456,4.251
				l95.089,54.825c1.351,0.779,3.561,0.779,4.911,0l95.089-54.825c1.351-0.779,2.456-2.691,2.456-4.251V57.647
				c0-1.559-1.105-3.472-2.455-4.252L152.455,27.361z"/>
		</g>
		<path fill="#F3B025" d="M197.545,53.395l-45.09-26.033c-1.35-0.78-3.56-0.78-4.91,0l-45.09,26.033
			c-0.675,0.39-1.565,0.585-2.455,0.585v115.393c0.89,0,1.78-0.195,2.456-0.584l95.089-54.825c1.351-0.779,2.456-2.691,2.456-4.251
			V57.647C200,56.088,198.895,54.174,197.545,53.395z"/>
	</g>
</g>
</svg>
