<?xml version="1.0" encoding="utf-8"?>
<!-- Generator: Adobe Illustrator 17.0.0, SVG Export Plug-In . SVG Version: 6.00 Build 0)  -->
<!DOCTYPE svg PUBLIC "-//W3C//DTD SVG 1.1//EN" "http://www.w3.org/Graphics/SVG/1.1/DTD/svg11.dtd">
<svg version="1.1" id="Layer_1" xmlns="http://www.w3.org/2000/svg" xmlns:xlink="http://www.w3.org/1999/xlink" x="0px" y="0px"
	 width="200px" height="200px" viewBox="0 0 200 200" enable-background="new 0 0 200 200" xml:space="preserve">
<g>
	<g>
		<circle fill="#FEE4A4" cx="11.635" cy="88.763" r="12.393"/>
		<path fill="#E4CD93" d="M-0.718,89.718c0.488,6.398,5.83,11.438,12.353,11.438c6.844,0,12.393-5.548,12.393-12.393H0.496
			C-0.092,88.763-0.583,89.17-0.718,89.718z"/>
	</g>
	<path fill="#1F2B3A" d="M20.068,62.207c-4.658,0-8.434,3.776-8.434,8.434v36.687c0,4.658,3.776,8.434,8.434,8.434h11.845
		l-3.449,47.908c-0.078,1.091,0.3,2.165,1.045,2.965c0.745,0.8,1.789,1.255,2.882,1.255h11.418c1.684,0,3.182-1.072,3.726-2.666
		l10.508-30.8h0.727c1.772,0,3.326-1.184,3.796-2.893l4.331-15.748c0.002-0.007,0.003-0.014,0.005-0.021h16.411V62.207H20.068z"/>
	<circle fill="#E4CD93" cx="147.292" cy="88.985" r="15.712"/>
	<rect x="28.453" y="79.026" fill="#FEE4A4" width="43.375" height="19.474"/>
	<polygon fill="#FEE4A4" points="83.312,62.207 83.312,88.763 83.312,88.985 83.312,115.762 147.513,140.105 147.513,88.985 
		147.513,37.643 	"/>
	<polygon fill="#E4CD93" points="147.513,140.105 147.513,88.985 83.312,88.985 83.312,115.762 	"/>
	<rect x="28.453" y="88.763" fill="#E4CD93" width="43.375" height="9.737"/>
	<path fill="#203141" d="M147.513,145.637c-3.056,0-5.532-2.476-5.532-5.532V37.643c0-3.055,2.476-5.533,5.532-5.533
		c3.056,0,5.532,2.477,5.532,5.533v102.462C153.045,143.161,150.569,145.637,147.513,145.637z"/>
	<g>
		<path fill="#203141" d="M169.12,48.945l20.261-7.118c1.169-0.411,2.449,0.204,2.86,1.373c0.411,1.169-0.204,2.449-1.373,2.86
			c-0.049,0.017-0.104,0.034-0.153,0.048l-20.718,5.648c-0.785,0.214-1.595-0.249-1.809-1.034
			C167.983,49.973,168.4,49.2,169.12,48.945z"/>
		<path fill="#203141" d="M174.6,65.821l21.189-3.491c1.222-0.201,2.376,0.626,2.578,1.849c0.201,1.222-0.626,2.376-1.848,2.578
			c-0.051,0.008-0.108,0.016-0.159,0.02l-21.384,1.965c-0.81,0.074-1.527-0.522-1.602-1.332
			C173.302,66.636,173.847,65.947,174.6,65.821z"/>
		<path fill="#203141" d="M177.067,83.393l21.473,0.241c1.239,0.014,2.232,1.029,2.218,2.268c-0.014,1.239-1.029,2.232-2.268,2.218
			c-0.052-0.001-0.109-0.003-0.161-0.008l-21.401-1.778c-0.811-0.067-1.413-0.779-1.346-1.59
			C175.647,83.97,176.303,83.386,177.067,83.393z"/>
		<path fill="#203141" d="M176.445,101.126l21.105,3.966c1.217,0.229,2.019,1.401,1.79,2.619c-0.229,1.217-1.401,2.019-2.619,1.79
			c-0.051-0.01-0.107-0.022-0.157-0.035l-20.767-5.467c-0.787-0.207-1.257-1.013-1.05-1.8
			C174.946,101.448,175.694,100.987,176.445,101.126z"/>
		<path fill="#203141" d="M172.753,118.482l20.096,7.571c1.159,0.437,1.745,1.731,1.308,2.89c-0.437,1.159-1.731,1.745-2.89,1.308
			c-0.049-0.018-0.102-0.041-0.148-0.062l-19.502-8.991c-0.739-0.341-1.062-1.216-0.721-1.955
			C171.221,118.539,172.038,118.214,172.753,118.482z"/>
	</g>
</g>
</svg>
