<?xml version="1.0" encoding="utf-8"?>
<!-- Generator: Adobe Illustrator 17.0.0, SVG Export Plug-In . SVG Version: 6.00 Build 0)  -->
<!DOCTYPE svg PUBLIC "-//W3C//DTD SVG 1.1//EN" "http://www.w3.org/Graphics/SVG/1.1/DTD/svg11.dtd">
<svg version="1.1" id="Layer_1" xmlns="http://www.w3.org/2000/svg" xmlns:xlink="http://www.w3.org/1999/xlink" x="0px" y="0px"
	 width="200px" height="200px" viewBox="0 0 200 200" enable-background="new 0 0 200 200" xml:space="preserve">
<g>
	<polygon fill="#FFFFFF" points="24.149,53.119 102,8.172 179.851,53.119 179.851,143.014 102,187.962 24.149,143.014 	"/>
	<path fill="#C04227" d="M102,200.667l-84.351-48.7v-97.4L102,5.866l84.351,48.7v97.4L102,200.667z M30.649,144.461L102,185.657
		l71.351-41.195V62.072L102,20.877L30.649,62.072V144.461z"/>
	<path fill="#454545" d="M102,98.067c0,0-0.869-3.433-1.486-8.583c-0.335-2.575-0.612-5.579-0.797-8.798
		c-0.068-1.609-0.214-3.272-0.224-4.962c-0.03-1.69-0.06-3.406-0.09-5.123c0.029-1.717,0.059-3.433,0.088-5.123
		c0.001-1.69,0.155-3.353,0.221-4.962c0.181-3.219,0.461-6.223,0.797-8.798c0.618-5.15,1.493-8.583,1.493-8.583
		s0.875,3.433,1.493,8.583c0.336,2.575,0.615,5.579,0.797,8.798c0.066,1.609,0.22,3.272,0.221,4.962
		c0.029,1.69,0.058,3.406,0.088,5.123c-0.03,1.717-0.061,3.433-0.09,5.123c-0.011,1.69-0.156,3.353-0.224,4.962
		c-0.185,3.219-0.462,6.223-0.797,8.798C102.869,94.634,102,98.067,102,98.067z"/>
	<path fill="#E25027" d="M102,195.467l-84.351-48.7v-97.4L102,0.667l84.351,48.7v97.4L102,195.467z M30.649,139.262L102,180.457
		l71.351-41.195V56.872L102,15.677L30.649,56.872V139.262z"/>
	<path fill="#E6E7E8" d="M102,29.883l63.552,36.692v68.184L102,171.451l-63.552-36.692V66.575L102,29.883 M102,20.877L30.649,62.072
		v77.19L102,180.457l71.351-41.195v-77.19L102,20.877L102,20.877z"/>
	<path fill="#454545" d="M104.167,98.067c0,0,2.248-0.869,5.619-1.486c3.372-0.691,7.867-1.104,12.363-1.113
		c4.496,0.003,8.991,0.412,12.363,1.106c3.372,0.618,5.619,1.493,5.619,1.493s-2.248,0.875-5.619,1.493
		c-3.372,0.694-7.867,1.103-12.363,1.106c-4.496-0.009-8.991-0.422-12.363-1.113C106.414,98.936,104.167,98.067,104.167,98.067z"/>
	<circle fill="#3EBBDE" cx="102" cy="98.067" r="6.933"/>
</g>
</svg>
