<?xml version="1.0" encoding="utf-8"?>
<!-- Generator: Adobe Illustrator 17.0.0, SVG Export Plug-In . SVG Version: 6.00 Build 0)  -->
<!DOCTYPE svg PUBLIC "-//W3C//DTD SVG 1.1//EN" "http://www.w3.org/Graphics/SVG/1.1/DTD/svg11.dtd">
<svg version="1.1" id="Layer_1" xmlns="http://www.w3.org/2000/svg" xmlns:xlink="http://www.w3.org/1999/xlink" x="0px" y="0px"
	 width="200px" height="200px" viewBox="0 0 200 200" enable-background="new 0 0 200 200" xml:space="preserve">
<g>
	<g>
		<polygon fill="#212121" points="181.254,89.506 159.482,46.113 78.228,34.485 18.746,66.251 18.746,123.485 40.518,166.878 
			121.772,178.505 181.254,146.739 		"/>
		<polygon fill="#191919" points="40.518,166.878 40.518,99.789 18.746,99.789 18.746,123.485 		"/>
		<polygon fill="#272626" points="121.772,178.505 121.772,99.789 181.254,99.789 181.254,146.739 		"/>
	</g>
	<polygon fill="#1C1C1C" points="200,89.209 173.205,35.805 73.205,21.495 0,60.59 0,66.692 26.795,120.096 126.795,134.406 
		200,95.311 	"/>
	<polygon fill="#2D2E2D" points="173.205,35.805 73.205,21.495 0,60.59 26.795,113.994 126.795,128.304 200,89.209 	"/>
	<g>
		<g>
			<g>
				<path fill="#D8A429" d="M158.589,156.311c-0.051,0-0.104-0.004-0.156-0.013c-0.5-0.086-0.835-0.56-0.75-1.06l1.344-7.846
					c0.086-0.499,0.557-0.836,1.06-0.75c0.5,0.086,0.835,0.56,0.75,1.06l-1.345,7.846
					C159.416,155.996,159.028,156.311,158.589,156.311z"/>
				<path fill="#D8A429" d="M161.604,157.943c-0.033,0-0.066-0.002-0.1-0.006c-0.504-0.054-0.868-0.507-0.814-1.011l0.896-8.296
					c0.055-0.504,0.509-0.869,1.011-0.814c0.504,0.054,0.868,0.507,0.814,1.011l-0.896,8.296
					C162.464,157.594,162.066,157.943,161.604,157.943z"/>
				<path fill="#D8A429" d="M164.618,159.575c-0.016,0-0.032,0-0.048-0.001c-0.506-0.026-0.896-0.457-0.87-0.964l0.448-8.747
					c0.026-0.506,0.455-0.895,0.964-0.87c0.506,0.026,0.896,0.457,0.87,0.964l-0.448,8.747
					C165.508,159.194,165.103,159.575,164.618,159.575z"/>
				<path fill="#D8A429" d="M167.631,161.207c-0.507,0-0.918-0.411-0.918-0.918v-9.198c0-0.507,0.411-0.918,0.918-0.918
					s0.918,0.411,0.918,0.918v9.198C168.549,160.796,168.138,161.207,167.631,161.207z"/>
			</g>
			<g>
				<path fill="#D8A429" d="M176.554,156.311c-0.439,0-0.827-0.316-0.904-0.763l-1.344-7.846c-0.086-0.5,0.25-0.974,0.75-1.06
					c0.5-0.086,0.974,0.25,1.06,0.75l1.345,7.846c0.086,0.5-0.25,0.974-0.75,1.06C176.658,156.307,176.606,156.311,176.554,156.311z
					"/>
				<path fill="#D8A429" d="M173.539,157.943c-0.463,0-0.86-0.349-0.911-0.819l-0.896-8.296c-0.055-0.504,0.31-0.957,0.814-1.011
					c0.503-0.055,0.957,0.31,1.011,0.814l0.896,8.296c0.055,0.504-0.31,0.957-0.814,1.011
					C173.606,157.941,173.572,157.943,173.539,157.943z"/>
				<path fill="#D8A429" d="M170.526,159.575c-0.485,0-0.891-0.381-0.916-0.871l-0.448-8.747c-0.026-0.506,0.363-0.938,0.87-0.964
					c0.508-0.024,0.938,0.363,0.964,0.87l0.448,8.747c0.026,0.506-0.363,0.938-0.87,0.964
					C170.557,159.574,170.541,159.575,170.526,159.575z"/>
			</g>
			<path fill="#E9B720" d="M167.631,152.009c-0.131,0-0.262-0.028-0.384-0.084l-9.043-4.161c-0.348-0.16-0.56-0.52-0.532-0.902
				l1.836-24.763c0.022-0.303,0.193-0.575,0.456-0.727l7.208-4.161c0.284-0.164,0.634-0.164,0.918,0l7.208,4.161
				c0.263,0.152,0.434,0.424,0.456,0.727l1.836,24.763c0.028,0.382-0.184,0.741-0.532,0.902l-9.043,4.161
				C167.893,151.98,167.762,152.009,167.631,152.009z"/>
		</g>
		<path fill="#F7C841" d="M167.248,151.924c0.122,0.056,0.253,0.084,0.384,0.084c0.131,0,0.262-0.028,0.384-0.084l9.043-4.161
			c0.348-0.16,0.56-0.52,0.532-0.902l-1.836-24.763c-0.022-0.303-0.193-0.575-0.456-0.727l-7.208-4.161
			c-0.284-0.164-0.634-0.164-0.918,0v34.679L167.248,151.924z"/>
	</g>
	<path fill="#E9B720" d="M170.072,105.192c-0.277-0.519-0.712-0.95-1.267-1.209l-67.631-31.596
		c-1.388-0.648-3.039-0.049-3.687,1.339c-0.648,1.388-0.049,3.039,1.339,3.687l65.748,30.716L170.072,105.192z"/>
	<path fill="#DCA927" d="M164.858,108.261v11.167c0,1.532,1.242,2.774,2.774,2.774s2.774-1.242,2.774-2.774v-12.933
		c0-0.465-0.122-0.909-0.333-1.303l-5.498,2.936L164.858,108.261z"/>
	<ellipse fill="#1C1C1C" cx="100" cy="74.899" rx="9.898" ry="5.244"/>
</g>
</svg>
