<?xml version="1.0" encoding="utf-8"?>
<!-- Generator: Adobe Illustrator 17.0.0, SVG Export Plug-In . SVG Version: 6.00 Build 0)  -->
<!DOCTYPE svg PUBLIC "-//W3C//DTD SVG 1.1//EN" "http://www.w3.org/Graphics/SVG/1.1/DTD/svg11.dtd">
<svg version="1.1" id="Layer_1" xmlns="http://www.w3.org/2000/svg" xmlns:xlink="http://www.w3.org/1999/xlink" x="0px" y="0px"
	 width="200px" height="200px" viewBox="0 0 200 200" enable-background="new 0 0 200 200" xml:space="preserve">
<g>
	<g>
		<path fill="#F7CA12" d="M119.576,155.447C119.576,181.051,100,200,100,200s-19.576-17.369-19.576-44.553
			c0-10.811,8.764-19.576,19.576-19.576S119.576,144.636,119.576,155.447z"/>
		<path fill="#FCE37B" d="M112.197,156.2c0,15.953-12.197,27.76-12.197,27.76s-12.197-10.822-12.197-27.76
			c0-6.736,5.461-12.197,12.197-12.197C106.736,144.003,112.197,149.464,112.197,156.2z"/>
	</g>
	<g>
		<rect x="84.06" y="126.402" fill="#C44E41" width="31.88" height="17.338"/>
		<g>
			<path fill="#F48771" d="M77.954,115.907c7.852-4.662,16.211-7.72,24.697-9.275c-0.093-0.163-0.178-0.327-0.274-0.489
				C93.295,90.845,82.111,76.851,67.08,86.367c-27.899,17.663-17.781,56.155-16.423,57.679
				C56.876,132.773,66.083,122.955,77.954,115.907z"/>
			<path fill="#E56F5C" d="M122.046,115.907c-7.852-4.662-16.211-7.72-24.697-9.275c0.093-0.163,0.178-0.327,0.274-0.489
				c9.082-15.297,20.266-29.292,35.297-19.776c27.899,17.663,17.781,56.155,16.423,57.679
				C143.124,132.773,133.917,122.955,122.046,115.907z"/>
		</g>
		<path fill="#FFFFFF" d="M100,134.792c14.475,0,21.151,3.276,21.151,3.276c5.625-14.909,9.118-36.103,9.118-60.717
			C130.269,28.86,100,0,100,0S69.731,25.168,69.731,77.351c0,25.854,3.328,46.638,8.718,61.034
			C78.449,138.385,85.525,134.792,100,134.792z"/>
		<path fill="#F48771" d="M91.909,135.071c0,22.967,8.091,35.113,8.091,35.113s8.091-12.146,8.091-35.113S100,99.958,100,99.958
			S91.909,112.104,91.909,135.071z"/>
		<path fill="#EDEDED" d="M121.151,138.068c5.625-14.909,9.118-36.103,9.118-60.717C130.269,28.86,100,0,100,0v134.792
			C114.475,134.792,121.151,138.068,121.151,138.068z"/>
		<path fill="#E56F5C" d="M100,170.184c0,0,8.091-12.146,8.091-35.113S100,99.958,100,99.958V170.184z"/>
		<g>
			<polygon fill="#F4DA1F" points="85.048,45.682 100,37.05 114.951,45.682 114.951,62.947 100,71.579 85.048,62.947 			"/>
			<polygon fill="#6D9393" points="88.18,47.49 100,40.665 111.82,47.49 111.82,61.139 100,67.963 88.18,61.139 			"/>
			<polygon fill="#799B9A" points="88.179,47.49 88.179,61.139 100,67.963 100,40.665 			"/>
		</g>
	</g>
</g>
</svg>
