<?xml version="1.0" encoding="utf-8"?>
<!-- Generator: Adobe Illustrator 17.0.0, SVG Export Plug-In . SVG Version: 6.00 Build 0)  -->
<!DOCTYPE svg PUBLIC "-//W3C//DTD SVG 1.1//EN" "http://www.w3.org/Graphics/SVG/1.1/DTD/svg11.dtd">
<svg version="1.1" id="Layer_1" xmlns="http://www.w3.org/2000/svg" xmlns:xlink="http://www.w3.org/1999/xlink" x="0px" y="0px"
	 width="200px" height="200px" viewBox="0 0 200 200" enable-background="new 0 0 200 200" xml:space="preserve">
<g>
	<path fill="#CCA048" d="M200,173.278c0-11.461,0-23.549,0-26.582c0-13.066-8.079-24.238-19.511-28.814
		c5.982-3.812,9.953-10.5,9.953-18.119c0-11.861-9.615-21.475-21.475-21.475c-11.861,0-21.475,9.615-21.475,21.475
		c0,7.619,3.971,14.307,9.953,18.119c-11.432,4.576-19.511,15.748-19.511,28.814c0,1.717,0,3.59,0,5.563L200,173.278z"/>
	<g>
		<path fill="#DDB14E" d="M100,139.413L100,139.413l77.33,26.188c0-12.556,0-24.348,0-27.679c0-16.872-10.433-31.299-25.194-37.208
			c7.725-4.923,12.853-13.558,12.853-23.396c0-15.316-12.416-27.731-27.731-27.731c-15.315,0-27.731,12.416-27.731,27.731
			c0,9.839,5.128,18.474,12.853,23.396c-14.762,5.909-25.194,20.335-25.194,37.208c0,0.79,0,1.607,0,2.444L100,139.413z"/>
	</g>
	<path fill="#BC912F" d="M62.066,152.26c0-2.599,0-4.569,0-5.563c0-13.066-8.079-24.238-19.511-28.814
		c5.982-3.812,9.953-10.5,9.953-18.119c0-11.861-9.615-21.475-21.475-21.475S9.558,87.903,9.558,99.763
		c0,7.619,3.971,14.307,9.953,18.119C8.079,122.458,0,133.63,0,146.696c0,7.329,0,17.424,0,26.582L62.066,152.26z"/>
	<g>
		<path fill="#CCA033" d="M100,139.413L100,139.413l2.815,0.953c0-1.038,0-1.87,0-2.444c0-16.872-10.433-31.299-25.194-37.208
			c7.725-4.923,12.853-13.558,12.853-23.396c0-15.316-12.416-27.731-27.731-27.731c-15.315,0-27.731,12.416-27.731,27.731
			c0,9.839,5.128,18.474,12.853,23.396c-14.762,5.909-25.194,20.335-25.194,37.208c0,7.715,0,17.806,0,27.679L100,139.413z"/>
	</g>
	<g>
		<path fill="#E5B735" d="M100,139.413L100,139.413l45.411,15.378c0-11.842,0-22.133,0-25.37c0-20.166-13.149-37.252-31.338-43.177
			c10.288-5.163,17.352-15.802,17.352-28.097c0-17.356-14.07-31.425-31.425-31.425s-31.425,14.07-31.425,31.425
			c0,12.295,7.065,22.933,17.352,28.097c-18.189,5.925-31.338,23.011-31.338,43.177c0,7.183,0,16.183,0,25.371L100,139.413z"/>
	</g>
	<path fill="#EFC04D" d="M145.411,129.421c0-20.166-13.149-37.252-31.338-43.177c10.288-5.163,17.352-15.802,17.352-28.097
		c0-17.356-14.07-31.425-31.425-31.425v112.691l45.411,15.378C145.411,142.952,145.411,132.658,145.411,129.421z"/>
	<g opacity="0.1">
		<path fill="#7F7359" d="M164.945,78.67c0.022-0.449,0.044-0.897,0.044-1.351c0-15.316-12.416-27.731-27.731-27.731
			c-2.343,0-4.617,0.294-6.791,0.841c0.624,2.47,0.958,5.056,0.958,7.72c0,12.295-7.065,22.933-17.352,28.097
			c17.345,5.65,30.099,21.453,31.245,40.395c3.249-3.823,7.393-6.862,12.127-8.757c-5.982-3.812-9.953-10.5-9.953-18.119
			C147.492,89.278,155.008,80.553,164.945,78.67z"/>
		<path fill="#7F7359" d="M35.011,77.318c0,0.454,0.022,0.903,0.044,1.351c9.937,1.884,17.453,10.609,17.453,21.094
			c0,7.619-3.971,14.307-9.953,18.119c4.734,1.895,8.878,4.934,12.127,8.757c1.146-18.942,13.9-34.745,31.245-40.395
			c-10.288-5.163-17.352-15.802-17.352-28.097c0-2.664,0.334-5.249,0.958-7.72c-2.173-0.547-4.447-0.841-6.791-0.841
			C47.427,49.587,35.011,62.003,35.011,77.318z"/>
		<path fill="#7F7359" d="M128.326,44.523c-0.441-0.916-0.926-1.807-1.451-2.671c-1.312-2.16-2.878-4.149-4.655-5.926
			c-1.422-1.422-2.979-2.708-4.651-3.837c-0.836-0.565-1.7-1.09-2.591-1.574c-4.453-2.419-9.556-3.793-14.979-3.793h0
			c-14.692,0-27.026,10.083-30.467,23.706c12.032,3.029,20.941,13.918,20.941,26.89c0,9.839-5.128,18.474-12.853,23.396
			c10.197,4.081,18.325,12.228,22.379,22.436c4.054-10.208,12.183-18.355,22.379-22.436c-7.725-4.923-12.853-13.558-12.853-23.396
			c0-12.972,8.908-23.861,20.941-26.89c-0.265-1.05-0.581-2.08-0.949-3.085C129.166,46.38,128.768,45.439,128.326,44.523z"/>
	</g>
</g>
</svg>
