<?xml version="1.0" encoding="utf-8"?>
<!-- Generator: Adobe Illustrator 17.0.0, SVG Export Plug-In . SVG Version: 6.00 Build 0)  -->
<!DOCTYPE svg PUBLIC "-//W3C//DTD SVG 1.1//EN" "http://www.w3.org/Graphics/SVG/1.1/DTD/svg11.dtd">
<svg version="1.1" id="Layer_1" xmlns="http://www.w3.org/2000/svg" xmlns:xlink="http://www.w3.org/1999/xlink" x="0px" y="0px"
	 width="200px" height="200px" viewBox="0 0 200 200" enable-background="new 0 0 200 200" xml:space="preserve">
<g>
	<g>
		<path fill="#F7F1E8" d="M100,100l-59.473,13.73l0.26,28.479C43.45,174.645,66.739,200,100,200s56.55-25.355,59.213-57.791
			l0.26-28.479L100,100z"/>
		<polygon fill="#5B5248" points="40.527,113.73 100,99.522 159.473,113.73 159.473,142.147 100,156.355 40.527,142.147 		"/>
		<polygon fill="#564C42" points="100,99.522 100,156.355 40.787,142.209 40.527,113.73 		"/>
		<path fill="#F2E4CC" d="M53.163,145.166l-12.375-2.956C43.45,174.645,66.739,200,100,200c15.954,0,29.602-5.847,39.793-15.496
			c-7.445,2.916-15.67,4.517-24.526,4.517C85.448,189.02,62.737,170.95,53.163,145.166z"/>
		<path fill="#443B33" d="M40.527,113.73c0,0,1.954,22.615,26.596,34.771l-26.336-6.292L40.527,113.73z"/>
		<path fill="#5E554D" d="M159.213,113.73c0,0-1.954,22.615-26.596,34.771l26.336-6.292L159.213,113.73z"/>
	</g>
	<g>
		<circle fill="#EF7B47" cx="100" cy="121.312" r="23.789"/>
		<path fill="#DB6137" d="M104.575,137.52c-13.485,0-24.764-9.414-27.644-22.026c-0.468,1.862-0.72,3.811-0.72,5.819
			c0,13.138,10.651,23.789,23.789,23.789c9.235,0,17.234-5.265,21.176-12.955C116.509,135.524,110.776,137.52,104.575,137.52z"/>
		<circle fill="#F49878" cx="107.039" cy="115.933" r="10.175"/>
	</g>
	<g>
		<path fill="#F7F1E8" d="M100,113.73l59.213-14.146c0.169-2.059,0.261-4.146,0.261-6.257C159.473,57.954,135.373,0,100,0
			S40.527,57.954,40.527,93.327c0,2.112,0.091,4.198,0.261,6.257L100,113.73z"/>
		<path fill="#F2E4CC" d="M53.163,102.541c-3.236-8.715-4.975-18.307-4.975-28.386c0-9.769,1.634-21.066,4.681-32.555
			c-7.885,17.152-12.341,36.524-12.341,51.727c0,2.112,0.091,4.198,0.261,6.257L53.163,102.541z"/>
	</g>
</g>
<path fill="#FFFFFF" d="M129.766,22.775c7.804,11.557,13.28,34.544,6.348,39.225c-6.932,4.681-16.31-8.843-24.114-20.4
	s-15.847-26.595-8.916-31.276C110.016,5.643,121.962,11.218,129.766,22.775z"/>
</svg>
