<?xml version="1.0" encoding="utf-8"?>
<!-- Generator: Adobe Illustrator 17.0.0, SVG Export Plug-In . SVG Version: 6.00 Build 0)  -->
<!DOCTYPE svg PUBLIC "-//W3C//DTD SVG 1.1//EN" "http://www.w3.org/Graphics/SVG/1.1/DTD/svg11.dtd">
<svg version="1.1" id="Layer_1" xmlns="http://www.w3.org/2000/svg" xmlns:xlink="http://www.w3.org/1999/xlink" x="0px" y="0px"
	 width="200px" height="200px" viewBox="0 0 200 200" enable-background="new 0 0 200 200" xml:space="preserve">
<g>
	<polygon fill="#F7CA12" points="13.808,50.237 100,0.474 186.192,50.237 186.192,149.763 100,199.526 13.808,149.763 	"/>
	<polygon fill="#3B3931" points="24.459,56.387 100,12.773 175.541,56.387 175.541,143.613 100,187.227 24.459,143.613 	"/>
	<g>
		<rect x="73.681" y="67.878" fill="#F7CA12" width="11.671" height="11.671"/>
		<rect x="73.681" y="81.534" fill="#F7CA12" width="11.671" height="11.671"/>
		<rect x="73.681" y="136.157" fill="#F7CA12" width="11.671" height="11.671"/>
		<rect x="114.648" y="136.157" fill="#F7CA12" width="11.671" height="11.671"/>
		<rect x="100.992" y="136.157" fill="#F7CA12" width="11.671" height="11.671"/>
		<rect x="87.336" y="136.157" fill="#F7CA12" width="11.671" height="11.671"/>
		<rect x="60.025" y="122.501" fill="#F7CA12" width="11.671" height="11.671"/>
		<rect x="128.304" y="122.501" fill="#F7CA12" width="11.671" height="11.671"/>
		<rect x="114.648" y="67.878" fill="#F7CA12" width="11.671" height="11.671"/>
		<rect x="114.648" y="81.534" fill="#F7CA12" width="11.671" height="11.671"/>
	</g>
	<polygon fill="#F2D661" points="175.541,56.387 186.192,50.237 100,0.474 100,12.773 	"/>
	<polygon fill="#F4D13B" points="175.541,56.387 175.541,143.613 186.192,149.763 186.192,50.237 	"/>
	<polygon fill="#E4BD22" points="24.459,143.613 13.808,149.763 100,199.526 100,187.227 	"/>
	<polygon fill="#D6AA29" points="24.459,56.387 13.808,50.237 13.808,149.763 24.459,143.613 	"/>
</g>
</svg>
