<?xml version="1.0" encoding="utf-8"?>
<!-- Generator: Adobe Illustrator 17.0.0, SVG Export Plug-In . SVG Version: 6.00 Build 0)  -->
<!DOCTYPE svg PUBLIC "-//W3C//DTD SVG 1.1//EN" "http://www.w3.org/Graphics/SVG/1.1/DTD/svg11.dtd">
<svg version="1.1" id="Layer_1" xmlns="http://www.w3.org/2000/svg" xmlns:xlink="http://www.w3.org/1999/xlink" x="0px" y="0px"
	 width="200px" height="200px" viewBox="0 0 200 200" enable-background="new 0 0 200 200" xml:space="preserve">
<g>
	<path fill="#913A3A" d="M180.846,41.305c-2.465-3.395-5.117-6.645-7.98-9.698c-6.488-6.92-13.951-12.908-22.159-17.759
		c-2.583-1.526-5.244-2.929-7.968-4.222c-6.913-3.283-14.262-5.781-21.929-7.412c-2.584-0.55-5.199-1.014-7.852-1.359
		c-0.458-0.06-0.921-0.101-1.38-0.154c-4.315-0.501-8.704-0.756-13.165-0.688s-8.84,0.457-13.138,1.09
		c-0.699,0.103-1.405,0.184-2.099,0.301c-7.572,1.278-14.836,3.432-21.719,6.306c-2.653,1.108-5.246,2.324-7.776,3.648
		c-7.9,4.133-15.18,9.276-21.655,15.278c-2.744,2.544-5.337,5.244-7.78,8.078C14.264,46.288,6.902,60.161,3.051,75.418
		c-2.102,8.325-3.176,17.052-3.039,26.047c0.137,8.995,1.478,17.685,3.833,25.942c2.684,9.411,6.704,18.247,11.85,26.293
		c0.681,0.01,1.3,0.037,2.061,0.025c11.345-0.173,16.169-2.707,16.169-2.707s2.129-2.109,13.474-2.283
		c11.345-0.173,16.239,1.829,16.239,1.829s2.198,2.427,13.543,2.253c11.345-0.173,16.169-2.707,16.169-2.707v0
		c0.001-0.001,2.132-2.109,13.474-2.282c11.345-0.173,16.238,1.829,16.238,1.829s2.199,2.427,13.543,2.253
		s16.169-2.707,16.169-2.707s2.129-2.109,13.474-2.283c11.345-0.173,16.238,1.829,16.238,1.829l0,0c0,0,0.827,0.847,3.811,1.505
		c8.879-15.206,13.856-32.95,13.567-51.841C199.539,77.05,192.512,57.372,180.846,41.305z"/>
	<g>
		<path fill="none" d="M91.195,1.013L111.701,0.7c-4.315-0.501-8.704-0.756-13.165-0.688s-8.84,0.457-13.138,1.09L91.195,1.013
			L91.195,1.013z"/>
		<path fill="#7B3233" d="M0.135,101.465c0.137,8.995,1.478,17.685,3.833,25.942L3.174,75.418
			C1.072,83.743-0.003,92.47,0.135,101.465z"/>
		<path fill="#913A3A" d="M34.048,151.018c0,0-2.435,1.21-7.873,2.047L24.368,34.713C14.387,46.288,7.025,60.161,3.174,75.418
			l0.794,51.989c2.684,9.411,6.704,18.247,11.85,26.293c0.681,0.01,1.3,0.037,2.061,0.025
			C29.223,153.552,34.048,151.018,34.048,151.018z"/>
		<path fill="#9E4343" d="M34.048,151.018l-1.9-124.383c-2.744,2.544-5.337,5.244-7.78,8.078l1.808,118.352
			C31.613,152.228,34.048,151.018,34.048,151.018z"/>
		<path fill="#883637" d="M47.521,148.735c11.345-0.173,16.239,1.829,16.239,1.829s-2.478-1.035-7.838-1.53l-0.017-0.013
			L53.803,11.357c-7.9,4.133-15.18,9.276-21.655,15.278l1.9,124.383C34.048,151.018,36.177,148.909,47.521,148.735z"/>
		<path fill="#7B3233" d="M55.922,149.035c5.36,0.494,7.838,1.53,7.838,1.53L61.578,7.709c-2.653,1.108-5.246,2.324-7.776,3.648
			l2.103,137.664L55.922,149.035z"/>
		<path fill="#913A3A" d="M77.303,152.818c11.345-0.173,16.169-2.707,16.169-2.707l0,0l0,0c0,0-2.434,1.21-7.872,2.047L83.298,1.403
			c-7.572,1.278-14.836,3.432-21.719,6.306l2.182,142.855C63.76,150.564,65.958,152.991,77.303,152.818z"/>
		<path fill="#9E4343" d="M93.472,150.11L91.195,1.013l-5.798,0.089c-0.699,0.103-1.405,0.184-2.099,0.301L85.6,152.157
			C91.038,151.321,93.472,150.11,93.472,150.11z"/>
		<path fill="#883637" d="M91.195,1.013l2.277,149.097l0,0c0.001-0.001,2.132-2.109,13.474-2.282
			c11.345-0.173,16.238,1.829,16.238,1.829s-2.478-1.035-7.838-1.53l-0.016-0.013l-2.249-147.26c-0.458-0.06-0.921-0.101-1.38-0.154
			L91.195,1.013L91.195,1.013z"/>
		<path fill="#7B3233" d="M115.346,148.127c5.36,0.494,7.838,1.53,7.838,1.53L120.933,2.213c-2.584-0.55-5.199-1.014-7.852-1.359
			l2.249,147.26L115.346,148.127z"/>
		<path fill="#913A3A" d="M136.728,151.91c11.345-0.173,16.169-2.707,16.169-2.707s-2.435,1.21-7.872,2.047L142.862,9.625
			c-6.913-3.283-14.262-5.781-21.929-7.412l2.252,147.444C123.185,149.657,125.383,152.083,136.728,151.91z"/>
		<path fill="#9E4343" d="M152.897,149.203L150.83,13.847c-2.583-1.526-5.244-2.929-7.968-4.222l2.163,141.625
			C150.463,150.413,152.897,149.203,152.897,149.203z"/>
		<path fill="#883637" d="M166.371,146.92c11.345-0.173,16.238,1.829,16.238,1.829l0,0c-0.002-0.001-2.48-1.036-7.838-1.53
			l-0.017-0.013l-1.766-115.6c-6.488-6.92-13.951-12.908-22.159-17.759l2.067,135.356
			C152.897,149.203,155.026,147.094,166.371,146.92z"/>
		<path fill="#7B3233" d="M174.771,147.219c5.358,0.494,7.836,1.529,7.838,1.53h0l-1.641-107.444
			c-2.465-3.395-5.117-6.645-7.98-9.698l1.766,115.6L174.771,147.219z"/>
		<path fill="#913A3A" d="M186.421,150.254c8.879-15.206,13.856-32.95,13.567-51.841c-0.326-21.362-7.353-41.04-19.02-57.108
			l1.641,107.444C182.61,148.749,183.436,149.596,186.421,150.254z"/>
	</g>
	
		<ellipse transform="matrix(0.9999 -0.0153 0.0153 0.9999 -2.6364 1.5654)" opacity="0.1" fill="#FFF200" cx="101.184" cy="173.411" rx="40.261" ry="8.506"/>
	<g>
		<g>
			<g>
				<path fill="#C0D5DD" d="M71.966,100.055c0.337,0.767-0.011,1.662-0.778,1.999l-17.882,7.86
					c-0.767,0.337-1.662-0.011-1.999-0.778l-9.511-21.638c-0.337-0.767,0.011-1.662,0.778-1.999l17.882-7.86
					c0.767-0.337,1.662,0.011,1.999,0.778L71.966,100.055z"/>
				<path fill="#F2DF90" d="M50.061,106.303l1.245,2.833c0.337,0.767,1.232,1.116,1.999,0.778l17.882-7.86
					c0.767-0.337,1.116-1.232,0.778-1.999l-1.245-2.833L50.061,106.303z"/>
				
					<rect x="44.653" y="100.523" transform="matrix(0.9155 -0.4024 0.4024 0.9155 -35.699 32.7987)" fill="#A9BDC4" width="31.13" height="1.695"/>
			</g>
			
				<linearGradient id="SVGID_1_" gradientUnits="userSpaceOnUse" x1="55.9111" y1="109.0072" x2="55.9111" y2="174.3744" gradientTransform="matrix(0.9155 -0.4024 0.4024 0.9155 -32.2891 29.8521)">
				<stop  offset="0" style="stop-color:#F9ED32;stop-opacity:0.2"/>
				<stop  offset="1" style="stop-color:#F9ED32;stop-opacity:0"/>
			</linearGradient>
			<polygon fill="url(#SVGID_1_)" points="71.978,101.707 119.445,156.868 61.057,182.531 52.515,110.261 			"/>
		</g>
		<g>
			<g>
				<path fill="#C0D5DD" d="M128.148,99.197c-0.314,0.777,0.062,1.661,0.839,1.975l18.114,7.31c0.777,0.314,1.661-0.062,1.975-0.839
					l8.845-21.919c0.314-0.777-0.062-1.661-0.839-1.975l-18.114-7.31c-0.777-0.314-1.661,0.062-1.975,0.839L128.148,99.197z"/>
				<path fill="#F2DF90" d="M150.233,104.773l-1.158,2.87c-0.314,0.777-1.198,1.153-1.975,0.839l-18.114-7.31
					c-0.777-0.314-1.153-1.198-0.839-1.975l1.158-2.87L150.233,104.773z"/>
				
					<rect x="124.365" y="99.306" transform="matrix(-0.9273 -0.3742 0.3742 -0.9273 232.2111 245.3943)" fill="#A9BDC4" width="31.13" height="1.695"/>
			</g>
			
				<linearGradient id="SVGID_2_" gradientUnits="userSpaceOnUse" x1="75.726" y1="117.3577" x2="75.726" y2="182.7249" gradientTransform="matrix(-0.9273 -0.3742 -0.3742 0.9273 251.7099 25.5146)">
				<stop  offset="0" style="stop-color:#F9ED32;stop-opacity:0.2"/>
				<stop  offset="1" style="stop-color:#F9ED32;stop-opacity:0"/>
			</linearGradient>
			<polygon fill="url(#SVGID_2_)" points="128.186,100.849 82.426,157.433 141.57,181.301 147.901,108.804 			"/>
		</g>
	</g>
	<g>
		<g>
			<path fill="#C0D5DD" d="M88.307,60.073c0.013,0.838,0.702,1.507,1.54,1.494l19.531-0.298c0.838-0.013,1.507-0.702,1.494-1.54
				l-0.361-23.633c-0.013-0.838-0.702-1.507-1.54-1.494L89.44,34.9c-0.838,0.013-1.507,0.702-1.494,1.54L88.307,60.073z"/>
			<path fill="#F2DF90" d="M110.824,56.634l0.047,3.094c0.013,0.838-0.656,1.527-1.494,1.54l-19.531,0.298
				c-0.838,0.013-1.527-0.656-1.54-1.494l-0.047-3.094L110.824,56.634z"/>
			
				<rect x="83.97" y="55.531" transform="matrix(-0.9999 0.0153 -0.0153 -0.9999 199.92 111.2309)" fill="#A9BDC4" width="31.13" height="1.695"/>
		</g>
		
			<linearGradient id="SVGID_3_" gradientUnits="userSpaceOnUse" x1="57.6764" y1="67.9367" x2="57.6764" y2="169.0066" gradientTransform="matrix(-0.9999 0.0153 0.0153 0.9999 156.2745 -5.4259)">
			<stop  offset="0" style="stop-color:#F9ED32;stop-opacity:0.2"/>
			<stop  offset="1" style="stop-color:#F9ED32;stop-opacity:0"/>
		</linearGradient>
		<polygon fill="url(#SVGID_3_)" points="88.984,61.58 69.37,169.503 133.141,168.529 110.241,61.256 		"/>
	</g>
	<g>
		<path fill="#DE5D50" d="M98.535,0.012C99.378,55.2,144.8,99.255,199.988,98.412C199.145,43.224,153.723-0.831,98.535,0.012z"/>
		<path fill="#D2544E" d="M111.668,0.696c10.572,5.79,71.66,40.845,87.335,85.313C192.732,41.075,156.679,5.906,111.668,0.696z"/>
		<path fill="#D2544E" d="M199.307,88.142C160.679,65.868,127.1,35.799,100.707,0.034c-0.421-0.003-0.839-0.016-1.26-0.013
			c18.045,45.258,54.734,80.904,100.508,97.572C199.88,94.404,199.673,91.249,199.307,88.142z"/>
		<path fill="#CD504A" d="M161.929,149.736c0.135,8.862,1.434,17.431,3.724,25.579c21.424-18.661,34.803-46.27,34.335-76.903
			c-0.135-8.862-1.434-17.431-3.724-25.579C174.84,91.495,161.461,119.103,161.929,149.736z"/>
		<path fill="#BD4243" d="M184.069,105.321c0,0-13.614,36.898-14.83,66.714c1.992-1.913,3.919-3.893,5.747-5.963
			c2.979-14.898,8.054-35.473,16.686-60.107L184.069,105.321z"/>
		<path fill="#EFD04C" d="M169.873,98.872c0.058,3.774,3.163,6.786,6.937,6.728l23.024-0.352c0.118-2.263,0.189-4.537,0.154-6.836
			c-0.035-2.299-0.175-4.571-0.363-6.829l-23.024,0.352C172.826,91.993,169.815,95.098,169.873,98.872z"/>
	</g>
	<g>
		<path fill="#DE5D50" d="M98.412,0.014C99.255,55.202,55.2,100.624,0.012,101.467C-0.831,46.279,43.224,0.857,98.412,0.014z"/>
		<path fill="#D2544E" d="M85.307,1.099c-10.39,6.11-70.38,43.014-84.689,87.94C5.514,43.935,40.475,7.68,85.307,1.099z"/>
		<path fill="#D2544E" d="M0.379,91.18C38.309,67.737,70.954,36.656,96.243,0.102c0.42-0.016,0.838-0.041,1.26-0.051
			C80.847,45.839,45.265,82.589,0.02,100.647C-0.003,97.457,0.108,94.297,0.379,91.18z"/>
		<path fill="#CD504A" d="M39.62,151.604c0.135,8.862-0.901,17.467-2.941,25.681C14.696,159.287,0.48,132.1,0.012,101.467
			C-0.123,92.605,0.913,84,2.953,75.786C24.937,93.784,39.153,120.971,39.62,151.604z"/>
		<path fill="#BD4243" d="M16.134,107.886c0,0,14.734,36.465,16.86,66.23c-2.05-1.851-4.036-3.772-5.926-5.785
			c-3.432-14.8-9.134-35.211-18.514-59.57L16.134,107.886z"/>
		<path fill="#EFD04C" d="M30.127,101.006c0.058,3.774-2.954,6.879-6.728,6.937l-23.024,0.352c-0.187-2.258-0.328-4.529-0.363-6.828
			c-0.035-2.299,0.036-4.574,0.154-6.837l23.024-0.352C26.965,94.221,30.07,97.232,30.127,101.006z"/>
	</g>
</g>
</svg>
