<?xml version="1.0" encoding="utf-8"?>
<!-- Generator: Adobe Illustrator 17.0.0, SVG Export Plug-In . SVG Version: 6.00 Build 0)  -->
<!DOCTYPE svg PUBLIC "-//W3C//DTD SVG 1.1//EN" "http://www.w3.org/Graphics/SVG/1.1/DTD/svg11.dtd">
<svg version="1.1" id="Layer_1" xmlns="http://www.w3.org/2000/svg" xmlns:xlink="http://www.w3.org/1999/xlink" x="0px" y="0px"
	 width="200px" height="100px" viewBox="0 0 200 100" enable-background="new 0 0 200 100" xml:space="preserve">
<path fill="#C0E7F7" d="M4.927,95.541c0.636,0,1.237,0.147,1.772,0.407c0.721-1.784,2.469-3.042,4.512-3.042
	c0.349,0,0.688,0.037,1.016,0.107c-0.001-0.036-0.003-0.071-0.003-0.107c0-2.036,1.581-3.703,3.582-3.841
	c-0.221-0.776-0.339-1.596-0.339-2.443c0-4.926,3.993-8.919,8.919-8.919c1.929,0,3.716,0.613,5.175,1.654
	c0.925-3.124,3.816-5.404,7.241-5.404c1.458,0,2.82,0.414,3.974,1.13c-0.113-0.357-0.174-0.736-0.174-1.13
	c0-1.554,0.945-2.886,2.291-3.456c-0.686-1.298-1.075-2.778-1.075-4.349c0-2.6,1.065-4.952,2.782-6.643
	c-2.378-1.258-3.998-3.756-3.998-6.633c0-4.142,3.358-7.5,7.5-7.5c1.046,0,2.042,0.215,2.947,0.602
	c-0.201-0.534-0.312-1.113-0.312-1.717c0-1.674,0.846-3.151,2.133-4.026c-1.345-1.934-2.133-4.284-2.133-6.818
	c0-6.605,5.354-11.96,11.96-11.96c2.138,0,4.144,0.562,5.881,1.544c0.116-6.505,5.424-11.743,11.957-11.743
	c0.661,0,1.309,0.054,1.941,0.158c2.464-4.574,7.297-7.682,12.857-7.682c1.169,0,2.306,0.138,3.395,0.398l0,0v-0.24
	C100.32,1.541,103.009,0,106.059,0c4.89,0,8.854,3.964,8.854,8.854c0,0.151-0.004,0.302-0.011,0.451
	c1.012-0.675,2.227-1.068,3.534-1.068c3.523,0,6.378,2.856,6.378,6.378c0,0.461-0.049,0.911-0.143,1.345
	c4.36,0.887,7.642,4.743,7.642,9.365c0,1.523-0.357,2.963-0.991,4.241c2.007,0.965,3.393,3.017,3.393,5.392
	c0,0.655-0.106,1.286-0.3,1.875c0.898,0.37,1.681,0.962,2.28,1.709c1.326-1.321,3.154-2.138,5.174-2.138
	c4.049,0,7.331,3.282,7.331,7.331c0,2.368-1.123,4.474-2.866,5.814c2.227,0.122,3.994,1.966,3.994,4.223
	c0,0.913-0.289,1.758-0.781,2.45c1.591,0.154,2.835,1.495,2.835,3.127c0,0.394-0.073,0.77-0.205,1.117
	c1.052-0.706,2.318-1.117,3.68-1.117c3.654,0,6.617,2.962,6.617,6.616c0,1.035-0.238,2.013-0.661,2.886
	c0.226-0.05,0.461-0.077,0.702-0.077c1.788,0,3.237,1.449,3.237,3.237c0,1.071-0.521,2.02-1.322,2.609
	c0.794,0.498,1.322,1.38,1.322,2.386c0,0.846-0.374,1.605-0.965,2.121c0.561,0.185,0.965,0.713,0.965,1.336
	c0,0.237-0.059,0.461-0.163,0.657c0.536-0.412,1.206-0.657,1.935-0.657c1.756,0,3.179,1.423,3.179,3.179
	c0,0.446-0.092,0.869-0.258,1.254l0.093,0.068c0.813-0.371,1.717-0.577,2.669-0.577c2.382,0,4.462,1.293,5.578,3.214
	c1.144-0.502,2.408-0.781,3.738-0.781c3.962,0,7.345,2.473,8.692,5.96c2.904,0.217,5.193,2.642,5.193,5.601
	c0,0.41-0.044,0.81-0.128,1.195c0.311-0.096,0.642-0.148,0.985-0.148c0.691,0,1.334,0.211,1.866,0.571H0.893
	c-0.013-0.133-0.02-0.269-0.02-0.405C0.873,97.356,2.688,95.541,4.927,95.541z"/>
</svg>
