<?xml version="1.0" encoding="utf-8"?>
<!-- Generator: Adobe Illustrator 17.0.0, SVG Export Plug-In . SVG Version: 6.00 Build 0)  -->
<!DOCTYPE svg PUBLIC "-//W3C//DTD SVG 1.1//EN" "http://www.w3.org/Graphics/SVG/1.1/DTD/svg11.dtd">
<svg version="1.1" id="Layer_1" xmlns="http://www.w3.org/2000/svg" xmlns:xlink="http://www.w3.org/1999/xlink" x="0px" y="0px"
	 width="200px" height="50px" viewBox="0 0 200 50" enable-background="new 0 0 200 50" xml:space="preserve">
<path fill="#343346" d="M198.928,50c-0.619-2.021-2.477-3.5-4.7-3.5c-0.115,0-0.222,0.026-0.335,0.034
	c-0.749-4.771-4.556-8.517-9.359-9.171c0.001-0.038,0.006-0.075,0.006-0.113c0-3.038-2.462-5.5-5.5-5.5
	c-1.764,0-3.33,0.833-4.336,2.124c-0.783-0.465-1.687-0.749-2.664-0.749c-0.637,0-1.24,0.131-1.805,0.338
	c-0.678-1.886-2.465-3.242-4.585-3.242c-1.467,0-2.767,0.659-3.664,1.682c-1.155-2.173-3.44-3.654-6.072-3.654
	c-0.031,0-0.061,0.004-0.092,0.005c-1.738-3.904-5.644-6.63-10.193-6.63c-2.341,0-4.511,0.724-6.305,1.955
	c-0.483-1.355-1.764-2.33-3.285-2.33c-1.742,0-3.175,1.276-3.444,2.942l-0.195-0.078c-0.442-2.199-1.916-4.019-3.893-4.947
	c-1.12-4.96-5.545-8.668-10.844-8.668c-2.81,0-5.369,1.05-7.327,2.768c-2.052-4.434-6.529-7.518-11.736-7.518
	c-5.613,0-10.377,3.581-12.168,8.578c-0.252-0.04-0.506-0.078-0.769-0.078c-2.282,0-4.183,1.574-4.714,3.692
	c-1.099-0.901-2.504-1.442-4.036-1.442c-3.058,0-5.61,2.154-6.229,5.026c-0.688-0.174-1.404-0.276-2.146-0.276
	c-2.098,0-4.023,0.74-5.531,1.972c-0.818-2.731-3.347-4.722-6.344-4.722c-1.801,0-3.432,0.721-4.626,1.887
	c-1.176-0.406-2.434-0.637-3.749-0.637c-6.1,0-11.077,4.753-11.462,10.755c-3.226,0.796-5.716,3.442-6.282,6.752
	c-0.044-0.001-0.086-0.007-0.13-0.007c-1.286,0-2.48,0.384-3.482,1.038C26.354,34.724,23.27,32,19.541,32
	c-4.142,0-7.5,3.358-7.5,7.5c0,0.218,0.014,0.432,0.033,0.644c-2.391,0.513-4.279,2.367-4.849,4.737
	C4.523,45.646,2.298,47.531,1.072,50H198.928z"/>
</svg>
