<?xml version="1.0" encoding="utf-8"?>
<!-- Generator: Adobe Illustrator 17.0.0, SVG Export Plug-In . SVG Version: 6.00 Build 0)  -->
<!DOCTYPE svg PUBLIC "-//W3C//DTD SVG 1.1//EN" "http://www.w3.org/Graphics/SVG/1.1/DTD/svg11.dtd">
<svg version="1.1" id="Layer_1" xmlns="http://www.w3.org/2000/svg" xmlns:xlink="http://www.w3.org/1999/xlink" x="0px" y="0px"
	 width="1419.073px" height="743.038px" viewBox="0 0 1419.073 743.038" enable-background="new 0 0 1419.073 743.038"
	 xml:space="preserve">
<circle fill="#242333" cx="16.125" cy="21.608" r="3"/>
<circle fill="#1D1D2B" cx="1076.572" cy="528.231" r="3"/>
<circle opacity="0.4" fill="#F6F3E2" cx="361.108" cy="302.094" r="3"/>
<circle opacity="0.4" fill="#F6F3E2" cx="1252.063" cy="182.1" r="3"/>
<circle fill="#1D1D2B" cx="1091.571" cy="90.604" r="3"/>
<circle fill="#1D1D2B" cx="968.578" cy="555.581" r="3"/>
<circle opacity="0.4" fill="#F6F3E2" cx="1226.565" cy="650.076" r="3"/>
<circle fill="#F6F3E2" cx="808.085" cy="348.592" r="3"/>
<circle fill="#242333" cx="545.599" cy="398.089" r="3"/>
<circle fill="#242333" cx="899.206" cy="378.644" r="3"/>
<circle fill="#F6F3E2" cx="317.61" cy="573.58" r="3"/>
<circle fill="#242333" cx="176.617" cy="653.076" r="3"/>
<circle fill="#1D1D2B" cx="1252.063" cy="558.581" r="3"/>
<circle fill="#242333" cx="212.615" cy="345.592" r="3"/>
<circle opacity="0.4" fill="#242333" cx="179.617" cy="167.101" r="3"/>
<circle fill="#F6F3E2" cx="482.602" cy="74.105" r="3"/>
<circle fill="#F6F3E2" cx="635.594" cy="371.519" r="3"/>
<circle fill="#F6F3E2" cx="710" cy="221.098" r="3"/>
<circle opacity="0.4" fill="#242333" cx="523.1" cy="269" r="3"/>
<circle fill="#F6F3E2" cx="529.099" cy="570.58" r="3"/>
<circle fill="#242333" cx="700.544" cy="623.078" r="3"/>
<circle fill="#1D1D2B" cx="1019.575" cy="710.073" r="3"/>
<circle fill="#242333" cx="994.076" cy="266" r="3"/>
<circle fill="#F6F3E2" cx="841.084" cy="224.098" r="3"/>
<circle fill="#F6F3E2" cx="857.583" cy="71.105" r="3"/>
<circle opacity="0.4" fill="#F6F3E2" cx="523.1" cy="653.076" r="3"/>
<circle fill="#242333" cx="347.609" cy="401.089" r="3"/>
<circle fill="#F6F3E2" cx="379.107" cy="153.414" r="3"/>
<circle opacity="0.4" fill="#F6F3E2" cx="844.084" cy="368.519" r="3"/>
<circle fill="#F6F3E2" cx="751.088" cy="450.586" r="3"/>
<circle fill="#F6F3E2" cx="1331.559" cy="306.781" r="1.687"/>
<circle fill="#F6F3E2" cx="502.101" cy="185.1" r="1.687"/>
<circle fill="#F6F3E2" cx="260.613" cy="66.418" r="1.687"/>
<circle fill="#F6F3E2" cx="258.925" cy="263" r="1.687"/>
<circle fill="#F6F3E2" cx="431.604" cy="456.586" r="1.687"/>
<circle fill="#1D1D2B" cx="391.106" cy="513.771" r="1.687"/>
<circle fill="#1D1D2B" cx="247.114" cy="497.084" r="1.687"/>
<circle fill="#242333" cx="294.924" cy="659.076" r="1.687"/>
<circle fill="#F6F3E2" cx="730.089" cy="578.268" r="1.687"/>
<circle fill="#F6F3E2" cx="1136.382" cy="456.586" r="1.687"/>
<circle fill="#F6F3E2" cx="1329.872" cy="308.469" r="1.687"/>
<circle fill="#F6F3E2" cx="973.265" cy="320.093" r="1.687"/>
<circle fill="#242333" cx="900.893" cy="155.101" r="1.687"/>
<circle fill="#F6F3E2" cx="638.594" cy="77.105" r="1.687"/>
<circle opacity="0.4" fill="#F6F3E2" cx="401.606" cy="132.415" r="1.687"/>
<circle fill="#F6F3E2" cx="157.118" cy="87.605" r="1.687"/>
<circle fill="#1D1D2B" cx="1195.066" cy="323.468" r="1.687"/>
<circle opacity="0.4" fill="#F6F3E2" cx="70.122" cy="647.077" r="1.687"/>
<circle fill="#F6F3E2" cx="665.593" cy="696.762" r="1.687"/>
<circle fill="#F6F3E2" cx="1134.694" cy="698.449" r="1.687"/>
<circle fill="#242333" cx="1366.245" cy="660.763" r="1.687"/>
<circle fill="#242333" cx="1333.247" cy="78.793" r="1.687"/>
<circle fill="#F6F3E2" cx="1151.568" cy="645.389" r="4.851"/>
<circle fill="#F6F3E2" cx="1151.568" cy="408.94" r="4.851"/>
<circle fill="#F6F3E2" cx="294.924" cy="167.101" r="4.851"/>
<circle fill="#F6F3E2" cx="1281.149" cy="408.94" r="4.851"/>
<circle fill="#F6F3E2" cx="974.952" cy="623.078" r="4.851"/>
<circle fill="#F6F3E2" cx="403.293" cy="662.451" r="4.851"/>
<circle fill="#F6F3E2" cx="111.149" cy="533.082" r="4.851"/>
<circle fill="#242333" cx="1094.571" cy="200" r="4.851"/>
<circle fill="#242333" cx="705.395" cy="38" r="4.851"/>
</svg>
